<?xml version="1.0" encoding="utf-8"?>
<svg xmlns="http://www.w3.org/2000/svg"
	xmlns:xlink="http://www.w3.org/1999/xlink"
	width="35px" height="35px">
<path fill="rgb(193,231,47)" fill-rule="evenodd" d="M 17.5 35C 7.84 35 0 27.17 0 17.5 0 7.84 7.84 0 17.5 0 27.17 0 35 7.84 35 17.5 35 27.17 27.17 35 17.5 35ZM 17.5 1C 8.39 1 1 8.39 1 17.5 1 26.61 8.39 34 17.5 34 26.61 34 34 26.61 34 17.5 34 8.39 26.61 1 17.5 1ZM 17.5 21.87C 15.08 21.87 13.13 19.92 13.13 17.5 13.13 15.08 15.08 13.12 17.5 13.12 19.92 13.12 21.87 15.08 21.87 17.5 21.87 19.92 19.92 21.87 17.5 21.87Z"/>
</svg>