<?xml version="1.0" encoding="utf-8"?>
<svg xmlns="http://www.w3.org/2000/svg"
	xmlns:xlink="http://www.w3.org/1999/xlink"
	width="35px" height="35px">
<path fill="rgb(193,231,47)" fill-rule="evenodd" d="M 17.5 35C 7.83 35-0 27.17-0 17.5-0 7.84 7.83 0 17.5 0 27.16 0 35 7.84 35 17.5 35 27.17 27.16 35 17.5 35ZM 17.5 1C 8.39 1 1 8.39 1 17.5 1 26.61 8.39 34 17.5 34 26.61 34 34 26.61 34 17.5 34 8.39 26.61 1 17.5 1ZM 17.5 26.25C 12.67 26.25 8.75 22.33 8.75 17.5 8.75 12.67 12.67 8.75 17.5 8.75 22.33 8.75 26.25 12.67 26.25 17.5 26.25 22.33 22.33 26.25 17.5 26.25Z"/>
</svg>