<?xml version="1.0" encoding="utf-8"?>
<svg xmlns="http://www.w3.org/2000/svg"
	xmlns:xlink="http://www.w3.org/1999/xlink"
	width="35px" height="35px">
<path fill="rgb(193,231,47)" fill-rule="evenodd" d="M 17.5 35C 7.84 35 0 27.17 0 17.5 0 7.84 7.84 0 17.5 0 27.17 0 35 7.84 35 17.5 35 27.17 27.17 35 17.5 35ZM 17.5 1C 8.39 1 1 8.39 1 17.5 1 26.61 8.39 34 17.5 34 26.61 34 34 26.61 34 17.5 34 8.39 26.61 1 17.5 1ZM 17.5 30.62C 10.25 30.62 4.38 24.75 4.38 17.5 4.38 10.25 10.25 4.37 17.5 4.37 24.75 4.37 30.63 10.25 30.63 17.5 30.63 24.75 24.75 30.62 17.5 30.62Z"/>
</svg>