<?xml version="1.0" encoding="utf-8"?>
<svg xmlns="http://www.w3.org/2000/svg"
	xmlns:xlink="http://www.w3.org/1999/xlink"
	width="16px" height="15px">
<path fill="rgb(255,79,79)" fill-rule="evenodd" d="M 14.71 1.35C 12.99-0.46 10.21-0.46 8.49 1.35 8.49 1.35 8.49 1.35 8.49 1.35 8.49 1.35 8.49 1.35 8.49 1.35 8.49 1.35 8 1.87 8 1.87 8 1.87 7.5 1.35 7.5 1.35 7.5 1.35 7.5 1.35 7.5 1.35 7.5 1.35 7.5 1.35 7.5 1.35 5.79-0.46 3-0.46 1.29 1.35-0.43 3.16-0.43 6.1 1.29 7.92 1.29 7.92 1.29 7.92 1.29 7.92 1.29 7.92 7.5 14.48 7.5 14.48 7.5 14.48 7.5 14.48 7.5 14.48 7.5 14.48 8 15.01 8 15.01 8 15.01 8.49 14.48 8.49 14.48 8.49 14.48 14.21 8.44 14.21 8.44 14.21 8.44 14.71 7.92 14.71 7.92 16.43 6.1 16.43 3.16 14.71 1.35Z"/>
</svg>