<svg xmlns="http://www.w3.org/2000/svg" xmlns:xlink="http://www.w3.org/1999/xlink" preserveAspectRatio="xMidYMid" width="166" height="24" viewBox="0 0 166 24">
  <defs>
    <style>

      .cls-2 {
        fill: #f9f9f9;
      }
    </style>
  </defs>
  <path d="M165.501,18.251 C165.501,18.251 161.892,18.251 161.892,18.251 C161.616,18.251 161.393,18.028 161.393,17.754 C161.393,17.754 161.393,0.503 161.393,0.503 C161.393,0.228 161.616,0.006 161.892,0.006 C161.892,0.006 165.501,0.006 165.501,0.006 C165.776,0.006 166.000,0.228 166.000,0.503 C166.000,0.503 166.000,17.754 166.000,17.754 C166.000,18.028 165.776,18.251 165.501,18.251 ZM157.062,18.251 C156.873,18.251 156.701,18.144 156.616,17.976 C156.616,17.976 155.870,16.492 155.870,16.492 C155.870,16.492 155.776,16.492 155.776,16.492 C155.155,17.258 154.523,17.782 153.879,18.063 C153.235,18.344 152.402,18.485 151.381,18.485 C150.124,18.485 149.134,18.110 148.411,17.360 C147.689,16.609 147.327,15.554 147.327,14.193 C147.327,12.779 147.822,11.726 148.812,11.034 C149.802,10.342 151.236,9.953 153.113,9.867 C153.113,9.867 155.340,9.797 155.340,9.797 C155.340,9.797 155.340,9.609 155.340,9.609 C155.340,8.515 154.798,7.968 153.714,7.968 C152.840,7.968 151.756,8.231 150.460,8.759 C150.208,8.861 149.915,8.754 149.806,8.506 C149.806,8.506 148.867,6.374 148.867,6.374 C148.758,6.126 148.861,5.828 149.110,5.718 C150.590,5.060 152.408,4.731 154.562,4.731 C156.275,4.731 157.600,5.154 158.539,5.998 C159.478,6.842 159.947,8.023 159.947,9.539 C159.947,9.539 159.947,17.754 159.947,17.754 C159.947,18.028 159.724,18.251 159.448,18.251 C159.448,18.251 157.062,18.251 157.062,18.251 ZM155.363,12.317 C155.363,12.317 154.303,12.364 154.303,12.364 C152.787,12.419 152.029,12.974 152.029,14.029 C152.029,14.842 152.465,15.249 153.337,15.249 C153.894,15.249 154.372,15.073 154.768,14.721 C155.165,14.370 155.363,13.912 155.363,13.350 C155.363,13.350 155.363,12.317 155.363,12.317 ZM145.146,18.315 C144.585,18.428 143.927,18.485 143.173,18.485 C141.625,18.485 140.510,18.108 139.826,17.354 C139.143,16.599 138.801,15.440 138.801,13.877 C138.801,13.877 138.801,8.401 138.801,8.401 C138.801,8.401 137.686,8.401 137.686,8.401 C137.410,8.401 137.187,8.179 137.187,7.905 C137.187,7.905 137.187,6.794 137.187,6.794 C137.187,6.633 137.265,6.482 137.398,6.388 C137.398,6.388 139.237,5.095 139.237,5.095 C139.237,5.095 140.298,2.607 140.298,2.607 C140.376,2.423 140.557,2.304 140.758,2.304 C140.758,2.304 142.945,2.304 142.945,2.304 C143.220,2.304 143.444,2.527 143.444,2.801 C143.444,2.801 143.444,4.966 143.444,4.966 C143.444,4.966 146.221,4.966 146.221,4.966 C146.496,4.966 146.720,5.188 146.720,5.463 C146.720,5.463 146.720,7.905 146.720,7.905 C146.720,8.179 146.496,8.401 146.221,8.401 C146.221,8.401 143.444,8.401 143.444,8.401 C143.444,8.401 143.444,13.572 143.444,13.572 C143.444,14.432 143.860,14.862 144.693,14.862 C145.158,14.862 145.692,14.776 146.295,14.605 C146.610,14.515 146.920,14.766 146.920,15.092 C146.920,15.092 146.920,17.409 146.920,17.409 C146.920,17.612 146.793,17.802 146.602,17.877 C146.097,18.075 145.612,18.222 145.146,18.315 ZM135.621,9.111 C135.320,9.076 134.964,9.058 134.553,9.058 C133.548,9.058 132.817,9.286 132.361,9.744 C131.906,10.201 131.678,10.860 131.678,11.720 C131.678,11.720 131.678,17.754 131.678,17.754 C131.678,18.028 131.455,18.251 131.179,18.251 C131.179,18.251 127.570,18.251 127.570,18.251 C127.294,18.251 127.071,18.028 127.071,17.754 C127.071,17.754 127.071,5.463 127.071,5.463 C127.071,5.188 127.294,4.966 127.570,4.966 C127.570,4.966 130.141,4.966 130.141,4.966 C130.356,4.966 130.546,5.102 130.614,5.304 C130.614,5.304 131.218,7.088 131.218,7.088 C131.218,7.088 131.443,7.088 131.443,7.088 C131.827,6.385 132.363,5.816 133.051,5.382 C133.738,4.948 134.431,4.731 135.130,4.731 C135.374,4.731 135.719,4.792 136.048,4.814 C136.374,4.836 136.503,5.187 136.492,5.296 C136.482,5.405 136.171,8.667 136.171,8.667 C136.144,8.946 135.899,9.144 135.621,9.111 ZM119.439,18.485 C117.412,18.485 115.800,17.864 114.602,16.621 C113.404,15.378 112.805,13.697 112.805,11.579 C112.805,9.414 113.393,7.731 114.567,6.531 C115.741,5.331 117.389,4.731 119.510,4.731 C120.822,4.731 121.980,5.009 122.986,5.564 C123.991,6.119 124.767,6.914 125.313,7.950 C125.859,8.986 126.132,10.195 126.132,11.579 C126.132,13.752 125.545,15.446 124.371,16.662 C123.196,17.878 121.552,18.485 119.439,18.485 ZM120.995,9.011 C120.696,8.433 120.185,8.143 119.463,8.143 C118.756,8.143 118.249,8.430 117.943,9.005 C117.637,9.580 117.483,10.438 117.483,11.579 C117.483,12.720 117.637,13.590 117.943,14.188 C118.249,14.786 118.763,15.085 119.486,15.085 C120.201,15.085 120.706,14.786 121.001,14.188 C121.295,13.590 121.442,12.720 121.442,11.579 C121.442,10.446 121.293,9.590 120.995,9.011 ZM107.567,18.485 C106.890,18.485 106.286,18.374 105.752,18.151 C105.217,17.928 104.687,17.527 104.161,16.949 C104.161,16.949 103.949,16.949 103.949,16.949 C104.090,17.880 104.161,18.458 104.161,18.684 C104.161,18.684 104.161,23.523 104.161,23.523 C104.161,23.797 103.938,24.020 103.662,24.020 C103.662,24.020 100.053,24.020 100.053,24.020 C99.777,24.020 99.554,23.797 99.554,23.523 C99.554,23.523 99.554,5.463 99.554,5.463 C99.554,5.188 99.777,4.966 100.053,4.966 C100.053,4.966 102.957,4.966 102.957,4.966 C103.164,4.966 103.349,5.093 103.423,5.285 C103.423,5.285 103.949,6.654 103.949,6.654 C103.949,6.654 104.161,6.654 104.161,6.654 C105.015,5.375 106.195,4.733 107.700,4.731 C108.845,4.729 109.988,5.170 110.754,6.017 C111.881,7.263 112.445,9.117 112.445,11.579 C112.445,13.721 112.006,15.407 111.131,16.638 C110.255,17.869 109.067,18.485 107.567,18.485 ZM107.354,9.075 C107.087,8.579 106.643,8.331 106.023,8.331 C105.347,8.331 104.874,8.572 104.603,9.052 C104.332,9.533 104.184,10.246 104.161,11.192 C104.161,11.192 104.161,11.555 104.161,11.555 C104.161,12.697 104.314,13.522 104.621,14.029 C104.927,14.538 105.410,14.791 106.070,14.791 C106.659,14.791 107.087,14.540 107.354,14.035 C107.621,13.531 107.755,12.697 107.755,11.532 C107.755,10.391 107.621,9.572 107.354,9.075 ZM94.001,18.251 C93.725,18.251 93.502,18.028 93.502,17.754 C93.502,17.754 93.502,11.004 93.502,11.004 C93.502,10.121 93.374,9.455 93.119,9.005 C92.863,8.556 92.453,8.331 91.887,8.331 C91.110,8.331 90.548,8.640 90.202,9.257 C89.856,9.875 89.684,10.934 89.684,12.435 C89.684,12.435 89.684,17.754 89.684,17.754 C89.684,18.028 89.460,18.251 89.185,18.251 C89.185,18.251 85.576,18.251 85.576,18.251 C85.300,18.251 85.077,18.028 85.077,17.754 C85.077,17.754 85.077,5.463 85.077,5.463 C85.077,5.188 85.300,4.966 85.576,4.966 C85.576,4.966 88.199,4.966 88.199,4.966 C88.411,4.966 88.600,5.099 88.670,5.298 C88.670,5.298 89.130,6.607 89.130,6.607 C89.130,6.607 89.401,6.607 89.401,6.607 C89.794,5.982 90.338,5.513 91.033,5.200 C91.728,4.888 92.527,4.731 93.431,4.731 C94.908,4.731 96.057,5.158 96.878,6.009 C97.698,6.861 98.109,8.061 98.109,9.609 C98.109,9.609 98.109,17.754 98.109,17.754 C98.109,18.028 97.885,18.251 97.610,18.251 C97.610,18.251 94.001,18.251 94.001,18.251 ZM77.445,18.485 C75.418,18.485 73.806,17.864 72.608,16.621 C71.410,15.378 70.811,13.697 70.811,11.579 C70.811,9.414 71.399,7.731 72.573,6.531 C73.747,5.331 75.395,4.731 77.516,4.731 C78.828,4.731 79.986,5.009 80.992,5.564 C81.997,6.119 82.773,6.914 83.319,7.950 C83.865,8.986 84.138,10.195 84.138,11.579 C84.138,13.752 83.551,15.446 82.377,16.662 C81.202,17.878 79.558,18.485 77.445,18.485 ZM79.001,9.011 C78.702,8.433 78.191,8.143 77.469,8.143 C76.761,8.143 76.255,8.430 75.949,9.005 C75.642,9.580 75.489,10.438 75.489,11.579 C75.489,12.720 75.642,13.590 75.949,14.188 C76.255,14.786 76.769,15.085 77.492,15.085 C78.207,15.085 78.712,14.786 79.007,14.188 C79.301,13.590 79.448,12.720 79.448,11.579 C79.448,10.446 79.299,9.590 79.001,9.011 ZM68.971,18.315 C68.410,18.428 67.752,18.485 66.998,18.485 C65.450,18.485 64.335,18.108 63.651,17.354 C62.968,16.599 62.626,15.440 62.626,13.877 C62.626,13.877 62.626,8.401 62.626,8.401 C62.626,8.401 61.511,8.401 61.511,8.401 C61.235,8.401 61.012,8.179 61.012,7.905 C61.012,7.905 61.012,6.794 61.012,6.794 C61.012,6.633 61.090,6.482 61.223,6.388 C61.223,6.388 63.062,5.095 63.062,5.095 C63.062,5.095 64.123,2.607 64.123,2.607 C64.201,2.423 64.382,2.304 64.582,2.304 C64.582,2.304 66.770,2.304 66.770,2.304 C67.045,2.304 67.269,2.527 67.269,2.801 C67.269,2.801 67.269,4.966 67.269,4.966 C67.269,4.966 70.045,4.966 70.045,4.966 C70.321,4.966 70.545,5.188 70.545,5.463 C70.545,5.463 70.545,7.905 70.545,7.905 C70.545,8.179 70.321,8.401 70.045,8.401 C70.045,8.401 67.269,8.401 67.269,8.401 C67.269,8.401 67.269,13.572 67.269,13.572 C67.269,14.432 67.685,14.862 68.518,14.862 C68.983,14.862 69.517,14.776 70.120,14.605 C70.434,14.515 70.745,14.766 70.745,15.092 C70.745,15.092 70.745,17.409 70.745,17.409 C70.745,17.612 70.617,17.802 70.427,17.877 C69.921,18.075 69.437,18.222 68.971,18.315 ZM57.151,10.617 C57.151,10.617 61.583,17.486 61.583,17.486 C61.796,17.816 61.557,18.251 61.163,18.251 C61.163,18.251 57.089,18.251 57.089,18.251 C56.915,18.251 56.754,18.161 56.663,18.013 C56.663,18.013 53.887,13.490 53.887,13.490 C53.887,13.490 52.390,14.628 52.390,14.628 C52.390,14.628 52.390,17.754 52.390,17.754 C52.390,18.028 52.167,18.251 51.891,18.251 C51.891,18.251 48.259,18.251 48.259,18.251 C47.983,18.251 47.760,18.028 47.760,17.754 C47.760,17.754 47.760,0.503 47.760,0.503 C47.760,0.228 47.983,0.006 48.259,0.006 C48.259,0.006 51.891,0.006 51.891,0.006 C52.167,0.006 52.390,0.228 52.390,0.503 C52.390,0.503 52.390,7.182 52.390,7.182 C52.390,8.409 52.304,9.609 52.132,10.782 C52.132,10.782 52.226,10.782 52.226,10.782 C52.783,9.899 53.258,9.210 53.651,8.718 C53.651,8.718 56.495,5.154 56.495,5.154 C56.589,5.035 56.733,4.966 56.886,4.966 C56.886,4.966 60.731,4.966 60.731,4.966 C61.152,4.966 61.384,5.452 61.118,5.776 C61.118,5.776 57.151,10.617 57.151,10.617 ZM42.207,18.251 C41.931,18.251 41.708,18.028 41.708,17.754 C41.708,17.754 41.708,11.004 41.708,11.004 C41.708,10.121 41.580,9.455 41.325,9.005 C41.069,8.556 40.659,8.331 40.093,8.331 C39.315,8.331 38.754,8.640 38.408,9.257 C38.062,9.875 37.890,10.934 37.890,12.435 C37.890,12.435 37.890,17.754 37.890,17.754 C37.890,18.028 37.666,18.251 37.391,18.251 C37.391,18.251 33.782,18.251 33.782,18.251 C33.506,18.251 33.283,18.028 33.283,17.754 C33.283,17.754 33.283,5.463 33.283,5.463 C33.283,5.188 33.506,4.966 33.782,4.966 C33.782,4.966 36.404,4.966 36.404,4.966 C36.616,4.966 36.805,5.099 36.875,5.298 C36.875,5.298 37.336,6.607 37.336,6.607 C37.336,6.607 37.607,6.607 37.607,6.607 C38.000,5.982 38.544,5.513 39.239,5.200 C39.934,4.888 40.733,4.731 41.637,4.731 C43.113,4.731 44.263,5.158 45.084,6.009 C45.904,6.861 46.315,8.061 46.315,9.609 C46.315,9.609 46.315,17.754 46.315,17.754 C46.315,18.028 46.091,18.251 45.816,18.251 C45.816,18.251 42.207,18.251 42.207,18.251 ZM28.953,18.251 C28.764,18.251 28.591,18.144 28.507,17.976 C28.507,17.976 27.761,16.492 27.761,16.492 C27.761,16.492 27.666,16.492 27.666,16.492 C27.046,17.258 26.414,17.782 25.769,18.063 C25.125,18.344 24.292,18.485 23.271,18.485 C22.014,18.485 21.025,18.110 20.302,17.360 C19.579,16.609 19.218,15.554 19.218,14.193 C19.218,12.779 19.713,11.726 20.703,11.034 C21.692,10.342 23.126,9.953 25.003,9.867 C25.003,9.867 27.230,9.797 27.230,9.797 C27.230,9.797 27.230,9.609 27.230,9.609 C27.230,8.515 26.688,7.968 25.604,7.968 C24.731,7.968 23.646,8.231 22.350,8.759 C22.099,8.861 21.805,8.754 21.696,8.506 C21.696,8.506 20.758,6.374 20.758,6.374 C20.649,6.126 20.752,5.828 21.000,5.718 C22.481,5.060 24.298,4.731 26.453,4.731 C28.165,4.731 29.491,5.154 30.429,5.998 C31.368,6.842 31.837,8.023 31.837,9.539 C31.837,9.539 31.837,17.754 31.837,17.754 C31.837,18.028 31.614,18.251 31.338,18.251 C31.338,18.251 28.953,18.251 28.953,18.251 ZM27.254,12.317 C27.254,12.317 26.194,12.364 26.194,12.364 C24.677,12.419 23.919,12.974 23.919,14.029 C23.919,14.842 24.355,15.249 25.227,15.249 C25.785,15.249 26.262,15.073 26.659,14.721 C27.056,14.370 27.254,13.912 27.254,13.350 C27.254,13.350 27.254,12.317 27.254,12.317 ZM14.325,18.251 C14.049,18.251 13.826,18.028 13.826,17.754 C13.826,17.754 13.826,0.503 13.826,0.503 C13.826,0.228 14.049,0.006 14.325,0.006 C14.325,0.006 17.934,0.006 17.934,0.006 C18.209,0.006 18.433,0.228 18.433,0.503 C18.433,0.503 18.433,17.754 18.433,17.754 C18.433,18.028 18.209,18.251 17.934,18.251 C17.934,18.251 14.325,18.251 14.325,18.251 ZM8.009,18.485 C7.333,18.485 6.728,18.374 6.194,18.151 C5.659,17.928 5.130,17.527 4.603,16.949 C4.603,16.949 4.391,16.949 4.391,16.949 C4.533,17.880 4.603,18.458 4.603,18.684 C4.603,18.684 4.603,23.523 4.603,23.523 C4.603,23.797 4.380,24.020 4.104,24.020 C4.104,24.020 0.495,24.020 0.495,24.020 C0.220,24.020 -0.004,23.797 -0.004,23.523 C-0.004,23.523 -0.004,5.463 -0.004,5.463 C-0.004,5.188 0.220,4.966 0.495,4.966 C0.495,4.966 3.399,4.966 3.399,4.966 C3.606,4.966 3.792,5.093 3.866,5.285 C3.866,5.285 4.391,6.654 4.391,6.654 C4.391,6.654 4.603,6.654 4.603,6.654 C5.458,5.375 6.637,4.733 8.142,4.731 C9.287,4.729 10.430,5.170 11.196,6.017 C12.324,7.263 12.887,9.117 12.887,11.579 C12.887,13.721 12.449,15.407 11.573,16.638 C10.697,17.869 9.509,18.485 8.009,18.485 ZM7.796,9.075 C7.529,8.579 7.086,8.331 6.465,8.331 C5.789,8.331 5.316,8.572 5.045,9.052 C4.774,9.533 4.627,10.246 4.603,11.192 C4.603,11.192 4.603,11.555 4.603,11.555 C4.603,12.697 4.756,13.522 5.063,14.029 C5.369,14.538 5.852,14.791 6.512,14.791 C7.101,14.791 7.529,14.540 7.796,14.035 C8.063,13.531 8.197,12.697 8.197,11.532 C8.197,10.391 8.063,9.572 7.796,9.075 Z" id="path-1" class="cls-2" fill-rule="evenodd"/>
</svg>
