<?xml version="1.0" encoding="utf-8"?>
<!-- Generator: Adobe Illustrator 15.1.0, SVG Export Plug-In . SVG Version: 6.00 Build 0)  -->
<!DOCTYPE svg PUBLIC "-//W3C//DTD SVG 1.1//EN" "http://www.w3.org/Graphics/SVG/1.1/DTD/svg11.dtd">
<svg version="1.1" id="Layer_1" xmlns="http://www.w3.org/2000/svg" xmlns:xlink="http://www.w3.org/1999/xlink" x="0px" y="0px"
	 width="100px" height="100px" viewBox="0 0 100 100" enable-background="new 0 0 100 100" xml:space="preserve">
<path d="M87.197,44.691c-3.856-9.366-11.912-15.66-20.047-15.66c-1.337,0-2.651,0.18-3.912,0.527
	c-0.5-0.114-0.992-0.206-1.464-0.268c-0.707-0.344-1.438-0.612-2.187-0.816c0.514-0.187,1.015-0.395,1.495-0.629
	c3.161-1.539,5.652-3.981,7.015-6.878c1.379-2.934,1.44-5.982,0.172-8.585c-0.49-1.008-1.18-1.914-2.042-2.699
	c-0.417-1.163-1.059-2.105-1.92-2.792c-1.272-1.013-2.941-1.444-4.873-1.273c-0.895-1.902-2.132-3.049-3.602-3.305
	c-1.33-0.232-2.749,0.308-4.111,1.525c-1.396-1.607-2.847-2.354-4.199-2.106c-1.187,0.218-2.186,1.172-2.917,2.771
	c-1.358-1.108-3.115-2.243-4.618-2.243c-0.481,0-0.912,0.116-1.28,0.344c-1.014,0.631-1.433,2.048-1.24,4.12
	c-1.723-1.015-3.765-2.014-5.141-2.014c-0.563,0-0.996,0.164-1.289,0.488c-0.768,0.856-0.289,2.569,1.387,5.078
	C30.058,9.202,27.05,8,25.425,8c-0.625,0-1.052,0.183-1.271,0.546c-1.105,1.855,5.479,6.692,10.047,9.741
	c-5.39-1.984-14.767-5.402-15.392-5.402l-0.629,0.294L18.419,14c1.192,0.968,5.436,2.2,17.7,6.728
	c-0.206-0.048-0.41-0.101-0.616-0.149c-8.651-2.015-16.513-3.316-20.029-3.316c-1.089,0-2.119,0.096-2.283,0.798
	c-0.109,0.478-0.281,1.33,6.471,3.569c-4.388,0.325-9.582,1.198-9.777,3.508c-0.064,0.777,0.469,1.542,1.574,2.278
	c-0.943,0.709-1.681,1.438-2.199,2.176c-0.114,0.265-0.266,0.515-0.438,0.732c-0.376,0.747-0.542,1.497-0.463,2.239
	c0.075,0.704,0.372,1.375,0.857,2.006c-1.409,2.581-1.797,5.174-1.101,7.436c0.44,1.428,1.305,2.773,2.541,3.879
	c-1.267,4.354-0.892,8.293,1.125,11.408c1.077,1.662,2.617,3.008,4.561,4.019c0.64,2.269,1.731,4.19,3.264,5.698
	c1.476,1.451,3.298,2.489,5.405,3.103c1.117,1.898,2.545,3.4,4.259,4.449c1.766,1.081,3.774,1.679,5.964,1.799
	c1.505,1.595,3.258,2.742,5.221,3.392c1.238,0.41,2.54,0.618,3.869,0.618h0c0.79,0,1.599-0.082,2.408-0.227
	c1.845,1.227,3.831,1.952,5.911,2.138c0.356,0.032,0.712,0.048,1.066,0.048c0.822,0,1.655-0.091,2.479-0.26
	c1.191,0.277,2.39,0.424,3.563,0.424c3.69,0,7.296-1.317,10.44-3.802l0.069-0.018c0.087-0.02,0.175-0.04,0.263-0.063
	c3.15-0.856,5.994-2.704,8.236-5.342c0.168-0.061,0.336-0.12,0.502-0.189C88.513,69.27,92.073,56.535,87.197,44.691z M66.221,16.534
	c0.025-0.092,0.049-0.183,0.072-0.275c0.12-0.481,0.218-0.957,0.29-1.425c0.012-0.077,0.02-0.151,0.03-0.227
	c0.065-0.475,0.111-0.944,0.125-1.401c0-0.014,0.002-0.029,0.003-0.043c0.012-0.459-0.011-0.904-0.052-1.34
	c-0.005-0.048-0.001-0.1-0.006-0.148c0.263,0.363,0.492,0.746,0.688,1.146c1.133,2.325,1.069,5.067-0.179,7.722
	c-1.266,2.69-3.591,4.965-6.547,6.405c-0.389,0.189-0.789,0.362-1.201,0.519c0.073-0.068,0.14-0.144,0.212-0.213
	c0.289-0.278,0.571-0.563,0.848-0.855c0.113-0.12,0.228-0.237,0.338-0.359c0.367-0.404,0.726-0.817,1.067-1.246
	c0.392-0.491,0.754-0.991,1.101-1.495c0.057-0.083,0.115-0.164,0.17-0.246c0.325-0.484,0.628-0.972,0.91-1.463
	c0.054-0.093,0.105-0.186,0.157-0.278c0.279-0.5,0.541-1.001,0.775-1.503c0.024-0.051,0.045-0.103,0.068-0.154
	c0.225-0.491,0.427-0.981,0.606-1.469c0.021-0.057,0.045-0.114,0.065-0.17C65.94,17.517,66.091,17.023,66.221,16.534z M63.685,7.674
	c0.741,0.591,1.295,1.417,1.647,2.457c1.246,3.679-0.443,9.32-4.204,14.039c-0.415,0.521-0.856,1.017-1.31,1.499
	c-0.082,0.087-0.163,0.175-0.245,0.261c-0.444,0.458-0.905,0.897-1.381,1.315c-0.035,0.031-0.071,0.06-0.107,0.091
	c-0.018-0.059-0.037-0.12-0.058-0.183c0.146-0.315,0.275-0.654,0.412-0.982c0.104-0.253,0.218-0.496,0.316-0.756
	c0.134-0.352,0.251-0.721,0.374-1.084c0.096-0.284,0.2-0.559,0.289-0.849c0.116-0.377,0.213-0.769,0.315-1.155
	c0.078-0.29,0.165-0.574,0.235-0.869c0.163-0.685,0.308-1.381,0.43-2.083c0.108-0.622,0.197-1.242,0.271-1.858
	c0.025-0.215,0.039-0.425,0.061-0.638c0.04-0.399,0.081-0.798,0.106-1.192c0.016-0.249,0.02-0.49,0.03-0.736
	c0.015-0.352,0.03-0.704,0.033-1.049c0.002-0.255-0.007-0.501-0.011-0.752c-0.006-0.327-0.011-0.653-0.027-0.972
	c-0.014-0.25-0.035-0.492-0.055-0.736c-0.025-0.306-0.051-0.61-0.085-0.906c-0.028-0.24-0.064-0.472-0.1-0.705
	c-0.043-0.285-0.088-0.566-0.141-0.84c-0.044-0.226-0.094-0.443-0.145-0.661c-0.061-0.262-0.125-0.519-0.195-0.768
	c-0.06-0.208-0.122-0.409-0.188-0.608c-0.039-0.119-0.07-0.25-0.112-0.365C61.398,6.51,62.686,6.878,63.685,7.674z M55.662,3.299
	c1.523,0.266,2.478,1.802,3.01,3.044C60,9.439,60.278,14.246,59.415,19.2c-0.109,0.629-0.241,1.25-0.385,1.864
	c-0.045,0.193-0.096,0.382-0.145,0.573c-0.107,0.425-0.221,0.846-0.344,1.261c-0.061,0.206-0.123,0.411-0.188,0.614
	c-0.133,0.415-0.274,0.821-0.421,1.221c-0.062,0.169-0.121,0.341-0.186,0.507c-0.021,0.052-0.044,0.1-0.064,0.151
	c-0.032-0.132-0.064-0.266-0.101-0.401c0.019-0.377,0.015-0.772,0.019-1.161c0.003-0.266,0.017-0.522,0.013-0.792
	c-0.007-0.463-0.035-0.938-0.061-1.412c-0.013-0.222-0.014-0.439-0.03-0.664c-0.04-0.567-0.104-1.143-0.171-1.719
	c-0.016-0.138-0.023-0.272-0.041-0.41c-0.092-0.717-0.203-1.438-0.334-2.158c-0.115-0.628-0.243-1.248-0.383-1.855
	c-0.049-0.216-0.107-0.423-0.159-0.636c-0.096-0.387-0.189-0.775-0.294-1.151c-0.068-0.249-0.146-0.485-0.219-0.728
	c-0.099-0.329-0.194-0.66-0.3-0.978c-0.084-0.254-0.176-0.495-0.264-0.742c-0.104-0.292-0.206-0.588-0.316-0.871
	c-0.097-0.248-0.199-0.482-0.3-0.722c-0.11-0.265-0.221-0.531-0.336-0.785c-0.106-0.234-0.219-0.455-0.329-0.68
	c-0.119-0.24-0.236-0.481-0.358-0.71c-0.115-0.216-0.235-0.417-0.354-0.622c-0.126-0.217-0.251-0.433-0.381-0.637
	c-0.122-0.193-0.247-0.372-0.372-0.553c-0.09-0.129-0.175-0.271-0.266-0.394C53.488,3.579,54.621,3.118,55.662,3.299z M47.701,2.716
	c1.087-0.203,2.326,0.561,3.585,2.153c2.052,2.594,3.811,7.075,4.707,11.986c0.145,0.789,0.258,1.579,0.353,2.363
	c0.029,0.247,0.049,0.491,0.073,0.737c0.055,0.537,0.101,1.07,0.131,1.598c0.007,0.114,0.01,0.226,0.015,0.339
	c-0.031-0.081-0.07-0.165-0.103-0.246c-0.171-0.432-0.353-0.868-0.547-1.31c-0.062-0.143-0.121-0.284-0.187-0.428
	c-0.253-0.56-0.521-1.125-0.809-1.695c-0.067-0.135-0.141-0.27-0.21-0.405c-0.237-0.46-0.483-0.921-0.74-1.384
	c-0.095-0.17-0.188-0.339-0.285-0.51c-0.334-0.585-0.677-1.17-1.039-1.753c-0.286-0.46-0.578-0.913-0.874-1.358
	c-0.107-0.163-0.219-0.319-0.328-0.479c-0.189-0.279-0.379-0.559-0.571-0.831c-0.124-0.174-0.25-0.341-0.375-0.512
	c-0.182-0.25-0.363-0.501-0.546-0.743c-0.13-0.171-0.261-0.334-0.392-0.502c-0.18-0.23-0.36-0.463-0.541-0.687
	c-0.135-0.167-0.271-0.324-0.406-0.486c-0.179-0.213-0.357-0.428-0.536-0.634c-0.137-0.157-0.274-0.306-0.412-0.458
	c-0.178-0.197-0.355-0.396-0.532-0.583c-0.139-0.147-0.276-0.285-0.414-0.426c-0.176-0.18-0.352-0.361-0.528-0.532
	c-0.138-0.135-0.276-0.261-0.414-0.39c-0.126-0.118-0.253-0.244-0.379-0.357C45.845,4.106,46.582,2.921,47.701,2.716z M39.236,3.453
	c0.978-0.609,2.943,0.245,5.24,2.247c2.436,2.123,5.036,5.315,7.32,8.987c0.265,0.425,0.52,0.852,0.769,1.279
	c0.083,0.142,0.161,0.283,0.242,0.425c0.163,0.286,0.324,0.572,0.479,0.857c0.091,0.165,0.177,0.33,0.265,0.495
	c0.14,0.264,0.277,0.527,0.41,0.789c0.085,0.168,0.169,0.336,0.251,0.503c0.129,0.262,0.254,0.523,0.375,0.783
	c0.075,0.16,0.149,0.319,0.222,0.478c0.127,0.28,0.246,0.557,0.363,0.833c0.058,0.134,0.117,0.269,0.172,0.402
	c0.156,0.379,0.304,0.754,0.441,1.124c0.01,0.027-0.071,0.054-0.062,0.081c0.133,0.36,0.274,0.713,0.275,1.063
	c-0.003-0.312-0.363-0.635-0.612-0.962c-0.064-0.088-0.089-0.177-0.157-0.266c-0.199-0.259-0.384-0.521-0.601-0.789
	c-0.072-0.089-0.131-0.177-0.204-0.268c-0.283-0.344-0.571-0.693-0.88-1.048c-0.048-0.056-0.097-0.113-0.146-0.169
	c-0.267-0.305-0.54-0.613-0.824-0.924c-0.1-0.109-0.199-0.217-0.301-0.327c-0.277-0.299-0.561-0.601-0.853-0.904
	c-0.072-0.075-0.142-0.149-0.214-0.225c-0.359-0.371-0.729-0.743-1.108-1.118c-0.101-0.099-0.204-0.198-0.305-0.298
	c-0.296-0.29-0.598-0.581-0.905-0.872c-0.119-0.113-0.237-0.225-0.358-0.338c-0.406-0.38-0.818-0.761-1.24-1.141
	c-0.376-0.339-0.755-0.673-1.135-1.002c-0.098-0.084-0.195-0.166-0.292-0.25c-0.282-0.242-0.563-0.483-0.846-0.719
	c-0.13-0.108-0.259-0.212-0.389-0.319c-0.25-0.206-0.499-0.412-0.748-0.612c-0.145-0.116-0.288-0.227-0.432-0.341
	c-0.232-0.184-0.464-0.369-0.695-0.547c-0.153-0.119-0.305-0.231-0.457-0.347c-0.219-0.167-0.439-0.334-0.656-0.495
	c-0.154-0.113-0.304-0.22-0.456-0.331c-0.213-0.155-0.428-0.312-0.638-0.46c-0.15-0.106-0.297-0.205-0.446-0.308
	c-0.207-0.143-0.415-0.288-0.618-0.424c-0.149-0.1-0.293-0.192-0.439-0.288c-0.163-0.106-0.328-0.218-0.488-0.319
	C38.238,5.351,38.483,3.922,39.236,3.453z M31.783,5.867c0.117-0.13,0.361-0.157,0.545-0.157c1.065,0,3.073,0.876,5.506,2.404
	c2.668,1.674,5.789,4.082,8.788,6.78c0.45,0.405,0.888,0.812,1.32,1.218c0.104,0.098,0.208,0.196,0.312,0.294
	c0.423,0.403,0.841,0.807,1.245,1.208c0.032,0.032,0.063,0.064,0.095,0.096c0.378,0.377,0.744,0.752,1.102,1.125
	c0.09,0.094,0.18,0.188,0.269,0.282c0.374,0.395,0.739,0.786,1.087,1.172c0.045,0.049,0.086,0.097,0.13,0.146
	c0.313,0.35,0.615,0.694,0.905,1.035c0.07,0.083,0.143,0.167,0.212,0.25c0.313,0.371,0.612,0.736,0.894,1.092
	c0.046,0.057,0.087,0.112,0.132,0.169c0.245,0.313,0.477,0.62,0.694,0.919c0.052,0.07,0.105,0.142,0.155,0.211
	c0.236,0.33,0.456,0.65,0.655,0.958c0.013,0.019,0.023,0.037,0.036,0.056c-0.018-0.017-0.04-0.035-0.057-0.051
	c-0.288-0.273-0.604-0.558-0.941-0.852c-0.069-0.06-0.141-0.121-0.212-0.182c-0.357-0.307-0.733-0.621-1.139-0.947
	c-0.02-0.016-0.04-0.031-0.06-0.047c-0.399-0.319-0.825-0.648-1.267-0.983c-0.079-0.06-0.156-0.119-0.237-0.18
	c-0.449-0.338-0.918-0.682-1.406-1.031c-0.093-0.067-0.188-0.134-0.282-0.201c-0.51-0.363-1.032-0.729-1.578-1.101
	c-0.011-0.007-0.022-0.015-0.033-0.022c-0.539-0.367-1.099-0.739-1.668-1.112c-0.103-0.067-0.203-0.133-0.306-0.2
	c-0.563-0.367-1.14-0.734-1.728-1.103c-0.111-0.07-0.224-0.14-0.336-0.209c-0.614-0.382-1.236-0.764-1.872-1.145
	c-0.729-0.437-1.461-0.864-2.19-1.281c-0.197-0.113-0.392-0.217-0.588-0.329c-0.53-0.299-1.061-0.599-1.585-0.884
	c-0.243-0.132-0.479-0.253-0.72-0.382c-0.472-0.252-0.944-0.507-1.406-0.746c-0.286-0.147-0.559-0.279-0.839-0.421
	c-0.386-0.195-0.778-0.397-1.155-0.58C31.66,7.701,31.477,6.208,31.783,5.867z M25.004,9.071C25.005,9.07,25.095,9,25.425,9
	c1.358,0,4.38,1.087,8.292,2.984c2.661,1.291,5.605,2.893,8.514,4.635c0.387,0.231,0.77,0.464,1.149,0.697
	c0.121,0.074,0.239,0.148,0.359,0.222c0.26,0.161,0.519,0.321,0.774,0.482c0.136,0.085,0.271,0.171,0.405,0.257
	c0.238,0.151,0.474,0.301,0.708,0.452c0.137,0.087,0.272,0.175,0.407,0.263c0.232,0.151,0.462,0.301,0.689,0.452
	c0.127,0.084,0.255,0.168,0.38,0.251c0.24,0.16,0.477,0.319,0.711,0.479c0.107,0.073,0.216,0.146,0.323,0.218
	c0.312,0.212,0.618,0.424,0.918,0.634c0.023,0.016,0.046,0.032,0.069,0.048c0.327,0.229,0.646,0.456,0.958,0.681
	c0.083,0.06,0.162,0.118,0.243,0.177c0.225,0.163,0.447,0.325,0.663,0.485c0.102,0.075,0.2,0.15,0.3,0.225
	c0.19,0.143,0.379,0.284,0.562,0.424c0.102,0.078,0.202,0.155,0.302,0.232c0.173,0.134,0.341,0.266,0.506,0.397
	c0.099,0.078,0.197,0.157,0.294,0.234c0.163,0.131,0.319,0.259,0.475,0.387c0.085,0.07,0.172,0.141,0.255,0.21
	c0.178,0.149,0.348,0.295,0.515,0.439c0.05,0.043,0.104,0.088,0.152,0.131c0.211,0.185,0.41,0.364,0.599,0.539
	c0.052,0.049,0.099,0.095,0.149,0.143c0.092,0.086,0.179,0.171,0.264,0.254l0.027,0.047L54.437,25.9
	c-0.287-0.137-0.581-0.254-0.874-0.37c-0.09-0.036-0.175-0.079-0.266-0.112c-0.292-0.108-0.582-0.194-0.871-0.278
	c-0.097-0.029-0.19-0.065-0.288-0.092c-0.003-0.001-0.006-0.002-0.01-0.004c-3.401-1.325-8.347-3.2-13.58-5.145
	C28.749,13.881,24.846,9.801,25.004,9.071z M14.368,18.337c0.205-0.038,0.546-0.074,1.106-0.074c3.446,0,11.219,1.291,19.802,3.29
	c2.444,0.569,4.88,1.181,7.239,1.818c1.505,0.408,2.931,0.812,4.244,1.207c0.678,0.245,1.32,0.477,1.938,0.699
	c2.313,0.831,4.2,1.496,5.515,1.942c0.062,0.029,0.106,0.055,0.165,0.083l0.966,0.591l-0.75,0.17l-0.647-0.11
	c-0.342-0.008-0.707-0.023-1.117-0.051c-3.912-0.274-10.789-1.479-18.282-3.224c-3.788-0.881-7.433-1.831-10.634-2.771
	c-0.458-0.134-0.906-0.269-1.344-0.402C17.269,19.891,15.035,18.838,14.368,18.337z M10.882,25.222
	c0.096-1.132,3.728-2.468,11.476-2.735c0.09,0.027,0.185,0.055,0.276,0.083c0.346,0.104,0.692,0.208,1.049,0.312
	c0.161,0.047,0.328,0.094,0.491,0.142c0.299,0.086,0.597,0.173,0.903,0.26c0.231,0.065,0.469,0.13,0.704,0.196
	c0.246,0.068,0.489,0.137,0.739,0.206c0.317,0.087,0.641,0.173,0.964,0.26c0.175,0.047,0.347,0.094,0.524,0.141
	c0.357,0.095,0.722,0.189,1.086,0.283c0.15,0.039,0.297,0.078,0.448,0.117c0.991,0.254,2.002,0.504,3.026,0.751
	c0.045,0.011,0.089,0.022,0.134,0.033c0.536,0.129,1.076,0.257,1.619,0.383c0.577,0.134,1.149,0.265,1.718,0.393
	c0.235,0.053,0.465,0.104,0.698,0.155c0.321,0.071,0.643,0.143,0.96,0.211c0.307,0.066,0.61,0.131,0.914,0.195
	c0.226,0.048,0.452,0.096,0.676,0.143c0.361,0.075,0.718,0.148,1.073,0.221c0.144,0.029,0.287,0.058,0.429,0.086
	c0.409,0.082,0.812,0.162,1.211,0.24c0.02,0.004,0.041,0.03,0.061,0.061c1.4,0.162,2.795,0.45,4.192,0.752
	c0.067,0.009,0.128,0.026,0.195,0.036c1.338,0.108,2.685,0.327,3.993,0.591c0.408,0.025,0.813,0.083,1.22,0.127
	c0.044,0.002,0.089,0,0.133,0.004c0.105,0.01,0.206-0.006,0.309,0.002c0.208,0.018,0.414,0.024,0.609,0.038
	c0.149,0.011,0.288,0.012,0.43,0.02c0.138,0.008,0.281,0.014,0.411,0.02c0.273,0.011,0.531,0.017,0.767,0.017c0,0,0,0,0.001,0
	c0.236,0,0.445-0.008,0.641-0.02c0.049-0.003,0.091-0.009,0.137-0.012c0.136-0.011,0.264-0.025,0.379-0.042
	c0.021-0.003,0.051-0.004,0.072-0.008c0.001,0.024,0.01,0.05,0.008,0.074c-0.109,1.35-5.142,2.784-14.251,2.784
	c-2.694,0-5.533-0.123-8.439-0.365c-8.765-0.731-16.72-2.47-20.267-4.429C11.469,26.318,10.843,25.691,10.882,25.222z
	 M12.389,27.965c0.081,0.042,0.174,0.083,0.258,0.125c0.114,0.056,0.227,0.112,0.347,0.167c0.145,0.067,0.297,0.133,0.451,0.199
	c0.129,0.055,0.257,0.11,0.393,0.166c0.162,0.065,0.331,0.13,0.501,0.194c0.142,0.054,0.283,0.108,0.431,0.161
	c0.177,0.064,0.363,0.127,0.549,0.19c0.155,0.053,0.309,0.105,0.47,0.158c0.192,0.062,0.392,0.123,0.592,0.184
	c0.167,0.051,0.333,0.103,0.506,0.153c0.208,0.06,0.422,0.12,0.637,0.179c0.178,0.049,0.354,0.099,0.537,0.147
	c0.221,0.058,0.449,0.115,0.677,0.172c0.188,0.047,0.373,0.095,0.565,0.141c0.235,0.057,0.478,0.111,0.72,0.167
	c0.196,0.044,0.389,0.089,0.589,0.133c0.248,0.054,0.502,0.106,0.756,0.159c0.204,0.042,0.404,0.084,0.611,0.125
	c0.26,0.052,0.528,0.102,0.794,0.151c0.209,0.04,0.416,0.08,0.628,0.118c0.271,0.049,0.549,0.095,0.825,0.142
	c0.216,0.037,0.428,0.074,0.646,0.11c0.285,0.046,0.575,0.09,0.864,0.134c0.217,0.033,0.431,0.068,0.649,0.1
	c0.299,0.043,0.603,0.084,0.906,0.125c0.216,0.029,0.43,0.061,0.649,0.089c0.32,0.042,0.646,0.08,0.97,0.119
	c0.206,0.024,0.408,0.051,0.615,0.074c0.364,0.042,0.732,0.08,1.101,0.118c0.172,0.018,0.342,0.038,0.516,0.055
	c0.542,0.054,0.937,0.104,1.487,0.149c2.933,0.245,6.37,0.369,8.37,0.369v0.042c0.684-0.004,1.368-0.02,2.051-0.035
	c0.022-0.005,0.045-0.011,0.067-0.012c0.175-0.004,0.354-0.018,0.54-0.023c0.013,0,0.026,0.016,0.039,0.028
	c0.106-0.002,0.213-0.001,0.32-0.002c0.32-0.022,0.641-0.024,0.961-0.008c0.147,0,0.294-0.004,0.442-0.003
	c0.01-0.005,0.02-0.014,0.03-0.015c0.201-0.012,0.404-0.065,0.61-0.078c0.059-0.004,0.118-0.028,0.177-0.032
	c0.258-0.017,0.519-0.046,0.782-0.067c0.043-0.003,0.087-0.012,0.13-0.016c0.224-0.019,0.449-0.041,0.675-0.062
	c0.069-0.006,0.138-0.014,0.208-0.021c0.242-0.024,0.485-0.05,0.727-0.078c0.028-0.003,0.055-0.006,0.083-0.009
	c0.266-0.031,0.531-0.064,0.794-0.1c0.065-0.009,0.129-0.018,0.193-0.027c0.211-0.03,0.421-0.061,0.629-0.094
	c0.062-0.01,0.124-0.019,0.185-0.029c0.258-0.042,0.513-0.087,0.763-0.135c0.036-0.007,0.07-0.015,0.105-0.021
	c0.214-0.042,0.425-0.086,0.632-0.133c0.065-0.015,0.13-0.03,0.195-0.045c0.208-0.049,0.411-0.1,0.608-0.154
	c0.03-0.008,0.062-0.015,0.091-0.023c0.224-0.062,0.439-0.128,0.648-0.197c0.009-0.003,0.02-0.006,0.029-0.009
	c-0.041,0.034-0.076,0.068-0.118,0.102c-0.107,0.087-0.225,0.174-0.34,0.261c-0.188,0.142-0.386,0.284-0.593,0.425
	c-0.134,0.091-0.27,0.182-0.411,0.272c-0.219,0.14-0.45,0.278-0.688,0.416c-0.146,0.085-0.286,0.17-0.438,0.254
	c-0.323,0.178-0.665,0.354-1.018,0.527c-0.072,0.035-0.137,0.072-0.21,0.107c-4.275,2.056-10.098,3.557-16.398,4.227
	c-2.301,0.245-4.588,0.369-6.795,0.369c0,0,0,0-0.001,0c-7.957,0-14.294-1.595-16.539-4.164c-0.477-0.545-0.751-1.122-0.814-1.713
	C9.165,30.673,10.844,29.057,12.389,27.965z M9.071,41.617C8.485,39.713,8.776,37.55,9.91,35.33
	c0.001,0.001,0.003,0.002,0.004,0.003c0.033,0.03,0.073,0.058,0.108,0.088c0.15,0.13,0.305,0.258,0.474,0.382
	c0.068,0.05,0.145,0.097,0.215,0.146c0.148,0.102,0.296,0.204,0.457,0.302c0.077,0.047,0.162,0.092,0.242,0.138
	c0.168,0.097,0.338,0.194,0.52,0.287c0.078,0.04,0.162,0.078,0.243,0.118c0.197,0.096,0.396,0.191,0.606,0.282
	c0.073,0.031,0.149,0.062,0.223,0.092c0.232,0.097,0.47,0.192,0.718,0.283c0.058,0.021,0.118,0.042,0.177,0.063
	c0.277,0.099,0.562,0.195,0.857,0.287c0.034,0.011,0.069,0.021,0.103,0.031c3.147,0.966,7.243,1.514,11.851,1.514
	c2.244,0,4.566-0.114,6.902-0.362c6.411-0.681,12.351-2.191,16.726-4.295c3.503-1.685,5.696-3.559,6.391-5.494
	c-0.001,0.07,0.007,0.14,0.004,0.211c-0.005,0.143-0.021,0.287-0.033,0.431c-0.033,0.341-0.074,0.683-0.152,1.028
	c-0.002,0.012-0.005,0.024-0.008,0.036c-1.379,6.029-9.339,12.452-19.982,15.729C32.33,47.93,28,48.618,24.033,48.618
	c-5.338,0-9.763-1.218-12.459-3.429l-0.571-0.468l-0.026,0.082C10.064,43.863,9.414,42.731,9.071,41.617z M12.62,56.75
	c-1.794-2.771-2.173-6.282-1.124-10.192C14.395,48.673,18.797,50,24.032,50c0.001,0,0.001,0,0.002,0
	c4.065,0,8.496-0.894,12.814-2.224c11.361-3.499,19.756-10.744,20.789-17.369c0.003-0.017,0.009-0.034,0.011-0.05
	c0.011,0.027,0.019,0.056,0.028,0.083c0.159,0.448,0.295,0.906,0.396,1.376c0.001,0.005,0.001,0.011,0.002,0.016
	c0.102,0.471,0.168,0.953,0.211,1.441c0.004,0.041,0.01,0.08,0.014,0.121c0.037,0.472,0.043,0.952,0.028,1.438
	c-0.002,0.064-0.002,0.127-0.005,0.192c-0.021,0.475-0.069,0.956-0.138,1.441c-0.011,0.077-0.021,0.153-0.033,0.23
	c-0.075,0.482-0.175,0.968-0.296,1.458c-0.02,0.08-0.04,0.161-0.062,0.241c-0.129,0.492-0.278,0.987-0.452,1.484
	c-0.025,0.075-0.054,0.15-0.081,0.226c-0.184,0.507-0.386,1.015-0.614,1.524c-0.026,0.059-0.055,0.118-0.082,0.177
	c-0.241,0.528-0.502,1.057-0.79,1.584c-0.015,0.027-0.031,0.054-0.046,0.081c-0.295,0.536-0.612,1.07-0.954,1.603l-0.047,0.076
	c-0.339,0.525-0.704,1.048-1.087,1.567c-0.042,0.057-0.082,0.114-0.125,0.171c-0.373,0.5-0.77,0.996-1.183,1.487
	c-0.062,0.073-0.122,0.147-0.185,0.22c-0.411,0.481-0.842,0.958-1.289,1.428c-0.074,0.078-0.148,0.155-0.223,0.232
	c-0.452,0.467-0.921,0.928-1.408,1.382c-0.079,0.074-0.16,0.147-0.239,0.221c-0.498,0.456-1.011,0.905-1.543,1.347
	c-0.074,0.061-0.149,0.12-0.223,0.18c-0.551,0.45-1.118,0.893-1.704,1.323c-0.052,0.038-0.106,0.074-0.158,0.112
	c-0.619,0.449-1.253,0.89-1.909,1.314c-6.029,3.906-12.624,6.058-18.567,6.059c-3.032,0-5.692-0.562-7.906-1.669
	C15.102,59.587,13.635,58.316,12.62,56.75z M20.307,66.297c-1.216-1.196-2.137-2.677-2.748-4.41
	c0.156,0.063,0.326,0.108,0.485,0.167c0.229,0.085,0.461,0.165,0.697,0.24c0.39,0.124,0.791,0.232,1.199,0.33
	c0.239,0.058,0.477,0.118,0.722,0.167c0.451,0.089,0.918,0.155,1.391,0.214c0.22,0.027,0.434,0.065,0.659,0.086
	c0.704,0.065,1.425,0.104,2.171,0.104c4.154,0,8.606-1.035,12.972-2.936c2.08-0.904,4.142-1.989,6.14-3.283
	c0.617-0.399,1.213-0.813,1.797-1.234c0.086-0.062,0.174-0.123,0.259-0.186c0.551-0.403,1.086-0.816,1.607-1.237
	c0.1-0.081,0.199-0.161,0.297-0.242c0.516-0.424,1.018-0.854,1.502-1.294c0.074-0.067,0.146-0.136,0.219-0.203
	c0.501-0.461,0.99-0.928,1.456-1.403c0.003-0.003,0.007-0.007,0.011-0.01c0.468-0.478,0.913-0.964,1.345-1.453
	c0.063-0.073,0.129-0.145,0.191-0.217c0.407-0.469,0.795-0.943,1.167-1.421c0.068-0.088,0.137-0.175,0.203-0.264
	c0.368-0.481,0.721-0.965,1.052-1.453c0.047-0.068,0.09-0.136,0.136-0.204c0.687-1.026,1.292-2.063,1.812-3.103
	c0.035-0.07,0.072-0.139,0.106-0.209c0.243-0.498,0.466-0.996,0.67-1.494c0.034-0.083,0.067-0.166,0.101-0.249
	c0.198-0.5,0.379-1,0.536-1.497c0.02-0.06,0.035-0.12,0.054-0.18c0.318-1.039,0.544-2.068,0.673-3.078
	c0.009-0.063,0.019-0.127,0.026-0.191c0.056-0.482,0.088-0.958,0.1-1.431c0.002-0.076,0.002-0.151,0.003-0.227
	c0.004-0.472-0.012-0.939-0.054-1.398c-0.005-0.055-0.013-0.108-0.019-0.163c-0.049-0.466-0.117-0.927-0.215-1.378
	c0.013,0.022,0.029,0.042,0.041,0.065c0.087,0.161,0.155,0.333,0.234,0.497c0.158,0.33,0.313,0.663,0.443,1.009
	c0.077,0.204,0.139,0.417,0.205,0.626c0.104,0.326,0.203,0.655,0.283,0.994c0.055,0.228,0.099,0.46,0.143,0.694
	c0.063,0.338,0.117,0.681,0.158,1.029c0.028,0.242,0.054,0.485,0.072,0.731c0.025,0.358,0.038,0.722,0.042,1.089
	c0.003,0.247,0.008,0.492,0.001,0.742c-0.011,0.392-0.042,0.79-0.077,1.189c-0.021,0.234-0.033,0.465-0.062,0.702
	c-0.058,0.479-0.142,0.965-0.233,1.454c-0.03,0.163-0.049,0.322-0.083,0.486c-0.136,0.654-0.302,1.314-0.496,1.979
	c-0.049,0.165-0.111,0.332-0.163,0.498c-0.157,0.501-0.322,1.004-0.512,1.509c-0.092,0.246-0.199,0.492-0.299,0.737
	c-0.174,0.428-0.351,0.857-0.547,1.286c-0.124,0.269-0.258,0.538-0.39,0.807c-0.2,0.408-0.407,0.815-0.628,1.221
	c-0.149,0.275-0.305,0.55-0.463,0.824c-0.232,0.402-0.476,0.803-0.728,1.202c-0.171,0.27-0.342,0.54-0.521,0.809
	c-0.272,0.408-0.56,0.812-0.853,1.215c-0.184,0.252-0.362,0.506-0.554,0.757c-0.334,0.437-0.688,0.867-1.046,1.297
	c-0.174,0.208-0.338,0.42-0.517,0.626c-0.548,0.631-1.117,1.254-1.717,1.863c-6.314,6.42-14.215,10.253-21.134,10.254
	c-1.475-0.001-2.876-0.181-4.165-0.536C23.442,68.654,21.706,67.674,20.307,66.297z M29.792,73.708
	c-1.312-0.803-2.448-1.894-3.388-3.253c0.057,0.011,0.118,0.014,0.175,0.024c0.39,0.069,0.788,0.124,1.192,0.166
	c0.133,0.014,0.265,0.027,0.399,0.038c0.481,0.039,0.967,0.065,1.464,0.065c0,0,0,0,0.001,0c5.181,0,10.872-2.062,16.083-5.688
	c2.012-1.399,3.954-3.024,5.763-4.864c0.503-0.511,0.981-1.032,1.449-1.559c0.082-0.093,0.165-0.184,0.245-0.276
	c0.44-0.505,0.864-1.017,1.271-1.533c0.083-0.105,0.164-0.211,0.245-0.316c0.408-0.527,0.804-1.06,1.177-1.597
	c0.036-0.052,0.068-0.103,0.104-0.154c0.348-0.505,0.678-1.015,0.994-1.526c0.065-0.106,0.134-0.212,0.198-0.318
	c0.313-0.518,0.608-1.038,0.89-1.56c0.077-0.144,0.153-0.287,0.228-0.431c0.268-0.512,0.522-1.024,0.759-1.537
	c0.063-0.138,0.12-0.276,0.182-0.415c0.184-0.414,0.356-0.829,0.52-1.243c0.065-0.167,0.135-0.334,0.197-0.501
	c0.173-0.461,0.328-0.921,0.475-1.38c0.073-0.227,0.143-0.453,0.209-0.68c0.115-0.394,0.222-0.787,0.317-1.178
	c0.072-0.296,0.136-0.59,0.197-0.885c0.047-0.224,0.089-0.446,0.129-0.668c0.09-0.495,0.161-0.984,0.219-1.471
	c0.016-0.138,0.034-0.277,0.048-0.415c0.101-1.021,0.125-2.018,0.078-2.988c-0.001-0.025-0.003-0.05-0.004-0.076
	c-0.103-1.965-0.5-3.812-1.231-5.464c0.08,0.109,0.166,0.212,0.242,0.324c0.119,0.174,0.237,0.348,0.349,0.529
	c0.188,0.307,0.361,0.627,0.528,0.953c0.088,0.174,0.183,0.342,0.265,0.521c0.196,0.426,0.37,0.87,0.529,1.324
	c0.033,0.093,0.074,0.179,0.105,0.273c0.183,0.551,0.336,1.124,0.468,1.71c0.04,0.183,0.067,0.375,0.104,0.56
	c0.08,0.417,0.154,0.837,0.209,1.27c0.03,0.235,0.051,0.476,0.073,0.715c0.038,0.4,0.067,0.805,0.084,1.216
	c0.011,0.255,0.018,0.512,0.02,0.77c0.004,0.42-0.005,0.846-0.022,1.275c-0.01,0.252-0.017,0.502-0.034,0.756
	c-0.033,0.491-0.087,0.989-0.147,1.49c-0.023,0.198-0.038,0.392-0.066,0.591c-0.099,0.698-0.222,1.402-0.372,2.113
	c-0.035,0.165-0.083,0.333-0.12,0.498c-0.126,0.553-0.263,1.107-0.42,1.665c-0.073,0.26-0.158,0.521-0.238,0.782
	c-0.145,0.471-0.297,0.942-0.464,1.415c-0.099,0.282-0.204,0.564-0.312,0.847c-0.176,0.462-0.363,0.924-0.561,1.387
	c-0.118,0.277-0.236,0.555-0.362,0.832c-0.225,0.495-0.467,0.988-0.716,1.481c-0.12,0.237-0.232,0.476-0.358,0.713
	c-0.386,0.726-0.791,1.448-1.229,2.165c-5.788,9.46-14.692,15.505-22.452,15.181C33.378,75.296,31.466,74.732,29.792,73.708z
	 M44.324,79.37L44.324,79.37c-1.223,0-2.419-0.191-3.555-0.567c-1.505-0.498-2.881-1.312-4.104-2.422
	c0.157-0.006,0.315-0.029,0.473-0.04c0.233-0.016,0.466-0.033,0.701-0.059c0.265-0.03,0.531-0.069,0.797-0.111
	c0.236-0.037,0.472-0.075,0.709-0.122c0.268-0.053,0.536-0.116,0.804-0.182c0.237-0.058,0.474-0.115,0.711-0.183
	c0.27-0.076,0.539-0.164,0.808-0.252c0.237-0.077,0.473-0.153,0.71-0.24c0.271-0.1,0.541-0.21,0.812-0.321
	c0.234-0.096,0.469-0.19,0.703-0.295c0.273-0.122,0.544-0.257,0.816-0.391c0.23-0.113,0.461-0.224,0.69-0.346
	c0.273-0.145,0.545-0.303,0.817-0.459c0.226-0.13,0.451-0.256,0.676-0.394c0.273-0.167,0.544-0.348,0.815-0.526
	c0.22-0.146,0.44-0.286,0.658-0.438c0.273-0.191,0.543-0.395,0.813-0.597c0.212-0.158,0.425-0.312,0.636-0.477
	c0.272-0.214,0.54-0.441,0.808-0.666c0.204-0.171,0.409-0.336,0.61-0.513c0.271-0.238,0.537-0.49,0.805-0.739
	c0.192-0.18,0.387-0.353,0.576-0.538c0.271-0.265,0.535-0.543,0.801-0.818c0.18-0.187,0.362-0.366,0.54-0.558
	c0.271-0.294,0.536-0.603,0.801-0.908c0.163-0.188,0.33-0.368,0.49-0.56c0.274-0.328,0.539-0.671,0.806-1.011
	c0.145-0.185,0.293-0.361,0.435-0.549c0.289-0.384,0.568-0.781,0.847-1.179c0.11-0.156,0.225-0.306,0.333-0.465
	c0.383-0.562,0.755-1.137,1.115-1.726c0.456-0.746,0.878-1.499,1.278-2.255c0.128-0.242,0.242-0.486,0.365-0.73
	c0.261-0.518,0.514-1.035,0.748-1.555c0.129-0.285,0.248-0.569,0.368-0.855c0.206-0.485,0.4-0.971,0.583-1.456
	c0.109-0.291,0.216-0.581,0.317-0.872c0.172-0.495,0.329-0.988,0.478-1.481c0.081-0.271,0.167-0.541,0.242-0.811
	c0.156-0.568,0.291-1.132,0.417-1.695c0.041-0.187,0.093-0.376,0.131-0.562c0.153-0.747,0.278-1.487,0.376-2.22
	c0.022-0.167,0.031-0.33,0.051-0.497c0.065-0.563,0.12-1.123,0.152-1.675c0.015-0.252,0.018-0.499,0.025-0.749
	c0.015-0.462,0.021-0.92,0.013-1.372c-0.005-0.263-0.017-0.523-0.03-0.783c-0.021-0.434-0.056-0.861-0.101-1.284
	c-0.026-0.25-0.052-0.499-0.086-0.744c-0.062-0.441-0.141-0.872-0.227-1.298c-0.042-0.206-0.076-0.416-0.124-0.619
	c-0.136-0.575-0.294-1.135-0.477-1.678c-0.014-0.041-0.023-0.085-0.037-0.126c-0.2-0.58-0.433-1.136-0.688-1.673
	c-0.079-0.166-0.171-0.32-0.255-0.481c-0.188-0.364-0.385-0.721-0.6-1.062c-0.115-0.182-0.238-0.355-0.361-0.53
	c-0.117-0.168-0.223-0.348-0.347-0.51c0.035,0.029,0.068,0.062,0.104,0.091c0.22,0.188,0.434,0.384,0.643,0.59
	c0.077,0.075,0.152,0.152,0.228,0.229c0.195,0.202,0.387,0.413,0.572,0.631c0.053,0.062,0.107,0.121,0.16,0.184
	c0.229,0.278,0.451,0.569,0.664,0.872c0.053,0.075,0.104,0.153,0.155,0.23c0.163,0.24,0.321,0.487,0.475,0.741
	c0.062,0.102,0.122,0.204,0.182,0.308c0.163,0.284,0.319,0.575,0.471,0.875c0.028,0.058,0.06,0.113,0.089,0.171
	c0.174,0.356,0.337,0.725,0.493,1.102c0.044,0.107,0.086,0.218,0.129,0.327c0.114,0.292,0.224,0.589,0.328,0.892
	c0.041,0.12,0.083,0.238,0.122,0.36c0.133,0.41,0.26,0.827,0.374,1.257c1.517,5.731,1.132,12.568-1.082,19.25
	c-3.455,10.424-10.835,18.411-18.362,19.874C45.926,79.29,45.114,79.37,44.324,79.37z M56.087,81.073
	c-1.116,0.24-2.237,0.312-3.356,0.212c-1.604-0.143-3.151-0.631-4.615-1.453c0.046-0.013,0.092-0.032,0.138-0.046
	c0.227-0.065,0.452-0.146,0.677-0.223c0.251-0.085,0.501-0.168,0.751-0.266c0.227-0.089,0.452-0.19,0.677-0.29
	c0.246-0.108,0.492-0.216,0.736-0.337c0.226-0.111,0.448-0.233,0.672-0.354c0.241-0.131,0.482-0.263,0.722-0.405
	c0.223-0.133,0.442-0.274,0.662-0.416c0.237-0.153,0.473-0.308,0.707-0.472c0.218-0.153,0.434-0.312,0.649-0.475
	c0.231-0.174,0.46-0.351,0.688-0.535c0.213-0.172,0.423-0.349,0.633-0.529c0.226-0.194,0.449-0.393,0.671-0.597
	c0.206-0.189,0.409-0.383,0.612-0.58c0.219-0.214,0.435-0.434,0.648-0.656c0.199-0.207,0.396-0.415,0.592-0.63
	c0.211-0.232,0.418-0.471,0.625-0.712c0.189-0.223,0.379-0.444,0.564-0.674c0.203-0.251,0.402-0.51,0.601-0.77
	c0.18-0.235,0.359-0.47,0.535-0.713c0.195-0.27,0.385-0.548,0.574-0.826c0.168-0.247,0.338-0.491,0.501-0.745
	c0.188-0.29,0.367-0.589,0.549-0.888c0.155-0.255,0.312-0.508,0.462-0.769c0.181-0.312,0.351-0.635,0.523-0.956
	c0.14-0.259,0.282-0.515,0.417-0.778c0.176-0.345,0.34-0.698,0.506-1.051c0.12-0.252,0.244-0.5,0.359-0.757
	c0.178-0.397,0.342-0.805,0.508-1.211c0.091-0.223,0.188-0.439,0.276-0.665c0.247-0.636,0.48-1.28,0.697-1.936
	c2.274-6.864,2.665-13.902,1.1-19.819c-0.122-0.462-0.259-0.909-0.402-1.348c-0.04-0.124-0.082-0.244-0.124-0.366
	c-0.116-0.337-0.239-0.667-0.367-0.99c-0.042-0.104-0.081-0.208-0.124-0.311c-0.169-0.407-0.348-0.804-0.537-1.188
	c-0.032-0.067-0.068-0.13-0.103-0.196c-0.161-0.318-0.33-0.627-0.505-0.928c-0.062-0.105-0.123-0.209-0.187-0.312
	c-0.176-0.29-0.359-0.57-0.548-0.843c-0.045-0.063-0.086-0.13-0.131-0.192c-0.231-0.324-0.474-0.633-0.723-0.931
	c-0.064-0.078-0.133-0.151-0.198-0.227c-0.196-0.225-0.396-0.441-0.603-0.65c-0.08-0.082-0.16-0.163-0.242-0.242
	c-0.259-0.25-0.523-0.49-0.797-0.715c-0.005-0.004-0.01-0.009-0.015-0.014c0.219,0.111,0.429,0.242,0.643,0.366
	c0.196,0.115,0.397,0.218,0.59,0.344c0.238,0.157,0.466,0.337,0.696,0.51c0.184,0.137,0.373,0.264,0.552,0.411
	c0.226,0.186,0.439,0.395,0.656,0.596c0.173,0.16,0.351,0.308,0.518,0.477c0.213,0.215,0.413,0.452,0.617,0.682
	c0.158,0.178,0.322,0.346,0.476,0.533c0.2,0.244,0.387,0.509,0.578,0.768c0.144,0.195,0.294,0.38,0.434,0.582
	c0.183,0.268,0.353,0.555,0.526,0.836c0.132,0.214,0.271,0.418,0.398,0.64c0.166,0.29,0.318,0.599,0.475,0.902
	c0.119,0.23,0.246,0.451,0.359,0.688c0.149,0.312,0.283,0.64,0.422,0.962c0.105,0.246,0.22,0.484,0.319,0.736
	c0.13,0.327,0.243,0.67,0.363,1.008c0.093,0.263,0.194,0.519,0.28,0.788c0.11,0.34,0.203,0.695,0.303,1.044
	c0.079,0.281,0.168,0.555,0.24,0.841c0.09,0.351,0.162,0.715,0.241,1.074c0.065,0.297,0.14,0.588,0.198,0.891
	c0.07,0.368,0.123,0.748,0.183,1.122c0.048,0.305,0.106,0.604,0.147,0.912c0.051,0.383,0.083,0.776,0.122,1.165
	c0.031,0.311,0.073,0.618,0.097,0.933c0.03,0.399,0.041,0.807,0.059,1.212c0.015,0.312,0.039,0.621,0.045,0.937
	c0.01,0.454-0.002,0.914-0.009,1.373c-0.004,0.274,0.004,0.545-0.006,0.82c-0.024,0.737-0.07,1.48-0.137,2.228
	C70.829,69.082,64.165,79.342,56.087,81.073z M69.666,77.836c-3.378,2.705-7.286,3.976-11.301,3.589
	c0.2-0.078,0.394-0.182,0.592-0.27c0.206-0.093,0.413-0.179,0.616-0.281c0.291-0.146,0.576-0.313,0.861-0.479
	c0.188-0.11,0.377-0.211,0.562-0.329c0.314-0.2,0.62-0.425,0.926-0.65c0.148-0.108,0.3-0.206,0.446-0.32
	c0.447-0.351,0.885-0.724,1.312-1.123c0.052-0.049,0.1-0.104,0.151-0.153c0.375-0.358,0.743-0.73,1.101-1.124
	c0.144-0.158,0.278-0.33,0.419-0.494c0.259-0.301,0.518-0.602,0.767-0.921c0.154-0.199,0.302-0.411,0.453-0.617
	c0.223-0.304,0.444-0.607,0.658-0.926c0.153-0.229,0.299-0.466,0.446-0.701c0.199-0.316,0.397-0.635,0.587-0.964
	c0.145-0.251,0.284-0.507,0.423-0.765c0.18-0.333,0.356-0.669,0.526-1.013c0.134-0.27,0.263-0.542,0.391-0.818
	c0.162-0.351,0.318-0.706,0.471-1.066c0.119-0.283,0.236-0.567,0.35-0.856c0.145-0.372,0.282-0.749,0.417-1.129
	c0.104-0.294,0.207-0.586,0.304-0.885c0.128-0.395,0.246-0.797,0.363-1.2c0.085-0.297,0.173-0.591,0.253-0.892
	c0.112-0.428,0.211-0.862,0.31-1.298c0.065-0.29,0.137-0.575,0.196-0.869c0.099-0.486,0.182-0.981,0.263-1.478
	c0.042-0.251,0.092-0.498,0.128-0.751c0.11-0.753,0.202-1.515,0.271-2.285c0.065-0.734,0.107-1.463,0.134-2.188
	c0.009-0.24,0.006-0.477,0.011-0.715c0.009-0.484,0.016-0.967,0.008-1.444c-0.005-0.278-0.019-0.553-0.029-0.829
	c-0.016-0.435-0.035-0.867-0.065-1.295c-0.021-0.287-0.046-0.569-0.072-0.853c-0.038-0.414-0.082-0.824-0.133-1.231
	c-0.035-0.281-0.073-0.561-0.114-0.838c-0.06-0.405-0.128-0.805-0.2-1.202c-0.049-0.268-0.097-0.535-0.151-0.799
	c-0.084-0.408-0.178-0.808-0.275-1.206c-0.059-0.241-0.113-0.484-0.177-0.721c-0.117-0.441-0.248-0.873-0.382-1.301
	c-0.058-0.183-0.107-0.369-0.167-0.549c-0.201-0.604-0.416-1.195-0.647-1.771c-0.024-0.06-0.053-0.116-0.077-0.176
	c-0.21-0.511-0.431-1.011-0.665-1.496c-0.087-0.181-0.182-0.352-0.272-0.528c-0.181-0.354-0.363-0.707-0.558-1.045
	c-0.112-0.197-0.231-0.386-0.349-0.578c-0.186-0.303-0.373-0.603-0.568-0.892c-0.13-0.192-0.264-0.378-0.398-0.563
	c-0.197-0.272-0.398-0.538-0.605-0.796c-0.143-0.178-0.286-0.352-0.433-0.522c-0.215-0.249-0.435-0.488-0.658-0.721
	c-0.15-0.157-0.3-0.315-0.454-0.465c-0.239-0.231-0.485-0.448-0.734-0.662c-0.149-0.129-0.296-0.264-0.449-0.386
	c-0.04-0.032-0.078-0.07-0.119-0.102c0.093,0.029,0.185,0.058,0.279,0.089c0.038,0.013,0.077,0.025,0.115,0.039
	c8.427,2.99,14.312,13.19,14.312,24.805C79.031,64.909,75.53,73.139,69.666,77.836z M78.086,72.521
	c-1.688,2.018-3.744,3.552-6.021,4.504c0.073-0.072,0.141-0.151,0.213-0.226c0.138-0.143,0.274-0.288,0.409-0.435
	c0.188-0.205,0.374-0.412,0.556-0.624c0.13-0.151,0.259-0.305,0.386-0.461c0.18-0.22,0.354-0.444,0.526-0.671
	c0.119-0.158,0.239-0.314,0.354-0.476c0.174-0.241,0.342-0.488,0.508-0.737c0.105-0.156,0.212-0.311,0.313-0.47
	c0.177-0.278,0.347-0.563,0.515-0.851c0.081-0.139,0.165-0.273,0.244-0.413c0.232-0.413,0.455-0.834,0.668-1.263
	c0.01-0.019,0.02-0.036,0.029-0.055c0.223-0.452,0.434-0.913,0.635-1.382c0.059-0.136,0.111-0.275,0.168-0.413
	c0.137-0.333,0.272-0.668,0.399-1.009c0.065-0.179,0.126-0.361,0.189-0.542c0.106-0.307,0.213-0.613,0.311-0.926
	c0.062-0.198,0.121-0.4,0.18-0.602c0.088-0.301,0.174-0.604,0.254-0.909c0.055-0.211,0.107-0.423,0.158-0.637
	c0.073-0.303,0.142-0.608,0.206-0.916c0.046-0.217,0.09-0.434,0.132-0.652c0.06-0.313,0.112-0.629,0.163-0.945
	c0.035-0.217,0.07-0.434,0.102-0.652c0.046-0.329,0.085-0.661,0.122-0.993c0.023-0.211,0.049-0.42,0.069-0.632
	c0.033-0.365,0.058-0.734,0.08-1.104c0.012-0.181,0.027-0.36,0.036-0.542c0.025-0.553,0.04-1.108,0.04-1.667
	c0-0.678-0.025-1.35-0.064-2.018c-0.012-0.198-0.027-0.395-0.043-0.592c-0.036-0.489-0.083-0.974-0.14-1.455
	c-0.022-0.198-0.044-0.396-0.071-0.592c-0.084-0.624-0.181-1.241-0.297-1.851c-0.005-0.026-0.009-0.053-0.014-0.079
	c-0.123-0.632-0.268-1.253-0.425-1.867c-0.048-0.188-0.101-0.372-0.151-0.558c-0.121-0.445-0.252-0.884-0.391-1.318
	c-0.06-0.186-0.118-0.372-0.181-0.556c-0.185-0.541-0.38-1.074-0.591-1.597c-0.02-0.048-0.036-0.099-0.056-0.147
	c-0.23-0.562-0.479-1.109-0.739-1.648c-0.081-0.167-0.166-0.33-0.25-0.495c-0.195-0.386-0.397-0.765-0.607-1.137
	c-0.094-0.165-0.186-0.33-0.281-0.491c-0.268-0.452-0.546-0.894-0.836-1.323c-0.035-0.053-0.067-0.108-0.104-0.161
	c-0.325-0.473-0.666-0.927-1.017-1.369c-0.105-0.134-0.216-0.262-0.323-0.393c-0.264-0.318-0.533-0.628-0.81-0.928
	c-0.118-0.129-0.236-0.258-0.357-0.384c-0.346-0.358-0.699-0.704-1.063-1.033c-0.029-0.027-0.057-0.058-0.087-0.085
	c0.055,0.036,0.11,0.071,0.165,0.107c0.494,0.33,0.979,0.679,1.451,1.054c0.065,0.051,0.133,0.097,0.197,0.149
	c0.527,0.428,1.036,0.889,1.533,1.37c0.129,0.125,0.256,0.256,0.383,0.385c0.404,0.409,0.797,0.835,1.178,1.277
	c0.097,0.112,0.196,0.219,0.291,0.333c0.452,0.543,0.885,1.111,1.3,1.701c0.096,0.135,0.186,0.277,0.279,0.415
	c0.332,0.49,0.651,0.995,0.956,1.514c0.096,0.162,0.193,0.321,0.285,0.485c0.363,0.644,0.708,1.305,1.027,1.987
	c0.052,0.112,0.098,0.229,0.148,0.341c0.268,0.591,0.517,1.197,0.749,1.813c0.074,0.197,0.148,0.395,0.219,0.594
	c0.26,0.734,0.504,1.479,0.712,2.244C84.325,58.045,82.822,66.86,78.086,72.521z M80.017,71.624c0.104-0.154,0.2-0.316,0.301-0.474
	c0.106-0.166,0.214-0.329,0.315-0.497c0.148-0.247,0.288-0.5,0.427-0.753c0.089-0.161,0.181-0.319,0.265-0.483
	c0.148-0.286,0.285-0.581,0.421-0.875c0.064-0.14,0.135-0.276,0.196-0.418c0.385-0.879,0.719-1.792,1.002-2.733
	c0.046-0.155,0.085-0.315,0.129-0.473c0.088-0.317,0.177-0.636,0.254-0.96c0.045-0.19,0.083-0.384,0.124-0.576
	c0.063-0.296,0.127-0.593,0.181-0.893c0.037-0.209,0.068-0.42,0.101-0.631c0.045-0.289,0.089-0.578,0.125-0.87
	c0.026-0.221,0.049-0.441,0.07-0.663c0.029-0.289,0.055-0.578,0.075-0.87c0.016-0.226,0.027-0.452,0.037-0.679
	c0.014-0.292,0.022-0.584,0.027-0.878c0.003-0.229,0.005-0.459,0.003-0.689c-0.002-0.296-0.011-0.593-0.021-0.89
	c-0.009-0.229-0.017-0.46-0.03-0.69c-0.019-0.303-0.045-0.607-0.071-0.912c-0.021-0.226-0.039-0.451-0.064-0.678
	c-0.035-0.317-0.081-0.635-0.126-0.953c-0.031-0.214-0.058-0.428-0.093-0.642c-0.058-0.354-0.128-0.706-0.198-1.059
	c-0.035-0.18-0.065-0.358-0.104-0.538c-0.115-0.532-0.243-1.063-0.388-1.594c-0.167-0.615-0.352-1.221-0.552-1.817
	c-0.066-0.197-0.144-0.386-0.213-0.58c-0.142-0.395-0.28-0.792-0.436-1.178c-0.087-0.217-0.187-0.425-0.278-0.639
	c-0.151-0.354-0.3-0.711-0.463-1.057c-0.095-0.201-0.2-0.393-0.3-0.59c-0.174-0.349-0.345-0.699-0.53-1.038
	c-0.094-0.172-0.197-0.335-0.295-0.505c-0.203-0.354-0.404-0.71-0.62-1.052c-0.086-0.137-0.179-0.265-0.267-0.4
	c-0.238-0.365-0.478-0.729-0.729-1.079c-0.074-0.103-0.153-0.199-0.229-0.301c-0.275-0.373-0.554-0.742-0.844-1.096
	c-0.059-0.071-0.12-0.137-0.179-0.207c-0.315-0.376-0.635-0.746-0.966-1.1c-0.041-0.044-0.085-0.085-0.127-0.129
	c-0.353-0.373-0.712-0.735-1.082-1.081c-0.028-0.026-0.058-0.05-0.086-0.077c-0.386-0.358-0.779-0.703-1.183-1.031
	c-0.02-0.016-0.039-0.03-0.059-0.045c-0.412-0.333-0.832-0.651-1.26-0.952c-0.023-0.017-0.048-0.031-0.071-0.048
	c-0.424-0.294-0.853-0.574-1.29-0.834c-0.043-0.025-0.087-0.047-0.13-0.073c-0.416-0.245-0.837-0.476-1.266-0.689
	c-0.082-0.041-0.167-0.076-0.25-0.116c-0.386-0.186-0.774-0.363-1.169-0.521c-0.149-0.061-0.303-0.111-0.454-0.168
	c-0.324-0.121-0.649-0.242-0.979-0.344c-0.252-0.079-0.506-0.143-0.76-0.21c-0.182-0.048-0.36-0.108-0.543-0.15
	c0.588-0.076,1.184-0.114,1.784-0.114c7.733,0,15.419,6.044,19.123,15.041C90.73,55.9,87.901,67.474,80.017,71.624z"/>
</svg>
