<?xml version="1.0" encoding="utf-8"?>
<!-- Generator: Adobe Illustrator 16.0.4, SVG Export Plug-In . SVG Version: 6.00 Build 0)  -->
<!DOCTYPE svg PUBLIC "-//W3C//DTD SVG 1.1//EN" "http://www.w3.org/Graphics/SVG/1.1/DTD/svg11.dtd">
<svg version="1.1" id="Layer_1" xmlns="http://www.w3.org/2000/svg" xmlns:xlink="http://www.w3.org/1999/xlink" x="0px" y="0px"
	 width="86.518px" height="93.684px" viewBox="0 0 86.518 93.684" enable-background="new 0 0 86.518 93.684" xml:space="preserve">
<path d="M48.242,85.649c-1.833-1.365-3.91-2.911-3.305-6.246c0.007-0.039,0.015-0.093,0.022-0.14c1.134-0.82,4.46-3.57,5.243-8.139
	c0.815-4.749-2.865-8.491-3.96-9.485c1.104-21.235,1.812-54.246-2.292-59.165c-0.838-1.002-1.999-1.003-2.835,0
	c-4.103,4.916-3.396,37.928-2.293,59.165c-1.094,0.994-4.775,4.737-3.96,9.485c0.783,4.569,4.108,7.319,5.242,8.139
	c0.008,0.047,0.016,0.101,0.022,0.14c0.606,3.334-1.472,4.881-3.305,6.246c-1.354,1.007-2.752,2.049-2.013,3.633
	c1.286,2.755,6.061,2.969,7.493,2.969l0.214-0.003l0.245,0.003c1.433,0,6.207-0.214,7.493-2.969
	C50.995,87.698,49.596,86.657,48.242,85.649z M39.794,91.046c-0.832-0.135-1.725-0.361-2.484-0.732
	c2.803-1.932,4.085-5.917,4.419-7.135c0.002,0,0.003,0.001,0.005,0.002C41.739,83.986,41.659,87.779,39.794,91.046z M35.948,66.507
	l3.048-1.684c0.03,0.524,0.061,1.041,0.09,1.545l-3.813,2.888C35.342,68.273,35.596,67.35,35.948,66.507z M49.794,69.257
	l-3.813-2.889c0.029-0.504,0.06-1.021,0.09-1.545l3.048,1.684C49.471,67.35,49.725,68.273,49.794,69.257z M45.568,72.652l2.48,2.586
	c-0.399,0.622-0.828,1.168-1.248,1.644l-1.38-2.285C45.469,73.994,45.518,73.345,45.568,72.652z M45.616,71.98
	c0.046-0.645,0.093-1.319,0.14-2.028l3.569,2.603c-0.269,0.82-0.617,1.566-1.01,2.238L45.616,71.98z M39.449,71.981l-2.699,2.813
	c-0.393-0.672-0.741-1.419-1.009-2.239l3.569-2.603C39.357,70.662,39.404,71.336,39.449,71.981z M39.498,72.653
	c0.051,0.693,0.1,1.342,0.147,1.946l-1.381,2.285c-0.421-0.476-0.849-1.022-1.248-1.645L39.498,72.653z M42.907,83.394
	c0.046-0.008,0.092-0.008,0.138-0.021c0.005,1.123,0.178,4.582,1.899,7.725c-0.898,0.125-1.674,0.149-2.064,0.153L42.907,83.394z
	 M43.547,83.164c0.324,1.189,1.583,5.127,4.335,7.088c-0.726,0.378-1.591,0.617-2.413,0.763
	C43.608,87.733,43.539,83.925,43.547,83.164z M45.055,78.556c0.085-0.722,0.186-1.775,0.297-3.106l1.097,1.816
	C45.926,77.815,45.434,78.251,45.055,78.556z M49.711,71.04c-0.06,0.349-0.138,0.685-0.228,1.012l-3.689-2.69
	c0.05-0.766,0.1-1.564,0.15-2.393l3.861,2.925l0.001-0.002C49.802,70.268,49.777,70.649,49.711,71.04z M48.759,65.738l-2.657-1.469
	c0.035-0.643,0.071-1.295,0.106-1.964C46.864,62.953,47.946,64.16,48.759,65.738z M44.896,69.007
	c-0.346,0.221-0.859,0.479-1.48,0.605c0.025-0.142,0.051-0.282,0.075-0.435c0.142-0.856,0.268-1.896,0.348-3.089
	c0.069-1.192,0.127-2.538,0.033-4.006c-0.083-1.468-0.357-3.058-0.585-4.74c-0.113-0.841-0.194-1.704-0.241-2.588
	c-0.039-0.883-0.033-1.785-0.044-2.702c-0.033-3.669-0.067-7.583-0.103-11.498c-0.045-3.914-0.065-7.828-0.061-11.498
	c-0.002-3.669-0.002-7.094-0.003-10.03c0.032-4.264,0.056-7.486,0.067-8.936c0.844-0.056,1.639-0.278,2.153-0.459
	C46.935,23.158,45.961,52.887,44.896,69.007z M40.016,9.603c0.522,0.202,1.419,0.479,2.398,0.5c0.01,1.456,0.031,4.672,0.059,8.923
	c-0.004,2.936-0.008,6.361-0.013,10.03c0.001,3.669-0.024,7.584-0.073,11.498c-0.039,3.914-0.078,7.828-0.114,11.498
	c-0.013,0.917-0.007,1.819-0.047,2.702c-0.048,0.883-0.13,1.747-0.244,2.588c-0.229,1.682-0.505,3.271-0.589,4.739
	c-0.096,1.468-0.039,2.813,0.027,4.006c0.079,1.192,0.205,2.232,0.346,3.089c0.023,0.146,0.047,0.278,0.07,0.413
	c-0.68-0.147-1.277-0.424-1.67-0.645C39.102,52.799,38.135,23.098,40.016,9.603z M38.858,62.305
	c0.035,0.669,0.071,1.321,0.107,1.964l-2.658,1.469C37.12,64.16,38.202,62.953,38.858,62.305z M35.26,69.892l0.001,0.002
	l3.862-2.925c0.05,0.829,0.1,1.627,0.149,2.394l-3.689,2.689c-0.09-0.327-0.168-0.663-0.228-1.012
	C35.289,70.649,35.265,70.268,35.26,69.892z M38.617,77.268l1.098-1.816c0.11,1.331,0.211,2.383,0.296,3.105
	C39.632,78.253,39.14,77.817,38.617,77.268z M35.717,88.86c-0.359-0.77,0.212-1.298,1.704-2.409
	c1.246-0.928,2.797-2.088,3.472-3.938c0.104,0.12,0.238,0.249,0.396,0.376c-0.244,0.918-1.542,5.307-4.462,7.153
	C36.343,89.733,35.945,89.349,35.717,88.86z M40.322,91.123c1.734-3.151,1.907-6.626,1.912-7.75c0.055,0.013,0.116,0.012,0.173,0.02
	l-0.027,7.859l-0.076,0C41.987,91.251,41.225,91.235,40.322,91.123z M49.35,88.86c-0.211,0.451-0.564,0.815-0.997,1.112
	c-2.867-1.897-4.14-6.244-4.367-7.103c0.089-0.067,0.171-0.134,0.248-0.201c0.704,1.759,2.201,2.882,3.412,3.784
	C49.137,87.562,49.709,88.09,49.35,88.86z"/>
</svg>
