<?xml version="1.0" encoding="utf-8"?>
<!-- Generator: Adobe Illustrator 15.1.0, SVG Export Plug-In . SVG Version: 6.00 Build 0)  -->
<!DOCTYPE svg PUBLIC "-//W3C//DTD SVG 1.1//EN" "http://www.w3.org/Graphics/SVG/1.1/DTD/svg11.dtd">
<svg version="1.1" id="Layer_1" xmlns="http://www.w3.org/2000/svg" xmlns:xlink="http://www.w3.org/1999/xlink" x="0px" y="0px"
	 width="100px" height="100px" viewBox="0 0 100 100" enable-background="new 0 0 100 100" xml:space="preserve">
<path d="M58.006,13.262c-0.191,0.691-0.548,1.372-1.084,1.951c-0.054,0.059-0.118,0.103-0.175,0.158
	c0.052-0.834,0.04-1.643-0.04-2.415c0.655-0.897,0.997-1.933,0.966-2.874c-0.238,0.623-0.617,1.231-1.121,1.77
	c-0.114-0.602-0.275-1.172-0.475-1.712c0.957-0.97,1.527-2.166,1.62-3.237c-0.348,0.692-0.852,1.373-1.511,1.951
	c-0.16,0.141-0.329,0.258-0.495,0.377c-0.335-0.675-0.755-1.275-1.252-1.799c0.271-0.533,0.461-1.076,0.526-1.589
	c-0.231,0.423-0.528,0.84-0.874,1.234c-0.247-0.225-0.52-0.425-0.804-0.611c0.16-0.182,0.32-0.367,0.466-0.566
	c0.894-1.24,1.231-2.509,0.979-3.418c-0.177,0.663-0.542,1.392-1.099,2.109c-0.397,0.512-0.854,0.963-1.342,1.348
	c-0.704-0.303-1.491-0.509-2.374-0.592c0.538-0.685,1.235-1.26,1.98-1.692c-1.013,0.26-2.082,0.84-2.937,1.645
	c-1.095,0.002-2.228,0.168-3.358,0.479c0.018-0.762,0.36-1.629,1.085-2.483c0.607-0.715,1.384-1.313,2.195-1.76
	c-1.362,0.341-2.88,1.233-3.893,2.468c-0.652,0.796-0.974,1.605-1.013,2.33c-0.62,0.246-1.231,0.525-1.823,0.848
	c-0.007-0.148-0.021-0.293-0.002-0.452c0.083-0.718,0.437-1.446,0.968-2.11c-1.189,0.881-2.046,2.097-2.175,3.295
	c-0.923,0.612-1.78,1.309-2.523,2.083c-0.152-0.339-0.243-0.72-0.227-1.148c0.025-0.718,0.318-1.446,0.794-2.11
	c-1.155,0.913-1.932,2.184-1.916,3.423c0.004,0.423,0.11,0.798,0.275,1.134c-0.491,0.68-0.899,1.397-1.206,2.148
	c-0.027-0.119-0.066-0.23-0.08-0.356c-0.08-0.717,0.104-1.446,0.476-2.11c-1.012,0.913-1.6,2.184-1.41,3.423
	c0.065,0.432,0.443,0.815,0.662,1.157c-0.016,0.114,0.176,0.225,0.165,0.339c-0.436,4.592,0.053,9.185,1.01,13.776
	c0.515,2.473,1.166,5.004,1.879,7.476C43.545,53.413,59,73.5,47.926,86c-0.426,1.75,12.907,1.667,14.13,0
	c10.147-16,2.686-32.587-2.014-48.852c-0.714-2.472-1.364-4.974-1.88-7.446c-0.881-4.228-1.365-8.469-1.096-12.696
	c0.006-0.095-0.006-0.188,0.088-0.295C58.035,15.711,58.164,14.406,58.006,13.262z"/>
</svg>
