<?xml version="1.0" encoding="utf-8"?>
<svg xmlns="http://www.w3.org/2000/svg"
	xmlns:xlink="http://www.w3.org/1999/xlink"
	x="0px" y="0px"
  width="100px" height="100px"
  viewBox="0 0 100 100"
  enable-background="new 0 0 100 100"
  xml:space="preserve">
<clipPath id="clip0">
<path fill-rule="evenodd" d="M-4 52C-4 52-4-4-4-4-4-4 52-4 52-4 52-4 52 52 52 52 52 52-4 52-4 52ZM 24 0C 10.75 0-0 10.75-0 24-0 37.25 10.75 48 24 48 37.25 48 48 37.25 48 24 48 10.75 37.25 0 24 0Z"/>
</clipPath>
<circle clip-path="url(#clip0)" fill="none" cx="24.00" cy="24.00" r="24.00" stroke="rgb(255,255,255)" stroke-width="4.00px"/>
<path fill="rgb(255,255,255)" fill-rule="evenodd" d="M 36 38C 36 38 11.99 38 11.99 38 10.89 38 10 37.11 10 36 10 36 10 11.99 10 11.99 10 10.89 10.89 10 11.99 10 11.99 10 36 10 36 10 37.11 10 38 10.89 38 11.99 38 11.99 38 36 38 36 38 37.11 37.11 38 36 38ZM 29.12 12.59C 29.12 12.59 18.88 12.59 18.88 12.59 18.88 12.59 18.88 15.08 18.88 15.08 18.88 15.08 29.12 15.08 29.12 15.08 29.12 15.08 29.12 12.59 29.12 12.59ZM 35 18.94C 35 18.42 34.57 17.99 34.04 17.99 34.04 17.99 13.95 17.99 13.95 17.99 13.42 17.99 12.99 18.42 12.99 18.94 12.99 18.94 12.99 34.05 12.99 34.05 12.99 34.58 13.42 35.01 13.95 35.01 13.95 35.01 34.04 35.01 34.04 35.01 34.57 35.01 35 34.58 35 34.05 35 34.05 35 18.94 35 18.94ZM 23.16 26.25C 23.16 25.7 23.17 25.19 23.2 24.74 23.05 24.91 22.87 25.1 22.66 25.29 22.66 25.29 21.69 26.09 21.69 26.09 21.69 26.09 20.49 24.61 20.49 24.61 20.49 24.61 23.43 22.22 23.43 22.22 23.43 22.22 25.51 22.22 25.51 22.22 25.51 22.22 25.51 30.77 25.51 30.77 25.51 30.77 23.16 30.77 23.16 30.77 23.16 30.77 23.16 26.25 23.16 26.25Z"/>
</svg>