<?xml version="1.0" encoding="utf-8"?>
<!-- Generator: Adobe Illustrator 15.0.2, SVG Export Plug-In . SVG Version: 6.00 Build 0)  -->
<!DOCTYPE svg PUBLIC "-//W3C//DTD SVG 1.1//EN" "http://www.w3.org/Graphics/SVG/1.1/DTD/svg11.dtd">
<svg version="1.1" id="Layer_1" xmlns="http://www.w3.org/2000/svg" xmlns:xlink="http://www.w3.org/1999/xlink" x="0px" y="0px"
	 width="100px" height="100px" viewBox="0 0 100 100" enable-background="new 0 0 100 100" xml:space="preserve">
<path d="M51.234,2C28.121,2,9.384,20.736,9.384,43.85c0,23.114,18.736,41.85,41.851,41.85c23.113,0,41.85-18.735,41.85-41.85
	C93.084,20.736,74.348,2,51.234,2z M51.234,80.241c-20.1,0-36.393-16.292-36.393-36.392c0-20.098,16.293-36.392,36.393-36.392
	c20.098,0,36.391,16.293,36.391,36.392C87.625,63.949,71.332,80.241,51.234,80.241z M72.641,21.754H29.729c-1.65,0-3,1.35-3,3
	v34.639c0,1.65,1.35,3,3,3h42.912c1.65,0,3-1.35,3-3V24.754C75.641,23.104,74.291,21.754,72.641,21.754z M37.004,59.363h-8.13
	v-8.129h8.13V59.363z M37.004,50.329h-8.13V42.2h8.13V50.329z M37.004,41.295h-8.13v-8.129h8.13V41.295z M46.039,59.363h-8.129
	v-8.129h8.129V59.363z M46.039,50.329h-8.129V42.2h8.129V50.329z M46.039,41.295h-8.129v-8.129h8.129V41.295z M55.073,59.363h-8.13
	v-8.129h8.13V59.363z M55.073,50.329h-8.13V42.2h8.13V50.329z M55.073,41.295h-8.13v-8.129h8.13V41.295z M64.107,59.363h-8.129
	v-8.129h8.129V59.363z M64.107,50.329h-8.129V42.2h8.129V50.329z M64.107,41.295h-8.129v-8.129h8.129V41.295z M73.142,59.363h-8.129
	v-8.129h8.129V59.363z M73.142,50.329h-8.129V42.2h8.129V50.329z M73.142,41.295h-8.129v-8.129h8.129V41.295z"/>
</svg>
