<?xml version="1.0" encoding="utf-8"?>
<!-- Generator: Adobe Illustrator 16.0.4, SVG Export Plug-In . SVG Version: 6.00 Build 0)  -->
<!DOCTYPE svg PUBLIC "-//W3C//DTD SVG 1.1//EN" "http://www.w3.org/Graphics/SVG/1.1/DTD/svg11.dtd">
<svg version="1.1" id="Layer_1" xmlns="http://www.w3.org/2000/svg" xmlns:xlink="http://www.w3.org/1999/xlink" x="0px" y="0px"
	 width="86.518px" height="93.684px" viewBox="0 0 86.518 93.684" enable-background="new 0 0 86.518 93.684" xml:space="preserve">
<path d="M85.017,27.493c-0.121-0.356-3.122-8.712-17.375-8.873c-0.154-0.001-0.306-0.002-0.456-0.002
	c-10.447,0-13.521,4.118-14.36,5.908c-0.883,1.881-0.682,3.93,0.523,5.348c1.479,1.739,4.169,2.771,7.036,2.726
	c2.633-0.054,4.9-1.053,6.222-2.741c1.651-2.109,5.703-4.473,9.961-4.699c0.053-0.003,0.103,0.001,0.154-0.001
	c0.724,1.101,1.089,2.18,1.335,3.1c0.906,3.375,0.507,19.24-18.017,35.203c-3.821,3.293-7.87,5.906-12.035,7.776
	c-6.188-1.959-12.102-6.645-15.508-17.033c-1.179-3.596-1.314-7.631-1.444-11.534c-0.204-6.084-0.396-11.832-4.928-13.891
	c-6.992-3.178-15.986-2.445-16.355-2.414l-0.484,0.024c-2.664,0.117-8.207,0.36-8.518,11.364C0.59,44.07,2.318,53.696,7.705,61.767
	c6.928,10.378,17.94,15.923,32.732,16.479c0.774,0.029,1.541,0.044,2.301,0.043c13.519,0,24.71-4.591,32.471-13.35
	C83.588,55.482,87.262,41.514,85.017,27.493z M82.822,25.645c-1.715-1.038-3.716-1.541-5.913-1.492
	c-0.707-0.908-1.593-1.71-2.665-2.397c2.044,0.219,3.981,0.667,5.707,1.201C81.262,23.866,82.191,24.825,82.822,25.645z
	 M73.196,21.159c-1.129-0.59-2.403-1.09-3.857-1.475c3.946,0.246,6.868,1.173,9.027,2.313
	C76.515,21.528,74.793,21.258,73.196,21.159z M54.11,29.226c-0.948-1.116-1.094-2.754-0.38-4.275
	c1.524-3.249,6.301-5.205,12.869-5.321c2.044,0.333,3.832,0.829,5.354,1.486c-10.639-0.097-15.361,7.301-16.425,9.27
	C54.975,30.053,54.486,29.668,54.11,29.226z M65.819,29.242c-1.136,1.451-3.123,2.31-5.455,2.357
	c-1.593,0.029-3.151-0.327-4.404-0.965c0.543-1.023,2.158-3.691,5.209-5.852c3.766-2.667,7.981-3.359,11.905-3.124
	c1.308,0.699,2.38,1.539,3.211,2.521C71.816,24.493,67.575,26.997,65.819,29.242z M79.022,27.999
	c-0.227-0.843-0.544-1.812-1.116-2.825c1.312,0.083,2.538,0.392,3.647,0.926c2.136,17.716-6.194,30.417-13.741,38.056
	c-0.899,0.035-1.796-0.069-2.639-0.091c-0.439-0.025-0.861-0.089-1.263-0.128c-0.4-0.047-0.782-0.077-1.128-0.142
	c-0.531-0.084-0.991-0.16-1.354-0.231C79.608,47.477,79.951,31.454,79.022,27.999z M60.489,64.388
	c0.104,0.025,0.231,0.055,0.4,0.091c0.422,0.102,1.02,0.209,1.735,0.329c0.357,0.071,0.749,0.106,1.162,0.159
	c0.413,0.045,0.848,0.115,1.3,0.146c0.534,0.021,1.09,0.071,1.653,0.103c-4.246,4.081-8.048,6.513-9.336,7.284
	c-2.539,0.023-5.237-0.183-7.921-0.85C53.287,69.819,56.983,67.382,60.489,64.388z M43.863,77.148
	c-2.062-0.38-4.732-0.872-7.657-1.893c3.405-0.376,7.282-1.27,11.43-3.047c2.786,0.88,5.621,1.227,8.318,1.29
	c-2.692,1.865-5.972,2.977-7.901,3.517c-1.197,0.116-2.414,0.196-3.655,0.232C44.221,77.215,44.05,77.183,43.863,77.148z
	 M30.053,42.703c0.133,3.973,0.271,8.08,1.493,11.812c3.412,10.409,9.228,15.303,15.374,17.46c-4.312,1.78-8.316,2.601-11.768,2.891
	c-5.373-2.077-11.438-6.031-16.127-14.31c-7.584-13.389-4.196-30.222-3.519-33.165c3.077,0.212,6.907,0.798,10.204,2.297
	C29.678,31.492,29.852,36.688,30.053,42.703z M1.768,37.781c0.284-10.074,4.84-10.274,7.562-10.394l0.515-0.026
	c0.029-0.002,1.006-0.082,2.544-0.082c0.75,0,1.643,0.022,2.614,0.078c-0.731,3.225-4.011,20.031,3.588,33.445
	c4.489,7.926,10.213,11.944,15.418,14.144c-4.269,0.228-7.575-0.335-9.392-0.765C1.32,65.086,1.73,39.086,1.768,37.781z
	 M27.638,75.224c1.266,0.159,2.747,0.273,4.416,0.273c0.94,0,1.948-0.045,2.998-0.129c2.458,0.941,4.768,1.497,6.738,1.894
	c-0.439-0.007-0.871,0.001-1.315-0.016C35.61,77.064,31.358,76.345,27.638,75.224z M50.684,76.69c1.926-0.703,4.192-1.739,6.1-3.178
	c2.024,0.006,3.958-0.132,5.716-0.308C58.899,74.893,54.938,76.047,50.684,76.69z M64.987,71.923
	c-1.912,0.223-4.17,0.481-6.603,0.557c1.77-1.123,5.261-3.535,9.056-7.243c0.162,0.001,0.324,0.005,0.487-0.002
	c0.484-0.004,0.969-0.008,1.445-0.012c0.479,0.014,0.945-0.06,1.398-0.091c0.453-0.041,0.891-0.08,1.307-0.118
	c0.417-0.024,0.806-0.09,1.163-0.164c0.295-0.055,0.562-0.105,0.812-0.152C71.409,67.59,68.382,70.014,64.987,71.923z M75.28,63.29
	c-0.234,0.046-1.061,0.208-2.221,0.438c-0.343,0.075-0.717,0.144-1.119,0.17c-0.4,0.04-0.823,0.083-1.26,0.126
	c-0.438,0.035-0.888,0.113-1.351,0.104c-0.265,0.005-0.535,0.01-0.804,0.015c7.479-7.704,15.534-20.306,13.559-37.753
	c0.717,0.407,1.387,0.9,1.989,1.501C86.126,41.013,82.84,54.12,75.28,63.29z"/>
</svg>
