<?xml version="1.0" encoding="utf-8"?>
<!-- Generator: Adobe Illustrator 15.1.0, SVG Export Plug-In . SVG Version: 6.00 Build 0)  -->
<!DOCTYPE svg PUBLIC "-//W3C//DTD SVG 1.1//EN" "http://www.w3.org/Graphics/SVG/1.1/DTD/svg11.dtd">
<svg version="1.1" id="Layer_1" xmlns="http://www.w3.org/2000/svg" xmlns:xlink="http://www.w3.org/1999/xlink" x="0px" y="0px"
	 width="100px" height="100px" viewBox="0 0 100 100" enable-background="new 0 0 100 100" xml:space="preserve">
<path d="M60.006,39.026c5.795-10.296,5.957-19.729,0.472-26.543C55.92,6.229,46.597,2.239,43.242,2.239
	c-0.159,0-0.302,0.01-0.414,0.026c-0.148,0.016-0.283,0.066-0.423,0.103c-0.071,0.001-0.14,0.02-0.204,0.05
	c-0.775,0.262-1.424,0.827-1.855,1.664c-0.879,1.704-0.827,4.199,0.064,6.781c-0.425-0.192-0.911-0.29-1.453-0.186
	c-0.271,0.052-0.448,0.315-0.396,0.586c0.052,0.271,0.308,0.449,0.586,0.396c0.894-0.174,1.641,0.638,1.984,1.097
	c-0.356-0.115-0.748-0.161-1.175-0.079c-0.271,0.052-0.448,0.315-0.396,0.586c0.053,0.271,0.31,0.449,0.586,0.396
	c0.895-0.174,1.643,0.64,1.986,1.099c-0.356-0.116-0.749-0.162-1.176-0.081c-0.271,0.052-0.448,0.315-0.396,0.586
	c0.052,0.271,0.308,0.449,0.586,0.396c1.224-0.239,2.181,1.38,2.19,1.396c0.083,0.144,0.229,0.219,0.382,0.236
	c0.277,0.539,0.542,1.077,0.79,1.617c-0.447-0.223-0.969-0.344-1.552-0.23c-0.271,0.052-0.448,0.315-0.396,0.586
	c0.052,0.271,0.308,0.449,0.586,0.396c1.224-0.24,2.181,1.38,2.19,1.396c0.02,0.035,0.055,0.052,0.081,0.08
	c0.106,0.295,0.205,0.591,0.298,0.887c-0.489-0.293-1.082-0.477-1.759-0.345c-0.271,0.052-0.448,0.315-0.396,0.586
	c0.053,0.27,0.31,0.447,0.586,0.396c0.954-0.186,1.733,0.738,2.042,1.174c0.123,0.589,0.215,1.181,0.271,1.777
	c-0.567-0.566-1.432-1.138-2.503-0.933c-0.271,0.052-0.448,0.315-0.396,0.586c0.053,0.271,0.31,0.449,0.586,0.396
	c1.231-0.233,2.181,1.38,2.19,1.396c0.046,0.08,0.111,0.142,0.186,0.184c-0.007,0.348-0.025,0.696-0.059,1.047
	c-0.018,0.141-0.042,0.281-0.061,0.421c-0.406-0.643-1.055-1.296-2.04-1.378c-0.274-0.019-0.517,0.183-0.54,0.458
	c-0.022,0.275,0.182,0.517,0.458,0.54c1.244,0.103,1.726,1.918,1.731,1.936c0.022,0.085,0.08,0.146,0.137,0.207
	c-0.102,0.708-0.197,1.417-0.307,2.122c-0.252-0.414-0.61-0.783-1.118-1.037c-0.247-0.123-0.547-0.024-0.671,0.224
	c-0.124,0.247-0.023,0.547,0.224,0.671c1.227,0.613,1.157,2.432,1.118,2.896c-0.012,0.071-0.023,0.141-0.035,0.211
	c-0.492-0.763-1.288-1.562-2.491-1.616c-0.257-0.018-0.51,0.201-0.522,0.477c-0.013,0.276,0.201,0.51,0.477,0.522
	c1.568,0.071,2.226,2.275,2.232,2.297c0.003,0.011,0.015,0.016,0.018,0.026c-0.042,0.247-0.083,0.502-0.125,0.748
	c-0.11,0.642-0.219,1.282-0.327,1.921c-0.484-0.84-1.389-1.93-2.825-1.937c-0.261-0.011-0.5,0.221-0.502,0.498
	c-0.001,0.276,0.221,0.501,0.498,0.502c1.569,0.008,2.315,2.183,2.323,2.205c0.043,0.128,0.139,0.212,0.25,0.27
	c-0.094,0.573-0.188,1.145-0.277,1.715c-0.401-0.646-1.009-1.242-1.932-1.424c-0.271-0.054-0.534,0.123-0.587,0.394
	s0.123,0.534,0.394,0.587c1.286,0.253,1.718,1.868,1.829,2.412c-0.083,0.58-0.165,1.158-0.239,1.734
	c-0.488-0.722-1.3-1.408-2.502-1.357c-0.276,0.015-0.487,0.25-0.473,0.526s0.25,0.48,0.526,0.473
	c1.444-0.104,1.967,1.597,1.988,1.669c0.041,0.14,0.145,0.23,0.267,0.29c-0.072,0.639-0.137,1.276-0.194,1.912
	c-0.495-0.514-1.191-0.912-2.115-0.87c-0.276,0.015-0.487,0.25-0.473,0.526s0.25,0.488,0.526,0.473
	c1.214-0.073,1.772,1.097,1.933,1.517c-0.562,8.654,0.659,17.012,6.921,25.121l0.351,0.454l0.261-0.266l0.093-0.003l0.144-0.252
	c0.006-0.011,0.005-0.021,0.01-0.03c0.13-0.162,0.23-0.34,0.301-0.536c0.001-0.003,0.001-0.005,0.003-0.007
	c0.33-0.936,0.059-2.257-0.301-3.954c-0.469-2.213-1.11-5.244-0.627-8.79C50.6,57.245,54.881,48.698,60.006,39.026z M42.396,3.409
	c10.417,4.733,16.476,9.867,18.509,15.692c2.595,7.436-1.523,15.442-5.883,23.919c-1.135,2.205-2.307,4.484-3.384,6.796
	c-3.464,7.434-4.324,13.255-4.131,17.551c-0.407-3.052-0.209-6.251,0.597-9.579c0.678-3.202,2.045-6.863,3.492-10.739
	c1.358-3.636,2.762-7.395,3.923-11.527c1.806-8.062,2.279-20.04-14.136-31.221C41.602,3.954,41.922,3.607,42.396,3.409z
	 M44.034,52.225c0.034-0.094,0.047-0.195,0.019-0.299c0.142-2.113,0.388-4.246,0.694-6.398c0.054-0.092,0.086-0.198,0.071-0.312
	c-0.001-0.01-0.006-0.042-0.013-0.084c0.334-2.295,0.729-4.612,1.13-6.952c0.143-0.837,0.283-1.698,0.426-2.548
	c0.003-0.014,0.011-0.025,0.013-0.04c0.001-0.012,0.007-0.058,0.013-0.118c0.39-2.329,0.771-4.687,1.071-7.077
	c0.148-1.511,0.05-2.983-0.222-4.428c0.047-0.132,0.043-0.281-0.032-0.413c-0.006-0.011-0.031-0.053-0.07-0.113
	c-0.79-3.613-2.671-7.064-4.718-10.54c-1.723-3.087-1.972-5.928-1.452-7.675c15.763,10.812,15.314,22.324,13.585,30.05
	c-1.143,4.065-2.539,7.805-3.89,11.422c-1.46,3.912-2.84,7.606-3.53,10.867c-1.144,4.72-1.104,9.202,0.11,13.389
	C44.249,64.889,43.635,58.646,44.034,52.225z M49.84,72.781c0.125,0.592,0.237,1.135,0.318,1.626
	c-1.482-3.165-3.69-11.129,2.387-24.169c1.068-2.293,2.237-4.564,3.366-6.761c4.461-8.673,8.675-16.865,5.938-24.706
	C59.866,13.09,54.315,8.081,44.928,3.498c3.807,0.926,10.958,4.381,14.756,9.593c5.227,6.493,5.031,15.529-0.555,25.456
	c-5.188,9.787-9.515,18.437-9.933,25.139C48.694,67.367,49.356,70.496,49.84,72.781z"/>
</svg>
