<?xml version="1.0" encoding="utf-8"?>
<!-- Generator: Adobe Illustrator 15.1.0, SVG Export Plug-In . SVG Version: 6.00 Build 0)  -->
<!DOCTYPE svg PUBLIC "-//W3C//DTD SVG 1.1//EN" "http://www.w3.org/Graphics/SVG/1.1/DTD/svg11.dtd">
<svg version="1.1" id="Layer_1" xmlns="http://www.w3.org/2000/svg" xmlns:xlink="http://www.w3.org/1999/xlink" x="0px" y="0px"
	 width="100px" height="100px" viewBox="0 0 100 100" enable-background="new 0 0 100 100" xml:space="preserve">
<path d="M42.211,77h17.823l-0.563-0.79c-2.35-3.297-4.553-6.751-6.678-10.439c-0.127-2.924-0.113-5.847-0.017-8.771h4.953
	l-0.104-0.588c-0.996-5.58-1.684-11.259-2.35-16.752c-0.232-1.92-0.474-3.866-0.725-5.819c0.08-0.947,0.152-1.894,0.225-2.841
	c0.776,0,1.553,0,2.329,0c-0.511-3.54-1.098-7.08-1.824-10.621c0.066-4.834-0.132-9.669-0.833-14.504
	C54.218,4.287,52.695,3,51.125,3c-0.083,0-0.166,0-0.248,0c-1.572,0-2.601,1.287-2.375,2.875c0.696,4.854,0.886,9.707,0.809,14.561
	c-0.826,3.521-1.793,7.043-2.841,10.564c0.773,0,1.546,0,2.319,0c-0.07,0.903-0.14,1.806-0.218,2.708
	c-0.644,2.157-1.297,4.306-1.948,6.425c-1.635,5.322-3.326,10.825-4.701,16.244L41.765,57h4.984
	c-0.106,3.049-0.126,6.098,0.013,9.146c-1.741,3.606-3.17,6.975-4.313,10.186L42.211,77z M54.283,39.781
	c0.644,5.314,1.309,10.802,2.254,16.219h-3.721c0.232-5.816,0.783-11.631,1.316-17.447C54.183,38.961,54.234,39.374,54.283,39.781z
	 M43.052,56c1.338-5.194,2.958-10.467,4.527-15.574c0.183-0.593,0.366-1.195,0.549-1.792C47.587,44.423,47.032,50.211,46.791,56
	H43.052z M46.901,68.208c0.043,0.64,0.071,1.278,0.129,1.917c0.006,0.07,0.029,0.136,0.04,0.205
	c-0.642,1.557-1.248,3.113-1.794,4.67c3.629,0,7.258,0,10.887,0c-1.087-1.635-2.108-3.271-3.086-4.906
	c-0.065-0.706-0.1-1.412-0.146-2.118c1.661,2.79,3.37,5.461,5.167,8.024H43.632C44.539,73.518,45.638,70.924,46.901,68.208z"/>
</svg>
