<?xml version="1.0" encoding="utf-8"?>
<!-- Generator: Adobe Illustrator 16.0.4, SVG Export Plug-In . SVG Version: 6.00 Build 0)  -->
<!DOCTYPE svg PUBLIC "-//W3C//DTD SVG 1.1//EN" "http://www.w3.org/Graphics/SVG/1.1/DTD/svg11.dtd">
<svg version="1.1" id="Layer_1" xmlns="http://www.w3.org/2000/svg" xmlns:xlink="http://www.w3.org/1999/xlink" x="0px" y="0px"
	 width="86.518px" height="93.684px" viewBox="0 0 86.518 93.684" enable-background="new 0 0 86.518 93.684" xml:space="preserve">
<g>
	<path d="M2.445,26.759c-0.133-0.053-0.281-0.07-0.432-0.04c0.006,0-0.128,0.025-0.109,0.097c-0.005,0.07-0.013,0.172-0.022,0.303
		c-0.021,0.26-0.047,0.633-0.062,1.086c-0.02,0.451-0.042,0.977-0.066,1.541c-0.015,0.563,0.004,1.165,0.004,1.766
		c0.002,0.3,0.005,0.601,0.007,0.896c0.009,0.295-0.012,0.586,0.026,0.868c0.056,0.562,0.108,1.086,0.154,1.535
		c0.095,0.896,0.158,1.493,0.158,1.493c0.007,0.066,0.064,0.117,0.132,0.114c0.07-0.003,0.124-0.063,0.121-0.133L2.355,36.27
		c0,0-0.026-0.595-0.066-1.488c-0.022-0.445-0.049-0.963-0.077-1.52c-0.028-0.276,0.002-0.566,0.002-0.859
		c0.008-0.293,0.016-0.59,0.023-0.888c0.02-0.595,0.021-1.19,0.054-1.746c0.042-0.555,0.081-1.073,0.115-1.518
		c0.029-0.443,0.065-0.814,0.097-1.075c0.014-0.13,0.025-0.232,0.032-0.302C2.567,26.809,2.439,26.759,2.445,26.759z"/>
	<path d="M85.635,26.461c0,0-2.271-1.138-5.802-2.555c-3.529-1.406-8.319-3.147-13.344-4.109c-1.247-0.236-2.559-0.448-3.783-0.542
		l-0.943-0.086c-0.312-0.011-0.624-0.021-0.934-0.033c-0.619-0.031-1.231-0.038-1.835-0.016c-0.604,0-1.196,0.029-1.777,0.081
		c-0.581,0.03-1.147,0.101-1.699,0.176c-1.104,0.138-2.137,0.364-3.083,0.602c-0.943,0.259-1.799,0.54-2.538,0.849
		c-0.745,0.295-1.37,0.621-1.881,0.901c-0.508,0.29-0.896,0.544-1.157,0.74c-0.051,0.037-0.094,0.069-0.136,0.102
		c-0.876-0.605-1.958-0.95-3.329-0.95s-2.453,0.345-3.328,0.95c-0.043-0.032-0.086-0.065-0.137-0.102
		c-0.262-0.195-0.649-0.45-1.157-0.74c-0.511-0.28-1.136-0.606-1.881-0.901c-0.739-0.31-1.595-0.59-2.538-0.849
		c-0.946-0.238-1.979-0.463-3.083-0.602c-0.552-0.075-1.118-0.146-1.699-0.176c-0.581-0.052-1.174-0.081-1.777-0.081
		c-0.604-0.022-1.216-0.015-1.835,0.016c-0.31,0.011-0.621,0.022-0.934,0.033l-0.943,0.086c-1.225,0.094-2.536,0.305-3.783,0.542
		c-5.024,0.962-9.814,2.703-13.344,4.109c-3.53,1.417-5.802,2.555-5.802,2.555c-0.131,0.065-0.188,0.224-0.125,0.357
		c0.063,0.135,0.225,0.193,0.359,0.129c0,0,2.278-1.073,5.819-2.393c3.535-1.31,8.337-2.918,13.275-3.737
		c1.239-0.201,2.431-0.369,3.689-0.436l0.908-0.061c0.303-0.003,0.604-0.005,0.904-0.008c0.6-0.016,1.19-0.007,1.771,0.03
		c0.582,0.015,1.15,0.058,1.705,0.122c0.557,0.043,1.095,0.125,1.618,0.209c1.048,0.158,2.019,0.397,2.902,0.644
		c0.878,0.267,1.669,0.548,2.343,0.851c0.681,0.29,1.239,0.601,1.69,0.864c0.405,0.246,0.704,0.453,0.915,0.613
		c-2.083,2.679-2.318,7.781-2.318,13.857c0,7.727,1.64,14.204,4.038,17.041c1.593,4.913,1.543,5.604,1.543,5.604h0.029
		c-0.044,0.212-0.098,0.459-0.172,0.762c-0.191,0.796-0.496,1.849-0.912,2.856c-0.41,1.009-0.95,1.967-1.491,2.572
		c-0.121,0.164-0.273,0.271-0.387,0.391c-0.114,0.12-0.229,0.202-0.329,0.265c-0.193,0.133-0.305,0.208-0.305,0.208l-0.014,0.01
		c-0.039,0.027-0.051,0.081-0.025,0.122c0.027,0.042,0.082,0.055,0.125,0.028c0,0,0.119-0.075,0.329-0.207
		c0.107-0.063,0.233-0.146,0.356-0.267c0.123-0.119,0.289-0.229,0.42-0.395c0.587-0.611,1.176-1.576,1.633-2.592
		c0.67-1.464,1.083-3.001,1.265-3.754h0.037c-0.126,0.898-0.263,1.797-0.421,2.691c-0.198,1.075-0.414,2.147-0.672,3.21
		c-0.111,0.535-0.264,1.059-0.414,1.584c-0.158,0.521-0.273,1.06-0.48,1.563l-0.282,0.766c-0.099,0.253-0.177,0.518-0.294,0.762
		l-0.754,1.437l-0.013,0.023c-0.031,0.061-0.009,0.136,0.051,0.169c0.062,0.033,0.138,0.011,0.171-0.05l0.804-1.462
		c0.124-0.248,0.208-0.512,0.313-0.767l0.301-0.772c0.22-0.51,0.346-1.047,0.516-1.572c0.161-0.526,0.326-1.054,0.448-1.59
		c0.28-1.065,0.517-2.141,0.736-3.219c0.028-0.145,0.049-0.291,0.076-0.436c-0.009,0.449-0.014,0.897-0.037,1.345
		c-0.022,0.699-0.06,1.398-0.122,2.095s-0.086,1.397-0.185,2.09L42.241,70.1c-0.102,0.691-0.234,1.377-0.351,2.065l-0.18,1.032
		l-0.245,1.023l-0.494,2.046c-0.016,0.063,0.022,0.127,0.085,0.143c0.063,0.017,0.128-0.021,0.144-0.084l0.527-2.038
		c0.191-0.675,0.34-1.362,0.459-2.059c0.127-0.692,0.272-1.384,0.386-2.079l0.286-2.092c0.109-0.695,0.145-1.399,0.219-2.1
		c0.073-0.7,0.122-1.402,0.155-2.105c0.084-1.232,0.104-2.465,0.1-3.704h0.062h0.062c-0.004,1.239,0.016,2.472,0.1,3.704
		c0.033,0.703,0.082,1.405,0.156,2.105s0.108,1.404,0.219,2.1l0.285,2.092c0.113,0.695,0.259,1.387,0.387,2.079
		c0.119,0.696,0.268,1.384,0.459,2.059l0.527,2.038c0.016,0.062,0.079,0.101,0.143,0.085c0.062-0.016,0.102-0.08,0.086-0.144
		l-0.495-2.046l-0.245-1.023l-0.18-1.032c-0.115-0.688-0.248-1.374-0.35-2.065l-0.252-2.084c-0.098-0.692-0.121-1.394-0.185-2.09
		c-0.062-0.696-0.1-1.396-0.122-2.095c-0.023-0.448-0.028-0.896-0.038-1.345c0.028,0.145,0.049,0.291,0.077,0.436
		c0.221,1.078,0.457,2.153,0.737,3.219c0.122,0.536,0.287,1.063,0.448,1.59c0.169,0.525,0.296,1.062,0.516,1.572l0.301,0.772
		c0.105,0.255,0.189,0.519,0.312,0.767l0.805,1.462c0.033,0.06,0.107,0.082,0.168,0.051c0.062-0.032,0.086-0.108,0.054-0.17
		l-0.013-0.023l-0.754-1.437c-0.117-0.244-0.195-0.509-0.294-0.762l-0.282-0.766c-0.207-0.504-0.323-1.042-0.48-1.563
		c-0.15-0.525-0.303-1.049-0.415-1.584c-0.258-1.062-0.474-2.135-0.672-3.21c-0.158-0.895-0.295-1.793-0.421-2.691h0.037
		c0.181,0.753,0.595,2.29,1.266,3.754c0.456,1.016,1.046,1.98,1.633,2.592c0.131,0.165,0.297,0.276,0.42,0.395
		c0.123,0.12,0.249,0.203,0.356,0.267c0.21,0.132,0.329,0.207,0.329,0.207c0.041,0.025,0.096,0.015,0.123-0.025
		c0.027-0.041,0.018-0.097-0.023-0.125l-0.014-0.01c0,0-0.111-0.075-0.305-0.208c-0.1-0.062-0.215-0.145-0.329-0.265
		c-0.113-0.119-0.267-0.227-0.388-0.391c-0.54-0.605-1.08-1.562-1.49-2.572c-0.416-1.008-0.722-2.061-0.913-2.856
		c-0.073-0.303-0.127-0.55-0.172-0.762h0.029c0,0-0.049-0.692,1.545-5.607c2.397-2.838,4.037-9.313,4.037-17.038
		c0-6.076-0.235-11.179-2.319-13.858c0.211-0.16,0.51-0.367,0.914-0.612c0.451-0.263,1.01-0.574,1.69-0.864
		c0.674-0.303,1.465-0.584,2.343-0.851c0.884-0.246,1.854-0.485,2.902-0.644c0.523-0.084,1.062-0.167,1.618-0.209
		c0.555-0.064,1.123-0.107,1.705-0.122c0.58-0.037,1.171-0.045,1.771-0.03c0.3,0.003,0.602,0.005,0.904,0.008l0.908,0.061
		c1.259,0.067,2.45,0.235,3.689,0.436c4.938,0.818,9.74,2.427,13.275,3.737c3.54,1.32,5.819,2.393,5.819,2.393
		c0.132,0.062,0.292,0.007,0.356-0.125C85.823,26.689,85.769,26.527,85.635,26.461z M43.394,55.088
		c-2.793,0-5.784-7.066-5.784-17.585c0-6.838,0.402-11.238,2.192-13.367c0.219,0.004,0.438-0.073,0.595-0.249
		c0.12-0.134,0.172-0.298,0.184-0.465c0.462-0.327,0.996-0.549,1.605-0.673c-0.012,0.042-0.041,0.079-0.041,0.122
		c0,0.414,0.56,0.75,1.25,0.75s1.25-0.336,1.25-0.75c0-0.043-0.029-0.081-0.041-0.122c0.608,0.124,1.142,0.346,1.604,0.672
		c0.012,0.167,0.063,0.332,0.184,0.465c0.157,0.176,0.376,0.254,0.595,0.249c1.792,2.128,2.194,6.529,2.194,13.367
		C49.18,48.022,46.188,55.088,43.394,55.088z"/>
	<path d="M84.968,28.206c-0.016-0.453-0.04-0.826-0.062-1.086c-0.01-0.131-0.018-0.233-0.022-0.303
		c0.019-0.072-0.115-0.097-0.109-0.097c-0.141-0.028-0.289-0.017-0.432,0.04c0.006,0-0.121,0.049-0.09,0.117
		c0.008,0.069,0.019,0.172,0.032,0.302c0.03,0.261,0.067,0.631,0.097,1.075c0.034,0.444,0.073,0.962,0.115,1.518
		c0.033,0.556,0.034,1.151,0.054,1.746c0.008,0.297,0.016,0.595,0.022,0.888c0.002,0.292,0.031,0.583,0.003,0.859
		c-0.028,0.556-0.055,1.075-0.077,1.52c-0.04,0.893-0.066,1.488-0.066,1.488l-0.001,0.017c-0.003,0.066,0.046,0.125,0.113,0.131
		c0.07,0.007,0.133-0.043,0.14-0.113c0,0,0.063-0.597,0.158-1.493c0.045-0.449,0.098-0.974,0.154-1.535
		c0.037-0.281,0.018-0.572,0.026-0.868c0.002-0.296,0.005-0.596,0.007-0.896c0-0.601,0.019-1.202,0.004-1.766
		C85.01,29.183,84.987,28.657,84.968,28.206z"/>
</g>
</svg>
