<?xml version="1.0" encoding="utf-8"?>
<!-- Generator: Adobe Illustrator 15.1.0, SVG Export Plug-In . SVG Version: 6.00 Build 0)  -->
<!DOCTYPE svg PUBLIC "-//W3C//DTD SVG 1.1//EN" "http://www.w3.org/Graphics/SVG/1.1/DTD/svg11.dtd">
<svg version="1.1" id="Layer_1" xmlns="http://www.w3.org/2000/svg" xmlns:xlink="http://www.w3.org/1999/xlink" x="0px" y="0px"
	 width="100px" height="100px" viewBox="0 0 100 100" enable-background="new 0 0 100 100" xml:space="preserve">
<line fill="none" stroke="#000000" stroke-width="2" stroke-linecap="round" stroke-miterlimit="10" x1="53" y1="47" x2="53" y2="85"/>
<line fill="none" stroke="#000000" stroke-width="2" stroke-linecap="round" stroke-miterlimit="10" x1="47" y1="43" x2="47" y2="81"/>
<ellipse transform="matrix(1 0.0032 -0.0032 1 0.112 -0.1605)" stroke="#000000" stroke-width="2" stroke-miterlimit="10" cx="50.086" cy="34.842" rx="19.411" ry="22.025"/>
<circle stroke="#000000" stroke-width="2" stroke-miterlimit="10" cx="50.791" cy="15.124" r="4.457"/>
<path fill="#FFFFFF" d="M35.936,35.452c0.026-10.474,5.826-18.992,13.113-19.585c-0.252-0.021-0.5-0.056-0.756-0.057
	c-7.682-0.031-13.932,8.764-13.959,19.642c-0.028,10.879,6.177,19.722,13.859,19.753c0.285,0.001,0.564-0.034,0.847-0.057
	C41.712,54.559,35.909,45.97,35.936,35.452z"/>
<path fill="#FFFFFF" d="M64.442,35.727c-0.325,10.468-6.365,18.818-13.665,19.203c0.252,0.028,0.498,0.071,0.754,0.079
	c7.677,0.249,14.175-8.363,14.513-19.236c0.338-10.874-5.612-19.89-13.291-20.14c-0.285-0.009-0.564,0.018-0.847,0.033
	C59.213,16.464,64.77,25.214,64.442,35.727z"/>
</svg>
