<?xml version="1.0" encoding="utf-8"?>
<!-- Generator: Adobe Illustrator 15.1.0, SVG Export Plug-In . SVG Version: 6.00 Build 0)  -->
<!DOCTYPE svg PUBLIC "-//W3C//DTD SVG 1.1//EN" "http://www.w3.org/Graphics/SVG/1.1/DTD/svg11.dtd">
<svg version="1.1" id="Layer_1" xmlns="http://www.w3.org/2000/svg" xmlns:xlink="http://www.w3.org/1999/xlink" x="0px" y="0px"
	 width="100px" height="100px" viewBox="0 0 100 100" enable-background="new 0 0 100 100" xml:space="preserve">
<path d="M65.705,12.008c-2.926-3.341-6.5-5.706-10.424-6.94c-1.019-2.014-3.104-3.401-5.51-3.401c-2.197,0-4.125,1.157-5.22,2.891
	c-10.846,2.326-19.099,13.04-19.14,25.948C25.371,43.275,33.356,53.904,44,56.428V84c0,0.553,0.448,1,1,1s1-0.447,1-1V56.797
	C46.941,56.926,47.898,57,48.87,57h0.065c0.696,0,1.384-0.041,2.065-0.107V89c0,0.553,0.447,1,1,1s1-0.447,1-1V56.599
	c11.021-2.155,19.454-12.913,19.497-25.961C72.521,23.562,70.107,17.036,65.705,12.008z M47.738,54.325
	c-0.328,0.026-0.652,0.067-0.983,0.065c-8.921-0.036-16.127-10.306-16.095-22.939S37.951,8.604,46.871,8.64
	c0.298,0.001,0.586,0.043,0.879,0.066c-8.463,0.689-15.198,10.581-15.229,22.745C32.489,43.666,39.229,53.641,47.738,54.325z
	 M49,56.32l0-0.003c0,0,0,0,0,0V56.32z M50.633,54.163c-0.297-0.009-0.583-0.059-0.876-0.092
	c8.478-0.447,15.492-10.144,15.87-22.301c0.38-12.209-6.073-22.372-14.559-23.298c0.328-0.017,0.652-0.049,0.982-0.038
	c8.918,0.29,15.828,10.761,15.436,23.389C67.094,44.45,59.548,54.452,50.633,54.163z"/>
</svg>
