<?xml version="1.0" encoding="utf-8"?>
<!-- Generator: Adobe Illustrator 15.0.2, SVG Export Plug-In . SVG Version: 6.00 Build 0)  -->
<!DOCTYPE svg PUBLIC "-//W3C//DTD SVG 1.1//EN" "http://www.w3.org/Graphics/SVG/1.1/DTD/svg11.dtd">
<svg version="1.1" id="Layer_1" xmlns="http://www.w3.org/2000/svg" xmlns:xlink="http://www.w3.org/1999/xlink" x="0px" y="0px"
	 width="100px" height="100px" viewBox="0 0 100 100" enable-background="new 0 0 100 100" xml:space="preserve">
<g>
	<polygon points="52,52 48,52 48,59 45.376,59 49.845,63.469 54.314,59 52,59 	"/>
	<path d="M50,27c-12.703,0-23,10.297-23,23s10.297,23,23,23s23-10.297,23-23S62.703,27,50,27z M50,70c-11.046,0-20-8.963-20-20.021
		c0-1.354,0.138-2.675,0.394-3.954c0.188,0.021,0.372,0.057,0.565,0.057c1.979,0,3.675-1.15,4.5-2.811
		c0.825,1.66,2.52,2.811,4.5,2.811c1.979,0,3.675-1.15,4.5-2.811c0.825,1.66,2.52,2.811,4.5,2.811c1.979,0,3.675-1.15,4.5-2.811
		c0.824,1.66,2.52,2.811,4.5,2.811c1.979,0,3.675-1.15,4.5-2.811c0.824,1.66,2.52,2.811,4.5,2.811c0.912,0,1.756-0.261,2.494-0.685
		C69.799,46.871,70,48.4,70,49.979C70,61.037,61.046,70,50,70z"/>
</g>
</svg>
