<?xml version="1.0" encoding="utf-8"?>
<svg xmlns="http://www.w3.org/2000/svg"
	xmlns:xlink="http://www.w3.org/1999/xlink"
	x="0px" y="0px"
  width="100px" height="100px"
  viewBox="0 0 100 100"
  enable-background="new 0 0 100 100"
  xml:space="preserve">
<clipPath id="clip0">
<path fill-rule="evenodd" d="M-4 52C-4 52-4-4-4-4-4-4 52-4 52-4 52-4 52 52 52 52 52 52-4 52-4 52ZM 24 0C 10.75 0 0 10.75 0 24 0 37.25 10.75 48 24 48 37.25 48 48 37.25 48 24 48 10.75 37.25 0 24 0Z"/>
</clipPath>
<circle clip-path="url(#clip0)" fill="none" cx="24.00" cy="24.00" r="24.00" stroke="rgb(255,255,255)" stroke-width="4.00px"/>
<path fill="rgb(255,255,255)" fill-rule="evenodd" d="M 24 46.01C 11.85 46.01 1.99 36.26 1.99 24.24 1.99 24.13 2.01 24.03 2.01 23.93 2.47 23.72 2.88 23.4 3.19 23.01 3.78 23.75 4.69 24.24 5.72 24.24 6.75 24.24 7.66 23.75 8.25 23.01 8.85 23.75 9.75 24.24 10.78 24.24 11.81 24.24 12.72 23.75 13.32 23.01 13.91 23.75 14.82 24.24 15.85 24.24 16.88 24.24 17.79 23.75 18.38 23.01 18.97 23.75 19.88 24.24 20.91 24.24 21.94 24.24 22.85 23.75 23.44 23.01 24.04 23.75 24.95 24.24 25.98 24.24 27.01 24.24 27.91 23.75 28.51 23.01 29.1 23.75 30.01 24.24 31.04 24.24 32.07 24.24 32.98 23.75 33.57 23.01 34.17 23.75 35.07 24.24 36.1 24.24 37.13 24.24 38.04 23.75 38.63 23.01 39.23 23.75 40.14 24.24 41.17 24.24 42.2 24.24 43.1 23.75 43.7 23.01 44.25 23.7 45.07 24.15 46.01 24.21 46.01 24.22 46.01 24.23 46.01 24.24 46.01 36.26 36.16 46.01 24 46.01ZM 26.07 28.56C 26.07 28.56 21.94 28.56 21.94 28.56 21.94 28.56 21.94 29.58 21.94 29.58 21.94 29.58 26.07 29.58 26.07 29.58 26.07 29.58 26.07 28.56 26.07 28.56ZM 26.07 38.35C 26.07 38.35 21.94 38.35 21.94 38.35 21.94 38.35 21.94 39.37 21.94 39.37 21.94 39.37 26.07 39.37 26.07 39.37 26.07 39.37 26.07 38.35 26.07 38.35ZM 21.94 18.78C 21.94 18.78 26.07 18.78 26.07 18.78 26.07 18.78 26.07 19.8 26.07 19.8 26.07 19.8 21.94 19.8 21.94 19.8 21.94 19.8 21.94 18.78 21.94 18.78ZM 21.94 8.99C 21.94 8.99 26.07 8.99 26.07 8.99 26.07 8.99 26.07 10.01 26.07 10.01 26.07 10.01 21.94 10.01 21.94 10.01 21.94 10.01 21.94 8.99 21.94 8.99Z"/>
</svg>