<?xml version="1.0" encoding="utf-8"?>
<svg version="1.1"
  xmlns="http://www.w3.org/2000/svg"
	xmlns:xlink="http://www.w3.org/1999/xlink"
	x="0px" y="0px"
  width="100px" height="100px" viewBox="0 0 100 100" enable-background="new 0 0 100 100" xml:space="preserve">
<clipPath id="clip0">
<path fill-rule="evenodd" d="M-4 52C-4 52-4-4-4-4-4-4 52-4 52-4 52-4 52 52 52 52 52 52-4 52-4 52ZM 24 0C 10.75 0 0 10.75 0 24 0 37.25 10.75 48 24 48 37.25 48 48 37.25 48 24 48 10.75 37.25 0 24 0Z"/>
</clipPath>
<circle clip-path="url(#clip0)" fill="none" cx="24.00" cy="24.00" r="24.00" stroke="rgb(255,255,255)" stroke-width="4.00px"/>
<path fill="rgb(255,255,255)" fill-rule="evenodd" d="M 42.8 22.99C 42.24 23.7 41.37 24.16 40.39 24.16 39.4 24.16 38.54 23.7 37.97 22.99 37.4 23.7 36.54 24.16 35.55 24.16 34.57 24.16 33.7 23.7 33.14 22.99 32.57 23.7 31.7 24.16 30.72 24.16 29.74 24.16 28.87 23.7 28.3 22.99 27.74 23.7 26.87 24.16 25.89 24.16 24.9 24.16 24.04 23.7 23.47 22.99 22.9 23.7 22.04 24.16 21.05 24.16 20.07 24.16 19.2 23.7 18.64 22.99 18.07 23.7 17.2 24.16 16.22 24.16 15.24 24.16 14.37 23.7 13.8 22.99 13.23 23.7 12.37 24.16 11.39 24.16 10.4 24.16 9.54 23.7 8.97 22.99 8.4 23.7 7.54 24.16 6.55 24.16 5.57 24.16 4.7 23.7 4.14 22.99 3.84 23.36 3.45 23.66 3.01 23.87 3.01 23.96 2.99 24.06 2.99 24.16 2.99 35.67 12.4 45.01 24 45.01 35.6 45.01 45.01 35.67 45.01 24.16 45.01 24.15 45.01 24.14 45.01 24.13 44.11 24.07 43.33 23.64 42.8 22.99Z"/>
<path fill="rgb(39,43,49)" fill-rule="evenodd" d="M 20 40C 20 40 20 38.88 20 38.88 20 38.88 28 38.88 28 38.88 28 38.88 28 40 28 40 28 40 20 40 20 40ZM 20 32.9C 20 32.9 28 32.9 28 32.9 28 32.9 28 34.02 28 34.02 28 34.02 20 34.02 20 34.02 20 34.02 20 32.9 20 32.9ZM 20 26.93C 20 26.93 28 26.93 28 26.93 28 26.93 28 28.05 28 28.05 28 28.05 20 28.05 20 28.05 20 28.05 20 26.93 20 26.93Z"/>
<path fill="rgb(255,255,255)" fill-rule="evenodd" d="M 20 21.07C 20 21.07 20 19.95 20 19.95 20 19.95 28 19.95 28 19.95 28 19.95 28 21.07 28 21.07 28 21.07 20 21.07 20 21.07ZM 20 13.98C 20 13.98 28 13.98 28 13.98 28 13.98 28 15.1 28 15.1 28 15.1 20 15.1 20 15.1 20 15.1 20 13.98 20 13.98ZM 20 8C 20 8 28 8 28 8 28 8 28 9.12 28 9.12 28 9.12 20 9.12 20 9.12 20 9.12 20 8 20 8Z"/>
</svg>