<?xml version="1.0" encoding="utf-8"?>
<!-- Generator: Adobe Illustrator 15.1.0, SVG Export Plug-In . SVG Version: 6.00 Build 0)  -->
<!DOCTYPE svg PUBLIC "-//W3C//DTD SVG 1.1//EN" "http://www.w3.org/Graphics/SVG/1.1/DTD/svg11.dtd">
<svg version="1.1" id="Layer_1" xmlns="http://www.w3.org/2000/svg" xmlns:xlink="http://www.w3.org/1999/xlink" x="0px" y="0px"
	 width="100px" height="100px" viewBox="0 0 100 100" enable-background="new 0 0 100 100" xml:space="preserve">
<g>
	<polygon points="55,48 47,48 47,60 42.453,60 50.586,68.131 58.717,60 55,60 	"/>
	<path d="M50.866,2C27.754,2,9.016,20.736,9.016,43.85c0,23.114,18.738,41.85,41.851,41.85c23.114,0,41.851-18.735,41.851-41.85
		C92.717,20.736,73.98,2,50.866,2z M50.866,80.241c-20.099,0-36.392-16.309-36.392-36.428c0-2.465,0.252-4.867,0.718-7.195
		c0.341,0.039,0.676,0.103,1.027,0.103c3.603,0,6.687-2.093,8.188-5.114c1.5,3.021,4.585,5.114,8.188,5.114
		c3.602,0,6.687-2.093,8.188-5.114c1.502,3.021,4.586,5.114,8.189,5.114c3.601,0,6.686-2.093,8.188-5.114
		c1.5,3.021,4.584,5.114,8.188,5.114c3.603,0,6.688-2.093,8.188-5.114c1.499,3.021,4.584,5.114,8.188,5.114
		c1.658,0,3.195-0.474,4.537-1.246c0.629,2.681,0.996,5.464,0.996,8.338C87.258,63.933,70.965,80.241,50.866,80.241z"/>
</g>
</svg>
