<?xml version="1.0" encoding="utf-8"?>
<!-- Generator: Adobe Illustrator 16.0.4, SVG Export Plug-In . SVG Version: 6.00 Build 0)  -->
<!DOCTYPE svg PUBLIC "-//W3C//DTD SVG 1.1//EN" "http://www.w3.org/Graphics/SVG/1.1/DTD/svg11.dtd">
<svg version="1.1" id="Layer_1" xmlns="http://www.w3.org/2000/svg" xmlns:xlink="http://www.w3.org/1999/xlink" x="0px" y="0px"
	 width="86.518px" height="82.498px" viewBox="0 0 86.518 82.498" enable-background="new 0 0 86.518 82.498" xml:space="preserve">
<path d="M79.434,51.657c-0.262-0.085-0.544,0.06-0.629,0.322c0,0-0.113,0.351-0.386,1.017c-0.272,0.664-0.702,1.634-1.337,2.822
	c-1.281,2.351-3.33,5.69-6.729,8.781c-0.31,0.28-0.642,0.555-0.973,0.829c-0.16,0.088-0.359,0.22-0.34,0.287l-0.006,0.009
	c-0.698,0.56-1.455,1.093-2.243,1.604c-0.047,0.007-0.093,0.015-0.117,0.022c-0.111,0.032-0.457,0.244-0.496,0.375
	c-0.6,0.365-1.218,0.715-1.866,1.037c-2.336,1.146-4.964,2.016-7.773,2.441c-2.794,0.436-5.805,0.436-8.727,0.065
	c-0.75-0.097-1.521-0.237-2.285-0.354c-0.701-0.119-1.45-0.332-2.175-0.492c-1.448-0.39-2.873-0.887-4.238-1.516
	c-2.735-1.248-5.233-2.979-7.413-4.994c-2.181-2.021-4.033-4.332-5.59-6.726c-3.114-4.804-5.085-9.871-6.441-14.274
	c-0.125-0.408-0.239-0.805-0.354-1.202c-0.016-0.141-0.052-0.26-0.104-0.353c-1.063-3.754-1.671-6.984-2.038-9.327
	c-0.211-1.332-0.286-2.385-0.629-3.069c-0.14-0.328-0.288-0.573-0.408-0.748c0.239-0.045,0.479-0.098,0.716-0.166
	c1.014-0.281,1.992-0.838,2.717-1.625c1.453-1.601,1.956-3.655,2.238-5.518c0.263-1.898,0.314-3.724,0.205-5.451
	c-0.115-1.731-0.367-3.372-0.809-4.847c-0.439-1.472-1.09-2.779-1.924-3.764c-0.825-0.992-1.814-1.621-2.676-1.956
	c-0.868-0.334-1.59-0.427-2.078-0.464c-0.254-0.018-0.438-0.024-0.554-0.022c-0.12-0.003-0.183-0.004-0.183-0.004h-0.009
	c0,0-0.259-0.012-0.747,0.026c-0.484,0.038-1.209,0.132-2.074,0.469c-0.86,0.336-1.846,0.967-2.668,1.959
	c-0.828,0.985-1.475,2.292-1.91,3.763c-0.427,1.475-0.705,3.112-0.771,4.844c-0.123,1.728-0.062,3.551,0.187,5.442
	c0.276,1.86,0.771,3.91,2.214,5.509c0.72,0.786,1.693,1.344,2.705,1.628c1.015,0.292,2.057,0.359,3.066,0.356
	c0.312,0.002,0.627-0.006,0.942-0.022c-0.083,0.2-0.175,0.469-0.234,0.818c-0.099,0.417-0.082,0.931-0.017,1.525l-0.67,0.75
	l-1.312,1.468c-0.272,0.305-0.246,0.771,0.059,1.045c0.007,0.006,0.015,0.007,0.021,0.013c-0.009,0.224,0.06,0.452,0.223,0.598
	c0.235,0.229,0.583,0.255,0.855,0.102L13.645,34.7l-0.354,0.493c-0.238,0.267-0.209,0.831,0.058,1.07
	c0.269,0.286,0.716,0.302,1.002,0.036c0.003,0,0.045-0.044,0.048-0.044c0.041-0.001,0.621-0.642,0.854-0.928
	c0.029,0.146,0.058,0.29,0.088,0.439l-0.2,0.316l-0.722,1.088l-0.327,0.509c-0.222,0.248-0.191,0.861,0.056,1.083
	c0.251,0.293,0.689,0.33,0.981,0.084c0.004,0,0.045-0.041,0.049-0.041c0.049-0.002,0.419-0.396,0.679-0.701
	c0.073,0.309,0.146,0.619,0.227,0.939l-0.038,0.067l-0.663,1.115l-0.299,0.525c-0.205,0.229-0.173,0.891,0.056,1.096
	c0.232,0.3,0.66,0.357,0.96,0.132c0.005,0,0.044-0.037,0.05-0.038c0.056-0.002,0.324-0.276,0.559-0.542
	c0.106,0.381,0.219,0.768,0.335,1.16l-0.564,1.069l-0.272,0.542c-0.187,0.209-0.153,0.92,0.056,1.108
	c0.214,0.308,0.632,0.385,0.938,0.18c0.007,0,0.045-0.034,0.052-0.034c0.067-0.003,0.316-0.248,0.537-0.497
	c0.12,0.362,0.248,0.729,0.377,1.099l-0.516,1.111l-0.245,0.559c-0.17,0.19-0.135,0.95,0.055,1.121
	c0.196,0.314,0.604,0.413,0.916,0.229c0.009,0,0.045-0.031,0.054-0.031c0.093-0.004,0.401-0.309,0.628-0.582
	c0.101,0.257,0.2,0.512,0.305,0.77l-0.043,0.119l-0.482,1.195l-0.219,0.575c-0.152,0.171-0.115,0.979,0.055,1.133
	c0.178,0.322,0.576,0.441,0.896,0.277c0.008,0,0.043-0.028,0.053-0.028c0.146-0.006,0.642-0.531,0.809-0.816
	c0.034,0.073,0.068,0.146,0.103,0.22c0,0.001-0.001,0.002-0.001,0.003L20.4,52.302l-0.423,1.222l-0.19,0.59
	c-0.136,0.152-0.098,1.009,0.055,1.146c0.159,0.329,0.547,0.469,0.873,0.325c0.011,0,0.045-0.025,0.056-0.025
	c0.094-0.004,0.281-0.16,0.457-0.346l-0.206,0.707l-0.162,0.606c-0.119,0.134-0.08,1.04,0.053,1.159
	c0.142,0.336,0.52,0.497,0.853,0.373c0.012,0.001,0.044-0.021,0.057-0.022c0.13-0.005,0.384-0.229,0.577-0.462l-0.12,0.506
	l-0.135,0.623c-0.103,0.114-0.062,1.069,0.052,1.172c0.124,0.343,0.492,0.524,0.832,0.421c0.013,0,0.043-0.019,0.058-0.019
	c0.255-0.011,0.825-0.641,0.814-0.897l0.091-0.447l0.129-0.543c0.016,0.024,0.029,0.048,0.045,0.072
	c0.143,0.216,0.301,0.428,0.448,0.643l-0.048,0.303l-0.243,1.301l-0.107,0.639c-0.085,0.095-0.043,1.099,0.052,1.185
	c0.105,0.35,0.464,0.552,0.81,0.469c0.015,0.001,0.044-0.015,0.06-0.016c0.28-0.011,0.809-0.594,0.797-0.876l0.072-0.46l0.096-0.511
	c0.272,0.351,0.538,0.706,0.825,1.05l-0.164,1.195L26.68,64.04c-0.067,0.076-0.024,1.129,0.052,1.197
	c0.087,0.357,0.436,0.58,0.787,0.517c0.017,0.001,0.045-0.012,0.062-0.013c0.306-0.013,0.792-0.547,0.78-0.855l0.053-0.475
	l0.065-0.476c0.28,0.294,0.583,0.574,0.875,0.86l-0.098,1.072l-0.054,0.672c-0.051,0.057-0.006,1.158,0.051,1.209
	c0.069,0.364,0.408,0.607,0.767,0.566c0.018,0,0.044-0.009,0.062-0.01c0.331-0.014,0.775-0.501,0.762-0.834l0.035-0.488l0.065-0.726
	c0.192,0.165,0.382,0.332,0.579,0.492l-0.054,1.176l-0.026,0.688c-0.034,0.038,0.013,1.188,0.051,1.223
	c0.051,0.371,0.379,0.635,0.745,0.613c0.019,0.001,0.044-0.005,0.063-0.006c0.356-0.015,0.759-0.454,0.744-0.812l0.017-0.502
	l0.001-0.031v0.224l0.002,0.705c-0.018,0.019,0.03,1.218,0.049,1.235c0.032,0.369,0.336,0.643,0.695,0.656
	c0.077,0.341,0.375,0.594,0.737,0.581c0.407-0.017,0.726-0.36,0.709-0.771l-0.077-1.967l-0.019-0.476
	c0.075,0.044,0.149,0.091,0.226,0.136l0.446,1.546l0.546,1.892c0.113,0.393,0.523,0.619,0.916,0.506
	c0.022-0.007,0.039-0.023,0.061-0.032c0.175,0.113,0.394,0.16,0.604,0.1c0.297-0.086,0.503-0.36,0.52-0.656l0.422,0.614
	c0.1,0.344,0.522,0.518,0.866,0.419s0.607-0.481,0.506-0.826l-0.319-1.436c0.224,0.08,0.441,0.172,0.667,0.247l0.095,0.521
	c-0.071,0.026,0.016,0.539,0.043,0.611c0.025,0.072,0.231,0.541,0.303,0.514l0.541,0.546c0.092,0.318,0.521,0.467,0.841,0.375
	c0.319-0.092,0.601-0.46,0.507-0.781l-0.213-1.167c0.033,0.009,0.066,0.021,0.1,0.029c0.342,0.07,0.675,0.148,1.009,0.223
	l0.05,0.358c-0.096,0.035-0.029,0.541,0.006,0.636s0.258,0.544,0.354,0.509l0.641,0.451c0.084,0.294,0.521,0.417,0.816,0.332
	s0.594-0.439,0.508-0.735l-0.161-1.164c0.431,0.063,0.862,0.127,1.301,0.18l0.035,0.403c-0.12,0.044-0.076,0.543-0.032,0.663
	s0.283,0.546,0.402,0.502l0.741,0.357c0.078,0.27,0.521,0.366,0.792,0.289c0.271-0.078,0.589-0.419,0.509-0.69l-0.116-1.332
	c0.412,0.021,0.818,0.022,1.227,0.029l0.017,0.565c-0.144,0.053-0.121,0.545-0.068,0.689s0.309,0.55,0.451,0.497l0.843,0.263
	c0.07,0.245,0.521,0.315,0.767,0.244s0.582-0.398,0.51-0.645l-0.036-1.293c0.083-0.03,0.107-0.205,0.106-0.377
	c0.254-0.016,0.51-0.023,0.763-0.044l-0.027,0.684c-0.168,0.062-0.167,0.548-0.105,0.715c0.062,0.168,0.334,0.553,0.502,0.491
	l0.943,0.169c0.062,0.221,0.521,0.265,0.741,0.2c0.221-0.063,0.576-0.377,0.511-0.599l0.027-0.675
	c0.099,0.198,0.347,0.489,0.521,0.425l1.043,0.074c0.057,0.196,0.521,0.214,0.717,0.158s0.57-0.357,0.512-0.554l0.133-1.09
	c0.129,0.155,0.303,0.285,0.443,0.233l1.144-0.02c0.051,0.172,0.521,0.164,0.692,0.114c0.172-0.049,0.563-0.336,0.514-0.508
	l0.216-0.995c0.107-0.04,0.173-0.176,0.201-0.33c0.081,0.037,0.162,0.057,0.236,0.03l1.245-0.114
	c0.043,0.147,0.52,0.113,0.667,0.071s0.558-0.315,0.514-0.463l0.302-0.895c0.192-0.07,0.269-0.379,0.247-0.624
	c0.005-0.002,0.012,0.001,0.017,0l1.346-0.208c0.035,0.123,0.52,0.062,0.642,0.026c0.122-0.035,0.552-0.294,0.516-0.418l0.386-0.795
	c0.261-0.095,0.348-0.542,0.257-0.807l1.108-0.232c0.028,0.098,0.52,0.011,0.617-0.017s0.545-0.274,0.517-0.373l0.471-0.695
	c0.288-0.105,0.397-0.557,0.292-0.845c-0.002-0.005-0.007-0.011-0.01-0.016l0.675-0.173c0.021,0.074,0.519-0.039,0.592-0.061
	c0.073-0.021,0.539-0.253,0.518-0.327l0.556-0.596c0.292-0.107,0.417-0.5,0.34-0.806l0.039-0.012
	c0.014,0.049,0.519-0.089,0.567-0.104s0.533-0.233,0.519-0.282l0.641-0.496c0.251-0.092,0.399-0.36,0.407-0.63
	c0.142-0.06,0.293-0.128,0.289-0.142l0.725-0.396c0.172-0.063,0.298-0.197,0.373-0.356l0.195-0.072
	c0.384-0.141,0.581-0.565,0.44-0.949c-0.143-0.384-0.567-0.581-0.951-0.438l-1.848,0.678l-0.795,0.292
	c1.067-1.572,1.869-3.038,2.47-4.257c0.611-1.252,1.018-2.269,1.276-2.972c0.259-0.702,0.372-1.102,0.372-1.102
	C79.834,52.013,79.691,51.739,79.434,51.657z M7.104,22.316c1.172,0.361,3.879,1.07,7.13,1.07c1.937,0,4.063-0.254,6.169-0.981
	c-0.125,0.538-0.284,1.066-0.494,1.569c-5.835,2.324-11.723,0.203-12.288-0.012C7.4,23.435,7.234,22.88,7.104,22.316z M7.029,12.342
	c1.146-0.154,7.118-0.866,13.479-0.001c0.073,0.417,0.134,0.846,0.184,1.286c-6.496,1.47-12.252,0.38-13.85,0.013
	C6.894,13.196,6.955,12.763,7.029,12.342z M13.783,15.392c2.09,0,4.483-0.208,7-0.767c0.021,0.295,0.043,0.59,0.055,0.892
	c0.005,0.18,0.008,0.366,0.012,0.549c-6.318,2.371-12.612,0.524-14.188-0.018c0.003-0.177,0.006-0.358,0.009-0.533
	c0.02-0.294,0.045-0.581,0.069-0.869C7.87,14.904,10.445,15.392,13.783,15.392z M14.042,18.274c2.101,0,4.444-0.296,6.824-1.14
	c0.004,0.508-0.003,1.022-0.021,1.541c-6.25,2.417-12.892,0.422-14.174-0.009c-0.018-0.526-0.025-1.047-0.022-1.562
	C7.914,17.521,10.663,18.274,14.042,18.274z M14.134,20.872c2.075,0,4.369-0.287,6.652-1.103c-0.025,0.329-0.05,0.657-0.091,0.987
	c-0.021,0.165-0.046,0.331-0.07,0.496c-6.261,2.438-13.137,0.15-13.731-0.058c-0.022-0.144-0.045-0.289-0.063-0.432
	c-0.045-0.342-0.072-0.682-0.099-1.022C7.953,20.126,10.749,20.872,14.134,20.872z M9,7.432c0.705-0.888,1.538-1.444,2.28-1.755
	c0.747-0.309,1.39-0.41,1.826-0.453c0.438-0.044,0.676-0.039,0.676-0.039h-0.009c0,0,0.062,0.001,0.182,0.004
	c0.124,0.002,0.295,0.013,0.505,0.034c0.433,0.043,1.077,0.146,1.822,0.458c0.741,0.312,1.571,0.87,2.272,1.758
	c0.222,0.277,0.424,0.594,0.616,0.928c-1.93-0.436-6.163-1.095-10.818,0.042C8.554,8.057,8.766,7.722,9,7.432z M7.789,9.59
	c5.556-1.612,10.817-0.358,11.945-0.05c0.174,0.43,0.334,0.877,0.463,1.358c0.036,0.132,0.062,0.273,0.095,0.408
	c-5.851-0.745-11.311-0.212-13.045,0c0.033-0.137,0.061-0.28,0.098-0.414C7.47,10.433,7.623,10.004,7.789,9.59z M8.718,25.761
	c-0.145-0.163-0.278-0.335-0.402-0.513C9.513,25.601,11.558,26.07,14,26.07c1.607,0,3.387-0.225,5.202-0.799
	c-0.115,0.164-0.236,0.324-0.369,0.475c-1.175,1.368-3.133,1.774-5.05,1.773C11.867,27.527,9.904,27.129,8.718,25.761z
	 M59.777,72.366c-0.002-0.003-0.005-0.005-0.007-0.008c0.008-0.002,0.016-0.005,0.023-0.007
	C59.787,72.354,59.783,72.362,59.777,72.366z M56.986,73.106c-0.009-0.024-0.03-0.06-0.048-0.091
	c0.033-0.006,0.064-0.015,0.098-0.021l-0.027,0.229C57.002,73.181,56.997,73.135,56.986,73.106z"/>
</svg>
