<?xml version="1.0" encoding="UTF-8" standalone="no"?>
<!-- Created with Inkscape (http://www.inkscape.org/) -->

<svg
   xmlns:dc="http://purl.org/dc/elements/1.1/"
   xmlns:cc="http://creativecommons.org/ns#"
   xmlns:rdf="http://www.w3.org/1999/02/22-rdf-syntax-ns#"
   xmlns:svg="http://www.w3.org/2000/svg"
   xmlns="http://www.w3.org/2000/svg"
   xmlns:sodipodi="http://sodipodi.sourceforge.net/DTD/sodipodi-0.dtd"
   xmlns:inkscape="http://www.inkscape.org/namespaces/inkscape"
   width="512"
   height="501.52835"
   id="svg2"
   version="1.1"
   inkscape:version="0.91 r13725"
   sodipodi:docname="fish-larvae.svg"
   viewBox="0 0 512 501.52836"
   enable-background="new 0 0 453 102.59257"
   xml:space="preserve"><defs
     id="defs4" /><sodipodi:namedview
     id="base"
     pagecolor="#ffffff"
     bordercolor="#666666"
     borderopacity="1.0"
     inkscape:pageopacity="0.0"
     inkscape:pageshadow="2"
     inkscape:zoom="1.2365349"
     inkscape:cx="191.71522"
     inkscape:cy="302.04961"
     inkscape:document-units="px"
     inkscape:current-layer="layer1"
     showgrid="true"
     inkscape:window-width="1091"
     inkscape:window-height="850"
     inkscape:window-x="1505"
     inkscape:window-y="237"
     inkscape:window-maximized="0"
     fit-margin-top="205"
     fit-margin-left="29.5"
     fit-margin-right="29.5"
     fit-margin-bottom="205"
     showguides="true"><inkscape:grid
       type="xygrid"
       id="grid3156"
       originx="-82.38583"
       originy="73.722391" /></sodipodi:namedview><metadata
     id="metadata7"><rdf:RDF><cc:Work
         rdf:about=""><dc:format>image/svg+xml</dc:format><dc:type
           rdf:resource="http://purl.org/dc/dcmitype/StillImage" /><dc:title></dc:title></cc:Work></rdf:RDF></metadata><g
     inkscape:label="Layer 1"
     inkscape:groupmode="layer"
     id="layer1"
     transform="translate(-82.38583,-624.5562)"><path
       style="fill:#000000;stroke:#000000;stroke-width:3;stroke-linecap:butt;stroke-linejoin:miter;stroke-opacity:1"
       d="m 148.8189,861.0236 -35.43307,-28.34646 0,85.03937 35.43307,-31.88976 c 124.88372,10.26441 206.43176,20.02588 267.33365,19.69403 -4.2247,-5.90839 20.7239,-9.14936 28.60276,-11.74751 7.38774,-2.4362 18.89015,-1.55312 11.38966,10.27035 40.54494,-2.68958 71.07552,-9.44678 103.69755,-21.76018 2.93524,-1.10793 3.54331,-7.08661 3.54331,-10.62992 C 492.51969,818.50391 407.48031,839.76376 148.8189,861.0236 Z"
       id="path3164"
       inkscape:connector-curvature="0"
       sodipodi:nodetypes="cccccscscc" /><path
       style="fill:none;stroke:#000000;stroke-width:3;stroke-linecap:butt;stroke-linejoin:miter;stroke-opacity:1"
       d="m 233.85827,853.81728 0,-10.51022 C 414.38679,813.95649 425.19685,818.50391 446.4567,825.59053 l 17.34985,14.91036"
       id="path3170"
       inkscape:connector-curvature="0"
       sodipodi:nodetypes="cccc" /><path
       style="fill:#000000;stroke:#000000;stroke-width:3;stroke-linecap:butt;stroke-linejoin:miter;stroke-opacity:1"
       d="m 226.77165,892.91336 c -7.08662,3.5433 -6.48926,12.74942 0.77785,9.59279 13.66171,-5.93425 21.3009,-8.10331 21.00056,-7.9941"
       id="path3172"
       inkscape:connector-curvature="0"
       sodipodi:nodetypes="csc" /><path
       style="fill:none;stroke:#000000;stroke-width:3;stroke-linecap:butt;stroke-linejoin:miter;stroke-opacity:1"
       d="m 450.36668,892.78988 c -24.80315,10.62992 -36.89979,6.96312 -33.35648,14.04974 3.5433,7.08661 15.51645,13.07318 22.60307,13.07318 7.08661,0 18.2067,-18.5696 18.2067,-18.5696"
       id="path3174"
       inkscape:connector-curvature="0"
       sodipodi:nodetypes="cssc" /></g></svg>