<?xml version="1.0" encoding="UTF-8" standalone="no"?>
<svg
   xmlns:dc="http://purl.org/dc/elements/1.1/"
   xmlns:cc="http://creativecommons.org/ns#"
   xmlns:rdf="http://www.w3.org/1999/02/22-rdf-syntax-ns#"
   xmlns:svg="http://www.w3.org/2000/svg"
   xmlns="http://www.w3.org/2000/svg"
   xml:space="preserve"
   enable-background="new 0 0 453 102.59257"
   viewBox="0 0 100 100"
   version="1.1"
   id="svg2"
   height="100"
   width="100"><defs
     id="defs4" /><metadata
     id="metadata7"><rdf:RDF><cc:Work
         rdf:about=""><dc:format>image/svg+xml</dc:format><dc:type
           rdf:resource="http://purl.org/dc/dcmitype/StillImage" /><dc:title></dc:title></cc:Work></rdf:RDF></metadata><g
     transform="translate(-82.38583,-1026.0846)"
     id="layer1"><path
       id="path3164"
       d="m 149.51253,1064.5572 c -1.0699,-0.024 -2.33065,0 -3.85219,0.093 -6.08612,0.3588 -16.44221,1.7027 -35.9798,4.8792 l -0.45432,0.074 0,2.9584 c -5.50679,0.5056 -11.407374,1.0333 -17.859953,1.5637 -2.259867,-2.5516 -4.488015,-4.9608 -7.666338,-6.1323 0.965282,5.9407 1.33385,12.0005 0,18.4009 3.597599,-0.9109 5.346799,-4.2864 7.666338,-6.9014 5.622022,0.4621 10.613443,0.9079 15.467923,1.3419 -1.67957,1.2831 -1.34213,3.6518 0.77973,2.7301 2.85997,-1.2422 4.51719,-1.8303 5.55535,-2.1744 14.93363,1.3464 26.3789,2.3652 35.48534,2.3561 0.0204,0.1896 0.0657,0.3745 0.15214,0.5473 0.46511,0.9301 1.38082,1.6725 2.37936,2.223 0.99854,0.5504 2.07522,0.9065 2.99427,0.9065 0.64577,0 1.1726,-0.3702 1.72429,-0.8199 0.55169,-0.4496 1.10587,-1.0244 1.61018,-1.5954 0.55345,-0.6265 1.0057,-1.1997 1.3376,-1.6355 8.20425,-0.5241 13.98496,-0.7014 20.75912,-3.2584 0.63514,-0.2398 1.46016,-2.9206 1.46016,-3.6874 -5.89735,-4.423 -12.2582,-6.4585 -21.02538,-7.0345 l -3.99799,-3.6387 -0.10777,-0.036 c -1.71996,-0.5732 -3.21837,-1.0895 -6.42806,-1.1601 z m -0.0803,1.0735 c 3.05432,0.052 4.37924,0.5225 6.07306,1.0882 l 2.82522,2.5759 c -11.05825,-0.4762 -25.89423,1.1297 -48.02238,3.1697 l 0,-1.9356 c 19.15358,-3.1074 29.4756,-4.4488 35.41561,-4.7989 1.48013,-0.087 2.69039,-0.1167 3.70849,-0.099 z m 7.39375,15.3538 c 0.89999,0 1.663,0.3178 1.55525,1.2108 -0.0943,0.1315 -0.77703,1.0788 -1.6757,2.0962 -0.48126,0.5449 -1.00838,1.0857 -1.48339,1.4728 -0.47502,0.3873 -0.92083,0.5769 -1.04176,0.5769 -0.61438,0 -1.60045,-0.2928 -2.47233,-0.7734 -0.87188,-0.4806 -1.634,-1.1549 -1.93561,-1.7581 -0.0654,-0.1308 -0.0621,-0.1855 -0.0613,-0.1923 8.8e-4,-0.011 -0.0108,-0.013 0.0507,-0.066 0.12206,-0.1128 0.54626,-0.3201 1.18756,-0.5325 1.24004,-0.4107 3.28398,-0.9467 5.87654,-2.0349 z"
       style="stroke:none;stroke-width:1;stroke-linecap:butt;stroke-linejoin:miter;stroke-miterlimit:4;stroke-dasharray:none;stroke-opacity:1" /></g></svg>