<?xml version="1.0" encoding="utf-8"?>
<!-- Generator: Adobe Illustrator 15.1.0, SVG Export Plug-In . SVG Version: 6.00 Build 0)  -->
<!DOCTYPE svg PUBLIC "-//W3C//DTD SVG 1.1//EN" "http://www.w3.org/Graphics/SVG/1.1/DTD/svg11.dtd">
<svg version="1.1" id="Layer_1" xmlns="http://www.w3.org/2000/svg" xmlns:xlink="http://www.w3.org/1999/xlink" x="0px" y="0px"
	 width="100px" height="100px" viewBox="0 0 100 100" enable-background="new 0 0 100 100" xml:space="preserve">
<path d="M79.452,29.899c0-15.662-12.742-28.404-28.404-28.404c-15.661,0-28.402,12.742-28.402,28.404
	c0,3.289,0.45,6.392,1.416,9.256C24.059,39.18,24,39.202,24,39.227v41c0,0.553,0.448,1,1,1s1-0.447,1-1V41.964
	c1,0.598,3,0.929,6,1.212v43.051c0,0.553,0.448,1,1,1s1-0.447,1-1V43.346c2,0.118,3,0.218,5,0.299v36.582c0,0.553,0.447,1,1,1
	s1-0.447,1-1v-36.5c3,0.101,6,0.157,9,0.167v44.334c0,0.553,0.447,1,1,1s1-0.447,1-1V43.892c3-0.01,6-0.056,8-0.137v36.472
	c0,0.553,0.447,1,1,1s1-0.447,1-1V43.681c2-0.09,4-0.207,6-0.349v44.895c0,0.553,0.447,1,1,1s1-0.447,1-1V43.158
	c3-0.296,5-0.647,6-1.303v38.372c0,0.553,0.447,1,1,1s1-0.447,1-1v-41c0-0.143,0.014-0.277-0.039-0.4
	C78.914,35.953,79.452,32.96,79.452,29.899z M51.048,3.495c14.56,0,26.404,11.845,26.404,26.404c0,2.812-0.445,5.562-1.312,8.205
	c-1.209-0.805-3.653-1.161-7.931-1.503c-4.605-0.369-10.718-0.573-17.213-0.573s-12.608,0.204-17.214,0.573
	c-4.264,0.342-6.706,0.696-7.919,1.495c-0.805-2.542-1.219-5.288-1.219-8.197C24.646,15.34,36.49,3.495,51.048,3.495z
	 M26.787,39.962c0-0.454,2.213-0.871,5.213-1.201v2.401C29,40.833,26.787,40.416,26.787,39.962z M34,41.341v-2.759
	c4-0.328,9.798-0.535,16.04-0.553C50.026,38.096,50,38.157,50,38.227v3.667C44,41.876,38,41.668,34,41.341z M52,41.894v-3.667
	c0-0.07-0.026-0.131-0.04-0.197C58.222,38.052,64,38.264,68,38.598v2.729C64,41.659,58,41.872,52,41.894z M70,41.143v-2.362
	c3,0.327,5.021,0.736,5.021,1.182C75.021,40.407,73,40.816,70,41.143z"/>
</svg>
