<?xml version="1.0" encoding="utf-8"?>
<!-- Generator: Adobe Illustrator 15.1.0, SVG Export Plug-In . SVG Version: 6.00 Build 0)  -->
<!DOCTYPE svg PUBLIC "-//W3C//DTD SVG 1.1//EN" "http://www.w3.org/Graphics/SVG/1.1/DTD/svg11.dtd">
<svg version="1.1" id="Layer_1" xmlns="http://www.w3.org/2000/svg" xmlns:xlink="http://www.w3.org/1999/xlink" x="0px" y="0px"
	 width="100px" height="100px" viewBox="0 0 100 100" enable-background="new 0 0 100 100" xml:space="preserve">
<path fill="none" stroke="#000000" stroke-width="2" stroke-miterlimit="10" d="M68.425,44c1.029-2.461,1.602-5.161,1.602-7.995
	c0-11.453-9.284-20.737-20.737-20.737s-20.737,9.284-20.737,20.737c0,2.834,0.495,5.534,1.524,7.995"/>
<g>
	<path d="M49.25,42.156c10.079,0,18.25,0.655,18.25,1.464c0,0.809-8.171,1.463-18.25,1.463S31,44.429,31,43.62
		C31,42.811,39.171,42.156,49.25,42.156 M49.25,40.156c-4.927,0-9.567,0.154-13.064,0.435C31.73,40.948,29,41.286,29,43.62
		c0,2.334,2.73,2.671,7.186,3.028c3.498,0.281,8.138,0.435,13.064,0.435s9.566-0.154,13.064-0.435
		c4.455-0.357,7.186-0.694,7.186-3.028c0-2.334-2.73-2.672-7.186-3.029C58.817,40.311,54.177,40.156,49.25,40.156L49.25,40.156z"/>
</g>
<line fill="none" stroke="#000000" stroke-width="2" stroke-linecap="round" stroke-miterlimit="10" x1="30" y1="43" x2="30" y2="74"/>
<line fill="none" stroke="#000000" stroke-width="2" stroke-linecap="round" stroke-miterlimit="10" x1="69" y1="43" x2="69" y2="74"/>
<line fill="none" stroke="#000000" stroke-width="2" stroke-linecap="round" stroke-miterlimit="10" x1="63" y1="42" x2="63" y2="80"/>
<line fill="none" stroke="#000000" stroke-width="2" stroke-linecap="round" stroke-miterlimit="10" x1="36" y1="42" x2="36" y2="79"/>
<line fill="none" stroke="#000000" stroke-width="2" stroke-linecap="round" stroke-miterlimit="10" x1="41" y1="46" x2="41" y2="74"/>
<line fill="none" stroke="#000000" stroke-width="2" stroke-linecap="round" stroke-miterlimit="10" x1="49" y1="42" x2="49" y2="80"/>
<line fill="none" stroke="#000000" stroke-width="2" stroke-linecap="round" stroke-miterlimit="10" x1="57" y1="46" x2="57" y2="74"/>
</svg>
