<?xml version="1.0" encoding="utf-8"?>
<!-- Generator: Adobe Illustrator 15.0.2, SVG Export Plug-In . SVG Version: 6.00 Build 0)  -->
<!DOCTYPE svg PUBLIC "-//W3C//DTD SVG 1.1//EN" "http://www.w3.org/Graphics/SVG/1.1/DTD/svg11.dtd">
<svg version="1.1" id="Layer_1" xmlns="http://www.w3.org/2000/svg" xmlns:xlink="http://www.w3.org/1999/xlink" x="0px" y="0px"
	 width="100px" height="100px" viewBox="0 0 100 100" enable-background="new 0 0 100 100" xml:space="preserve">
<path d="M50,27c-12.703,0-23,10.297-23,23s10.297,23,23,23s23-10.297,23-23S62.703,27,50,27z M50,70c-11.046,0-20-8.954-20-20
	s8.954-20,20-20s20,8.954,20,20S61.046,70,50,70z"/>
<rect x="47" y="40" width="6" height="2"/>
<path d="M55.855,43c-1.461-1.572-3.539-2.562-5.855-2.562c-2.316,0-4.396,0.99-5.856,2.562H37v14h26V43H55.855z M49.97,54.939
	c-3.297,0-5.97-2.674-5.97-5.971c0-3.298,2.672-5.97,5.97-5.97c3.297,0,5.969,2.672,5.969,5.97
	C55.939,52.268,53.268,54.939,49.97,54.939z M59.562,47.752c-0.761,0-1.375-0.616-1.375-1.376c0-0.761,0.614-1.376,1.375-1.376
	s1.377,0.615,1.377,1.376C60.939,47.136,60.323,47.752,59.562,47.752z"/>
</svg>
