<?xml version="1.0" encoding="utf-8"?>
<!-- Generator: Adobe Illustrator 15.1.0, SVG Export Plug-In . SVG Version: 6.00 Build 0)  -->
<!DOCTYPE svg PUBLIC "-//W3C//DTD SVG 1.1//EN" "http://www.w3.org/Graphics/SVG/1.1/DTD/svg11.dtd">
<svg version="1.1" id="Layer_1" xmlns="http://www.w3.org/2000/svg" xmlns:xlink="http://www.w3.org/1999/xlink" x="0px" y="0px"
	 width="100px" height="100px" viewBox="0 0 100 100" enable-background="new 0 0 100 100" xml:space="preserve">
<path d="M50.85,2C27.736,2,9,20.736,9,43.85c0,23.114,18.736,41.85,41.85,41.85s41.85-18.735,41.85-41.85
	C92.699,20.736,73.963,2,50.85,2z M50.85,80.241c-20.098,0-36.391-16.292-36.391-36.392c0-20.098,16.293-36.392,36.391-36.392
	c20.099,0,36.392,16.293,36.392,36.392C87.241,63.949,70.948,80.241,50.85,80.241z"/>
<rect x="46" y="26" width="11" height="5"/>
<path d="M61.506,32c-2.658-2-6.442-4.663-10.656-4.663S42.852,30,40.194,32H27v26h48V32H61.506z M50.795,53.838
	c-6,0-10.862-4.863-10.862-10.863c0-6.001,4.862-10.862,10.862-10.862c5.998,0,10.861,4.861,10.861,10.862
	C61.656,48.975,56.793,53.838,50.795,53.838z M68.251,40.759c-1.384,0-2.504-1.121-2.504-2.503c0-1.384,1.12-2.504,2.504-2.504
	c1.382,0,2.503,1.12,2.503,2.504C70.754,39.638,69.633,40.759,68.251,40.759z"/>
</svg>
