<?xml version="1.0" encoding="utf-8"?>
<!-- Generator: Adobe Illustrator 16.0.4, SVG Export Plug-In . SVG Version: 6.00 Build 0)  -->
<!DOCTYPE svg PUBLIC "-//W3C//DTD SVG 1.1//EN" "http://www.w3.org/Graphics/SVG/1.1/DTD/svg11.dtd">
<svg version="1.1" id="Layer_1" xmlns="http://www.w3.org/2000/svg" xmlns:xlink="http://www.w3.org/1999/xlink" x="0px" y="0px"
	 width="86.518px" height="82.498px" viewBox="0 0 86.518 82.498" enable-background="new 0 0 86.518 82.498" xml:space="preserve">
<path d="M68.091,72.012c-0.062-0.435-0.406-1.149-1.981-1.149c-0.047,0-0.095,0.001-0.143,0.002
	c-1.465,0.075-4.526-1.023-6.928-4.103c-2.919-3.746-5.528-11.325-1.381-26.158c3.026-10.824,2.804-18.918-0.662-24.06
	c-3.688-5.474-10.228-6.209-12.376-6.452c-3.043-0.34-5.486,0.452-7.287,1.472c0.184-4.66-3.871-6.639-9.546-1.749
	c0,0-8.078,8.434-10.668,18.638c0,0-0.939,1.428,0.221,1.958c1.161,0.529,10.779-0.117,12.613-1.426
	c0.962-0.687,2.589-3.51,4.082-6.848c3.698-0.699,6.443-0.213,8.358,1.514c4.812,4.34,3.524,15.709,2.388,25.74
	c-0.671,5.926-1.305,11.524-0.534,14.89c1.04,4.541,3.47,8.073,7.028,10.216c2.702,1.628,5.554,2.201,7.901,2.201
	c1.164,0,2.204-0.141,3.04-0.365C65.726,75.392,68.306,73.494,68.091,72.012z M61.958,75.367c-2.516,0.674-6.635,0.4-10.167-1.727
	c-3.32-2-5.592-5.313-6.569-9.583c-0.732-3.199-0.107-8.714,0.554-14.553c1.163-10.271,2.481-21.911-2.713-26.596
	c-2.01-1.813-4.883-2.436-8.547-1.872c0.072-0.171,0.144-0.342,0.215-0.515c0.347-0.292,0.706-0.588,1.092-0.888
	c1.188-0.889,2.552-1.856,4.135-2.406c1.578-0.542,3.328-0.541,4.965,0.382c0.404,0.235,0.812,0.49,1.197,0.815l0.148,0.116
	l0.074,0.058l0.024,0.019l0.276,0.279l0.621,0.628c0.238,0.215,0.358,0.413,0.494,0.609l0.427,0.589
	c0.281,0.412,0.511,0.934,0.779,1.399c0.934,1.996,1.374,4.377,1.538,6.842c0.164,2.473,0.062,5.045-0.141,7.626
	c-0.375,5.172-1.104,10.392-1.35,15.379c-0.117,2.494-0.111,4.935,0.147,7.255c0.271,2.314,0.808,4.521,1.748,6.403
	c0.935,1.888,2.268,3.357,3.608,4.397c0.713,0.463,1.348,0.951,2.029,1.218c0.655,0.317,1.26,0.6,1.842,0.74
	c0.572,0.164,1.074,0.35,1.525,0.437c0.451,0.08,0.835,0.148,1.146,0.203c0.621,0.108,0.952,0.167,0.952,0.167
	c0.256,0.044,0.507-0.116,0.57-0.372c0.065-0.268-0.099-0.537-0.365-0.604L62.163,71.8c0,0-0.312-0.076-0.894-0.22
	c-0.291-0.07-0.65-0.158-1.071-0.262c-0.419-0.108-0.87-0.315-1.391-0.5c-0.531-0.163-1.06-0.462-1.638-0.772
	c-0.607-0.267-1.141-0.736-1.75-1.169c-1.13-0.976-2.212-2.287-2.952-3.979c-0.751-1.687-1.126-3.71-1.3-5.873
	c-0.177-2.17-0.116-4.5,0.069-6.915c0.38-4.839,1.269-10.006,1.801-15.292c0.249-2.646,0.401-5.331,0.267-8.019
	c-0.147-2.676-0.557-5.404-1.695-7.893c-0.332-0.606-0.599-1.21-0.99-1.798l-0.633-0.871c-0.213-0.29-0.43-0.585-0.634-0.769
	l-0.618-0.631l-0.307-0.312l-0.123-0.116l-0.049-0.039l-0.096-0.077l-0.193-0.155c-0.5-0.422-1.059-0.785-1.628-1.113
	c-1.151-0.646-2.46-1.042-3.742-1.116c-1.283-0.081-2.507,0.136-3.583,0.492c-0.938,0.32-1.759,0.734-2.509,1.185
	c0.275-0.919,0.507-1.804,0.669-2.614c0.01-0.046,0.011-0.089,0.02-0.135c1.7-1.111,4.164-2.106,7.315-1.749
	c5.536,0.623,9.35,2.591,11.658,6.016c3.294,4.888,3.472,12.704,0.528,23.232c-4.26,15.234-1.505,23.114,1.556,27.042
	c2.832,3.636,6.307,4.491,7.741,4.489c0.788-0.024,1.091,0.163,1.109,0.291C67.188,72.754,65.451,74.431,61.958,75.367z"/>
</svg>
