<?xml version="1.0" encoding="utf-8"?>
<!-- Generator: Adobe Illustrator 15.1.0, SVG Export Plug-In . SVG Version: 6.00 Build 0)  -->
<!DOCTYPE svg PUBLIC "-//W3C//DTD SVG 1.1//EN" "http://www.w3.org/Graphics/SVG/1.1/DTD/svg11.dtd">
<svg version="1.1" id="Layer_1" xmlns="http://www.w3.org/2000/svg" xmlns:xlink="http://www.w3.org/1999/xlink" x="0px" y="0px"
	 width="100px" height="100px" viewBox="0 0 100 100" enable-background="new 0 0 100 100" xml:space="preserve">
<path d="M73.166,31.371c0-17.584-11.358-28.903-22.68-30.31c-0.074-0.029-0.143-0.065-0.219-0.092
	c-0.234-0.084-0.476-0.127-0.72-0.127c-0.191,0-0.38,0.037-0.568,0.094C48.689,0.922,48.4,0.91,48.111,0.91
	c-12.42,0-20.445,11.957-20.445,30.461c0,9.951,4.367,29.89,10.596,42.981c2.479,6.914,6.301,11.972,12.002,12.845
	c0.455,0.07,0.905,0.105,1.338,0.105c4.117,0,6.738-2.967,8.567-7.602C69.074,67.977,73.166,46.231,73.166,31.371z M36.966,32.022
	c0.329-2.82,0.558-5.535,0.78-8.16C38.792,11.5,39.781,4.13,46.665,3.133c-3.842,6.265-6.466,24.326-6.466,40.81
	c0,14.664,2.02,30.532,5.236,38.26c-1.618-1.772-3.23-4.313-4.774-7.373C36.012,62.988,35.589,43.847,36.966,32.022z M54.595,80.672
	c0.201,0.567,0.396,1.117,0.525,1.573c-1.062,0.918-2.176,1.688-3.348,2.279c-0.575,0.136-1.179,0.271-1.786,0.404
	c-0.275-0.012-0.552-0.051-0.83-0.124c-2.648-2.018-6.958-18.589-6.958-40.788c0-23.932,4.901-39.977,7.175-40.968
	c0.124,0.008,0.24,0.009,0.366,0.02c7.491,3.147,5.654,18.515,3.706,35.113c-0.937,7.978-1.904,16.153-1.904,23.534
	C51.541,72.057,53.527,77.662,54.595,80.672z M56.725,80.692c-0.076-0.22-0.158-0.45-0.244-0.693c-1.1-3.1-2.939-8.288-2.939-18.285
	c0-7.264,0.961-15.454,1.891-23.375c1.682-14.323,3.282-27.993-1.193-34.31c5.397,1.899,10.181,6.447,13.167,12.692
	c2.932,6.129,3.41,12.523,1.221,16.29c-3.46,5.949-4.835,15.896-6.164,25.517c-1.032,7.468-2.086,15.077-4.11,20.267
	C57.827,79.471,57.282,80.099,56.725,80.692z M64.442,58.802c1.304-9.428,2.651-19.177,5.912-24.785
	c0.313-0.539,0.58-1.121,0.802-1.741c-0.139,11.938-3.03,28.719-8.945,40.326C63.113,68.404,63.772,63.649,64.442,58.802z
	 M29.667,31.371c0-12.281,3.656-21.47,9.788-25.766c-2.516,4.118-3.07,10.642-3.701,18.089c-0.221,2.609-0.449,5.308-0.774,8.097
	c-0.885,7.599-1.145,18.969,0.272,29.449C31.929,50.875,29.667,39.303,29.667,31.371z"/>
</svg>
