<?xml version="1.0" encoding="utf-8"?>
<!-- Generator: Adobe Illustrator 16.0.4, SVG Export Plug-In . SVG Version: 6.00 Build 0)  -->
<!DOCTYPE svg PUBLIC "-//W3C//DTD SVG 1.1//EN" "http://www.w3.org/Graphics/SVG/1.1/DTD/svg11.dtd">
<svg version="1.1" id="Layer_1" xmlns="http://www.w3.org/2000/svg" xmlns:xlink="http://www.w3.org/1999/xlink" x="0px" y="0px"
	 width="86.518px" height="82.498px" viewBox="0 0 86.518 82.498" enable-background="new 0 0 86.518 82.498" xml:space="preserve">
<path d="M67.326,14.285c-2.204-4.121-7.094-6.3-14.139-6.3c-4.965,0-9.34,1.051-10.154,1.259c-0.814-0.208-5.19-1.259-10.154-1.259
	c-7.045,0-11.935,2.179-14.139,6.3c-3.795,7.094-2.403,12.549-1.176,17.362c0.509,1.993,0.989,3.876,1.117,5.8
	c0.456,6.845,11.904,37.575,18.1,37.577h0.001c0.137,0,0.271-0.013,0.403-0.04c3.724-0.744,4.543-1.857,5.086-2.593
	c0.277-0.376,0.352-0.477,0.762-0.477s0.484,0.101,0.762,0.477c0.543,0.736,1.362,1.849,5.086,2.593
	c0.132,0.026,0.267,0.04,0.404,0.04c6.195,0,17.644-30.731,18.1-37.577c0.128-1.924,0.608-3.807,1.117-5.8
	C69.729,26.834,71.121,21.378,67.326,14.285z M44.188,10.002v0.007c0,0,1.132,0.05,3.077,0.432c0.375,0.075,0.788,0.167,1.219,0.272
	c-2.849,1.236-4.678,3.285-5.45,4.299c-0.678-0.89-2.17-2.577-4.449-3.813c0.554-0.223,1.08-0.399,1.556-0.541
	c0.901-0.244,1.633-0.378,2.131-0.438c0.137-0.02,0.251-0.035,0.351-0.047c0.174,0.042,0.276,0.069,0.283,0.071l0.129,0.035
	l0.129-0.035C43.175,10.24,43.553,10.141,44.188,10.002z M58.877,41.399c-1.315,6.119-5.321,24.739-9.605,24.74
	c-0.027,0-0.056-0.012-0.083-0.014c0.365-0.966,0.716-2.013,1.05-3.134c1.953-6.615,3.43-15.68,4.527-24.766
	c0.513-4.272,0.938-8.546,1.267-12.599c0.976,0.217,1.922,0.415,2.81,0.592C59.905,30.105,60.203,35.237,58.877,41.399z
	 M27.225,26.219c1.067-0.213,2.221-0.456,3.405-0.727c0.333,4.081,0.822,8.399,1.421,12.707c0.599,4.401,1.383,8.776,2.234,12.856
	c0.871,4.075,1.814,7.861,2.909,11.029c0.385,1.143,0.785,2.204,1.192,3.175c-0.546,0.57-1.081,0.88-1.593,0.88
	c-4.283,0-8.289-18.621-9.604-24.74C25.863,35.237,26.161,30.105,27.225,26.219z M43.033,20.814c0.325,0.339,0.768,0.67,1.308,0.991
	c-0.491,1.018-0.926,2.18-1.308,3.448c-0.382-1.268-0.816-2.43-1.308-3.448C42.266,21.484,42.708,21.153,43.033,20.814z
	 M43.033,18.737c-0.377-1.125-0.2-1.784-0.001-2.126C43.233,16.955,43.409,17.614,43.033,18.737z M42.462,19.964
	c-0.237,0.326-0.644,0.653-1.185,0.978c-0.152-0.273-0.31-0.534-0.472-0.781c-1.44-2.197-3.169-3.311-5.138-3.311
	c-0.11,0-0.221,0.003-0.305,0.01l-1.284,0.013c-0.435-0.038-0.892,0.029-1.357,0.173c0.302-0.868,0.69-1.67,1.212-2.332
	c0.916-1.23,2.027-2.145,3.124-2.794c0.115-0.064,0.228-0.115,0.341-0.174c2.706,1.255,4.399,3.283,4.979,4.067
	C41.913,16.375,41.346,17.646,42.462,19.964z M32.031,24.134c-0.013-0.183-0.025-0.369-0.038-0.551
	c-0.013-0.232-0.042-0.551-0.039-0.708l0.001-0.753c0-0.5,0-0.994,0-1.481c0.062-0.448,0.124-0.891,0.185-1.327
	c0.062-0.359,0.143-0.711,0.227-1.06c0.493-0.254,0.976-0.393,1.426-0.393c0.065,0,0.131,0.003,0.245,0.011l1.362-0.012
	c1.719-0.115,3.258,0.848,4.57,2.85c0.146,0.223,0.288,0.461,0.426,0.706C38.379,22.393,35.277,23.333,32.031,24.134z
	 M32.762,13.847c-0.925,1.164-1.548,2.631-1.919,4.229c-0.523,0.411-1.037,0.91-1.521,1.509c-0.663,0.821-1.96,2.718-2.907,5.787
	c-1.933,0.38-3.704,0.683-5.078,0.884c-0.107,0.016-0.209,0.023-0.307,0.023c0,0,0,0-0.001,0c-0.786,0-1.263-0.545-1.414-1.621
	c-0.509-3.6,3.09-11.56,9.558-13.428c1.212-0.35,2.413-0.527,3.57-0.527c1.111,0,2.129,0.171,3.061,0.442
	C34.732,11.778,33.658,12.659,32.762,13.847z M30.099,20.213c0.149-0.186,0.302-0.361,0.455-0.526
	c-0.039,0.316-0.078,0.63-0.118,0.952c0.002,0.488,0.004,0.982,0.006,1.481l0.004,0.753c0.004,0.347,0.031,0.534,0.046,0.81
	c0.02,0.266,0.04,0.536,0.06,0.804c-1.011,0.234-2.02,0.453-3.002,0.655C28.23,23.08,29.127,21.415,30.099,20.213z M38.197,61.759
	c-0.971-3.146-1.875-6.899-2.67-10.956c-0.793-4.059-1.465-8.423-2.059-12.798c-0.585-4.365-1.058-8.747-1.366-12.86
	c3.231-0.787,6.51-1.761,8.746-2.866c0.663,1.371,1.223,3.006,1.681,4.825c-1.952,8.057-1.984,19.473-0.003,28.361
	c-0.518,2.252-1.167,4.335-1.952,6.143c-0.495,1.14-0.993,2.068-1.485,2.785C38.783,63.573,38.484,62.697,38.197,61.759z
	 M43.033,29.388c1.341,6.998,1.36,15.994,0,23.598C41.673,45.382,41.692,36.385,43.033,29.388z M43.537,27.104
	c0.458-1.818,1.018-3.454,1.681-4.825c2.567,1.269,6.51,2.365,10.175,3.203c-0.316,4.072-0.729,8.373-1.232,12.671
	c-1.068,9.07-2.518,18.122-4.435,24.686c-0.333,1.134-0.684,2.19-1.049,3.157c-1.02-0.427-2.108-1.913-3.185-4.39
	c-0.785-1.808-1.435-3.891-1.952-6.143C45.521,46.577,45.489,35.161,43.537,27.104z M55.471,24.477
	c-3.746-0.87-7.487-1.94-9.8-3.062c0.138-0.245,0.279-0.483,0.426-0.706c1.244-1.897,2.691-2.859,4.302-2.859
	c0.089,0,0.179,0.003,0.297,0.01l1.384,0.009c1.123-0.108,2.453,0.678,3.675,2.097C55.679,21.426,55.584,22.926,55.471,24.477z
	 M56.113,24.624c0.102-1.321,0.188-2.604,0.263-3.863c0.813,1.141,1.558,2.612,2.142,4.381
	C57.729,24.98,56.924,24.807,56.113,24.624z M56.745,19.584c-0.094-0.116-0.19-0.219-0.286-0.329
	c0.01-0.194,0.024-0.399,0.033-0.592c0.023-0.974,0.131-1.959-0.105-2.945c-0.242-0.963-0.76-1.802-1.379-2.455
	c-1.173-1.205-2.558-1.869-3.805-2.351c0.668-0.131,1.373-0.211,2.121-0.211c1.157,0,2.358,0.177,3.57,0.527
	c6.469,1.868,10.067,9.829,9.558,13.429c-0.17,1.209-0.759,1.738-1.722,1.596c-1.374-0.201-3.146-0.504-5.078-0.884
	C58.705,22.302,57.408,20.405,56.745,19.584z M50.694,11.376c1.269,0.481,2.708,1.151,3.838,2.337
	c0.552,0.595,0.993,1.329,1.198,2.166c0.201,0.811,0.12,1.747,0.095,2.712c-1.164-1.107-2.415-1.731-3.551-1.731
	c-0.097,0-0.192,0.004-0.237,0.011l-1.306-0.01c-2.112-0.134-3.949,0.98-5.471,3.3c-0.162,0.247-0.319,0.508-0.472,0.781
	c-0.541-0.325-0.947-0.652-1.185-0.978c1.116-2.318,0.549-3.589,0.085-4.151c0.677-0.917,2.869-3.543,6.431-4.63
	C50.311,11.245,50.498,11.304,50.694,11.376z M41.467,71.798c-0.452,0.612-1.134,1.538-4.477,2.206
	c-0.068,0.014-0.138,0.02-0.208,0.02c-5.115-0.001-16.608-29.222-17.103-36.643c-0.135-2.016-0.626-3.942-1.146-5.981
	c-1.241-4.863-2.524-9.893,1.087-16.644c2.049-3.83,6.51-5.771,13.258-5.771c2.655,0,5.174,0.318,7.022,0.635
	c-0.001,0-0.002,0-0.003,0c-0.823,0.147-1.779,0.438-2.816,0.879c-1.263-0.482-2.709-0.796-4.34-0.796
	c-1.251,0-2.546,0.19-3.848,0.566c-6.756,1.951-10.889,10.159-10.271,14.529c0.223,1.576,1.099,2.48,2.404,2.48h0.001
	c0.144,0,0.294-0.011,0.451-0.034c0.062-0.009,1.965-0.297,4.629-0.808c-0.925,3.605-1.311,8.606,0.102,15.172
	c3.85,17.895,7.015,25.53,10.583,25.53c0.693,0,1.363-0.311,2.02-0.903c0.589,1.293,1.189,2.388,1.783,3.231
	c0.266,0.421,0.579,0.755,0.822,1.061c0.235,0.258,0.464,0.463,0.653,0.643C41.813,71.34,41.635,71.569,41.467,71.798z
	 M43.033,70.914c-0.014,0-0.021,0.004-0.035,0.004c-0.101-0.076-0.222-0.167-0.381-0.287c-0.16-0.176-0.368-0.365-0.598-0.629
	c-0.215-0.291-0.492-0.595-0.732-1.003c-0.586-0.882-1.188-2.082-1.773-3.517c0.67-0.838,1.328-1.981,1.979-3.477
	c0.589-1.355,1.101-2.867,1.541-4.483c0.44,1.617,0.952,3.128,1.541,4.483c1.206,2.775,2.437,4.385,3.733,4.918
	c-0.584,1.396-1.205,2.554-1.866,3.364c-0.604,0.759-1.252,1.151-1.714,1.247c-0.112,0.024-0.211,0.038-0.298,0.045
	C44.147,71.226,43.793,70.914,43.033,70.914z M67.532,31.4c-0.52,2.039-1.011,3.965-1.146,5.981
	c-0.224,3.353-3.257,12.727-6.763,20.896c-4.303,10.027-8.354,16.169-10.548,15.727c-2.938-0.587-3.82-1.373-4.298-1.971
	c0.023-0.004,0.04-0.003,0.063-0.009c0.593-0.122,1.348-0.604,1.993-1.413c0.717-0.878,1.368-2.088,1.973-3.531
	c0.154,0.03,0.309,0.059,0.465,0.059c3.568,0,6.733-7.635,10.583-25.53c1.412-6.566,1.026-11.567,0.102-15.172
	c2.664,0.51,4.567,0.799,4.629,0.808c0.158,0.023,0.308,0.034,0.452,0.034c1.305,0,2.182-0.904,2.404-2.479
	c0.618-4.37-3.513-12.579-10.271-14.53c-1.302-0.376-2.597-0.566-3.848-0.566c-1.439,0-2.728,0.253-3.881,0.642
	c-0.756-0.208-1.458-0.362-2.073-0.47c-0.548-0.094-1.025-0.162-1.44-0.213c1.868-0.33,4.485-0.676,7.258-0.676
	c6.748,0,11.209,1.942,13.258,5.771C70.057,21.507,68.773,26.537,67.532,31.4z"/>
</svg>
