<?xml version="1.0" encoding="utf-8"?>
<!-- Generator: Adobe Illustrator 15.1.0, SVG Export Plug-In . SVG Version: 6.00 Build 0)  -->
<!DOCTYPE svg PUBLIC "-//W3C//DTD SVG 1.1//EN" "http://www.w3.org/Graphics/SVG/1.1/DTD/svg11.dtd">
<svg version="1.1" id="Layer_1" xmlns="http://www.w3.org/2000/svg" xmlns:xlink="http://www.w3.org/1999/xlink" x="0px" y="0px"
	 width="100px" height="100px" viewBox="0 0 100 100" enable-background="new 0 0 100 100" xml:space="preserve">
<path d="M51.678,65.776c0.955,0.825,2.141,1.542,3.151,1.542c0.329,0,0.625-0.074,0.882-0.222c1.715-0.988,0.991-4.788,0.205-6.263
	c0.195,0.018,0.392,0.035,0.577,0.035c1.021,0,1.771-0.281,2.226-0.837c0.687-0.839,0.619-2.271-0.189-4.035
	c-0.35-0.763-0.816-1.528-1.309-2.184c0.656-0.106,1.159-0.367,1.498-0.781c0.687-0.839,0.619-2.271-0.189-4.035
	c-0.35-0.762-0.815-1.528-1.309-2.184c0.656-0.106,1.159-0.368,1.498-0.782c0.687-0.838,0.619-2.271-0.189-4.035
	c-0.35-0.762-0.815-1.528-1.309-2.184c0.656-0.106,1.159-0.368,1.498-0.782c0.687-0.838,0.619-2.271-0.189-4.035
	c-0.539-1.176-1.355-2.369-2.122-3.133c0.028,0,0.059,0.005,0.086,0.005c1.021,0,1.771-0.282,2.226-0.838
	c0.687-0.838,0.619-2.271-0.189-4.035c-0.629-1.372-1.634-2.77-2.499-3.479c-0.188-0.155-0.392-0.29-0.603-0.407
	c4.124-1.483,6.822-6.205,6.822-10.528c0-5.764-5.711-8.48-11.882-10.558c-0.893-0.3-1.795-0.452-2.684-0.452
	c-5.608,0-9.517,5.802-9.517,11.01c0,4.322,3.002,6.54,6.849,8.57c-0.186,0.108-0.366,0.228-0.534,0.365
	c-0.866,0.709-1.87,2.107-2.5,3.479c-0.809,1.764-0.876,3.197-0.189,4.035c0.339,0.414,0.842,0.675,1.499,0.782
	c-0.493,0.656-0.959,1.421-1.309,2.184c-0.809,1.764-0.876,3.197-0.189,4.035c0.339,0.414,0.842,0.675,1.499,0.782
	c-0.493,0.656-0.959,1.421-1.309,2.184c-0.809,1.764-0.876,3.197-0.189,4.035c0.339,0.414,0.842,0.675,1.499,0.782
	c-0.493,0.656-0.959,1.421-1.309,2.184c-0.809,1.764-0.876,3.197-0.189,4.035c0.339,0.414,0.842,0.675,1.499,0.782
	c-0.493,0.655-0.959,1.421-1.309,2.184c-0.809,1.764-0.876,3.196-0.189,4.034c0.455,0.557,1.204,0.838,2.226,0.838c0,0,0,0,0,0
	c0.023,0,0.047-0.004,0.07-0.004c-0.25,0.267-0.467,0.569-0.642,0.904c-0.519,0.991-0.895,2.671-0.936,4.179
	c-0.053,1.94,0.447,3.285,1.407,3.787c0.286,0.149,0.611,0.225,0.966,0.225c1.175,0,2.56-0.847,3.708-1.859
	c-0.33,3.097-1.778,12.974-7.11,17.814l0.672,0.74c5.314-4.825,6.917-14.018,7.364-17.785C49.66,65.945,49.817,66,50,66
	c0.244,0,0.466-0.086,0.649-0.215c0.599,2.746,3.166,12.747,9.785,18.138l0.631-0.775C54.93,78.15,52.347,68.678,51.678,65.776z
	 M51.17,38.289c-0.006-0.063-0.026-0.125-0.035-0.187c0.054,0.038,0.099,0.075,0.156,0.113C51.25,38.239,51.21,38.263,51.17,38.289z
	 M51.326,59.24c0.082,0.053,0.179,0.104,0.267,0.155c-0.084,0.039-0.169,0.076-0.25,0.123c-0.007,0.004-0.013,0.01-0.021,0.015
	C51.324,59.436,51.324,59.338,51.326,59.24z M51.17,45.289c-0.006-0.063-0.026-0.125-0.035-0.187
	c0.054,0.038,0.099,0.075,0.156,0.113C51.25,45.239,51.21,45.263,51.17,45.289z M50.036,19.905c0.008,0.035,0.013,0.071,0.021,0.106
	C50.037,20.01,50.021,20,50,20c-0.011,0-0.021,0.005-0.032,0.005C49.991,19.972,50.014,19.939,50.036,19.905z M50.87,21.958
	c0.112,0.164,0.231,0.315,0.359,0.453c-0.125-0.027-0.253-0.063-0.38-0.097C50.856,22.195,50.863,22.077,50.87,21.958z
	 M50.976,23.409c-0.002-0.006-0.005-0.012-0.007-0.019c0.009,0.002,0.018,0.004,0.027,0.006
	C50.989,23.401,50.982,23.404,50.976,23.409z M52.908,22.297c-1.258-0.276-2.039-2.031-2.062-4.237
	c0.252-0.869,0.39-1.851,0.396-2.9c0.738-2.691,2.391-4.736,3.918-4.736c0.118,0,0.235,0.013,0.349,0.038
	c1.686,0.37,2.515,3.393,1.811,6.601C56.623,20.233,54.58,22.667,52.908,22.297z M50.12,15.481
	c-0.181,0.824-0.267,1.625-0.276,2.384c-0.437,1.435-1.202,2.485-2.144,2.792c-0.204-0.031-0.407-0.068-0.617-0.068
	c-0.201,0-0.399,0.022-0.597,0.052c-1.592-0.537-3.007-3.025-3.283-6.003c-0.323-3.485,1.004-6.58,2.9-6.756
	c0.057-0.005,0.115-0.008,0.172-0.008c1.85,0,3.61,2.744,3.922,6.116c0.032,0.341,0.043,0.677,0.044,1.009
	C50.199,15.158,50.156,15.317,50.12,15.481z M49.231,49.221c-0.003-0.002-0.007-0.004-0.01-0.006
	c0.004-0.002,0.006-0.005,0.01-0.007C49.23,49.212,49.231,49.216,49.231,49.221z M54.997,61.232c0.77,1.337,1.154,4.456,0.215,4.997
	c-0.103,0.059-0.231,0.089-0.383,0.089c-1.133,0-2.946-1.488-3.683-2.559c0.057-0.969,0.101-1.937,0.133-2.905
	c0.162-0.182,0.346-0.345,0.563-0.47c0.349-0.201,0.743-0.307,1.144-0.308c0.439,0.179,0.898,0.337,1.366,0.464
	C54.606,60.728,54.835,60.951,54.997,61.232z M57.945,59.398c-0.319,0.39-0.966,0.471-1.452,0.471c-0.515,0-1.102-0.098-1.694-0.249
	c-0.468-0.305-1.01-0.489-1.579-0.528c-0.716-0.302-1.352-0.651-1.763-0.988c-0.043-0.035-0.074-0.078-0.115-0.115
	c0.018-1.521,0.014-3.043-0.01-4.565c0.299-0.275,0.643-0.485,1.021-0.624c1.088,0.52,2.413,0.934,3.6,1.037
	c0.607,0.679,1.239,1.644,1.668,2.578C58.242,57.771,58.364,58.887,57.945,59.398z M57.945,52.398
	c-0.319,0.39-0.966,0.471-1.452,0.471c-0.027,0-0.059-0.005-0.087-0.006c-0.127-0.126-0.253-0.244-0.376-0.345
	c-0.732-0.6-1.656-0.93-2.602-0.93c-0.344,0-0.678,0.052-1.003,0.133c-0.384-0.202-0.718-0.413-0.969-0.618
	c-0.065-0.054-0.116-0.119-0.176-0.177c-0.038-1.438-0.086-2.877-0.141-4.316c0.338-0.37,0.751-0.642,1.211-0.812
	c1.089,0.52,2.414,0.935,3.601,1.038c0.607,0.678,1.239,1.644,1.668,2.577C58.242,50.771,58.364,51.887,57.945,52.398z
	 M57.945,45.398c-0.319,0.39-0.966,0.472-1.452,0.472c-0.027,0-0.059-0.005-0.086-0.005c-0.128-0.127-0.254-0.245-0.377-0.346
	c-0.732-0.6-1.656-0.93-2.602-0.93c-0.344,0-0.679,0.052-1.004,0.133c-0.384-0.202-0.717-0.413-0.968-0.618
	c-0.16-0.132-0.303-0.277-0.431-0.432c-0.046-1.157-0.093-2.314-0.138-3.472c0.065-0.167,0.124-0.334,0.168-0.507
	c0.351-0.415,0.799-0.711,1.295-0.895c1.089,0.52,2.414,0.935,3.601,1.038c0.607,0.678,1.239,1.644,1.668,2.577
	C58.242,43.771,58.364,44.887,57.945,45.398z M57.945,38.398c-0.319,0.39-0.966,0.472-1.452,0.472c-0.027,0-0.059-0.005-0.086-0.005
	c-0.128-0.127-0.254-0.245-0.377-0.346c-0.732-0.6-1.656-0.93-2.602-0.93c-0.344,0-0.679,0.052-1.004,0.133
	c-0.384-0.202-0.717-0.413-0.968-0.618c-0.293-0.24-0.522-0.528-0.703-0.838c-0.026-0.868-0.047-1.736-0.065-2.604
	c0.167-0.307,0.284-0.633,0.368-0.968c0.592-0.7,1.451-1.105,2.372-1.105c0.715,0,1.414,0.25,1.968,0.704
	c0.747,0.612,1.661,1.896,2.224,3.122C58.242,36.771,58.364,37.887,57.945,38.398z M51.17,31.289
	c-0.052-0.527-0.206-1.047-0.464-1.529c0.042,0.037,0.073,0.082,0.117,0.117c0.37,0.303,0.885,0.609,1.466,0.891
	C51.891,30.883,51.517,31.06,51.17,31.289z M57.62,27.414c0.622,1.357,0.744,2.473,0.325,2.984c-0.319,0.39-0.966,0.472-1.452,0.472
	c-1.648,0-4.019-0.933-5.036-1.766c-0.346-0.284-0.611-0.628-0.8-1.004c0.005-0.472,0.008-0.944,0.018-1.416
	c0.357-0.648,0.521-1.376,0.5-2.105c0.586-0.623,1.39-0.989,2.254-0.989c0.715,0,1.413,0.25,1.968,0.704
	C56.144,24.904,57.058,26.188,57.62,27.414z M39.167,12.583c0-4.725,3.643-10.01,8.517-10.01c0.78,0,1.576,0.134,2.365,0.4
	c5.818,1.958,11.202,4.478,11.202,9.61c0,3.454-1.951,7.198-4.902,8.967c0.869-1.071,1.571-2.556,1.949-4.274
	c0.849-3.866-0.281-7.289-2.572-7.792c-1.701-0.373-3.519,1.026-4.68,3.35c-0.64-3.598-2.719-6.148-5.034-5.949
	c-2.519,0.235-4.189,3.681-3.803,7.844c0.159,1.712,0.638,3.242,1.323,4.435C40.921,17.542,39.167,15.668,39.167,12.583z
	 M44.019,28.87c-0.486,0-1.133-0.082-1.452-0.472c-0.419-0.511-0.297-1.627,0.325-2.984c0.562-1.226,1.477-2.51,2.224-3.122
	c0.307-0.252,0.662-0.434,1.037-0.552c0.006,0.003,0.012,0.006,0.018,0.009c0.937,0.435,1.815,0.776,2.651,1.043
	c-0.081,1.529-0.132,3.059-0.155,4.589c-0.176,0.114-0.367,0.229-0.579,0.34c-0.325-0.082-0.66-0.133-1.004-0.133
	c-0.945,0-1.869,0.331-2.601,0.93c-0.123,0.101-0.25,0.219-0.376,0.346C44.077,28.865,44.046,28.87,44.019,28.87z M44.019,35.87
	c-0.486,0-1.133-0.082-1.452-0.472c-0.419-0.511-0.297-1.627,0.325-2.984c0.428-0.934,1.061-1.899,1.668-2.577
	c1.187-0.103,2.512-0.518,3.601-1.038c0.169,0.062,0.329,0.139,0.485,0.229c-0.008,1.776,0.015,3.552,0.057,5.328
	c-0.185,0.124-0.387,0.246-0.615,0.366c-0.325-0.082-0.66-0.133-1.004-0.133c-0.945,0-1.869,0.331-2.601,0.93
	c-0.123,0.101-0.25,0.219-0.376,0.346C44.077,35.865,44.046,35.87,44.019,35.87z M44.019,42.87c-0.486,0-1.133-0.082-1.452-0.472
	c-0.419-0.511-0.297-1.627,0.325-2.984c0.428-0.934,1.061-1.899,1.668-2.577c1.187-0.103,2.512-0.518,3.601-1.038
	c0.207,0.077,0.402,0.174,0.589,0.293c0.05,1.701,0.111,3.402,0.179,5.103c-0.234,0.176-0.514,0.355-0.841,0.527
	c-0.325-0.082-0.66-0.133-1.004-0.133c-0.945,0-1.869,0.331-2.601,0.93c-0.123,0.101-0.25,0.219-0.376,0.346
	C44.077,42.865,44.046,42.87,44.019,42.87z M44.019,49.87c-0.486,0-1.133-0.082-1.452-0.472c-0.419-0.511-0.297-1.627,0.325-2.984
	c0.428-0.934,1.061-1.899,1.668-2.577c1.187-0.103,2.512-0.518,3.601-1.038c0.304,0.113,0.594,0.257,0.85,0.459
	c0.063,1.57,0.125,3.14,0.18,4.71c-0.047,0.044-0.085,0.094-0.135,0.136c-0.25,0.205-0.584,0.417-0.968,0.618
	c-0.325-0.082-0.66-0.133-1.004-0.133c-0.945,0-1.869,0.331-2.601,0.93c-0.123,0.101-0.25,0.219-0.376,0.346
	C44.077,49.865,44.046,49.87,44.019,49.87z M44.019,56.869c-0.486,0-1.133-0.081-1.452-0.472c-0.419-0.511-0.297-1.626,0.325-2.983
	c0.428-0.934,1.061-1.899,1.668-2.578c1.187-0.103,2.512-0.518,3.601-1.038c0.416,0.154,0.79,0.394,1.108,0.712
	c0.04,1.433,0.067,2.866,0.079,4.3c-0.094,0.1-0.184,0.203-0.292,0.293C48.037,55.938,45.667,56.869,44.019,56.869z M49.344,56.126
	c0.002,0.017,0.008,0.034,0.01,0.051c0,0.363,0,0.727-0.002,1.089c-0.119-0.079-0.23-0.167-0.359-0.234
	c-0.231-0.121-0.475-0.212-0.723-0.286C48.673,56.547,49.036,56.338,49.344,56.126z M44.884,65.96c-0.192,0-0.361-0.037-0.502-0.111
	c-0.586-0.306-0.912-1.38-0.871-2.873c0.037-1.349,0.375-2.888,0.822-3.743c0.539-1.029,1.596-1.669,2.758-1.669
	c0.503,0,0.987,0.119,1.437,0.354c0.309,0.161,0.573,0.378,0.806,0.623c-0.022,1.508-0.07,3.016-0.148,4.523
	C48.079,64.435,46.17,65.96,44.884,65.96z"/>
</svg>
