<svg xmlns="http://www.w3.org/2000/svg" xmlns:xlink="http://www.w3.org/1999/xlink" preserveAspectRatio="xMidYMid" width="20" height="27" viewBox="0 0 20 27">
  <defs>
    <style>
      .cls-2 {
        fill: #6b85a4;
      }
    </style>
  </defs>
  <g>
    <path fill="#6b85a4" d="M10.000,-0.001 C4.480,-0.001 0.004,4.499 0.004,10.051 C0.004,18.071 10.000,27.006 10.000,27.006 C10.000,27.006 19.997,18.071 19.997,10.051 C19.997,4.499 15.521,-0.001 10.000,-0.001 Z" id="path-1" class="cls-2" fill-rule="evenodd"/>
    <path transform="translate(6, 7)" fill="#ffffff" d="M2.916,6.003 C2.916,6.003 -0.002,3.162 -0.002,3.162 C-0.002,3.162 1.079,2.109 1.079,2.109 C1.079,2.109 2.916,3.898 2.916,3.898 C2.916,3.898 6.921,-0.001 6.921,-0.001 C6.921,-0.001 8.002,1.051 8.002,1.051 C8.002,1.051 2.916,6.003 2.916,6.003 Z" id="path-1" fill-rule="evenodd"/>

  </g>
</svg>
