<?xml version="1.0" encoding="utf-8"?>
<!-- Generator: Adobe Illustrator 15.0.2, SVG Export Plug-In . SVG Version: 6.00 Build 0)  -->
<!DOCTYPE svg PUBLIC "-//W3C//DTD SVG 1.1//EN" "http://www.w3.org/Graphics/SVG/1.1/DTD/svg11.dtd">
<svg version="1.1" id="Layer_1" xmlns="http://www.w3.org/2000/svg" xmlns:xlink="http://www.w3.org/1999/xlink" x="0px" y="0px"
	 width="100px" height="100px" viewBox="0 0 100 100" enable-background="new 0 0 100 100" xml:space="preserve">
<path d="M73.558,31.408c0.477-1.296,0.745-2.772,0.745-4.47c0-11.768-9.942-21.71-21.71-21.71c-12.71,0-23.081,8.424-23.42,18.883
	c-1.292,0.993-4.81,4.345-4.81,11.457c0,4.23,1.354,7.063,2.664,9.804c1.293,2.705,2.514,5.26,2.514,9.181
	c0,7.803-2.873,12.252-2.9,12.294l1.664,1.109c0.132-0.198,3.236-4.951,3.236-13.403c0-4.374-1.377-7.256-2.709-10.043
	c-1.27-2.656-2.468-5.165-2.468-8.941c0-4.704,1.7-7.467,2.967-8.877c0.949,5.703,5.824,9.691,11.923,11.792
	c0.047,0.588,0.081,1.203,0.081,1.879c0,3.755-0.974,6.497-2.006,9.398c-1.217,3.423-2.596,7.304-2.596,13.42
	c0,7.602,4.681,12.566,4.881,12.773l1.444-1.384c-0.043-0.045-4.325-4.616-4.325-11.39c0-5.771,1.261-9.319,2.481-12.75
	c1.091-3.069,2.121-5.968,2.121-10.068c0-0.439-0.018-0.849-0.037-1.257c0.627,0.167,1.263,0.315,1.905,0.444
	c0.773,8.5,1.917,17.443,1.989,18.005l1.991-0.127c0-5.948,2.06-11.16,4.051-16.199c0.138-0.347,0.271-0.69,0.407-1.035
	c1.26-0.025,2.554-0.082,3.851-0.188c-2.091,4.507-3.788,9.619-3.788,14.354c0,13.729,2.23,17.284,2.485,17.645l1.645-1.138
	c-0.021-0.032-2.13-3.431-2.13-16.507c0-4.755,1.912-10.043,4.148-14.608c3.9-0.522,7.644-1.6,10.344-3.739
	c-1.871,6.552-4.411,16.049-4.411,27.744c0,12.143,4.718,14.947,4.918,15.061l0.999-1.732c-0.039-0.023-3.917-2.524-3.917-13.328
	c0-12.105,2.692-21.481,4.658-28.327C72.873,33.927,73.253,32.598,73.558,31.408z M43.087,36.904
	c-0.213-1.449-0.548-2.645-0.942-3.626c0.798,0.306,1.675,0.562,2.612,0.772c0.074,1.084,0.161,2.212,0.258,3.365
	C44.369,37.266,43.725,37.095,43.087,36.904z M64.754,27.725c-0.273,0.375-0.65,0.901-1.105,1.565
	c-1.448,1.393-3.994,2.415-7.383,2.944c0.361-1.617,0.587-3.246,0.587-4.913l0.001-0.574c0.009-2.71,0.018-5.514-1.734-7.271
	c-1.068-1.072-2.616-1.593-4.731-1.593c-4.073,0-5.89,1.446-5.89,10.012c0,1.167,0.049,2.554,0.131,4.073
	c-2.088-0.537-3.729-1.361-4.955-2.347c-0.103-0.087-0.197-0.162-0.283-0.224c-1.676-1.458-2.482-3.234-2.482-4.953
	c0-3.844,5.292-7.821,14.149-7.821c7.434,0,13.957,6.069,13.957,9.738C65.016,26.838,64.927,27.293,64.754,27.725z M51.826,38.21
	c-1.509,0-3.126-0.133-4.766-0.398c-0.1-1.162-0.19-2.299-0.269-3.395c1.144,0.15,2.373,0.232,3.692,0.232
	c1.074,0,2.095-0.043,3.08-0.112c-0.384,1.211-0.824,2.432-1.298,3.666C52.116,38.204,51.978,38.21,51.826,38.21z M50.483,32.649
	c-1.393,0-2.658-0.105-3.828-0.279c-0.099-1.689-0.158-3.217-0.158-4.474c0-8.012,1.464-8.012,3.89-8.012
	c1.557,0,2.642,0.329,3.315,1.005c1.165,1.169,1.158,3.444,1.15,5.852l-0.001,0.58c0,1.729-0.271,3.444-0.703,5.166
	C52.997,32.59,51.778,32.649,50.483,32.649z M48.244,49.506c-0.326-2.889-0.688-6.276-0.997-9.613
	c1.405,0.192,2.827,0.297,4.24,0.312c-0.038,0.096-0.075,0.191-0.113,0.288C50.225,43.398,49.055,46.359,48.244,49.506z
	 M54.42,38.165c0.482-1.285,0.933-2.56,1.308-3.835c2.111-0.275,3.962-0.728,5.527-1.333c-0.878,1.444-1.815,3.09-2.723,4.869
	C57.251,38.01,55.888,38.113,54.42,38.165z M60.999,37.514c1.534-2.856,3.091-5.292,4.208-6.939
	c0.549-0.553,0.967-1.161,1.269-1.811c0.202-0.278,0.323-0.437,0.334-0.451l-0.105-0.081c0.203-0.59,0.312-1.213,0.312-1.87
	c0-4.635-7.148-11.738-15.957-11.738c-10.489,0-16.149,5.06-16.149,9.821c0,2.242,1.027,4.556,3.145,6.416l-0.017,0.033
	c0.026,0.014,2.013,1.161,2.887,5.265c-5.371-2.105-9.768-5.875-9.768-11.521c0-9.6,9.616-17.409,21.436-17.409
	c10.684,0,19.71,9.026,19.71,19.71c0,0.25-0.026,0.485-0.04,0.727c-0.076,0.774-0.262,1.701-0.52,2.754
	C70.473,34.105,66.963,36.442,60.999,37.514z"/>
</svg>
