<?xml version="1.0" encoding="UTF-8" standalone="no"?>
<!-- Created with Inkscape (http://www.inkscape.org/) -->

<svg
   xmlns:dc="http://purl.org/dc/elements/1.1/"
   xmlns:cc="http://creativecommons.org/ns#"
   xmlns:rdf="http://www.w3.org/1999/02/22-rdf-syntax-ns#"
   xmlns:svg="http://www.w3.org/2000/svg"
   xmlns="http://www.w3.org/2000/svg"
   xmlns:sodipodi="http://sodipodi.sourceforge.net/DTD/sodipodi-0.dtd"
   xmlns:inkscape="http://www.inkscape.org/namespaces/inkscape"
   width="162.81377"
   height="134.93037"
   viewBox="0 0 162.81377 134.93037" enable-background="new 0 0 162.81377 134.93037" xml:space="preserve"
   id="svg2"
   version="1.1"
   inkscape:version="0.91 r13725"
   sodipodi:docname="medusa-ephyrae.svg">
  <defs
     id="defs4" />
  <sodipodi:namedview
     id="base"
     pagecolor="#ffffff"
     bordercolor="#666666"
     borderopacity="1.0"
     inkscape:pageopacity="0.0"
     inkscape:pageshadow="2"
     inkscape:zoom="4.4277213"
     inkscape:cx="86.152232"
     inkscape:cy="57.080958"
     inkscape:document-units="px"
     inkscape:current-layer="layer1"
     showgrid="false"
     inkscape:window-width="1370"
     inkscape:window-height="964"
     inkscape:window-x="48"
     inkscape:window-y="192"
     inkscape:window-maximized="0"
     fit-margin-top="0"
     fit-margin-left="0"
     fit-margin-right="0"
     fit-margin-bottom="0" />
  <metadata
     id="metadata7">
    <rdf:RDF>
      <cc:Work
         rdf:about="">
        <dc:format>image/svg+xml</dc:format>
        <dc:type
           rdf:resource="http://purl.org/dc/dcmitype/StillImage" />
        <dc:title></dc:title>
      </cc:Work>
    </rdf:RDF>
  </metadata>
  <g
     inkscape:label="Layer 1"
     inkscape:groupmode="layer"
     id="layer1"
     transform="translate(-239.45398,-451.95825)">
    <path
       style="fill:none;stroke:#000000;stroke-width:1.5;stroke-linecap:round;stroke-linejoin:miter;stroke-opacity:1"
       d="m 310.37327,487.53955 c -5.56916,-4.30064 -9.30184,-15.17737 -6.80184,-19.10594 2.5,-3.92857 11.42857,-8.92857 9.64286,-11.78571 -1.78572,-2.85715 -50.71429,17.85714 -47.5,23.92857 3.21428,6.07143 18.21428,-3.21429 19.64285,0.35714 1.42857,3.57143 12.5,11.07143 10.35715,13.92857 -2.14286,2.85714 -4.28572,11.42857 -7.5,11.42857 -3.21429,0 -21.42858,-5 -23.21429,-8.92857 -1.78571,-3.92857 0,-13.57143 -3.57143,-13.57143 -3.57143,0 -28.21428,42.14286 -19.28571,43.21429 8.92857,1.07143 10.71428,-8.21429 18.92857,-8.92857 8.21428,-0.71429 19.64286,-4.28572 19.64286,1.07143 0,5.35714 3.57142,7.85714 0.35714,11.07142 -3.21429,3.21429 -16.78572,10.35715 -21.07143,10.71429 -4.28571,0.35714 -6.78571,-8.92857 -10.71429,-6.07143 -3.92857,2.85714 12.5,41.07143 17.85715,37.14286 5.35714,-3.92857 -2.14286,-10.71429 2.14285,-13.92857 4.28572,-3.21429 18.57143,-17.5 21.78572,-16.07143 3.21428,1.42857 12.5,7.14286 12.5,7.14286 0,0 -3.21429,22.85714 -8.57143,25.35714 -5.35714,2.5 -13.57143,-0.71429 -13.57143,3.21428 0,3.92858 49.64286,13.21429 50.71429,5.35715 1.07143,-7.85715 -9.28572,-3.21429 -9.64286,-8.92857 -0.35714,-5.71429 -5.71429,-25 -1.42857,-23.57143 4.28571,1.42857 12.5,1.07143 15.35714,-0.71429 2.85714,-1.78571 14.28572,11.42857 13.92857,16.42857 -0.35714,5 -11.07143,8.92857 -8.21428,12.5 C 345,582.36218 390.35714,559.1479 385,554.1479 c -5.35714,-5 -8.92857,2.14285 -13.57143,-0.35715 -4.64286,-2.5 -21.42857,-9.64285 -18.92857,-14.28571 2.5,-4.64286 2.09627,-11.33427 7.5,-11.42857 5.84695,-0.10203 22.76283,-0.34148 23.97714,3.05141 1.88371,5.26324 1.02286,14.44859 6.38,13.37716 5.35715,-1.07143 15.71429,-38.92857 8.92857,-38.57143 -6.78571,0.35714 -7.85714,7.14286 -13.21428,8.92857 -5.35714,1.78572 -22.85714,5.56191 -23.92857,0.91905 -1.07143,-4.64286 -3.20721,-7.93717 -2.14286,-10.20476 1.11242,-2.37 20.35714,-13.21429 23.21429,-11.78572 2.85714,1.42857 8.57142,8.92857 13.21428,6.07143 4.64286,-2.85714 -17.5,-37.5 -20.71428,-33.21428 -3.21429,4.28571 1.1198,10.19589 -0.42165,13.39405 -2.1091,4.37592 -18.14978,19.10595 -22.79264,15.89166 -4.64286,-3.21429 -11.42857,-2.14286 -8.92857,-8.21429 2.5,-6.07142 5.71428,-18.57142 10.71428,-20.71428 5,-2.14286 12.5,0.35714 13.92858,-2.5 1.42857,-2.85714 -44.28572,-17.14286 -45.71429,-9.64286 -1.42857,7.5 6.78571,0 9.28571,6.42857 2.5,6.42857 1.42858,23.57143 -3.21428,26.07143 -4.64286,2.5 -12.629,4.47801 -18.19816,0.17737 z"
       id="path3098"
       inkscape:connector-curvature="0"
       sodipodi:nodetypes="zssssssssssssssssscsssssssssssssssssssssssssssssz" />
    <path
       style="color:#000000;display:inline;overflow:visible;visibility:visible;fill:none;stroke:#000000;stroke-width:1.5;stroke-linecap:round;stroke-linejoin:miter;stroke-miterlimit:4;stroke-dashoffset:0;stroke-opacity:1;marker:none;enable-background:accumulate"
       d="m 352.53225,519.70783 c 0,5.33505 -3.13854,8.5668 -6.73034,12.59031 -5.51959,6.18301 -13.50246,11.91428 -23.67519,11.91428 -16.7925,0 -30.40551,-10.97108 -30.40551,-24.50459 0,-7.79762 6.22423,-14.40356 13.26688,-18.89151 5.18055,-3.30132 10.02147,-5.61309 17.13863,-5.61309 16.79251,0 30.40553,10.97108 30.40553,24.5046 z"
       id="path3100"
       inkscape:connector-curvature="0"
       sodipodi:nodetypes="sssssss" />
    <path
       style="fill:none;stroke:#000000;stroke-width:1.5;stroke-linecap:round;stroke-linejoin:miter;stroke-opacity:1"
       d="M 301.1188,490.70572 288.16012,473.31381"
       id="path3105"
       inkscape:connector-curvature="0" />
    <path
       style="fill:none;stroke:#000000;stroke-width:1.5;stroke-linecap:round;stroke-linejoin:miter;stroke-opacity:1"
       d="m 304.86999,489.00063 -9.5485,-18.75598"
       id="path3107"
       inkscape:connector-curvature="0" />
    <path
       style="fill:none;stroke:#000000;stroke-width:1.5;stroke-linecap:round;stroke-linejoin:miter;stroke-opacity:1"
       d="m 336.24364,487.63656 3.06916,-23.53024"
       id="path3109"
       inkscape:connector-curvature="0" />
    <path
       style="fill:none;stroke:#000000;stroke-width:1.5;stroke-linecap:round;stroke-linejoin:miter;stroke-opacity:1"
       d="m 338.63076,487.97758 7.5024,-21.14311"
       id="path3111"
       inkscape:connector-curvature="0" />
    <path
       style="fill:none;stroke:#000000;stroke-width:1.5;stroke-linecap:round;stroke-linejoin:miter;stroke-opacity:1"
       d="M 356.70471,499.23117 378.87088,484.5674"
       id="path3113"
       inkscape:connector-curvature="0" />
    <path
       style="fill:none;stroke:#000000;stroke-width:1.5;stroke-linecap:round;stroke-linejoin:miter;stroke-opacity:1"
       d="m 358.06878,501.61829 24.21227,-12.27664"
       id="path3115"
       inkscape:connector-curvature="0" />
    <path
       style="fill:none;stroke:#000000;stroke-width:1.5;stroke-linecap:round;stroke-linejoin:miter;stroke-opacity:1"
       d="m 361.13121,522.36915 27.28143,-3.06916"
       id="path3117"
       inkscape:connector-curvature="0" />
    <path
       style="fill:none;stroke:#000000;stroke-width:1.5;stroke-linecap:round;stroke-linejoin:miter;stroke-opacity:1"
       d="m 359.59326,524.87893 28.15754,0.14694"
       id="path3119"
       inkscape:connector-curvature="0"
       sodipodi:nodetypes="cc" />
    <path
       style="fill:none;stroke:#000000;stroke-width:1.5;stroke-linecap:round;stroke-linejoin:miter;stroke-opacity:1"
       d="m 346.47418,544.92756 19.43802,12.27665"
       id="path3121"
       inkscape:connector-curvature="0" />
    <path
       style="fill:none;stroke:#000000;stroke-width:1.5;stroke-linecap:round;stroke-linejoin:miter;stroke-opacity:1"
       d="m 343.40501,545.6096 11.93563,17.73293"
       id="path3123"
       inkscape:connector-curvature="0" />
    <path
       style="fill:none;stroke:#000000;stroke-width:1.5;stroke-linecap:round;stroke-linejoin:miter;stroke-opacity:1"
       d="m 314.41849,550.04283 -0.34101,26.94041"
       id="path3125"
       inkscape:connector-curvature="0" />
    <path
       style="fill:none;stroke:#000000;stroke-width:1.5;stroke-linecap:round;stroke-linejoin:miter;stroke-opacity:1"
       d="m 309.30323,548.33774 -4.77425,25.23533"
       id="path3129"
       inkscape:connector-curvature="0" />
    <path
       style="fill:none;stroke:#000000;stroke-width:1.5;stroke-linecap:round;stroke-linejoin:miter;stroke-opacity:1"
       d="m 287.13706,538.78924 -22.50718,13.98173"
       id="path3131"
       inkscape:connector-curvature="0" />
    <path
       style="fill:none;stroke:#000000;stroke-width:1.5;stroke-linecap:round;stroke-linejoin:miter;stroke-opacity:1"
       d="m 285.77299,535.03804 -26.25838,9.88952"
       id="path3135"
       inkscape:connector-curvature="0" />
    <path
       style="fill:none;stroke:#000000;stroke-width:1.5;stroke-linecap:round;stroke-linejoin:miter;stroke-opacity:1"
       d="m 281.33976,512.87188 -24.55329,-2.04611"
       id="path3137"
       inkscape:connector-curvature="0" />
    <path
       style="fill:none;stroke:#000000;stroke-width:1.5;stroke-linecap:round;stroke-linejoin:miter;stroke-opacity:1"
       d="m 282.02179,509.4617 -21.82514,-7.16137"
       id="path3139"
       inkscape:connector-curvature="0" />
  </g>
</svg>
