<?xml version="1.0" encoding="UTF-8" standalone="no"?>
<svg
   xmlns:dc="http://purl.org/dc/elements/1.1/"
   xmlns:cc="http://creativecommons.org/ns#"
   xmlns:rdf="http://www.w3.org/1999/02/22-rdf-syntax-ns#"
   xmlns:svg="http://www.w3.org/2000/svg"
   xmlns="http://www.w3.org/2000/svg"
   version="1.1"
   id="svg2"
   xml:space="preserve"
   enable-background="new 0 0 162.81377 134.93037"
   viewBox="0 0 100 99.999997"
   height="100"
   width="100"><defs
     id="defs4" /><metadata
     id="metadata7"><rdf:RDF><cc:Work
         rdf:about=""><dc:format>image/svg+xml</dc:format><dc:type
           rdf:resource="http://purl.org/dc/dcmitype/StillImage" /><dc:title></dc:title></cc:Work></rdf:RDF></metadata><g
     transform="translate(-239.45398,-486.88863)"
     id="layer1"><path
       id="path3098"
       transform="translate(239.45398,486.88863)"
       d="M 53.847656 9.9277344 C 53.274772 9.9465169 52.757184 10.003795 52.302734 10.109375 C 51.848284 10.214965 51.452786 10.368855 51.128906 10.609375 C 50.805026 10.849885 50.559682 11.199839 50.482422 11.605469 C 50.369672 12.197379 50.340779 12.666533 50.412109 13.070312 C 50.483409 13.474103 50.68134 13.823539 50.96875 14.037109 C 51.54355 14.464259 52.226072 14.382007 52.882812 14.341797 C 53.539553 14.301597 54.205748 14.260463 54.736328 14.414062 C 55.266908 14.567583 55.690265 14.856729 56.015625 15.693359 C 56.694035 17.437829 56.931271 20.922942 56.619141 24.070312 C 56.463071 25.644003 56.176144 27.142034 55.771484 28.308594 C 55.366824 29.475144 54.823531 30.277563 54.337891 30.539062 C 53.017591 31.249992 51.196877 31.894165 49.341797 32.046875 C 47.486717 32.199575 45.615084 31.871813 44.083984 30.689453 C 42.550644 29.505373 41.19267 27.317269 40.4375 25.167969 C 39.68234 23.018669 39.597166 20.911478 40.166016 20.017578 C 40.814416 18.998668 42.494848 17.650049 43.892578 16.386719 C 44.591448 15.755049 45.222345 15.139315 45.640625 14.515625 C 45.849765 14.203775 46.009619 13.886516 46.074219 13.541016 C 46.138819 13.195516 46.088112 12.811258 45.888672 12.492188 C 45.769582 12.301657 45.588041 12.208106 45.431641 12.160156 C 45.275241 12.112156 45.122931 12.099056 44.957031 12.097656 C 44.625211 12.094656 44.236334 12.149861 43.771484 12.244141 C 42.841784 12.432761 41.615614 12.79223 40.183594 13.28125 C 37.319544 14.2593 33.642664 15.754006 30.052734 17.416016 C 26.462804 19.078016 22.966344 20.903537 20.458984 22.560547 C 19.205304 23.389047 18.198303 24.169637 17.533203 24.904297 C 17.200653 25.271627 16.949001 25.627339 16.806641 26.005859 C 16.664271 26.384379 16.647557 26.82051 16.841797 27.1875 C 17.418417 28.27668 18.570457 28.681921 19.779297 28.707031 C 20.988137 28.732131 22.335382 28.433999 23.632812 28.099609 C 24.930243 27.765219 26.181805 27.391321 27.109375 27.238281 C 27.573165 27.161781 27.956004 27.1465 28.183594 27.1875 C 28.411184 27.2285 28.436626 27.261503 28.472656 27.351562 C 28.744826 28.032002 29.345909 28.703694 30.074219 29.458984 C 30.802529 30.214264 31.664492 31.021914 32.451172 31.808594 C 33.237852 32.595264 33.949495 33.367271 34.359375 33.994141 C 34.564315 34.307581 34.688976 34.584271 34.728516 34.775391 C 34.768016 34.966521 34.747041 35.041696 34.681641 35.128906 C 33.950011 36.104406 33.345231 37.783028 32.644531 39.236328 C 32.294181 39.962978 31.926373 40.625016 31.564453 41.072266 C 31.202533 41.519516 30.887303 41.708984 30.632812 41.708984 C 30.285712 41.708984 29.225799 41.533446 27.943359 41.222656 C 26.660929 40.911856 25.108881 40.472307 23.587891 39.960938 C 22.066891 39.449567 20.574489 38.865234 19.417969 38.277344 C 18.261459 37.689444 17.465286 37.032608 17.316406 36.705078 C 16.876476 35.737218 16.831976 33.723866 16.697266 31.972656 C 16.629866 31.097046 16.535636 30.281874 16.285156 29.615234 C 16.159916 29.281904 15.994038 28.978068 15.736328 28.742188 C 15.478618 28.506308 15.119537 28.359375 14.742188 28.359375 C 14.363937 28.359375 14.146552 28.543129 13.888672 28.755859 C 13.630782 28.968589 13.354115 29.254045 13.046875 29.609375 C 12.432405 30.320025 11.700291 31.310707 10.900391 32.498047 C 9.3005706 34.872717 7.4329319 38.028118 5.7949219 41.210938 C 4.1569019 44.393748 2.7489056 47.592647 2.0722656 50.091797 C 1.7339456 51.341367 1.5691131 52.41179 1.6894531 53.28125 C 1.7496531 53.71598 1.8864406 54.111951 2.1503906 54.425781 C 2.4143306 54.739621 2.8061744 54.942061 3.2402344 54.994141 C 6.0622544 55.332791 7.8517469 53.986264 9.4042969 52.621094 C 10.956847 51.255914 12.320819 49.895169 14.574219 49.699219 C 17.062509 49.482839 19.977949 48.846776 22.224609 48.666016 C 23.347949 48.575616 24.302029 48.612017 24.886719 48.810547 C 25.179069 48.909847 25.369844 49.037893 25.490234 49.189453 C 25.610614 49.341023 25.683594 49.527558 25.683594 49.835938 C 25.683594 51.536118 26.248458 52.786388 26.523438 53.736328 C 26.660928 54.211298 26.724595 54.598862 26.671875 54.945312 C 26.619175 55.291772 26.462086 55.629711 26.041016 56.050781 C 25.205426 56.886381 22.700257 58.461087 20.154297 59.773438 C 18.881317 60.429617 17.588527 61.033732 16.466797 61.482422 C 15.345067 61.931122 14.373456 62.218389 13.853516 62.261719 C 13.400586 62.299419 12.964692 62.086302 12.482422 61.669922 C 12.000142 61.253552 11.512885 60.656015 11.015625 60.078125 C 10.518365 59.500225 10.017631 58.933723 9.3945312 58.595703 C 8.7714213 58.257673 7.9513806 58.239546 7.2441406 58.753906 C 6.9577606 58.962176 6.82093 59.277179 6.75 59.605469 C 6.6791 59.933759 6.6686125 60.30076 6.6953125 60.71875 C 6.7487125 61.55473 6.95813 62.592341 7.28125 63.775391 C 7.92747 66.141501 9.0338031 69.077828 10.314453 71.892578 C 11.595093 74.707328 13.045367 77.393695 14.404297 79.265625 C 15.083767 80.201585 15.733309 80.936791 16.380859 81.394531 C 16.704639 81.623401 17.032439 81.78826 17.386719 81.84375 C 17.741009 81.89925 18.126604 81.818446 18.427734 81.597656 C 19.322494 80.941506 19.73229 80.082395 19.8125 79.234375 C 19.8927 78.386345 19.691244 77.554564 19.490234 76.777344 C 19.289224 76.000114 19.086585 75.271986 19.078125 74.691406 C 19.070125 74.110816 19.191055 73.714128 19.703125 73.330078 C 21.045485 72.323298 23.766321 69.751832 26.425781 67.513672 C 27.755501 66.394602 29.064009 65.364051 30.130859 64.681641 C 30.664289 64.340441 31.139153 64.086715 31.501953 63.953125 C 31.864753 63.819535 32.09076 63.838286 32.125 63.853516 C 33.01564 64.249356 34.885114 65.312932 36.496094 66.263672 C 37.947784 67.120412 38.950747 67.736729 39.185547 67.880859 C 39.144247 68.168989 38.73321 71.097439 37.90625 74.480469 C 37.47293 76.253139 36.941884 78.068129 36.333984 79.505859 C 35.726084 80.943589 34.994586 81.969189 34.447266 82.224609 C 33.021346 82.890039 31.078826 82.8125 29.441406 82.8125 C 28.622696 82.8125 27.884022 82.824299 27.257812 83.037109 C 26.944703 83.143529 26.649344 83.311188 26.433594 83.580078 C 26.217844 83.848968 26.107422 84.205534 26.107422 84.583984 C 26.107422 84.992904 26.362409 85.241229 26.630859 85.449219 C 26.899319 85.657209 27.243909 85.845419 27.667969 86.037109 C 28.516089 86.420479 29.684054 86.811472 31.083984 87.201172 C 33.883844 87.980592 37.599554 88.743332 41.339844 89.289062 C 45.080134 89.834803 48.838208 90.163144 51.742188 90.058594 C 53.194178 90.006294 54.430233 89.851183 55.376953 89.533203 C 55.850313 89.374203 56.255312 89.173868 56.576172 88.898438 C 56.897022 88.623007 57.131823 88.252718 57.189453 87.830078 C 57.362043 86.564438 57.050027 85.640832 56.435547 85.076172 C 55.821067 84.511512 55.016509 84.311438 54.255859 84.148438 C 53.495219 83.985437 52.757565 83.857697 52.265625 83.617188 C 51.773685 83.376678 51.515976 83.126724 51.472656 82.433594 C 51.359196 80.618194 50.508806 76.958471 50.009766 73.806641 C 49.760246 72.230731 49.602577 70.784365 49.654297 69.859375 C 49.680197 69.396875 49.778057 69.070046 49.841797 68.972656 C 49.873697 68.923956 49.874941 68.933647 49.869141 68.935547 C 49.863141 68.937547 49.880597 68.926578 49.966797 68.955078 C 51.340827 69.413088 53.227274 69.565925 55.021484 69.484375 C 56.815694 69.402775 58.48258 69.116359 59.5 68.480469 C 59.5308 68.461169 59.652298 68.430538 59.923828 68.523438 C 60.195368 68.616337 60.568246 68.823134 60.978516 69.121094 C 61.799056 69.716994 62.781955 70.669234 63.703125 71.746094 C 64.624295 72.822944 65.488939 74.026387 66.099609 75.123047 C 66.710289 76.219707 67.03836 77.230648 67 77.767578 C 66.9594 78.336578 66.600929 78.952811 66.037109 79.582031 C 65.473299 80.211261 64.726531 80.837552 64.019531 81.451172 C 63.312521 82.064802 62.642413 82.656733 62.220703 83.314453 C 62.009843 83.643323 61.857104 84.000798 61.839844 84.392578 C 61.822544 84.784358 61.962868 85.18943 62.236328 85.53125 C 62.484318 85.84123 62.843032 85.917237 63.201172 85.935547 C 63.559302 85.953847 63.963304 85.905247 64.433594 85.810547 C 65.374174 85.621117 66.568603 85.238471 67.939453 84.712891 C 70.681143 83.661741 74.116747 82.039389 77.404297 80.255859 C 80.691857 78.472329 83.8247 76.532709 85.96875 74.824219 C 87.04077 73.969979 87.866982 73.183449 88.357422 72.443359 C 88.602642 72.073319 88.772731 71.709933 88.806641 71.320312 C 88.840541 70.930703 88.690808 70.512715 88.392578 70.234375 C 87.534378 69.433385 86.677984 69.075821 85.871094 69.025391 C 85.064204 68.974991 84.339011 69.212446 83.681641 69.472656 C 83.024261 69.732866 82.421641 70.017528 81.863281 70.142578 C 81.304911 70.267628 80.813868 70.258246 80.236328 69.947266 C 78.812688 69.180686 75.663354 67.765589 73.052734 66.199219 C 71.747424 65.416029 70.58353 64.590873 69.875 63.845703 C 69.52074 63.473113 69.285787 63.122204 69.185547 62.839844 C 69.085317 62.557474 69.093637 62.368311 69.210938 62.150391 C 70.005367 60.675021 70.315463 58.967499 70.814453 57.693359 C 71.063943 57.056289 71.354476 56.538329 71.722656 56.193359 C 72.090836 55.848399 72.530326 55.645003 73.228516 55.632812 C 74.961296 55.602612 78.326505 55.553406 81.328125 55.759766 C 82.828935 55.862966 84.241389 56.032683 85.287109 56.289062 C 85.809979 56.417262 86.24024 56.567829 86.53125 56.724609 C 86.82225 56.881389 86.944976 57.033978 86.972656 57.111328 C 87.492176 58.562908 87.652205 60.698283 88.078125 62.439453 C 88.291085 63.310043 88.566678 64.098064 89.080078 64.677734 C 89.593478 65.257394 90.401395 65.554491 91.328125 65.369141 C 91.987825 65.237201 92.453646 64.705401 92.947266 63.988281 C 93.440896 63.271161 93.933835 62.321111 94.421875 61.207031 C 95.397955 58.978871 96.343463 56.099457 97.064453 53.242188 C 97.785443 50.384918 98.28229 47.559263 98.34375 45.408203 C 98.37445 44.332663 98.305651 43.428593 98.056641 42.726562 C 97.932151 42.375553 97.758581 42.064724 97.494141 41.833984 C 97.229691 41.603234 96.86569 41.478797 96.5 41.498047 C 94.32258 41.612647 92.998659 42.801474 91.917969 43.990234 C 90.837289 45.178984 89.947607 46.345589 88.529297 46.818359 C 86.994877 47.329839 83.605378 48.15713 80.580078 48.5 C 79.067428 48.67144 77.636802 48.719943 76.601562 48.570312 C 76.083942 48.495513 75.667921 48.367524 75.400391 48.214844 C 75.132851 48.062154 75.022776 47.918342 74.978516 47.726562 C 74.650166 46.303693 74.165332 45.104282 73.857422 44.132812 C 73.549502 43.161353 73.450385 42.469917 73.671875 41.998047 C 73.667875 42.007047 73.889857 41.725724 74.248047 41.433594 C 74.606237 41.141464 75.10173 40.784294 75.6875 40.396484 C 76.85905 39.620844 78.391575 38.717046 79.953125 37.884766 C 81.514675 37.052476 83.108814 36.290765 84.396484 35.796875 C 85.040314 35.549925 85.609316 35.36978 86.041016 35.28125 C 86.472716 35.19275 86.769278 35.241034 86.767578 35.240234 C 87.094438 35.403664 87.624853 35.825071 88.220703 36.332031 C 88.816553 36.839001 89.494506 37.431055 90.222656 37.953125 C 90.950806 38.475185 91.729821 38.933401 92.556641 39.150391 C 93.383451 39.367391 94.283 39.319232 95.09375 38.820312 C 95.39969 38.632043 95.58166 38.308382 95.65625 37.976562 C 95.73085 37.644752 95.722769 37.285672 95.667969 36.888672 C 95.558329 36.094692 95.248764 35.137404 94.802734 34.052734 C 93.910664 31.883384 92.458092 29.219937 90.857422 26.685547 C 89.256752 24.151157 87.513978 21.753904 86.023438 20.121094 C 85.278167 19.304684 84.605041 18.678834 83.988281 18.308594 C 83.679891 18.123464 83.382014 17.993149 83.052734 17.974609 C 82.723454 17.956109 82.351598 18.111935 82.142578 18.390625 C 81.058218 19.836435 81.258318 21.541586 81.554688 23.003906 C 81.851067 24.466216 82.167147 25.744892 81.841797 26.419922 C 81.588987 26.944462 80.771744 27.990233 79.677734 29.126953 C 78.583724 30.263683 77.205106 31.526794 75.785156 32.646484 C 74.365206 33.766174 72.899739 34.740998 71.662109 35.304688 C 71.043299 35.586527 70.482113 35.763926 70.033203 35.816406 C 69.584293 35.868906 69.270128 35.801504 69.054688 35.652344 C 67.562387 34.619204 65.807864 34.293874 64.740234 33.808594 C 64.206414 33.565944 63.882741 33.31186 63.744141 33 C 63.605531 32.68814 63.593117 32.212479 63.935547 31.380859 C 64.694387 29.537959 65.537431 26.795644 66.556641 24.365234 C 67.575841 21.934814 68.832104 19.873578 70.027344 19.361328 C 71.362574 18.789088 73.155679 18.820312 74.755859 18.820312 C 75.555959 18.820312 76.305257 18.812304 76.960938 18.677734 C 77.616618 18.543614 78.237836 18.248938 78.541016 17.642578 C 78.636416 17.451718 78.621141 17.212434 78.556641 17.052734 C 78.492141 16.893024 78.397799 16.781861 78.292969 16.675781 C 78.083309 16.463631 77.808431 16.276736 77.457031 16.072266 C 76.754221 15.663316 75.747125 15.20566 74.515625 14.71875 C 72.052625 13.74493 68.703272 12.663504 65.294922 11.771484 C 61.886572 10.879454 58.428159 10.177896 55.724609 9.9785156 C 55.048724 9.9286656 54.42054 9.9089519 53.847656 9.9277344 z M 53.876953 10.929688 C 54.403499 10.911682 55.002046 10.926794 55.650391 10.974609 C 58.243751 11.165869 61.669326 11.855851 65.041016 12.738281 C 68.412706 13.620721 71.738288 14.695507 74.148438 15.648438 C 75.353518 16.124897 76.333658 16.573957 76.955078 16.935547 C 77.208558 17.083037 77.352277 17.199275 77.466797 17.296875 C 77.323447 17.462745 77.167949 17.614176 76.761719 17.697266 C 76.252079 17.801506 75.544849 17.820312 74.755859 17.820312 C 73.177899 17.820312 71.263852 17.744309 69.632812 18.443359 C 67.861783 19.202369 66.681356 21.482806 65.634766 23.978516 C 64.588176 26.474216 63.736019 29.241 63.011719 31 C 62.612589 31.96932 62.546881 32.76467 62.832031 33.40625 C 63.117171 34.04784 63.694662 34.43171 64.326172 34.71875 C 65.589172 35.29285 67.224238 35.600859 68.486328 36.474609 C 68.959498 36.802189 69.544838 36.879154 70.148438 36.808594 C 70.752048 36.737994 71.395952 36.524654 72.076172 36.214844 C 73.436602 35.595224 74.944497 34.582751 76.404297 33.431641 C 77.864097 32.280531 79.270187 30.992622 80.398438 29.820312 C 81.526698 28.648002 82.369388 27.626996 82.742188 26.853516 C 83.331307 25.631226 82.819086 24.207401 82.535156 22.806641 C 82.251256 21.405881 82.118876 20.086934 82.941406 18.990234 C 82.970806 18.951134 82.924794 18.968656 82.996094 18.972656 C 83.067394 18.976656 83.244726 19.029156 83.472656 19.166016 C 83.928516 19.439666 84.573776 20.015642 85.285156 20.794922 C 86.707916 22.353492 88.434249 24.723033 90.011719 27.220703 C 91.589199 29.718363 93.022996 32.352164 93.878906 34.433594 C 94.306866 35.474304 94.588744 36.380941 94.677734 37.025391 C 94.722234 37.347621 94.714288 37.601639 94.679688 37.755859 C 94.644988 37.910079 94.606689 37.94515 94.568359 37.96875 C 94.001909 38.31734 93.445044 38.348681 92.808594 38.181641 C 92.172144 38.014611 91.480228 37.624965 90.804688 37.140625 C 90.129158 36.656275 89.471711 36.083003 88.869141 35.570312 C 88.266561 35.057632 87.735494 34.606023 87.214844 34.345703 C 86.789394 34.132973 86.359524 34.196184 85.839844 34.302734 C 85.320164 34.409304 84.714242 34.604311 84.039062 34.863281 C 82.688693 35.381231 81.069482 36.156073 79.482422 37.001953 C 77.895352 37.847843 76.342486 38.76291 75.134766 39.5625 C 74.530906 39.9623 74.014344 40.332693 73.615234 40.658203 C 73.216114 40.983703 72.936718 41.211906 72.767578 41.572266 C 72.357638 42.445646 72.577637 43.402964 72.904297 44.433594 C 73.230967 45.464214 73.696636 46.619662 74.003906 47.951172 C 74.118556 48.448002 74.47194 48.836114 74.90625 49.083984 C 75.34055 49.331844 75.864254 49.472634 76.458984 49.558594 C 77.648444 49.730494 79.131846 49.668927 80.691406 49.492188 C 83.810526 49.138687 87.201983 48.315478 88.845703 47.767578 C 90.605533 47.180968 91.620123 45.805952 92.658203 44.664062 C 93.696273 43.522182 94.704504 42.593364 96.552734 42.496094 C 96.690254 42.489094 96.749677 42.512591 96.835938 42.587891 C 96.922237 42.663191 97.026721 42.816487 97.113281 43.060547 C 97.286391 43.548667 97.37261 44.368776 97.34375 45.378906 C 97.28605 47.399156 96.80292 50.187627 96.09375 52.998047 C 95.38457 55.808467 94.449909 58.649657 93.505859 60.804688 C 93.033839 61.882208 92.558037 62.789935 92.123047 63.421875 C 91.688057 64.053805 91.265699 64.361712 91.130859 64.388672 C 90.468519 64.521142 90.147745 64.376465 89.828125 64.015625 C 89.508505 63.654745 89.245158 63.003752 89.048828 62.201172 C 88.656188 60.596032 88.514006 58.446241 87.916016 56.775391 C 87.763596 56.349531 87.415109 56.066183 87.005859 55.845703 C 86.596619 55.625213 86.098851 55.457006 85.525391 55.316406 C 84.378471 55.035206 82.928164 54.867039 81.396484 54.761719 C 78.333124 54.551079 74.946888 54.602543 73.210938 54.632812 C 72.306238 54.648613 71.573953 54.961731 71.039062 55.462891 C 70.504172 55.964061 70.159553 56.621475 69.882812 57.328125 C 69.329322 58.741425 69.018778 60.396761 68.330078 61.675781 C 68.076638 62.146461 68.070967 62.691458 68.242188 63.173828 C 68.413417 63.656198 68.736601 64.099966 69.150391 64.535156 C 69.977961 65.405536 71.195922 66.250761 72.539062 67.056641 C 75.225343 68.668411 78.432922 70.111565 79.763672 70.828125 C 80.563332 71.258715 81.369131 71.276848 82.082031 71.117188 C 82.794921 70.957527 83.436901 70.645334 84.050781 70.402344 C 84.664661 70.159344 85.238294 69.987798 85.808594 70.023438 C 86.378894 70.059038 86.978124 70.282704 87.708984 70.964844 C 87.807984 71.057244 87.822467 71.095462 87.810547 71.232422 C 87.798647 71.369392 87.713147 71.604345 87.523438 71.890625 C 87.144027 72.463175 86.375883 73.222069 85.345703 74.042969 C 83.285333 75.684779 80.181854 77.611563 76.927734 79.376953 C 73.673614 81.142353 70.263041 82.751407 67.582031 83.779297 C 66.241521 84.293237 65.079318 84.660308 64.236328 84.830078 C 63.814838 84.914978 63.472643 84.94878 63.251953 84.9375 C 63.031253 84.9262 62.979515 84.86105 63.015625 84.90625 C 62.865325 84.71838 62.833104 84.588347 62.839844 84.435547 C 62.846844 84.282737 62.91255 84.087446 63.0625 83.853516 C 63.36249 83.385646 63.979101 82.811701 64.675781 82.207031 C 65.372451 81.602371 66.148583 80.95825 66.783203 80.25 C 67.417813 79.54176 67.932757 78.753984 67.998047 77.839844 C 68.065647 76.893634 67.626616 75.811109 66.972656 74.636719 C 66.318696 73.462329 65.422121 72.217053 64.462891 71.095703 C 63.503651 69.974343 62.487226 68.98123 61.566406 68.3125 C 61.105996 67.97814 60.670907 67.722765 60.248047 67.578125 C 59.825197 67.433475 59.363613 67.387232 58.970703 67.632812 C 58.293113 68.056312 56.678313 68.407015 54.976562 68.484375 C 53.274812 68.561675 51.451683 68.395379 50.283203 68.005859 C 50.051663 67.928659 49.797074 67.908228 49.558594 67.986328 C 49.320114 68.064328 49.128046 68.236121 49.003906 68.425781 C 48.755626 68.805121 48.68666 69.260767 48.65625 69.804688 C 48.59545 70.892518 48.767794 72.360661 49.021484 73.962891 C 49.528854 77.167351 50.376199 80.921464 50.474609 82.496094 C 50.537209 83.497964 51.126312 84.173465 51.826172 84.515625 C 52.526032 84.857775 53.324385 84.97018 54.046875 85.125 C 54.769365 85.27982 55.394326 85.47669 55.759766 85.8125 C 56.125206 86.14832 56.342496 86.628359 56.197266 87.693359 C 56.175466 87.853379 56.106161 87.985775 55.925781 88.140625 C 55.745391 88.295465 55.451354 88.454018 55.058594 88.585938 C 54.273064 88.849777 53.105431 89.010197 51.707031 89.060547 C 48.910221 89.161247 45.186235 88.840911 41.484375 88.300781 C 37.782515 87.760651 34.095536 87.001591 31.353516 86.238281 C 29.982506 85.856631 28.845038 85.47078 28.080078 85.125 C 27.697608 84.95211 27.407401 84.786636 27.244141 84.660156 C 27.162511 84.596911 27.127054 84.549185 27.113281 84.53125 C 27.121426 84.370596 27.156765 84.276973 27.212891 84.207031 C 27.276091 84.128331 27.384715 84.050105 27.578125 83.984375 C 27.964945 83.852905 28.644556 83.8125 29.441406 83.8125 C 31.035106 83.8125 33.116901 83.948569 34.869141 83.130859 C 35.910891 82.644709 36.610416 81.416451 37.253906 79.894531 C 37.897406 78.372621 38.438236 76.519537 38.878906 74.716797 C 39.760246 71.111307 40.238281 67.703125 40.238281 67.703125 L 40.283203 67.378906 L 40.005859 67.207031 C 40.005859 67.207031 38.624046 66.358484 37.003906 65.402344 C 35.383776 64.446194 33.54749 63.391123 32.53125 62.939453 C 32.08877 62.742803 31.63184 62.840425 31.15625 63.015625 C 30.68065 63.190745 30.160787 63.475894 29.591797 63.839844 C 28.453817 64.567734 27.12646 65.615937 25.78125 66.748047 C 23.09082 69.012257 20.303666 71.63114 19.103516 72.53125 C 18.344326 73.10064 18.066715 73.921708 18.078125 74.705078 C 18.089525 75.488448 18.325224 76.270417 18.521484 77.029297 C 18.717744 77.788177 18.875236 78.518755 18.816406 79.140625 C 18.757606 79.762485 18.530258 80.281846 17.835938 80.791016 C 17.739838 80.861516 17.677526 80.876869 17.541016 80.855469 C 17.404516 80.834069 17.199351 80.749415 16.957031 80.578125 C 16.472371 80.235535 15.857651 79.565884 15.212891 78.677734 C 13.923371 76.901414 12.486479 74.251996 11.224609 71.478516 C 9.9627494 68.705036 8.8711338 65.800269 8.2460938 63.511719 C 7.9335737 62.367449 7.7392894 61.37541 7.6933594 60.65625 C 7.6703594 60.29667 7.6853625 60.005286 7.7265625 59.816406 C 7.7673625 59.627516 7.8270713 59.56611 7.8320312 59.5625 C 8.2901012 59.22936 8.5280388 59.263089 8.9179688 59.474609 C 9.3078987 59.686139 9.7751425 60.167576 10.257812 60.728516 C 10.740483 61.289446 11.246348 61.923764 11.830078 62.427734 C 12.413808 62.931694 13.117217 63.326013 13.935547 63.257812 C 14.686867 63.195213 15.675321 62.875176 16.837891 62.410156 C 18.000451 61.945126 19.315308 61.330159 20.611328 60.662109 C 23.203368 59.326009 25.676757 57.829113 26.748047 56.757812 C 27.280427 56.225442 27.573836 55.662963 27.660156 55.095703 C 27.746456 54.528433 27.638255 53.988471 27.484375 53.457031 C 27.176705 52.394161 26.683594 51.313897 26.683594 49.835938 C 26.683594 49.349777 26.542878 48.907589 26.273438 48.568359 C 26.004008 48.229139 25.628404 48.005691 25.208984 47.863281 C 24.370134 47.578461 23.325351 47.574922 22.144531 47.669922 C 19.782891 47.859942 16.871198 48.495735 14.486328 48.703125 C 11.866578 48.930925 10.263791 50.534844 8.7441406 51.871094 C 7.2244806 53.207334 5.834255 54.29699 3.359375 54 C 3.131315 53.9726 3.0188156 53.905393 2.9160156 53.783203 C 2.8132156 53.660963 2.7225575 53.454271 2.6796875 53.144531 C 2.5939875 52.525071 2.7185825 51.537206 3.0390625 50.353516 C 3.6800225 47.986136 5.0659669 44.816912 6.6855469 41.669922 C 8.3051269 38.522942 10.158769 35.389591 11.730469 33.056641 C 12.516329 31.890171 13.232854 30.922762 13.802734 30.263672 C 14.087674 29.934132 14.336987 29.681144 14.523438 29.527344 C 14.660381 29.41438 14.772826 29.377258 14.779297 29.365234 C 14.901986 29.371559 14.976226 29.401368 15.060547 29.478516 C 15.154547 29.564616 15.259659 29.727387 15.349609 29.966797 C 15.529509 30.445607 15.634149 31.204891 15.699219 32.050781 C 15.829359 33.742561 15.78681 35.756371 16.40625 37.119141 C 16.78706 37.956931 17.737754 38.544199 18.964844 39.167969 C 20.191934 39.791739 21.718321 40.386673 23.269531 40.908203 C 24.820731 41.429723 26.393971 41.877102 27.707031 42.195312 C 29.020081 42.513532 30.026463 42.708984 30.632812 42.708984 C 31.331752 42.708984 31.889317 42.260332 32.341797 41.701172 C 32.794277 41.142012 33.182145 40.428355 33.546875 39.671875 C 34.276345 38.158905 34.942792 36.448016 35.482422 35.728516 C 35.734822 35.391966 35.786661 34.957176 35.707031 34.572266 C 35.627431 34.187346 35.440613 33.822426 35.195312 33.447266 C 34.704713 32.696946 33.960593 31.903963 33.158203 31.101562 C 32.355813 30.299173 31.494829 29.493475 30.792969 28.765625 C 30.091119 28.037775 29.553924 27.359419 29.402344 26.980469 C 29.226504 26.540869 28.790058 26.280435 28.361328 26.203125 C 27.932598 26.125825 27.464763 26.166253 26.945312 26.251953 C 25.906403 26.423363 24.654373 26.803139 23.382812 27.130859 C 22.111243 27.458589 20.823261 27.730214 19.800781 27.708984 C 18.778301 27.687784 18.103383 27.43052 17.726562 26.71875 C 17.682462 26.63555 17.668387 26.553802 17.742188 26.357422 C 17.816087 26.161042 17.994651 25.886272 18.275391 25.576172 C 18.836851 24.955992 19.793766 24.198141 21.009766 23.394531 C 23.441766 21.787321 26.911766 19.970826 30.472656 18.322266 C 34.033546 16.673706 37.690922 15.188513 40.507812 14.226562 C 41.916252 13.745592 43.117663 13.395716 43.970703 13.222656 C 44.397223 13.136156 44.738426 13.095936 44.947266 13.097656 C 45.004766 13.098126 45.019364 13.102422 45.052734 13.107422 C 45.082834 13.180922 45.112797 13.244982 45.091797 13.357422 C 45.063697 13.507682 44.972187 13.717964 44.810547 13.958984 C 44.487267 14.441024 43.900986 15.031431 43.222656 15.644531 C 41.865996 16.870741 40.156996 18.168759 39.322266 19.480469 C 38.407976 20.917209 38.686891 23.20247 39.494141 25.5 C 40.301381 27.79753 41.702076 30.113189 43.472656 31.480469 C 45.245476 32.849479 47.395428 33.209939 49.423828 33.042969 C 51.452238 32.875999 53.37841 32.192132 54.8125 31.419922 C 55.70406 30.939862 56.271994 29.913369 56.714844 28.636719 C 57.157694 27.360079 57.453484 25.798909 57.615234 24.167969 C 57.938724 20.906089 57.751996 17.399378 56.947266 15.330078 C 56.531056 14.259818 55.789405 13.677005 55.015625 13.453125 C 54.241845 13.229235 53.463266 13.30451 52.822266 13.34375 C 52.181266 13.38295 51.713306 13.343535 51.566406 13.234375 C 51.493006 13.179775 51.437198 13.115914 51.398438 12.896484 C 51.359638 12.677044 51.365744 12.311456 51.464844 11.791016 C 51.493544 11.640466 51.558549 11.535449 51.724609 11.412109 C 51.890699 11.288769 52.162727 11.169154 52.529297 11.083984 C 52.895867 10.998809 53.350407 10.947693 53.876953 10.929688 z M 60.925781 16.929688 A 0.250025 0.250025 0 0 0 60.699219 17.150391 L 58.878906 31.109375 A 0.25012951 0.25012951 0 1 0 59.375 31.173828 L 61.195312 17.214844 A 0.250025 0.250025 0 0 0 60.925781 16.929688 z M 64.974609 18.546875 A 0.250025 0.250025 0 0 0 64.757812 18.716797 L 60.306641 31.259766 A 0.250025 0.250025 0 1 0 60.777344 31.427734 L 65.228516 18.884766 A 0.250025 0.250025 0 0 0 65 18.546875 A 0.250025 0.250025 0 0 0 64.974609 18.546875 z M 34.826172 20.570312 A 0.250025 0.250025 0 0 0 34.626953 20.9375 L 40.291016 32.064453 A 0.250025 0.250025 0 1 0 40.736328 31.837891 L 35.072266 20.710938 A 0.250025 0.250025 0 0 0 34.851562 20.570312 A 0.250025 0.250025 0 0 0 34.826172 20.570312 z M 30.583984 22.392578 A 0.250025 0.250025 0 0 0 30.400391 22.794922 L 38.087891 33.111328 A 0.250025 0.250025 0 1 0 38.488281 32.8125 L 30.800781 22.496094 A 0.250025 0.250025 0 0 0 30.583984 22.392578 z M 84.410156 29.068359 A 0.250025 0.250025 0 0 0 84.277344 29.113281 L 71.126953 37.8125 A 0.250025 0.250025 0 1 0 71.402344 38.228516 L 84.552734 29.529297 A 0.250025 0.250025 0 0 0 84.410156 29.068359 z M 86.4375 31.902344 A 0.250025 0.250025 0 0 0 86.324219 31.929688 L 71.960938 39.212891 A 0.25068899 0.25068899 0 0 0 72.1875 39.660156 L 86.550781 32.376953 A 0.250025 0.250025 0 0 0 86.4375 31.902344 z M 50.751953 35.130859 C 46.421413 35.130859 43.417663 36.561543 40.314453 38.539062 C 36.061453 41.249312 32.212891 45.275929 32.212891 50.167969 C 32.212891 58.532059 40.571973 65.205078 50.751953 65.205078 C 56.974763 65.205078 61.838132 61.702943 65.169922 57.970703 C 67.292982 55.592463 69.289062 53.529099 69.289062 50.167969 C 69.289062 41.803869 60.931953 35.130859 50.751953 35.130859 z M 50.751953 36.130859 C 60.496393 36.130859 68.289062 42.474449 68.289062 50.167969 C 68.289062 53.136899 66.562468 54.909008 64.423828 57.304688 C 61.206598 60.908617 56.599163 64.205078 50.751953 64.205078 C 41.007533 64.205078 33.212891 57.861479 33.212891 50.167969 C 33.212891 45.808069 36.748423 41.997573 40.851562 39.382812 C 43.895103 37.443323 46.637953 36.130859 50.751953 36.130859 z M 13.990234 39.589844 A 0.250025 0.250025 0 0 0 13.933594 40.078125 L 26.880859 44.328125 A 0.25076534 0.25076534 0 0 0 27.037109 43.851562 L 14.089844 39.603516 A 0.250025 0.250025 0 0 0 13.990234 39.589844 z M 11.958984 44.648438 A 0.25015483 0.25015483 0 0 0 11.966797 45.148438 L 26.533203 46.361328 A 0.250025 0.250025 0 1 0 26.574219 45.863281 L 12.007812 44.650391 A 0.250025 0.250025 0 0 0 11.984375 44.648438 A 0.25015483 0.25015483 0 0 0 11.958984 44.648438 z M 90.064453 49.675781 A 0.250025 0.250025 0 0 0 90.046875 49.677734 L 73.863281 51.498047 A 0.2505224 0.2505224 0 0 0 73.917969 51.996094 L 90.103516 50.173828 A 0.250025 0.250025 0 0 0 90.064453 49.675781 z M 72.955078 52.986328 A 0.25023102 0.25023102 0 0 0 72.976562 53.486328 L 89.681641 53.572266 A 0.250025 0.250025 0 1 0 89.683594 53.072266 L 72.980469 52.986328 A 0.250025 0.250025 0 0 0 72.955078 52.986328 z M 29.1875 59.011719 A 0.250025 0.250025 0 0 0 29.095703 59.029297 L 13.517578 64.896484 A 0.250025 0.250025 0 1 0 13.695312 65.363281 L 29.271484 59.496094 A 0.250025 0.250025 0 0 0 29.1875 59.011719 z M 29.996094 61.236328 A 0.250025 0.250025 0 0 0 29.861328 61.275391 L 16.509766 69.570312 A 0.25040916 0.25040916 0 0 0 16.773438 69.996094 L 30.125 61.701172 A 0.250025 0.250025 0 0 0 29.996094 61.236328 z M 65.185547 64.876953 A 0.250025 0.250025 0 0 0 65.162109 64.878906 A 0.250025 0.250025 0 0 0 65.0625 65.341797 L 76.59375 72.625 A 0.25061204 0.25061204 0 0 0 76.861328 72.201172 L 65.328125 64.917969 A 0.250025 0.250025 0 0 0 65.185547 64.876953 z M 63.371094 65.28125 A 0.250025 0.250025 0 0 0 63.167969 65.673828 L 70.248047 76.193359 A 0.250025 0.250025 0 1 0 70.662109 75.914062 L 63.582031 65.394531 A 0.250025 0.250025 0 0 0 63.371094 65.28125 z M 43.136719 66.900391 A 0.250025 0.250025 0 0 0 42.898438 67.107422 L 40.066406 82.078125 A 0.250025 0.250025 0 1 0 40.556641 82.169922 L 43.388672 67.199219 A 0.250025 0.250025 0 0 0 43.136719 66.900391 z M 46.177734 67.910156 A 0.250025 0.250025 0 0 0 45.927734 68.162109 L 45.726562 84.144531 A 0.250025 0.250025 0 1 0 46.226562 84.150391 L 46.427734 68.167969 A 0.250025 0.250025 0 0 0 46.177734 67.910156 z "
       style="color:#000000;font-style:normal;font-variant:normal;font-weight:normal;font-stretch:normal;font-size:medium;line-height:normal;font-family:sans-serif;text-indent:0;text-align:start;text-decoration:none;text-decoration-line:none;text-decoration-style:solid;text-decoration-color:#000000;letter-spacing:normal;word-spacing:normal;text-transform:none;direction:ltr;block-progression:tb;writing-mode:lr-tb;baseline-shift:baseline;text-anchor:start;white-space:normal;clip-rule:nonzero;display:inline;overflow:visible;visibility:visible;opacity:1;isolation:auto;mix-blend-mode:normal;color-interpolation:sRGB;color-interpolation-filters:linearRGB;solid-color:#000000;solid-opacity:1;fill-opacity:1;fill-rule:nonzero;stroke:none;stroke-width:1;stroke-linecap:round;stroke-linejoin:miter;stroke-miterlimit:4;stroke-dasharray:none;stroke-dashoffset:0;stroke-opacity:1;color-rendering:auto;image-rendering:auto;shape-rendering:auto;text-rendering:auto;enable-background:accumulate" /></g></svg>