<?xml version="1.0" encoding="utf-8"?>
<!-- Generator: Adobe Illustrator 15.0.2, SVG Export Plug-In . SVG Version: 6.00 Build 0)  -->
<!DOCTYPE svg PUBLIC "-//W3C//DTD SVG 1.1//EN" "http://www.w3.org/Graphics/SVG/1.1/DTD/svg11.dtd">
<svg version="1.1" id="Layer_1" xmlns="http://www.w3.org/2000/svg" xmlns:xlink="http://www.w3.org/1999/xlink" x="0px" y="0px"
	 width="100px" height="100px" viewBox="0 0 100 100" enable-background="new 0 0 100 100" xml:space="preserve">
<g>
	<path d="M66.5,23.144c0-4.405-1.135-7.757-3.373-9.964c-3.137-3.092-7.456-3.034-9.291-3.004l-0.354,0.003
		c-6.074,0-12.223,4.69-12.223,13.654c0,5.374,2.873,10.594,5.915,16.12c1.067,1.938,2.146,3.898,3.118,5.896
		c-9.108,10.083-19.268,19.077-19.453,19.24l1.322,1.5c0.739-0.65,10.23-9.055,19.046-18.767c1.583,3.599,2.706,7.336,2.706,11.303
		c0,6.298-4.239,9.865-4.282,9.9l0.634,0.773l0.632,0.775c0.205-0.167,5.017-4.171,5.017-11.449c0-4.632-1.376-8.881-3.243-12.934
		C60.01,37.899,66.5,28.933,66.5,23.144z M48.926,38.988c-2.915-5.295-5.667-10.296-5.667-15.156
		c0-8.007,5.299-11.654,10.223-11.654l0.383-0.004c0.168-0.002,0.36-0.005,0.572-0.005c1.794,0,5.015,0.195,7.286,2.434
		c1.843,1.817,2.777,4.69,2.777,8.54c0,5.113-5.906,13.303-12.771,21.094C50.837,42.46,49.877,40.716,48.926,38.988z"/>
	<path d="M62.987,19.29c0-2.049-2.692-5.082-8.471-5.082c-5.222,0-8.454,3.004-8.454,5.787c0,0.327,0.038,0.838,0.21,1.421
		c0.113,5.225,1.794,9.602,3.167,13.135c1.033,2.661,1.926,4.958,1.926,6.945v1.372l0.883-1.05
		c0.438-0.521,10.739-12.879,10.739-22.293h-0.019C62.977,19.444,62.987,19.362,62.987,19.29z M54.517,15.208
		c5.279,0,7.471,2.659,7.471,4.082c0,1.513-2.278,5.316-7.66,5.316c-3.884,0-6.367-1.193-7.06-3.316
		c-0.002-0.14-0.016-0.272-0.016-0.414h-0.095c-0.058-0.281-0.094-0.572-0.094-0.881C47.063,17.683,50.058,15.208,54.517,15.208z
		 M51.71,26.746c-0.128-0.516-0.223-0.906-0.266-1.395c0.831,0.157,1.775,0.255,2.883,0.255c0.774,0,1.49-0.071,2.151-0.197
		c-0.171,5.537-2.436,10.642-3.743,13.144C52.655,30.559,52.069,28.197,51.71,26.746z M50.372,34.188
		c-1.225-3.153-2.574-6.668-2.983-10.827c0.649,0.699,1.62,1.334,3.043,1.75c0.032,0.729,0.153,1.253,0.307,1.875
		c0.34,1.372,0.886,3.598,0.988,10.974C51.364,36.776,50.893,35.531,50.372,34.188z M54.612,36.999
		c1.305-2.895,2.785-7.188,2.869-11.839c1.943-0.588,3.315-1.684,4.207-2.821C60.67,27.524,57.224,33.237,54.612,36.999z"/>
</g>
</svg>
