<?xml version="1.0" encoding="utf-8"?>
<!-- Generator: Adobe Illustrator 16.0.4, SVG Export Plug-In . SVG Version: 6.00 Build 0)  -->
<!DOCTYPE svg PUBLIC "-//W3C//DTD SVG 1.1//EN" "http://www.w3.org/Graphics/SVG/1.1/DTD/svg11.dtd">
<svg version="1.1" id="Layer_1" xmlns="http://www.w3.org/2000/svg" xmlns:xlink="http://www.w3.org/1999/xlink" x="0px" y="0px"
	 width="86.518px" height="82.498px" viewBox="0 0 86.518 82.498" enable-background="new 0 0 86.518 82.498" xml:space="preserve">
<path d="M75.467,43.841c0.415-0.278,0.645-0.462,0.696-0.505l0.18-0.15v-0.234c0-13.753-15.729-36.505-33.653-36.505
	S9.036,29.199,9.036,42.952v0.234l0.18,0.15c0.033,0.028,0.14,0.114,0.323,0.247c-0.157,0-0.312,0.064-0.411,0.202
	c-0.161,0.227-3.92,5.628-2.971,11.213c1.413,8.316-3.357,9.461-3.56,9.506c-0.27,0.056-0.443,0.321-0.387,0.591
	c0.049,0.236,0.257,0.398,0.488,0.398c0.034,0,0.068-0.003,0.104-0.011c0.059-0.012,5.922-1.346,4.341-10.652
	c-0.88-5.172,2.765-10.416,2.801-10.469c0.101-0.142,0.107-0.316,0.049-0.467c0.354,0.234,0.84,0.53,1.458,0.866
	c-1.028,1.887-4.402,9.163-2.407,20.32c0.043,0.242,0.254,0.412,0.491,0.412c0.029,0,0.06-0.002,0.089-0.008
	c0.271-0.049,0.453-0.309,0.404-0.58c-1.928-10.78,1.392-17.955,2.314-19.682c0.507,0.251,1.082,0.518,1.726,0.792
	c-1.094,1.728-4.225,7.372-2.393,12.947c1.995,6.073-0.466,10.494-0.49,10.538c-0.137,0.239-0.054,0.545,0.186,0.682
	c0.078,0.045,0.164,0.066,0.248,0.066c0.173,0,0.341-0.09,0.434-0.25c0.111-0.194,2.714-4.832,0.572-11.348
	c-1.729-5.267,1.486-10.839,2.386-12.248c0.632,0.25,1.322,0.502,2.07,0.754c-0.556,2.298-2.797,12.588-1.051,22.678
	c0.043,0.243,0.254,0.415,0.492,0.415c0.028,0,0.058-0.002,0.086-0.007c0.272-0.047,0.455-0.306,0.407-0.578
	c-1.696-9.805,0.449-19.825,1.019-22.196c0.852,0.267,1.778,0.529,2.77,0.784c-0.455,2.84-2.675,17.484-1.277,24.828
	c0.046,0.24,0.255,0.407,0.49,0.407c0.031,0,0.062-0.003,0.095-0.009c0.271-0.052,0.449-0.313,0.397-0.584
	c-1.335-7.016,0.804-21.431,1.271-24.399c0.817,0.195,1.678,0.383,2.587,0.562c-0.936,1.648-3.016,6.312-1.65,13.422
	c1.594,8.29-1.665,11.743-1.696,11.775c-0.194,0.196-0.194,0.512,0.002,0.707c0.098,0.097,0.225,0.146,0.353,0.146
	s0.257-0.049,0.354-0.147c0.15-0.151,3.672-3.813,1.97-12.668c-1.395-7.266,1.034-11.913,1.717-13.037
	c0.837,0.151,1.715,0.293,2.627,0.426c-0.581,1.372-2.255,6.044-1.071,12.066c1.309,6.665-1.275,10.935-1.302,10.978
	c-0.145,0.234-0.073,0.542,0.161,0.688c0.082,0.051,0.174,0.076,0.264,0.076c0.167,0,0.329-0.083,0.424-0.235
	c0.116-0.186,2.823-4.626,1.434-11.699c-1.212-6.17,0.777-10.967,1.12-11.729c0.921,0.122,1.882,0.232,2.878,0.331
	c-0.511,1.562-4.389,13.96-1.304,21.404c0.08,0.192,0.266,0.309,0.462,0.309c0.064,0,0.129-0.012,0.191-0.038
	c0.255-0.106,0.376-0.398,0.271-0.653c-3.082-7.438,1.333-20.722,1.378-20.855c0.008-0.024,0.005-0.048,0.009-0.073
	c1.069,0.095,2.172,0.178,3.326,0.241c-0.46,1.932-2.053,9.562,0.137,14.702c2.27,5.328-0.858,8.93-0.993,9.081
	c-0.183,0.206-0.165,0.522,0.04,0.706c0.096,0.085,0.215,0.128,0.333,0.128c0.137,0,0.273-0.056,0.372-0.166
	c0.151-0.169,3.694-4.209,1.168-10.141c-2.127-4.992-0.383-12.837-0.037-14.263c1.273,0.059,2.599,0.097,3.976,0.112
	c-0.595,2.923-2.854,15.658,0.956,24.162c0.083,0.186,0.266,0.295,0.456,0.295c0.068,0,0.138-0.014,0.204-0.043
	c0.252-0.113,0.365-0.409,0.252-0.661c-3.729-8.323-1.334-21.354-0.848-23.743c0.132,0,0.259,0.003,0.392,0.003
	c0.857,0,1.69-0.011,2.509-0.027c0.598,1.416,3.487,9.238-0.137,20.581c-0.084,0.263,0.062,0.544,0.324,0.628
	c0.051,0.017,0.102,0.024,0.152,0.024c0.212,0,0.408-0.135,0.477-0.348c3.519-11.015,1.129-18.697,0.255-20.915
	c1.271-0.038,2.494-0.095,3.672-0.169c0.262,1.439,1.982,11.448,0.874,19.245c-0.039,0.273,0.151,0.526,0.425,0.565
	c0.023,0.003,0.048,0.005,0.071,0.005c0.244,0,0.459-0.18,0.494-0.43c1.103-7.751-0.531-17.609-0.859-19.451
	c1.321-0.097,2.583-0.214,3.786-0.351c0.758,0.908,3.906,5.089,1.891,9.739c-2.538,5.86,0.684,9.077,0.822,9.211
	c0.097,0.094,0.222,0.141,0.347,0.141c0.13,0,0.26-0.05,0.357-0.151c0.192-0.197,0.189-0.513-0.007-0.706
	c-0.118-0.116-2.854-2.897-0.602-8.097c2.002-4.62-0.436-8.676-1.644-10.28c1.208-0.154,2.356-0.326,3.442-0.513
	c-0.028,0.109-0.027,0.226,0.024,0.336c0.025,0.054,2.498,5.438,1.331,10.963c-1.219,5.772-0.555,10.575-0.526,10.777
	c0.036,0.25,0.25,0.429,0.494,0.429c0.024,0,0.048-0.001,0.072-0.005c0.272-0.039,0.463-0.292,0.424-0.566
	c-0.007-0.048-0.668-4.828,0.515-10.428c1.235-5.85-1.295-11.362-1.403-11.594c-0.013-0.027-0.034-0.045-0.052-0.069
	c1.25-0.23,2.419-0.479,3.504-0.74c0.596,1.506,2.558,7.876-0.205,21.183c-0.057,0.271,0.117,0.535,0.388,0.591
	c0.034,0.007,0.068,0.01,0.103,0.01c0.231,0,0.439-0.162,0.488-0.398c2.764-13.306,0.935-19.772,0.209-21.633
	c0.884-0.229,1.713-0.464,2.484-0.704c0.002,3.022,0.124,14.752,1.872,20.479c0.066,0.215,0.265,0.354,0.479,0.354
	c0.048,0,0.098-0.007,0.146-0.022c0.264-0.081,0.412-0.36,0.332-0.624c-1.755-5.745-1.83-18.188-1.828-20.51
	c0.812-0.271,1.557-0.543,2.233-0.812c0.884,1.036,3.979,5.158,2.729,10.84c-1.54,7.002,1.291,12.528,1.412,12.76
	c0.09,0.17,0.264,0.268,0.443,0.268c0.078,0,0.157-0.019,0.231-0.057c0.244-0.127,0.339-0.43,0.212-0.674
	c-0.028-0.054-2.781-5.448-1.322-12.082c1.272-5.781-1.543-9.991-2.732-11.457c1.393-0.597,2.457-1.156,3.219-1.605
	c0.009,0.011,0.012,0.025,0.021,0.036c0.063,0.07,6.255,7.146,0.744,20.393c-0.105,0.255,0.015,0.547,0.27,0.653
	c0.063,0.026,0.128,0.039,0.192,0.039c0.195,0,0.382-0.116,0.462-0.308C81.771,52.048,76.265,44.792,75.467,43.841z M42.689,7.447
	c17.195,0,32.303,21.629,32.642,35.045c-2.366-0.831-11.874-3.627-32.642-3.627s-30.275,2.796-32.642,3.627
	C10.389,29.075,25.495,7.447,42.689,7.447z M10.346,42.917c2.516-0.864,11.984-3.552,32.344-3.552
	c20.364,0,29.833,2.69,32.347,3.553c-2.12,1.426-11.429,6.742-32.347,6.742C21.824,49.66,12.477,44.343,10.346,42.917z"/>
</svg>
