<?xml version="1.0" encoding="utf-8"?>
<!-- Generator: Adobe Illustrator 15.1.0, SVG Export Plug-In . SVG Version: 6.00 Build 0)  -->
<!DOCTYPE svg PUBLIC "-//W3C//DTD SVG 1.1//EN" "http://www.w3.org/Graphics/SVG/1.1/DTD/svg11.dtd">
<svg version="1.1" id="Layer_1" xmlns="http://www.w3.org/2000/svg" xmlns:xlink="http://www.w3.org/1999/xlink" x="0px" y="0px"
	 width="100px" height="100px" viewBox="0 0 100 100" enable-background="new 0 0 100 100" xml:space="preserve">
<path d="M81.957,6.409l-0.069-0.299l-0.299-0.072C72.053,3.723,61.229,2.5,50.285,2.5c-11.217,0-22.286,1.285-32.011,3.716
	L17.976,6.29l-0.068,0.299c-0.567,2.477-0.855,4.952-0.855,7.357c0,4.673,0.794,8.941,2.36,12.686l0.11-0.046
	c0.092,0.237,0.245,0.473,0.477,0.708V73c0,0.276,0.224,0.5,0.5,0.5S21,73.276,21,73V28.012c0.5,0.271,1.15,0.544,2,0.819V78
	c0,0.276,0.224,0.5,0.5,0.5S24,78.276,24,78V29.13c1.068,0.297,2.388,0.6,4,0.909V81c0,0.276,0.224,0.5,0.5,0.5S29,81.276,29,81
	V30.224c0.11,0.02,0.206,0.04,0.318,0.059c0.957,0.168,2.202,0.368,3.682,0.57V78c0,0.276,0.224,0.5,0.5,0.5S34,78.276,34,78V30.984
	c0.632,0.08,1.295,0.16,2,0.236V73c0,0.276,0.224,0.5,0.5,0.5S37,73.276,37,73V31.324c0.946,0.095,1.944,0.185,3,0.265V81
	c0,0.276,0.224,0.5,0.5,0.5S41,81.276,41,81V31.66c1.267,0.086,2.602,0.157,4,0.208V76c0,0.276,0.224,0.5,0.5,0.5S46,76.276,46,76
	V31.901c0.655,0.019,1.32,0.034,2,0.042V83c0,0.276,0.224,0.5,0.5,0.5S49,83.276,49,83V31.95c0.226,0.001,0.446,0.004,0.674,0.004
	c1.141,0,2.25-0.016,3.326-0.044V80c0,0.276,0.224,0.5,0.5,0.5S54,80.276,54,80V31.879c0.681-0.022,1.349-0.05,2-0.082V81
	c0,0.276,0.224,0.5,0.5,0.5S57,81.276,57,81V31.743c1.413-0.081,2.75-0.18,4-0.291V80c0,0.276,0.224,0.5,0.5,0.5S62,80.276,62,80
	V31.359c1.075-0.104,2.072-0.217,3-0.332V79c0,0.276,0.224,0.5,0.5,0.5S66,79.276,66,79V30.9c1.621-0.215,2.973-0.431,4-0.611V83
	c0,0.276,0.224,0.5,0.5,0.5S71,83.276,71,83V30.104c1.599-0.299,2.918-0.593,4-0.881V73c0,0.276,0.224,0.5,0.5,0.5S76,73.276,76,73
	V28.938c1.476-0.453,2.415-0.896,3-1.339V73c0,0.276,0.224,0.5,0.5,0.5S80,73.276,80,73V26.95c1.687-4.033,2.859-8.62,2.859-13.004
	C82.859,11.493,82.556,8.958,81.957,6.409z M21.377,25.688c0-0.28,0.583-0.549,1.646-0.799C23.014,24.926,23,24.961,23,25v1.701
	C21.952,26.319,21.377,25.966,21.377,25.688z M24,27.031V25c0-0.111-0.043-0.208-0.104-0.291c1.072-0.198,2.456-0.382,4.104-0.547
	V28C26.404,27.681,25.057,27.351,24,27.031z M29,28.192v-4.125c1.218-0.109,2.557-0.209,4-0.297v5.065
	C31.557,28.635,30.218,28.418,29,28.192z M34,28.969v-5.258c0.648-0.036,1.315-0.07,2-0.102v5.599
	C35.315,29.132,34.648,29.053,34,28.969z M37,29.313v-5.748c0.971-0.041,1.97-0.078,3-0.109v6.126
	C38.97,29.503,37.971,29.413,37,29.313z M41,29.655v-6.227c1.295-0.035,2.631-0.062,4-0.081v6.52
	C43.631,29.815,42.295,29.744,41,29.655z M46,29.898v-6.564c0.66-0.007,1.326-0.013,2-0.016v6.624
	C47.326,29.933,46.66,29.918,46,29.898z M49.674,29.955c-0.226,0-0.449-0.002-0.674-0.004v-6.635c0.225,0,0.448-0.001,0.674-0.001
	c1.126,0,2.234,0.006,3.326,0.017v6.578C51.908,29.938,50.8,29.955,49.674,29.955z M54,29.88v-6.538c0.676,0.008,1.341,0.02,2,0.032
	v6.419C55.341,29.827,54.676,29.856,54,29.88z M57,29.74v-6.346c1.378,0.031,2.714,0.07,4,0.118v5.931
	C59.714,29.56,58.378,29.66,57,29.74z M62,29.35V23.55c1.038,0.042,2.037,0.09,3,0.142v5.32C64.037,29.134,63.038,29.247,62,29.35z
	 M66,28.882v-5.133c1.438,0.085,2.777,0.182,4,0.288v4.219C68.777,28.477,67.438,28.688,66,28.882z M71,28.068v-3.94
	c1.572,0.151,2.921,0.319,4,0.5v2.506C73.921,27.444,72.572,27.762,71,28.068z M76,26.823v-2.006
	c1.269,0.27,1.973,0.563,1.973,0.871S77.269,26.394,76,26.823z M79.959,24.802c-0.049-0.111-0.138-0.199-0.246-0.251
	c-0.762-1.392-3.365-1.99-9.861-2.535c-2.403-0.202-5.17-0.36-8.158-0.477c-0.06-0.025-0.125-0.039-0.193-0.039
	c-0.046,0-0.088,0.015-0.13,0.026c-3.635-0.138-7.595-0.212-11.696-0.212c-4.568,0-8.966,0.091-12.926,0.261
	C36.674,21.532,36.592,21.5,36.5,21.5c-0.106,0-0.199,0.04-0.279,0.096c-2.442,0.11-4.706,0.251-6.723,0.42
	c-6.39,0.536-9.009,1.125-9.818,2.47c-1.076-3.184-1.627-6.718-1.627-10.54c0-2.233,0.256-4.531,0.763-6.834
	C28.39,4.749,39.264,3.5,50.285,3.5c10.75,0,21.381,1.188,30.768,3.437c0.535,2.373,0.807,4.729,0.807,7.009
	C81.859,17.678,81.22,21.322,79.959,24.802z"/>
</svg>
