<?xml version="1.0" encoding="utf-8"?>
<!-- Generator: Adobe Illustrator 15.1.0, SVG Export Plug-In . SVG Version: 6.00 Build 0)  -->
<!DOCTYPE svg PUBLIC "-//W3C//DTD SVG 1.1//EN" "http://www.w3.org/Graphics/SVG/1.1/DTD/svg11.dtd">
<svg version="1.1" id="Layer_1" xmlns="http://www.w3.org/2000/svg" xmlns:xlink="http://www.w3.org/1999/xlink" x="0px" y="0px"
	 width="100px" height="100px" viewBox="0 0 100 100" enable-background="new 0 0 100 100" xml:space="preserve">
<g>
	<path d="M49.109,38c10.001,0,18.109,0.68,18.109,1.52s-8.108,2.73-18.109,2.73C39.108,42.25,31,40.359,31,39.52
		S39.108,38,49.109,38 M49.109,36c-4.892,0-9.499,0.161-12.972,0.452C31.712,36.823,29,37.17,29,39.52
		c0,1.834,1.69,2.722,6.957,3.65c2.29,0.403,7.043,1.081,13.152,1.081s10.862-0.677,13.152-1.081
		c5.267-0.928,6.957-1.815,6.957-3.65c0-2.35-2.712-2.696-7.137-3.068C58.608,36.161,54.001,36,49.109,36L49.109,36z"/>
</g>
<line fill="none" stroke="#000000" stroke-linecap="round" stroke-miterlimit="10" x1="30.5" y1="39" x2="30.5" y2="70"/>
<line fill="none" stroke="#000000" stroke-linecap="round" stroke-miterlimit="10" x1="68.5" y1="39" x2="68.5" y2="70"/>
<line fill="none" stroke="#000000" stroke-linecap="round" stroke-miterlimit="10" x1="65.5" y1="38" x2="65.5" y2="69"/>
<line fill="none" stroke="#000000" stroke-linecap="round" stroke-miterlimit="10" x1="62.5" y1="38" x2="62.5" y2="76"/>
<line fill="none" stroke="#000000" stroke-linecap="round" stroke-miterlimit="10" x1="59.5" y1="37" x2="59.5" y2="73"/>
<line fill="none" stroke="#000000" stroke-linecap="round" stroke-miterlimit="10" x1="35.5" y1="38" x2="35.5" y2="75"/>
<line fill="none" stroke="#000000" stroke-linecap="round" stroke-miterlimit="10" x1="32.5" y1="39" x2="32.5" y2="73"/>
<line fill="none" stroke="#000000" stroke-linecap="round" stroke-miterlimit="10" x1="40.5" y1="37" x2="40.5" y2="70"/>
<line fill="none" stroke="#000000" stroke-linecap="round" stroke-miterlimit="10" x1="46.5" y1="37" x2="46.5" y2="72"/>
<line fill="none" stroke="#000000" stroke-linecap="round" stroke-miterlimit="10" x1="48.5" y1="38" x2="48.5" y2="76"/>
<line fill="none" stroke="#000000" stroke-linecap="round" stroke-miterlimit="10" x1="53.5" y1="37" x2="53.5" y2="75"/>
<line fill="none" stroke="#000000" stroke-linecap="round" stroke-miterlimit="10" x1="43.5" y1="37" x2="43.5" y2="75"/>
<line fill="none" stroke="#000000" stroke-linecap="round" stroke-miterlimit="10" x1="38.5" y1="38" x2="38.5" y2="73"/>
<line fill="none" stroke="#000000" stroke-linecap="round" stroke-miterlimit="10" x1="56.5" y1="37" x2="56.5" y2="74"/>
<line fill="none" stroke="#000000" stroke-linecap="round" stroke-miterlimit="10" x1="51.5" y1="37" x2="51.5" y2="74"/>
<path fill="none" stroke="#000000" stroke-miterlimit="10" d="M68.425,40c1.029-2.461,1.602-5.161,1.602-7.995
	c0-1.637-0.21-3.223-0.568-4.75C63.543,25.819,56.741,25,49.5,25c-7.427,0-14.389,0.864-20.408,2.368
	c-0.342,1.493-0.539,3.04-0.539,4.637c0,2.834,0.457,5.534,1.486,7.995"/>
</svg>
