<?xml version="1.0" encoding="utf-8"?>
<!-- Generator: Adobe Illustrator 15.1.0, SVG Export Plug-In . SVG Version: 6.00 Build 0)  -->
<!DOCTYPE svg PUBLIC "-//W3C//DTD SVG 1.1//EN" "http://www.w3.org/Graphics/SVG/1.1/DTD/svg11.dtd">
<svg version="1.1" id="Layer_1" xmlns="http://www.w3.org/2000/svg" xmlns:xlink="http://www.w3.org/1999/xlink" x="0px" y="0px"
	 width="100px" height="100px" viewBox="0 0 100 100" enable-background="new 0 0 100 100" xml:space="preserve">
<path d="M59.719,19.032c0.687-0.838,0.619-2.271-0.189-4.035c-0.35-0.762-0.816-1.528-1.31-2.184
	c0.657-0.107,1.16-0.368,1.499-0.782c0.687-0.838,0.619-2.271-0.189-4.035c-0.629-1.372-1.634-2.77-2.499-3.479
	c-0.732-0.6-1.656-0.93-2.602-0.93c-0.225,0-0.442,0.038-0.661,0.073c0.039-0.155,0.066-0.315,0.066-0.483
	c0-1.098-0.891-1.988-1.988-1.988c-0.727,0-1.355,0.394-1.702,0.976c-0.621-0.362-1.321-0.579-2.061-0.579
	c-0.945,0-1.869,0.331-2.601,0.93c-0.866,0.709-1.87,2.107-2.499,3.479c-0.809,1.764-0.876,3.197-0.189,4.035
	c0.339,0.414,0.842,0.675,1.499,0.782c-0.493,0.655-0.959,1.421-1.309,2.184c-0.809,1.764-0.876,3.197-0.189,4.035
	c0.339,0.414,0.842,0.675,1.499,0.782c-0.493,0.655-0.959,1.421-1.309,2.184c-0.809,1.764-0.876,3.197-0.189,4.035
	c0.339,0.414,0.842,0.675,1.499,0.782c-0.493,0.655-0.959,1.421-1.309,2.184c-0.809,1.764-0.876,3.197-0.189,4.035
	c0.339,0.414,0.842,0.675,1.498,0.782c-0.493,0.656-0.959,1.421-1.309,2.184c-0.809,1.764-0.876,3.197-0.189,4.035
	c0.339,0.414,0.842,0.675,1.498,0.782c-0.493,0.656-0.959,1.421-1.309,2.184c-0.809,1.764-0.876,3.197-0.189,4.035
	c0.455,0.556,1.204,0.838,2.225,0.838c0,0,0,0,0,0c0.022,0,0.047-0.004,0.069-0.004c-0.25,0.267-0.466,0.569-0.641,0.904
	c-0.519,0.992-0.895,2.671-0.936,4.18c-0.053,1.94,0.447,3.285,1.407,3.787c0.286,0.149,0.611,0.225,0.966,0.225
	c0.506,0,1.051-0.161,1.599-0.42c-0.118,0.324-0.201,0.666-0.211,1.03c-0.032,1.145,0.56,3.402,1.638,4.712
	c0.294,5.354,1.758,31.264,2.502,31.264c1.392,0,0.106-22.839,1.315-31.542c0.942-1.259,1.518-3.132,1.546-4.14
	c0.011-0.379-0.06-0.74-0.169-1.086c0.584,0.319,1.18,0.54,1.724,0.54c0.329,0,0.625-0.074,0.882-0.222
	c1.715-0.988,0.991-4.788,0.205-6.263c0.195,0.018,0.392,0.036,0.577,0.036c1.021,0,1.771-0.282,2.226-0.838
	c0.687-0.838,0.619-2.271-0.189-4.035c-0.35-0.762-0.815-1.528-1.309-2.184c0.656-0.106,1.159-0.368,1.498-0.782
	c0.687-0.838,0.619-2.271-0.189-4.035c-0.35-0.762-0.815-1.528-1.309-2.184c0.656-0.106,1.159-0.368,1.498-0.782
	c0.687-0.838,0.619-2.271-0.189-4.035c-0.35-0.762-0.815-1.528-1.309-2.184c0.656-0.106,1.159-0.368,1.498-0.782
	c0.687-0.838,0.619-2.271-0.189-4.035c-0.539-1.177-1.355-2.369-2.123-3.133c0.028,0,0.059,0.005,0.087,0.005
	C58.515,19.869,59.264,19.587,59.719,19.032z M58.945,18.398c-0.319,0.39-0.966,0.471-1.452,0.471c-1.648,0-4.019-0.933-5.037-1.766
	c-0.171-0.14-0.321-0.297-0.456-0.465v-2.7c0.085-0.269,0.146-0.546,0.174-0.833c0.018-0.177,0.006-0.352,0.001-0.527
	c0.332-0.353,0.732-0.614,1.178-0.779c1.088,0.52,2.413,0.935,3.6,1.038c0.607,0.678,1.239,1.644,1.668,2.578
	C59.242,16.771,59.364,17.887,58.945,18.398z M52.17,26.289c-0.006-0.063-0.026-0.125-0.035-0.188
	c0.054,0.038,0.099,0.076,0.156,0.113C52.251,26.239,52.21,26.263,52.17,26.289z M52.17,33.289
	c-0.006-0.063-0.026-0.125-0.035-0.188c0.054,0.038,0.099,0.075,0.156,0.113C52.251,33.239,52.21,33.263,52.17,33.289z
	 M52.17,40.289c-0.006-0.063-0.026-0.125-0.035-0.188c0.054,0.038,0.099,0.075,0.156,0.113C52.251,40.239,52.21,40.263,52.17,40.289
	z M52,11.394v-0.39c0.094,0.07,0.185,0.141,0.291,0.21C52.193,11.274,52.092,11.326,52,11.394z M52.01,47.445
	c-0.003-0.008-0.007-0.015-0.01-0.023v-0.417c0.176,0.132,0.374,0.262,0.593,0.391c-0.084,0.04-0.169,0.077-0.25,0.124
	c-0.1,0.057-0.185,0.131-0.276,0.197C52.045,47.626,52.038,47.534,52.01,47.445z M56.396,5.292c0.747,0.612,1.661,1.896,2.224,3.122
	c0.622,1.357,0.744,2.473,0.325,2.984c-0.319,0.39-0.966,0.471-1.452,0.471c-0.027,0-0.059-0.005-0.087-0.005
	c-0.127-0.126-0.253-0.245-0.376-0.345c-0.732-0.6-1.656-0.93-2.602-0.93c-0.344,0-0.679,0.051-1.004,0.133
	c-0.384-0.202-0.718-0.413-0.969-0.619C52.285,9.963,52.135,9.806,52,9.638v-2.7c0.085-0.269,0.146-0.546,0.174-0.833
	c0.018-0.177,0.006-0.352,0.001-0.527c0.587-0.623,1.39-0.989,2.254-0.989C55.144,4.588,55.842,4.838,56.396,5.292z M45.019,9.869
	c-0.486,0-1.133-0.082-1.452-0.471c-0.419-0.511-0.297-1.627,0.325-2.984c0.562-1.226,1.477-2.51,2.224-3.122
	c0.554-0.454,1.252-0.704,1.967-0.704c0.648,0,1.26,0.21,1.777,0.572c0,0.006-0.002,0.012-0.002,0.019
	c0,0.258,0.053,0.502,0.142,0.728v4.236c-0.245,0.193-0.554,0.39-0.914,0.579c-0.325-0.082-0.66-0.133-1.003-0.133
	c-0.945,0-1.869,0.331-2.601,0.93c-0.123,0.101-0.249,0.219-0.376,0.345C45.078,9.864,45.046,9.869,45.019,9.869z M45.019,16.869
	c-0.486,0-1.133-0.082-1.452-0.471c-0.419-0.511-0.297-1.627,0.325-2.984c0.428-0.934,1.061-1.899,1.668-2.578
	c1.187-0.103,2.511-0.518,3.6-1.038c0.3,0.111,0.587,0.251,0.84,0.45v4.895c-0.245,0.193-0.554,0.39-0.914,0.579
	c-0.325-0.082-0.66-0.133-1.003-0.133c-0.945,0-1.869,0.331-2.601,0.93c-0.123,0.101-0.249,0.219-0.376,0.345
	C45.078,16.864,45.046,16.869,45.019,16.869z M45.019,23.869c-0.486,0-1.133-0.082-1.452-0.471
	c-0.419-0.511-0.297-1.627,0.325-2.984c0.428-0.934,1.061-1.899,1.668-2.578c1.187-0.103,2.511-0.518,3.6-1.038
	c0.3,0.111,0.587,0.251,0.84,0.45v4.895c-0.245,0.193-0.554,0.39-0.914,0.579c-0.325-0.082-0.66-0.133-1.003-0.133
	c-0.945,0-1.869,0.331-2.601,0.93c-0.123,0.101-0.249,0.219-0.376,0.345C45.078,23.864,45.046,23.869,45.019,23.869z M45.019,30.87
	c-0.486,0-1.133-0.082-1.452-0.472c-0.419-0.511-0.297-1.627,0.325-2.984c0.428-0.934,1.061-1.899,1.668-2.578
	c1.187-0.103,2.511-0.518,3.6-1.038c0.3,0.111,0.587,0.251,0.84,0.45v4.895c-0.244,0.193-0.554,0.39-0.913,0.579
	c-0.325-0.082-0.66-0.133-1.004-0.133c-0.945,0-1.869,0.331-2.601,0.93c-0.123,0.101-0.25,0.219-0.376,0.346
	C45.077,30.865,45.046,30.87,45.019,30.87z M45.019,37.87c-0.486,0-1.133-0.082-1.452-0.472c-0.419-0.511-0.297-1.627,0.325-2.984
	c0.428-0.934,1.06-1.899,1.667-2.577c1.187-0.103,2.512-0.518,3.601-1.038c0.299,0.111,0.587,0.251,0.84,0.45v4.895
	c-0.244,0.193-0.554,0.39-0.913,0.579c-0.325-0.082-0.66-0.133-1.004-0.133c-0.945,0-1.869,0.331-2.601,0.93
	c-0.123,0.101-0.25,0.219-0.376,0.346C45.077,37.865,45.046,37.87,45.019,37.87z M45.019,44.87c-0.486,0-1.133-0.082-1.452-0.472
	c-0.419-0.511-0.297-1.627,0.325-2.984c0.428-0.934,1.06-1.899,1.667-2.577c1.187-0.103,2.512-0.518,3.601-1.038
	c0.299,0.111,0.587,0.251,0.84,0.45v4.895C48.957,43.966,46.641,44.87,45.019,44.87z M50,44.349v0.688
	c-0.002-0.001-0.005-0.003-0.007-0.005c-0.231-0.121-0.475-0.212-0.723-0.287C49.531,44.617,49.776,44.484,50,44.349z
	 M45.382,53.849c-0.586-0.306-0.911-1.38-0.871-2.873c0.037-1.348,0.375-2.888,0.822-3.743c0.539-1.03,1.596-1.67,2.759-1.67
	c0.504,0,0.987,0.119,1.437,0.354c0.168,0.088,0.324,0.194,0.471,0.308v5.073c-1.128,1.304-2.903,2.661-4.115,2.661
	C45.693,53.96,45.524,53.923,45.382,53.849z M51,60.286v0.5l-0.187-0.5c-1.181-0.054-2.584-3.098-2.541-4.688
	c0.029-1.067,0.791-1.932,1.821-2.186C50.251,53.758,50.596,54,51,54c0.35,0,0.642-0.189,0.82-0.461
	c0.948,0.39,1.638,1.283,1.61,2.298C53.388,57.384,52,60.286,51,60.286z M55.997,49.233c0.77,1.337,1.154,4.456,0.215,4.997
	c-0.103,0.059-0.231,0.089-0.383,0.089c-1.208,0-3.206-1.699-3.829-2.772v-1.634c0.1-0.312,0.161-0.631,0.184-0.955
	c0.179-0.228,0.4-0.423,0.659-0.572c0.349-0.201,0.743-0.307,1.143-0.308c0.44,0.179,0.899,0.337,1.368,0.465
	C55.607,48.729,55.835,48.952,55.997,49.233z M58.945,47.398c-0.319,0.39-0.966,0.472-1.452,0.472c-0.515,0-1.101-0.098-1.693-0.249
	c-0.469-0.305-1.011-0.49-1.58-0.53c-0.716-0.301-1.352-0.651-1.763-0.988c-0.172-0.141-0.323-0.298-0.457-0.465v-3.711
	c0.024-0.077,0.037-0.156,0.057-0.233c0.351-0.415,0.799-0.711,1.295-0.895c1.089,0.52,2.414,0.935,3.601,1.038
	c0.607,0.678,1.239,1.644,1.668,2.577C59.242,45.771,59.364,46.887,58.945,47.398z M58.945,40.398
	c-0.319,0.39-0.966,0.472-1.452,0.472c-0.027,0-0.059-0.005-0.086-0.005c-0.128-0.127-0.254-0.245-0.377-0.346
	c-0.732-0.6-1.656-0.93-2.602-0.93c-0.344,0-0.679,0.052-1.004,0.133c-0.384-0.202-0.717-0.413-0.968-0.618
	c-0.172-0.141-0.323-0.298-0.457-0.465v-3.711c0.024-0.077,0.037-0.156,0.057-0.233c0.351-0.415,0.799-0.711,1.295-0.895
	c1.089,0.52,2.414,0.935,3.601,1.038c0.607,0.678,1.239,1.644,1.668,2.577C59.242,38.771,59.364,39.887,58.945,40.398z
	 M58.945,33.398c-0.319,0.39-0.966,0.472-1.452,0.472c-0.027,0-0.059-0.005-0.086-0.005c-0.128-0.127-0.254-0.245-0.377-0.346
	c-0.732-0.6-1.656-0.93-2.602-0.93c-0.344,0-0.679,0.052-1.004,0.133c-0.384-0.202-0.717-0.413-0.968-0.618
	c-0.172-0.141-0.323-0.298-0.457-0.465v-3.711c0.024-0.077,0.037-0.156,0.057-0.233c0.351-0.415,0.799-0.711,1.296-0.895
	c1.088,0.52,2.413,0.935,3.6,1.038c0.607,0.678,1.239,1.644,1.668,2.577C59.242,31.771,59.364,32.887,58.945,33.398z M58.945,26.398
	c-0.319,0.39-0.966,0.472-1.452,0.472c-0.027,0-0.059-0.005-0.086-0.005c-0.128-0.127-0.254-0.245-0.377-0.346
	c-0.732-0.6-1.656-0.93-2.602-0.93c-0.344,0-0.679,0.052-1.004,0.133c-0.384-0.202-0.718-0.413-0.969-0.619
	c-0.171-0.14-0.321-0.297-0.456-0.465v-3.7c0.025-0.08,0.037-0.164,0.057-0.246c0.593-0.7,1.452-1.104,2.372-1.104
	c0.715,0,1.413,0.25,1.968,0.704c0.747,0.612,1.661,1.896,2.224,3.122C59.242,24.771,59.364,25.887,58.945,26.398z M52.175,19.286
	c-0.028-0.283-0.09-0.56-0.175-0.829v-0.454c0.35,0.262,0.79,0.521,1.29,0.764C52.893,18.883,52.52,19.059,52.175,19.286z"/>
</svg>
