<?xml version="1.0" encoding="utf-8"?>
<!-- Generator: Adobe Illustrator 15.1.0, SVG Export Plug-In . SVG Version: 6.00 Build 0)  -->
<!DOCTYPE svg PUBLIC "-//W3C//DTD SVG 1.1//EN" "http://www.w3.org/Graphics/SVG/1.1/DTD/svg11.dtd">
<svg version="1.1" id="Layer_1" xmlns="http://www.w3.org/2000/svg" xmlns:xlink="http://www.w3.org/1999/xlink" x="0px" y="0px"
	 width="100px" height="100px" viewBox="0 0 100 100" enable-background="new 0 0 100 100" xml:space="preserve">
<path d="M79.246,4.36c-1.428-1.404-3.233-2.116-5.367-2.116c-4.547,0-9.984,3.246-14.781,6.109c-3.718,2.22-7.229,4.316-9.338,4.316
	c-1.298,0-3.983-2.037-6.58-4.006C38.896,5.414,33.564,1.37,28.604,1.37c-3.473,0-6.317,1.958-8.452,5.821
	c-3.119,5.643-2.422,12.844,1.962,20.277C25.728,33.593,31.199,38.84,37,42.201V87c0,0.276,0.224,0.5,0.5,0.5S38,87.276,38,87
	V42.757c3.968,2.136,8.047,3.379,11.76,3.379c3.854,0,8.11-1.61,12.24-4.187V86c0,0.276,0.224,0.5,0.5,0.5S63,86.276,63,86V41.305
	c7.684-5.107,14.771-13.422,17.781-20.774C83.54,13.79,82.995,8.047,79.246,4.36z M78.93,19.773
	c-5.032,12.296-19.481,24.364-29.17,24.364c-8.687,0-20.073-7.768-25.923-17.685c-4.01-6.799-4.697-13.295-1.935-18.293
	c1.781-3.222,3.973-4.789,6.702-4.789c4.288,0,9.322,3.818,13.367,6.886c3.251,2.465,5.818,4.413,7.789,4.413
	c2.659,0,6.229-2.131,10.363-4.599c4.575-2.731,9.76-5.826,13.756-5.826c1.613,0,2.91,0.504,3.965,1.542
	C81.857,9.733,80.65,15.571,78.93,19.773z"/>
</svg>
