<?xml version="1.0" encoding="utf-8"?>
<!-- Generator: Adobe Illustrator 16.0.4, SVG Export Plug-In . SVG Version: 6.00 Build 0)  -->
<!DOCTYPE svg PUBLIC "-//W3C//DTD SVG 1.1//EN" "http://www.w3.org/Graphics/SVG/1.1/DTD/svg11.dtd">
<svg version="1.1" id="Layer_1" xmlns="http://www.w3.org/2000/svg" xmlns:xlink="http://www.w3.org/1999/xlink" x="0px" y="0px"
	 width="86.518px" height="82.498px" viewBox="0 0 86.518 82.498" enable-background="new 0 0 86.518 82.498" xml:space="preserve">
<path d="M79.752,30.221c-0.53,0-1.1,0.07-1.557,0.126c-0.268,0.033-0.502,0.062-0.672,0.069c-0.44,0.017-0.896,0.054-1.355,0.091
	c-1.072,0.087-2.226,0.152-3.076,0.024c-1.349-0.204-2.693-1.894-2.615-3.287c0.006-0.097,0.092-0.5,0.168-0.854
	c0.588-2.749,0.812-4.484,0.218-5.219c-0.315-0.391-0.828-0.471-1.406-0.174c-0.639,0.329-0.808,1.202-0.957,1.972
	c-0.054,0.278-0.109,0.565-0.173,0.724c-0.164,0.404-0.324,0.879-0.485,1.357c-0.277,0.824-0.622,1.851-0.925,2.164
	c-0.238,0.246-0.602,0.493-0.994,0.724l-0.997-5.579c-0.049-0.272-0.313-0.454-0.58-0.404c-0.271,0.048-0.453,0.308-0.404,0.58
	l1.055,5.899c-0.131,0.064-0.265,0.131-0.383,0.188c-0.331,0.156-0.659,0.317-0.986,0.477c-0.638,0.312-1.257,0.612-1.883,0.884
	l-0.098-1.641c0.055-0.012,0.11-0.021,0.157-0.058c0.161-0.13,0.187-0.366,0.057-0.527c-0.146-0.18-0.184-1.004-0.204-1.446
	c-0.014-0.307-0.028-0.586-0.059-0.773c-0.152-0.971-0.208-1.949-0.171-2.993c0.034-0.999,0.121-1.969,0.239-2.661l0.168-0.987
	l-0.775,0.633c-0.492,0.403-0.724,0.905-0.922,1.405c-0.508-0.671-1.156-1.327-2.157-1.327c-0.004,0-0.008,0-0.012,0l-0.324,0.001
	l-0.045,0.322c-0.051,0.364,0.047,0.702,0.184,1.013c-0.003-0.001-0.007-0.002-0.011-0.004l-0.571-0.195l0.078,0.599
	c0.03,0.231,0.187,0.527,0.438,0.99c0.194,0.356,0.599,1.099,0.599,1.247c0,0-0.053,0.019-0.202-0.002l-0.188-0.027
	c-0.097-0.307-0.2-0.608-0.302-0.898l-0.079-0.227c-0.339-0.974-0.544-2.007-0.577-2.908c-0.006-0.146,0.001-0.294,0.008-0.442
	c0.016-0.357,0.032-0.726-0.088-1.102l-0.162-0.51L56.3,17.789c-0.07,0.055-0.132,0.114-0.187,0.176l-0.214-1.78l-0.658,2.333
	c-0.148,0.549-0.309,1.144-0.523,1.68l-0.23-0.484l-0.345,0.679c-0.123,0.241-0.214,0.49-0.289,0.74l-0.14-1.145l-0.438,2.043
	c0.006-0.06,0.01-0.118,0.016-0.178c0.032-0.317,0.037-0.652,0.042-0.989c0.007-0.439,0.014-0.894,0.088-1.283
	c0.04-0.206,0.118-0.409,0.2-0.624c0.098-0.256,0.199-0.52,0.247-0.814l-0.725-0.184l-0.131,0.374
	c-0.336,0.943-0.652,1.835-0.663,2.938c-0.003,0.345,0.001,0.69,0.006,1.036c0.001,0.085,0.002,0.17,0.003,0.255
	c-0.139-0.317-0.236-0.609-0.229-0.967c0.002-0.039,0.004-0.077,0.006-0.115l-0.748-0.051c-0.004,0.048-0.006,0.096-0.007,0.142
	c-0.026,0.656,0.037,1.31,0.099,1.943c0.026,0.272,0.054,0.548,0.073,0.824c-0.228-0.313-0.423-0.636-0.557-0.995l-1.205-3.237
	l0.482,3.42c0.09,0.636,0.408,1.246,0.717,1.835c0.224,0.426,0.438,0.837,0.557,1.23c-0.006-0.003-0.012-0.007-0.018-0.01
	c-0.237-0.139-0.467-0.274-0.67-0.433c-0.137-0.154-0.284-0.308-0.451-0.462l-0.559,0.495c0.147,0.203,0.314,0.369,0.491,0.514
	c0.23,0.265,0.43,0.539,0.647,0.837l0.326,0.442c0.223,0.3,0.496,0.669,0.966,0.804c-0.01,0.042-0.021,0.082-0.035,0.12
	c-0.004,0.01-0.002,0.02-0.004,0.03c-0.14,0.109-0.222,0.284-0.19,0.471l0.391,2.35c-1.03,0.139-2.067,0.32-3.075,0.502
	l-0.586-3.029c-0.021-0.103-0.077-0.185-0.147-0.253c0.066-0.389,0.056-0.792,0.041-1.185c-0.008-0.202-0.016-0.401-0.01-0.59
	c0.042-1.407,0.116-2.818,0.195-4.224c0.063-1.127,0.303-2,0.614-3.132c0.03-0.11,0.053-0.226,0.074-0.343
	c0.04-0.216,0.078-0.42,0.181-0.549l-0.587-0.466c-0.436,0.546-1.058,1.397-1.485,2.277c-0.091-0.222-0.219-0.43-0.405-0.604
	l-0.402-0.377l-0.202,0.514c-0.228,0.577-0.133,1.262-0.041,1.925c0.047,0.337,0.094,0.68,0.094,0.988
	c-0.262-0.234-0.55-0.438-0.817-0.628c-0.138-0.098-0.273-0.194-0.399-0.291l-0.273-0.208c0.039-0.422,0.095-0.847,0.159-1.271
	c0.03-0.205,0.082-0.423,0.134-0.647c0.131-0.567,0.28-1.21,0.158-1.792l-0.166-0.79l-0.497,0.637
	c-0.408,0.524-0.728,1.102-1.035,1.661c-0.093,0.169-0.184,0.334-0.276,0.496l-0.156-0.389l-0.362,0.796
	c-0.145,0.316-0.266,0.667-0.389,1.024c-0.159,0.464-0.323,0.939-0.546,1.338l-0.416-1.427l-0.217,1.83
	c-0.05,0.417-0.023,0.852,0.002,1.272c0.024,0.4,0.049,0.785,0.01,1.138c-0.056-0.046-0.102-0.11-0.152-0.168
	c-0.029-0.233-0.061-0.466-0.091-0.698c-0.101-0.765-0.196-1.487-0.233-2.144c-0.087-1.553-0.024-3.134,0.038-4.701l-0.74-0.098
	c-0.088,0.384-0.185,0.764-0.28,1.141c-0.157,0.621-0.318,1.256-0.439,1.909c-0.131-0.174-0.267-0.342-0.4-0.508
	c-0.123-0.153-0.247-0.306-0.366-0.463l-0.434-0.572c0.004-0.071,0.013-0.14,0.017-0.211l0.101-2.035l-0.819,1.866
	c-0.105,0.241-0.203,0.495-0.302,0.751c-0.114,0.297-0.231,0.6-0.363,0.887c-0.068-0.22-0.156-0.437-0.297-0.637l-0.602-0.859
	l-0.079,1.046c-0.065,0.877-0.043,1.769-0.021,2.631c0.001,0.036,0.002,0.071,0.003,0.107c-0.116-0.229-0.229-0.458-0.342-0.685
	c-0.14-0.284-0.278-0.566-0.421-0.841l-0.359-0.692l-0.316,0.712c-0.189,0.426-0.138,1.075-0.096,1.597l0.014,0.181
	c0.042,0.581,0.117,1.162,0.202,1.733c-0.008-0.009-0.015-0.018-0.022-0.026l-0.616-0.707l-0.041,0.937
	c-0.061,1.412,0.759,2.697,1.551,3.94c0.07,0.11,0.14,0.219,0.207,0.327c-0.018-0.009-0.036-0.017-0.056-0.025l-0.349-0.155
	l-0.148,0.352c-0.309,0.733,0.428,1.264,0.869,1.582c0.074,0.054,0.145,0.104,0.202,0.15c0.072,0.058,0.158,0.075,0.243,0.073
	c-0.011,0.073-0.011,0.149,0.014,0.224l0.587,1.845c-0.844,0.097-1.688,0.185-2.54,0.269l-0.418-1.811
	c0.027-0.014,0.059-0.01,0.082-0.031c0.154-0.138,0.168-0.375,0.029-0.53c-0.186-0.208-0.393-0.405-0.616-0.599
	c-0.56-2.092-0.662-4.508-0.722-7.005l-0.006-0.211c-0.022-0.879-0.053-2.023,0.257-2.873c0.153-0.203,0.284-0.426,0.332-0.677
	l0.33-1.712l-1.005,1.425c-0.127,0.181-0.231,0.379-0.316,0.589c-0.063,0.078-0.132,0.156-0.2,0.234
	c-0.146,0.167-0.289,0.332-0.391,0.494c-0.159,0.255-0.538,0.888-0.846,1.61c-0.131-0.212-0.328-0.389-0.629-0.495l-0.438-0.153
	l-0.059,0.459c-0.101,0.788-0.076,1.616-0.042,2.424c-0.115-0.097-0.229-0.206-0.345-0.317c-0.193-0.184-0.387-0.367-0.595-0.516
	l-0.118-0.084c-0.039-0.81-0.074-1.636-0.048-2.439l0.03-0.939l-0.669,0.66c-0.317,0.313-0.558,0.833-0.718,1.178
	c-0.264,0.571-0.328,1.148-0.391,1.706c-0.006,0.05-0.011,0.099-0.017,0.148c-0.222-0.465-0.499-0.905-1.024-1.306l-0.419-0.321
	l-0.165,0.502c-0.078,0.239-0.077,0.592-0.075,1c0,0.163,0.001,0.412-0.011,0.638c-0.024-0.213-0.056-0.432-0.077-0.643
	c-0.013-0.122-0.015-0.259-0.017-0.402c-0.007-0.435-0.016-0.929-0.266-1.306l-0.212-0.319l-0.314,0.219
	c-0.766,0.533-0.948,1.849-0.987,3.205c-0.394-0.38-0.796-0.687-1.137-0.934l-0.385-0.278l-0.079,0.192l-0.026-0.517l-0.614,0.731
	c-0.382,0.454-0.645,1.056-0.826,1.696l-0.159-0.118l0.121,0.26c-0.104,0.396-0.185,0.802-0.222,1.205
	c-0.278-0.308-0.606-0.582-0.954-0.786l-0.55-0.325l-0.016,0.639c-0.015,0.638,0.252,1.375,0.511,2.088
	c0.033,0.092,0.066,0.182,0.099,0.271c-0.116-0.056-0.233-0.108-0.354-0.156l-0.299-0.119c-0.02-0.139-0.041-0.276-0.06-0.416
	c-0.1-0.748-0.161-1.552-0.178-2.326l-0.022-1.066l-0.649,0.845c-0.608,0.791-0.641,2.018-0.607,3.04
	c-0.065-0.057-0.132-0.117-0.198-0.177c-0.296-0.266-0.602-0.541-0.984-0.714l-0.457-0.206l-0.068,0.497
	c-0.098,0.7,0.189,1.359,0.467,1.998c0.01,0.022,0.02,0.044,0.029,0.067c-0.089-0.046-0.18-0.091-0.271-0.134l-0.996-0.462
	l0.505,0.975c0.354,0.682,1.115,1.181,1.823,1.566c-0.028,0.042-0.052,0.087-0.068,0.137c-0.07,0.204-0.054,0.522,0.421,0.884
	c0.421,0.32,0.976,0.352,1.458,0.352c0.062,0,0.122,0,0.182-0.001l0.146,0l1.225,2.732c-0.663,0.327-1.275,0.677-1.858,1.04
	l-2.019-2.282c0.016-0.09,0.009-0.184-0.046-0.266c-0.665-1.001-1.074-2.25-1.47-3.458l-0.145-0.438
	c-0.209-0.63-0.3-1.322-0.388-1.991c-0.098-0.736-0.197-1.498-0.455-2.202l-0.319-0.871l-0.376,0.847
	c-0.378,0.852-0.653,2.04-0.712,3.204c-0.212-0.206-0.454-0.364-0.72-0.445l-0.29-0.088L11.5,30.544
	c-0.437,0.79-0.029,1.448,0.298,1.978c0.146,0.235,0.286,0.461,0.34,0.672c-0.025,0.009-0.051,0.019-0.077,0.028
	c-0.174,0.06-0.381,0.138-0.565,0.298c-0.146-0.809-0.225-1.627-0.212-2.434l0.018-1.125l-0.689,0.89
	c-0.413,0.534-0.514,1.68-0.453,2.69c-0.116-0.073-0.237-0.13-0.361-0.165L9.454,33.28L9.34,33.617
	c-0.158,0.467-0.102,0.925-0.012,1.347c-0.227-0.149-0.474-0.278-0.766-0.362L8.489,34.58l-0.048-0.885L7.99,34.437L7.793,34.38
	l0.098,0.22l-0.078,0.127c-0.312,0.513-0.421,1.114-0.525,1.696C7.248,36.639,7.21,36.854,7.16,37.06l-0.103-0.001
	C7.055,37.12,7.056,37.18,7.059,37.24c-0.006,0.324-0.053,0.658-0.101,1.009c-0.036,0.264-0.073,0.532-0.093,0.802
	c-0.241-0.132-0.523-0.207-0.774-0.21L5.774,38.85l-0.045,0.312c-0.082,0.565,0.262,1.002,0.58,1.358
	c-0.244,0.042-0.503,0.138-0.687,0.405l-0.198,0.288l0.273,0.218c0.19,0.152,0.394,0.25,0.59,0.344l-0.093,0.133l0.238,0.222
	c0.262,0.245,0.582,0.385,0.93,0.483l-0.246,0.317l0.374,0.215c0.226,0.13,0.472,0.195,0.729,0.195c0.163,0,0.331-0.027,0.5-0.08
	c0.432-0.137,0.848-0.445,1.15-0.835l2.212,1.806c-1.637,1.517-4.285,4.107-4.182,4.916c0.1,0.782,1.249,1,5.318,1.002l-0.642,1.642
	c-0.103-0.021-0.204-0.041-0.316-0.056l-0.733-0.107c-0.83-0.125-1.689-0.255-2.549-0.275l-0.091,0.741l0.188,0.04
	c0.115,0.024,0.236,0.049,0.353,0.08c-0.011,0.003-0.021,0.007-0.033,0.011c-0.138,0.044-0.275,0.088-0.408,0.137l-0.839,0.312
	l0.811,0.379c0.048,0.022,0.119,0.051,0.205,0.084c0.438,0.173,0.69,0.305,0.74,0.305c0,0,0.001,0,0.002,0
	c-0.013,0.021-0.074,0.07-0.114,0.103c-0.098,0.079-0.221,0.177-0.306,0.33l-0.192,0.343l0.065,0.033
	c-0.277,0.193-0.604,0.437-0.72,0.863l-0.123,0.337l0.269,0.084c-0.054,0.045-0.112,0.09-0.174,0.137
	c-0.079,0.061-0.158,0.122-0.234,0.187l-0.444,0.382l0.532,0.244c0.358,0.164,0.75,0.137,1.095,0.112c0.004,0,0.009,0,0.013,0
	c-0.07,0.039-0.14,0.079-0.208,0.122L8.865,57.03l0.493,0.321c0.409,0.266,0.959,0.296,1.444,0.322
	c0.079,0.004,0.158,0.008,0.234,0.013c0.005,0.009,0.011,0.018,0.017,0.027c-0.065,0.085-0.14,0.161-0.188,0.264l-0.221,0.479
	l0.643,0.062c0.143,0.013,0.28,0.025,0.41,0.049c-0.105,0.13-0.278,0.244-0.504,0.387c-0.255,0.161-0.518,0.328-0.709,0.583
	l-0.345,0.459l0.56,0.131c0.118,0.027,0.271,0.026,0.53,0.023c0.098-0.001,0.247-0.004,0.391,0
	c-0.099,0.034-0.194,0.062-0.246,0.077l-0.754,0.256l0.461,0.424c0.48,0.441,1.333,0.387,2.087,0.339
	c0.011-0.001,0.021-0.001,0.031-0.002l0.095,0.693c0.341-0.021,1.916-0.144,2.475-0.527c0.224-0.004,0.455-0.035,0.684-0.068
	c0.162-0.024,0.327-0.048,0.479-0.059c-0.035,0.108-0.09,0.215-0.159,0.314l-0.383,0.539l0.659,0.052
	c0.279,0.023,0.542-0.016,0.798-0.052c0.212-0.03,0.412-0.06,0.605-0.049c-0.009,0.07-0.022,0.145-0.036,0.221
	c-0.03,0.165-0.061,0.335-0.057,0.516l0.008,0.333l0.332,0.032c0.407,0.034,0.735-0.155,1.027-0.326
	c0.004-0.002,0.008-0.005,0.013-0.007c-0.079,0.427-0.139,0.92,0.239,1.181c0.141,0.098,0.279,0.138,0.412,0.138
	c0.369,0,0.7-0.307,0.944-0.541l-0.034,0.342l0.608-0.303c0.543-0.271,0.935-0.73,1.313-1.174c0.048-0.056,0.095-0.111,0.143-0.166
	l0.18-0.028c0.491-0.078,1.151-0.46,1.571-0.872c0.045,0.001,0.092,0.005,0.137,0.006c0.264,0.009,0.517,0.018,0.757,0.051
	c-0.082,0.117-0.188,0.236-0.293,0.354c-0.069,0.078-0.138,0.155-0.2,0.231l-0.259,0.316l0.337,0.231
	c0.563,0.384,1.132,0.005,1.549-0.272c0.062-0.042,0.13-0.087,0.197-0.129c-0.031,0.152-0.06,0.321-0.049,0.504l0.019,0.32
	l0.319,0.031c0.039,0.004,0.078,0.006,0.115,0.006c0.478,0,0.795-0.299,1.053-0.557l0.078,0.237l0.29-0.02
	c0.54-0.037,0.905-0.517,1.228-0.94c0.117-0.155,0.237-0.31,0.357-0.436c0,0.003-0.001,0.007,0,0.01l0.039,0.296l0.298,0.029
	c0.24,0.022,0.483,0.02,0.727,0.016c-0.005,0.012-0.009,0.023-0.013,0.035c-0.095,0.253-0.211,0.569-0.106,0.932l0.067,0.232
	l0.239,0.035c0.437,0.064,0.845-0.06,1.204-0.169c0.166-0.051,0.328-0.101,0.482-0.128c-0.051,0.112-0.105,0.239-0.128,0.384
	l-0.064,0.423l0.429,0.008c0.008,0,0.017,0,0.024,0c0.511,0,0.952-0.298,1.343-0.562c0.219-0.148,0.432-0.292,0.635-0.372
	c-0.004,0.068-0.004,0.138,0.002,0.206l0.03,0.345l0.346-0.002c0.609-0.003,1.134-0.583,1.617-1.279
	c0.181,0.233,0.45,0.322,0.749,0.322c0.472,0,1.005-0.209,1.326-0.371c0.266,0.127,0.572,0.126,0.89-0.008
	c0.428-0.179,0.852-0.609,1.105-1.061c0.041,0.22,0.118,0.422,0.302,0.561c0.608,0.458,1.191,0.005,1.589-0.37
	c0.017,0.247,0.065,0.504,0.205,0.755l0.107,0.192l0.221,0h0.001c1.01,0,1.607-0.979,1.91-1.598l0.088-0.067
	c0.716-0.545,1.299-1.669,1.406-2.653c0.111-0.016,0.223-0.034,0.331-0.042c-0.055,0.134-0.106,0.282-0.128,0.449l-0.068,0.536
	l0.526-0.123c0.124-0.029,0.25-0.062,0.377-0.096c0.289-0.077,0.567-0.151,0.836-0.175c-0.005,0.026-0.011,0.052-0.018,0.078
	l-0.069,0.268l0.235,0.146c0.473,0.289,1.045-0.009,1.6-0.301c0.127-0.067,0.269-0.142,0.403-0.203
	c-0.009,0.093-0.01,0.19,0.003,0.293l0.025,0.198l0.179,0.089c0.171,0.086,0.34,0.124,0.506,0.124c1.074,0,1.994-1.607,2.326-2.187
	c0.007-0.011,0.007-0.024,0.012-0.036l0.52,0.094c0.09,0.016,0.181,0.023,0.272,0.023c0.316,0,0.64-0.084,0.933-0.16l0.222-0.056
	c0.18-0.042,0.396-0.063,0.612-0.085c0.301-0.031,0.611-0.062,0.868-0.144c0.154-0.049,0.319-0.129,0.492-0.216
	c0.06-0.03,0.121-0.055,0.182-0.084l-0.038,0.111l0.737-0.269c0.135-0.049,0.266-0.114,0.396-0.182
	c-0.025,0.067-0.053,0.134-0.079,0.196l-0.185,0.444l0.477,0.071c0.054,0.008,0.108,0.012,0.163,0.012
	c0.381,0,0.768-0.183,1.113-0.347c0.163-0.078,0.321-0.154,0.466-0.2c0.518-0.164,0.999-0.224,1.481-0.186
	c0.204,0.026,0.387-0.137,0.404-0.343c0.01-0.119-0.041-0.224-0.121-0.3l0.001,0c0.035-0.015,0.084-0.023,0.134-0.034
	c0.012-0.003,0.023-0.005,0.036-0.008l0.105,0.149l0.285-0.137c0.676-0.324,1.202-0.829,1.711-1.317
	c0.341-0.326,0.666-0.639,1.023-0.888c0.266,0.358,0.595,0.396,0.791,0.378c0.944-0.087,1.86-1.694,2.053-2.442
	c0.794-0.045,1.729-0.876,2.57-1.627c0.33-0.295,0.643-0.574,0.843-0.703c0.127-0.081,0.269-0.159,0.413-0.238
	c0.679-0.372,1.607-0.882,1.397-2.017c-0.248-1.337-2.12-2.605-2.493-2.846c-0.406-0.263-0.842-0.506-1.272-0.737
	c-0.07-0.118-0.186-0.187-0.348-0.183c-0.043-0.023-0.086-0.045-0.129-0.068c-0.056-0.029-0.114-0.042-0.172-0.042
	c-0.055-0.034-0.11-0.074-0.167-0.113c-0.123-0.087-0.246-0.172-0.373-0.234c-0.366-0.18-0.609-0.221-0.984-0.284
	c-0.282-0.048-0.473-0.052-0.631-0.022c-0.031-0.094-0.082-0.182-0.167-0.245l-3.154-2.34c0.419-0.368,0.853-0.674,1.312-0.983
	c0.553-0.373,1.125-0.759,1.673-1.288c0.468-0.452,0.92-0.791,1.392-1.096l6.405,3.811c0.08,0.048,0.168,0.07,0.256,0.07
	c0.17,0,0.336-0.087,0.43-0.244c0.142-0.237,0.063-0.544-0.174-0.686l-5.936-3.532c0.296-0.158,0.607-0.317,0.943-0.488l0.189-0.096
	c1.313-0.668,3.567-0.93,5.556-1.161c2.716-0.316,4.511-0.524,4.445-1.688C81.746,30.93,81.368,30.221,79.752,30.221z M57.28,31.205
	l-0.09-2.063c0.637-0.024,1-0.191,1.141-0.507c0.003,0,0.007,0,0.01,0l-0.065,0.295l0.36,0.084c0.216,0.05,0.513,0.088,0.835,0.088
	c0.403,0,0.836-0.071,1.204-0.235l0.09,1.506c-0.258,0.095-0.518,0.187-0.783,0.267C59.106,30.902,58.197,31.074,57.28,31.205z
	 M59.847,21.814l0.462,0.649l0.266-0.606c0.056-0.127,0.106-0.256,0.156-0.383c-0.029,0.413-0.046,0.781-0.055,1.044
	c-0.039,1.091,0.021,2.117,0.181,3.137c0.026,0.168,0.037,0.417,0.05,0.69c0.024,0.537,0.054,0.988,0.134,1.336
	c-0.141,0.005-0.272,0.088-0.332,0.226c-0.161,0.37-0.916,0.471-1.501,0.434l0.036-0.105l-0.241-0.16
	c-0.214-0.142-0.434-0.178-0.629-0.189l0.267-0.322l-0.406-0.215c-0.143-0.076-0.299-0.135-0.456-0.193
	c-0.14-0.052-0.27-0.1-0.378-0.159c0.029-0.037,0.06-0.075,0.09-0.113c0.118-0.148,0.263-0.332,0.379-0.536
	c0.021,0.005,0.039,0.015,0.061,0.017c0.228,0.02,0.385-0.142,0.399-0.348c0.01-0.141-0.008-0.284-0.013-0.427
	c0.3-0.07,0.582-0.208,0.709-0.494c0.151-0.335-0.057-0.649-0.278-0.903c0.057-0.041,0.104-0.091,0.146-0.15
	c0.306-0.439,0.004-1.099-0.38-1.814l0.76,0.512l-0.3-1.004c-0.074-0.248-0.197-0.484-0.315-0.713
	c-0.109-0.209-0.214-0.411-0.273-0.603C58.996,20.611,59.428,21.221,59.847,21.814z M58.289,24.819
	c-0.012,0.005-0.031,0.011-0.047,0.016c-0.006-0.032-0.012-0.064-0.018-0.096C58.247,24.767,58.272,24.795,58.289,24.819z
	 M54.108,22.944c0.075-0.187,0.136-0.38,0.19-0.574l0.619-0.927c0.37-0.553,0.618-1.236,0.819-1.913l0.348-0.293
	c0.051-0.042,0.097-0.087,0.138-0.133c-0.006,0.147-0.011,0.294-0.006,0.44c0.036,0.974,0.256,2.084,0.618,3.126l0.08,0.229
	c0.226,0.641,0.458,1.336,0.58,2.016l-0.781,0.015l0.53,0.606c0.149,0.171,0.079,0.352-0.342,0.879
	c-0.127,0.16-0.249,0.315-0.333,0.46l-0.13,0.223l0.162,0.201c0.238,0.294,0.563,0.427,0.859,0.537
	c-0.032,0.043-0.062,0.085-0.091,0.126l-0.271,0.388l0.111,0.044c-0.302,0.015-0.782-0.004-1.573-0.129
	c-0.471-0.075-0.952-0.316-1.269-0.686c0.089,0.041,0.177,0.081,0.262,0.119l0.563,0.257l0.086-0.475
	c0.153-0.849-0.312-1.741-0.723-2.528c-0.181-0.348-0.353-0.676-0.45-0.96c-0.071-0.21-0.123-0.436-0.153-0.662L54.108,22.944z
	 M53.062,27.276c-0.013-0.219-0.024-0.43-0.025-0.617c-0.005-1.122,0.045-2.339,0.147-3.627c0.016,0.406,0.083,0.826,0.213,1.205
	c0.116,0.337,0.3,0.69,0.494,1.062c0.258,0.495,0.54,1.037,0.635,1.525c-0.241-0.118-0.475-0.248-0.65-0.396l-0.655-0.55
	l0.039,0.855c0.059,1.265,1.182,2.102,2.26,2.273c0.246,0.039,0.461,0.064,0.673,0.087c-0.001,0.01-0.005,0.019-0.005,0.028
	l0.097,2.208c-0.521,0.06-1.041,0.114-1.556,0.165c-0.433,0.043-0.862,0.092-1.294,0.14l-0.398-2.398
	c-0.011-0.062-0.035-0.117-0.065-0.168C53.129,28.546,53.096,27.875,53.062,27.276z M52.263,23.835l0.038,0.005
	c0.016,0.002,0.031,0.004,0.048,0.005c-0.008,0.207-0.02,0.414-0.038,0.618C52.299,24.253,52.281,24.043,52.263,23.835z
	 M45.496,32.86l-0.424-2.745c-0.027-0.176-0.148-0.307-0.301-0.373c-0.011-0.066-0.037-0.122-0.076-0.169
	c0.05-0.063,0.084-0.14,0.084-0.227l-0.001-0.28c-0.001-0.408,0.014-0.797,0.06-1.181c0.237,0.522,0.751,0.793,1.192,1.004
	c0.125,0.06,0.246,0.118,0.355,0.18c0.077,0.044,0.151,0.1,0.227,0.154c0.219,0.159,0.467,0.339,0.793,0.367
	c0.011,0.001,0.021,0.001,0.032,0.001c0.182,0,0.329-0.136,0.36-0.315c-0.004,0.045-0.01,0.091-0.001,0.138l0.583,3.014
	C47.425,32.597,46.458,32.752,45.496,32.86z M46.606,24.221l0.367,0.557l0.285-0.604c0.251-0.531,0.207-1.156,0.127-1.778
	l0.54-0.015c0.022-0.384,0.192-0.885,0.486-1.455c-0.149,0.633-0.262,1.271-0.302,2.001c-0.081,1.413-0.155,2.83-0.197,4.244
	c-0.006,0.205,0.002,0.421,0.01,0.641c0.017,0.431,0.033,0.876-0.071,1.234c-0.006,0.019-0.002,0.037-0.005,0.056
	c-0.016,0.031-0.032,0.062-0.041,0.096c-0.01-0.184-0.146-0.339-0.336-0.355c-0.118-0.01-0.263-0.116-0.416-0.227
	c-0.098-0.071-0.195-0.141-0.296-0.199c-0.124-0.071-0.263-0.138-0.404-0.206c-0.3-0.143-0.539-0.266-0.696-0.415
	c0.235-0.021,0.488-0.017,0.74-0.013l1.249,0.02l-1.031-0.704c-0.686-0.468-1.339-1.047-1.861-1.639
	c0.125,0.04,0.251,0.083,0.379,0.127c0.271,0.092,0.539,0.184,0.81,0.251l0.469,0.117l-0.003-0.483
	c-0.003-0.504-0.241-0.965-0.473-1.411c-0.143-0.276-0.275-0.532-0.341-0.771C45.988,23.574,46.375,23.869,46.606,24.221z
	 M42.143,26.91l0.096-0.304c0.188-0.593,0.148-1.226,0.111-1.838c-0.012-0.188-0.022-0.372-0.027-0.549l0.036,0.007l0.143-0.165
	c0.475-0.548,0.729-1.268,0.97-1.969l0.409-0.608c0.272-0.404,0.509-0.833,0.738-1.248c0.055-0.1,0.109-0.199,0.163-0.296
	c-0.004,0.017-0.007,0.033-0.011,0.049c-0.057,0.245-0.111,0.482-0.148,0.723c-0.113,0.754-0.231,1.533-0.206,2.322
	c0.007,0.206,0.166,0.348,0.387,0.363c0.017,0,0.031-0.008,0.047-0.011c0.082,0.359,0.255,0.702,0.42,1.021
	c0.093,0.179,0.184,0.354,0.254,0.522c-0.05-0.017-0.099-0.033-0.148-0.05c-0.482-0.165-0.982-0.335-1.518-0.369l-0.751-0.046
	l0.415,0.628c0.443,0.67,1.095,1.375,1.828,1.989c-0.128,0.021-0.254,0.049-0.376,0.089l-0.101,0.033
	c-0.045-0.107-0.132-0.194-0.254-0.223c-0.204-0.047-0.403,0.078-0.451,0.279c-0.145,0.615-0.142,1.222-0.14,1.81v0.112
	c-0.368-0.3-0.9-0.837-1.348-1.381c-0.229-0.277-0.433-0.585-0.625-0.903L42.143,26.91z M42.102,28.278
	c0.405,0.493,1.318,1.535,1.99,1.818c-0.011,0.056-0.017,0.113-0.008,0.172l0.415,2.69c-0.814,0.061-1.632,0.142-2.447,0.225
	l-0.472-2.643c-0.019-0.102-0.073-0.185-0.142-0.254c0.214-0.827,0.248-1.732,0.196-2.667C41.782,27.844,41.93,28.069,42.102,28.278
	z M39.025,25.261l0.736-0.147c-0.061-0.3-0.124-0.601-0.188-0.901c-0.179-0.844-0.36-1.708-0.466-2.575
	c0.187,0.247,0.355,0.498,0.494,0.771l0.577,1.14l0.131-1.271c0.011-0.105,0.023-0.21,0.037-0.314
	c0.007,0.34,0.019,0.68,0.038,1.019c0.038,0.686,0.136,1.421,0.238,2.2c0.028,0.212,0.054,0.425,0.081,0.638l-0.102,0.057
	c0.028,0.055,0.061,0.11,0.097,0.166c0.015,0.025,0.028,0.05,0.043,0.075c0.142,1.166,0.238,2.324,0.098,3.349
	c-0.021-0.011-0.042-0.021-0.064-0.028c-0.535-0.17-1.207-0.462-1.776-0.806c0.144,0.045,0.289,0.083,0.437,0.106l0.402,0.065
	l0.031-0.406c0.028-0.367-0.117-0.688-0.332-0.977c0.016,0.001,0.031,0.001,0.048,0.001l0.664,0.007l-0.57-0.963
	c-0.399-0.663-0.865-1.437-1.115-2.195C38.792,24.586,38.962,24.939,39.025,25.261z M37.799,26.648
	c0.16,0.214,0.354,0.418,0.573,0.627c0.18,0.171,0.362,0.345,0.503,0.515c-0.136-0.055-0.273-0.117-0.415-0.18
	c-0.248-0.11-0.495-0.214-0.741-0.299C37.742,27.088,37.771,26.87,37.799,26.648z M37.895,25.849
	c0.04-0.317,0.073-0.631,0.112-0.947c0.174,0.426,0.384,0.844,0.607,1.237c-0.172-0.106-0.353-0.199-0.555-0.249L37.895,25.849z
	 M38.601,23.198c-0.115-0.101-0.236-0.189-0.358-0.269c0.047-0.446,0.076-0.9,0.115-1.349
	C38.418,22.125,38.498,22.666,38.601,23.198z M36.334,28.941c-0.22-0.345-0.441-0.693-0.644-1.043l0.271-0.044
	c-0.066-0.682-0.172-1.361-0.277-2.04c-0.123-0.787-0.25-1.602-0.308-2.401l-0.008-0.099c0.263,0.524,0.54,1.051,0.859,1.537
	l0.675,1.027l0.014-1.229c0.006-0.524-0.008-1.052-0.021-1.581c-0.005-0.168-0.009-0.337-0.013-0.507l0.031,0.085l0.414-0.562
	c0.107-0.146,0.204-0.299,0.292-0.458c-0.128,1.41-0.3,2.805-0.48,4.217c-0.052,0.407-0.104,0.822-0.149,1.24l-0.097-0.029
	l0.075,0.229c-0.047,0.457-0.086,0.918-0.104,1.383c-0.012,0.333,0.003,0.675,0.019,1.02c0.003,0.051,0.005,0.101,0.007,0.151
	C36.718,29.544,36.528,29.247,36.334,28.941z M37.714,31.81l0.127,0.077l-0.246-0.589c0.088-0.543,0.063-1.102,0.038-1.646
	c-0.015-0.324-0.029-0.646-0.018-0.958c0.002-0.056,0.01-0.113,0.013-0.169c0.968,0.996,2.823,1.599,2.92,1.63
	c0.051,0.016,0.104,0.021,0.151,0.016c-0.004,0.014-0.007,0.027-0.011,0.041c-0.013,0.044-0.014,0.087-0.01,0.13
	c-0.074,0.105-0.107,0.238-0.083,0.375l0.458,2.57c-0.823,0.091-1.646,0.184-2.454,0.279c-0.104,0.012-0.212,0.024-0.315,0.036
	L37.714,31.81z M31.551,24.476c0.065-0.616,0.403-1.42,0.782-2.127c-0.027,0.515-0.014,1.023-0.002,1.468l0.005,0.209
	c0.052,2.179,0.138,4.301,0.525,6.228c-0.035-0.026-0.069-0.053-0.104-0.08c-0.646-0.495-1.307-1.001-1.783-1.562
	c0.021,0.011,0.042,0.021,0.063,0.031l0.815,0.38l-0.305-0.847c-0.085-0.236-0.194-0.459-0.319-0.673L31.551,24.476z M30.353,26.156
	l0.519,0.181l-0.04-1.055c-0.012-0.281-0.023-0.564-0.03-0.848c0.001,0.015,0.003,0.029,0.004,0.043l0.32,2.855
	c-0.22-0.345-0.475-0.668-0.725-0.984c-0.066-0.085-0.133-0.168-0.198-0.252C30.251,26.118,30.301,26.138,30.353,26.156z
	 M29.812,26.813c0.151,0.19,0.299,0.377,0.436,0.564c-0.054-0.015-0.108-0.028-0.165-0.039l-0.615-0.11l0.192,0.595
	c0.395,1.224,1.537,2.099,2.641,2.945c0.296,0.226,0.583,0.446,0.847,0.666c0.01,0.035,0.021,0.068,0.031,0.103
	c-0.009,0.06-0.01,0.123,0.005,0.185l0.543,2.355c-0.31,0.027-0.622,0.063-0.931,0.086c-0.724,0.055-1.425,0.129-2.115,0.212
	l-0.718-2.075c0.008,0,0.016,0,0.023-0.001c0.206-0.019,0.358-0.202,0.339-0.408c-0.019-0.206-0.184-0.353-0.407-0.339
	c-0.102,0.011-0.219-0.003-0.338-0.025c-0.013-0.008-0.023-0.02-0.037-0.027c-0.03-0.715-0.125-1.441-0.218-2.146
	c-0.113-0.865-0.23-1.76-0.227-2.626c0.001-0.301-0.007-0.604-0.016-0.906C29.304,26.17,29.56,26.495,29.812,26.813z M27.16,34.948
	l-0.981-2.847c-0.012-0.033-0.034-0.058-0.051-0.087c0-0.005,0.004-0.009,0.004-0.015c0.024-1.241-0.089-2.525-0.236-3.801
	c0.165,0.257,0.316,0.518,0.445,0.786c-0.029,0.055-0.049,0.116-0.06,0.181c-0.123,0.74,1.234,2.156,1.411,2.286
	c0.306,0.227,0.714,0.462,1.139,0.63c0.002,0.006,0.001,0.013,0.003,0.02l0.833,2.406C28.804,34.632,27.966,34.777,27.16,34.948z
	 M25.384,31.886c-0.001,0-0.002,0.001-0.003,0.001c-0.777-0.202-2.076-0.724-2.463-1.352c-0.035-0.056-0.061-0.11-0.077-0.164
	c0.249,0.026,0.507,0.1,0.752,0.216l1.791,0.851C25.386,31.589,25.386,31.737,25.384,31.886z M25.835,26.175
	c0.441-0.294,0.438-1.017,0.437-1.782c0-0.003,0-0.006,0-0.009c0.183,0.271,0.311,0.569,0.456,0.908
	c0.083,0.193,0.169,0.395,0.271,0.604l0.381,0.785l0.307-0.817c0.175-0.464,0.229-0.944,0.28-1.409
	c0.052-0.457,0.1-0.892,0.255-1.303c0.014,0.458,0.035,0.914,0.058,1.362c0.035,0.737,0.071,1.476,0.068,2.211
	c-0.004,0.917,0.116,1.837,0.233,2.727c0.081,0.617,0.158,1.208,0.196,1.79c-0.231-0.117-0.453-0.256-0.639-0.393
	c-0.235-0.175-0.959-1.082-1.095-1.468l0.255-0.081l-0.163-0.38c-0.348-0.808-0.865-1.543-1.429-2.246
	c-0.002-0.016-0.004-0.033-0.006-0.05c-0.017-0.127-0.029-0.25-0.045-0.377C25.716,26.221,25.777,26.213,25.835,26.175z
	 M24.663,23.803c0.002,0.066,0.003,0.133,0.004,0.198c0.003,0.166,0.006,0.325,0.021,0.466c0.032,0.312,0.076,0.635,0.114,0.952
	c-0.137-0.084-0.265-0.186-0.376-0.295C24.464,24.652,24.533,24.176,24.663,23.803z M23.707,26.981l0.672,0.874v-1.231
	c0-0.107,0-0.237,0.001-0.375c0.206,0.24,0.409,0.484,0.61,0.729c0.188,1.473,0.374,2.979,0.394,4.421l-1.36-1.41
	c-0.263-0.272-0.559-0.526-0.857-0.781c-0.07-0.06-0.14-0.119-0.208-0.178c0.062,0.009,0.126,0.011,0.182,0.007l0.502-0.025
	l-0.167-0.473c-0.075-0.216-0.18-0.465-0.292-0.734c-0.251-0.6-0.572-1.365-0.618-1.962C22.948,26.151,23.357,26.527,23.707,26.981z
	 M25.307,32.639l0.874,2.536c-0.821,0.199-1.609,0.424-2.364,0.674l-1.038-2.265c-0.017-0.036-0.043-0.061-0.065-0.091
	c0.007-0.073,0.019-0.14,0.019-0.224c0.067-0.124,0.061-0.279-0.023-0.397c-0.033-0.338-0.102-0.736-0.185-1.196
	c-0.039-0.216-0.07-0.398-0.093-0.556C23.084,31.917,24.512,32.452,25.307,32.639z M21.488,29.068
	c0.067,0.625,0.134,1.249,0.167,1.874c0.009,0.189,0.064,0.506,0.13,0.867c0.02,0.105,0.043,0.235,0.067,0.376
	c-0.201-0.121-0.409-0.229-0.616-0.334l-0.194-2.603c-0.029-0.387-0.019-0.829,0.031-1.279c0.103,0.207,0.227,0.395,0.362,0.573
	C21.453,28.718,21.47,28.896,21.488,29.068z M22.446,29.619l-0.155,0.013c-0.007-0.07-0.011-0.139-0.019-0.208
	c0.072,0.064,0.144,0.13,0.217,0.193C22.475,29.617,22.46,29.618,22.446,29.619z M22.469,28.042
	c-0.117-0.069-0.233-0.149-0.348-0.228c-0.023-0.274-0.045-0.548-0.057-0.82C22.185,27.354,22.33,27.711,22.469,28.042z
	 M21.306,26.788c0.001,0.06,0.003,0.121,0.005,0.181c0.004,0.092,0.014,0.183,0.019,0.275l-0.113-0.084
	C21.244,27.034,21.27,26.908,21.306,26.788z M20.317,29.408l0.917,2.442c-0.057-0.029-0.114-0.057-0.171-0.085
	c-0.499-0.25-0.958-0.48-1.294-0.822l0.799,0.404l-0.181-0.779c-0.085-0.369-0.229-0.764-0.381-1.183
	c-0.112-0.31-0.227-0.624-0.313-0.922C19.973,28.756,20.197,29.09,20.317,29.408z M17.156,32.307l-0.06-0.309
	c-0.077-0.399-0.251-0.798-0.419-1.184c-0.133-0.308-0.263-0.606-0.343-0.893c0.064,0.057,0.13,0.115,0.196,0.175
	c0.282,0.254,0.573,0.517,0.938,0.698l0.564,0.281l-0.035-0.937c-0.008-0.181-0.017-0.374-0.021-0.572
	c0.115,0.859,0.241,1.74,0.458,2.589c0.071,0.282,0.184,0.564,0.297,0.847c0.022,0.057,0.045,0.112,0.067,0.168l-0.803-0.412
	C17.737,32.625,17.443,32.475,17.156,32.307z M17.895,33.554c0.029-0.002,0.061-0.001,0.096-0.001l0.955,0.013
	c0.02,0.061,0.037,0.121,0.053,0.181C18.6,33.749,18.151,33.743,17.895,33.554z M20.054,33.915
	c-0.063-0.143-0.188-0.233-0.327-0.271c-0.074-0.316-0.18-0.625-0.298-0.921c-0.101-0.251-0.203-0.501-0.267-0.752
	c-0.064-0.254-0.108-0.521-0.159-0.783c0.451,0.6,1.113,0.941,1.725,1.248c0.463,0.232,0.903,0.452,1.254,0.767
	c0.004,0.098,0,0.175-0.009,0.24C21.83,33.585,21.78,33.806,21.87,34l1,2.182c-0.195,0.073-0.395,0.143-0.585,0.219
	c-0.324,0.131-0.623,0.274-0.932,0.412L20.054,33.915z M13.66,29.12c0.042,0.264,0.078,0.534,0.114,0.811
	c0.093,0.704,0.188,1.432,0.421,2.129l0.143,0.436c0.329,1.005,0.703,2.116,1.239,3.092c-0.006,0.005-0.014,0.006-0.02,0.012
	c-0.09,0.08-0.138,0.186-0.155,0.295c-0.146,0.024-0.295,0.048-0.427,0.058l0.002-0.051l-0.312-0.067
	c-0.059-0.012-0.118-0.023-0.18-0.034l0.463-0.167l-0.919-0.366c-0.108-0.043-0.215-0.079-0.316-0.111l-0.055-2.075
	c-0.008-0.298-0.083-0.655-0.215-1.011C13.337,31.153,13.437,30.062,13.66,29.12z M12.929,33.216l0.664,1.906
	c-0.083-0.024-0.163-0.045-0.239-0.065c-0.59-0.156-0.651-0.172-0.579-0.749l0.048-0.387l-0.388-0.033c-0.003,0-0.005,0-0.008-0.001
	c0.097-0.036,0.198-0.079,0.3-0.139l0.171-0.102l0.012-0.198c0.009-0.141-0.006-0.277-0.037-0.408
	C12.891,33.1,12.909,33.158,12.929,33.216z M12.062,31.288c0.258,0.226,0.49,0.59,0.646,0.971c0.031,0.225,0.072,0.442,0.127,0.649
	c-0.092-0.284-0.252-0.542-0.399-0.781C12.224,31.784,12.077,31.532,12.062,31.288z M12.009,34.562
	c0.007,0.759,0.422,0.999,0.871,1.141l0.306,0.364c0.226,0.269,0.558,0.366,0.863,0.423l-0.032,0.066l0.452,0.112
	c0.12,0.029,0.246,0.041,0.374,0.041c0.241,0,0.493-0.041,0.739-0.081c0.069-0.011,0.129-0.013,0.196-0.023l1.957,2.212
	c-0.48,0.336-0.935,0.683-1.348,1.045c-0.33,0.289-0.631,0.604-0.921,0.924l-1.727-1.771c0.014-0.094-0.008-0.194-0.069-0.277
	c-0.913-1.234-1.592-2.747-1.989-4.338C11.782,34.464,11.89,34.522,12.009,34.562z M10.264,35.815
	c-0.025-0.244-0.082-0.488-0.14-0.732c-0.058-0.247-0.114-0.485-0.13-0.714c0.168,0.174,0.312,0.402,0.391,0.609
	c0.012,0.037,0.023,0.072,0.035,0.105l0.607-0.199c0.387,1.416,1,2.751,1.779,3.904c-0.147,0.149-0.18,0.367-0.1,0.549
	c-0.148,0.004-0.299,0.007-0.439,0.009c-0.252,0.004-0.49,0.007-0.681,0.019c-0.441,0.028-0.801-0.01-1.021-0.101
	c0.004-0.001,0.007-0.002,0.011-0.003l0.704-0.155l-0.725-0.656c-0.115-0.098-0.362-0.309-0.519-0.479
	c0.04,0,0.087,0.001,0.141,0.004l0.59,0.033l-0.221-0.547c-0.178-0.443-0.452-0.831-0.739-1.201l0.545,0.404L10.264,35.815z
	 M9.06,42.202l-0.919-0.18c-0.357-0.069-0.726-0.141-1.002-0.299l0.136-0.264l-0.31-0.179c-0.036-0.021-0.072-0.041-0.109-0.06
	c0.096-0.01,0.19-0.024,0.282-0.048l0.509-0.132l-0.291-0.438c-0.106-0.16-0.249-0.319-0.396-0.48
	c-0.081-0.089-0.161-0.177-0.231-0.263c0.09,0.069,0.173,0.147,0.242,0.224l0.803,0.896l-0.151-1.194
	c-0.057-0.449,0.009-0.927,0.079-1.434c0.034-0.25,0.069-0.506,0.09-0.764l0.01-0.032c0.066-0.21,0.116-0.43,0.159-0.649
	c0.095,0.624,0.219,1.221,0.367,1.776c0.121,0.453,0.295,0.91,0.463,1.351c0.23,0.604,0.467,1.227,0.563,1.83
	C9.271,41.987,9.17,42.102,9.06,42.202z M10.423,41.586c-0.111-0.09-0.248-0.123-0.38-0.105c-0.124-0.584-0.34-1.157-0.552-1.713
	c-0.169-0.444-0.328-0.863-0.439-1.278c-0.211-0.788-0.368-1.667-0.464-2.586c0.136,0.189,0.278,0.375,0.422,0.556
	c0.218,0.274,0.429,0.54,0.599,0.812c-0.177,0.052-0.338,0.153-0.415,0.345c-0.17,0.422,0.233,0.843,0.671,1.227
	c-0.021,0.016-0.041,0.03-0.061,0.041l-0.283,0.16l0.119,0.304c0.142,0.362,0.553,0.774,1.681,0.774
	c0.099,0,0.202-0.003,0.312-0.009c0.181-0.011,0.407-0.014,0.647-0.018c0.375-0.006,0.751-0.015,1.073-0.045l1.452,1.489
	c-0.483,0.565-0.941,1.099-1.469,1.557c-0.01,0.009-0.204,0.179-0.508,0.453L10.423,41.586z M14.293,50.15h0.871
	c0.359,0,0.703,0.001,1.055,0.001l-0.761,2.537l-0.036-0.059l-0.294,0.119c-0.016,0.006-0.037,0.02-0.054,0.027
	c-0.06-0.035-0.122-0.058-0.182-0.05c-0.228-0.011-0.486-0.148-0.739-0.299c-0.097-0.058-0.192-0.115-0.285-0.164
	c-0.119-0.062-0.229-0.114-0.337-0.164L14.293,50.15z M45.097,47.989l0.83,3.504c-0.28-0.081-0.607-0.206-0.815-0.286
	c-0.574-0.223-1.108-0.433-1.535-0.383l-0.422,0.051l-0.696-2.298C43.34,48.389,44.219,48.193,45.097,47.989z M49.33,46.976
	l1.246,2.848c-0.461,0.031-0.889,0.09-1.187,0.153c-0.63,0.133-1.102,0.449-1.558,0.755c-0.304,0.204-0.606,0.38-0.937,0.517
	l-0.826-3.487C47.164,47.502,48.254,47.239,49.33,46.976z M64.498,39.564l3.324,2.467c-0.034,0.026-0.059,0.048-0.101,0.076
	c-0.283,0.185-0.619,0.349-0.975,0.522c-0.584,0.284-1.179,0.585-1.647,1.019c-0.104-0.125-0.276-0.176-0.434-0.11
	c-0.19,0.082-0.48,0.059-0.79,0.033c-0.021-0.002-0.044-0.003-0.065-0.005c-0.015-0.046-0.029-0.093-0.059-0.134l-1.651-2.36
	c0.01-0.005,0.02-0.011,0.029-0.017C62.933,40.606,63.754,40.141,64.498,39.564z M61.229,41.573l1.467,2.096
	c-0.239,0.101-0.456,0.277-0.616,0.582c-0.146,0.275-0.177,0.577-0.203,0.844c-0.018,0.172-0.034,0.335-0.078,0.471
	c-0.053,0.163-0.144,0.319-0.254,0.474c-0.01-0.064-0.033-0.127-0.069-0.185l-1.954-3.125c0.042-0.031,0.08-0.059,0.122-0.09
	l0.351-0.263C60.383,42.085,60.8,41.825,61.229,41.573z M58.717,43.328l1.911,3.056c0.006,0.01,0.018,0.014,0.024,0.023
	c-0.723,0.39-1.349,0.785-1.858,1.189c-0.002-0.002-0.002-0.006-0.004-0.008c-0.059-0.079-0.143-0.126-0.231-0.144
	c-0.003-0.007-0.002-0.015-0.006-0.021l-1.503-3.007C57.637,44.078,58.18,43.718,58.717,43.328z M56.163,44.878l1.48,2.962
	c-0.384,0.173-0.827,0.34-1.196,0.475l-0.382,0.141c-0.399,0.152-0.783,0.331-1.169,0.506c0.001-0.064-0.011-0.13-0.036-0.194
	l-1.172-2.93c0.671-0.21,1.344-0.443,2.033-0.745C55.879,45.026,56.014,44.95,56.163,44.878z M52.727,46.125l1.206,3.016
	c0.031,0.078,0.09,0.133,0.149,0.184c-0.389,0.176-0.781,0.348-1.182,0.493c-0.121,0.044-0.222,0.104-0.331,0.158
	c-0.009-0.004-0.017-0.012-0.026-0.015c-0.268-0.082-0.587-0.124-0.92-0.144c-0.002-0.063-0.015-0.127-0.041-0.188l-1.266-2.893
	l0.355-0.086C51.368,46.48,52.049,46.311,52.727,46.125z M43.4,51.687l-0.085-0.278c0.063,0.1,0.134,0.186,0.209,0.258
	C43.482,51.671,43.442,51.683,43.4,51.687z M41.477,48.788l0.957,3.158c-0.063,0.03-0.138,0.044-0.196,0.082l-0.303,0.194
	c-0.122,0.019-0.247,0.035-0.375,0.05c-0.157,0.02-0.312,0.043-0.468,0.069c-0.076-0.16-0.251-0.25-0.432-0.201
	c-0.478,0.133-1.099,0.254-1.85,0.361c-0.318,0.047-0.62,0.122-0.921,0.198c-0.017,0.004-0.034,0.007-0.052,0.011l-0.545-3.181
	c0.373-0.056,0.75-0.101,1.121-0.163C39.434,49.194,40.455,48.997,41.477,48.788z M36.303,49.674l0.551,3.218
	c-0.158,0.007-0.327,0.008-0.51,0.006c-0.534-0.013-1.097-0.021-1.553,0.22l-0.635,0.336l0.459,0.236
	c-0.415-0.011-0.83-0.021-1.247-0.042c-0.027-0.001-0.056-0.002-0.084-0.004c0.015-0.065,0.017-0.135,0.003-0.205l-0.672-3.359
	C33.862,49.98,35.087,49.838,36.303,49.674z M31.607,50.139L32.3,53.6c-0.378-0.013-0.757-0.019-1.13-0.009l-1.681,0.043l1.54,0.675
	c0.019,0.008,0.036,0.019,0.051,0.031c-0.046,0.013-0.096,0.025-0.142,0.036c-0.051-0.054-0.112-0.098-0.19-0.115
	c-0.806-0.172-1.507-0.471-2.147-0.798l-0.386-3.182C29.364,50.258,30.496,50.211,31.607,50.139z M27.211,50.3l0.312,2.58
	l-0.439-0.243l0.459,1.024c0.015,0.033,0.031,0.067,0.05,0.104c-0.246,0-0.501-0.014-0.766-0.028
	c-0.358-0.02-0.723-0.039-1.085-0.025c-0.284-0.192-0.674-0.409-1.068-0.593l-0.092-2.843c0.672,0.016,1.347,0.037,2.012,0.037
	C26.803,50.312,27.003,50.301,27.211,50.3z M23.58,50.256l0.082,2.521c-0.09-0.011-0.185-0.03-0.266-0.034
	c-0.171-0.008-0.318-0.016-0.418-0.074l-1.017-0.559l0.389,0.846c-0.313,0.024-0.654-0.014-1.009-0.054
	c-0.188-0.021-0.38-0.04-0.572-0.051l0.178-2.661c0.79,0.015,1.577,0.033,2.369,0.061C23.405,50.254,23.491,50.253,23.58,50.256z
	 M19.767,52.864l-2.016,0.08l2.224,0.562c0.071,0.049,0.151,0.087,0.244,0.093c0.011,0,0.022,0.001,0.034,0.001
	c0.014,0,0.025-0.006,0.039-0.007c0.115,0.039,0.188,0.111,0.195,0.125c-0.074,0.064-0.371,0.174-1.529,0.193l-0.218,0.005
	c-0.095,0.004-0.224,0.002-0.364,0c-0.062-0.093-0.163-0.155-0.319-0.153c-0.173,0.012-0.406-0.109-0.638-0.245
	c-0.18-0.106-0.384-0.226-0.619-0.296c-0.153-0.045-0.302-0.06-0.444-0.07c0.003-0.007,0.01-0.01,0.012-0.017l0.895-2.983
	c0.912,0.003,1.802,0.011,2.685,0.022L19.767,52.864z M9.534,55.847c0.05-0.059,0.096-0.123,0.138-0.192l0.177-0.429L9.502,55.09
	c0.088-0.087,0.204-0.168,0.331-0.255c0.165-0.114,0.329-0.231,0.463-0.371l0.267-0.278l-0.177-0.162
	c0.124-0.115,0.249-0.277,0.264-0.525c0.019-0.323-0.217-0.559-0.514-0.737c0.116-0.047,0.231-0.1,0.342-0.163l0.387-0.219
	l-0.085-0.104c0.213,0.03,0.426,0.062,0.636,0.094l0.742,0.109c0.151,0.021,0.287,0.048,0.417,0.079
	c0.051,0.057,0.111,0.107,0.188,0.137c0.06,0.023,0.121,0.034,0.182,0.034c0.031,0,0.056-0.021,0.086-0.026
	c0.153,0.061,0.311,0.131,0.489,0.225c0.081,0.042,0.164,0.093,0.249,0.144c0.127,0.076,0.264,0.154,0.405,0.225
	c-0.21,0.116-0.431,0.216-0.532,0.173l-0.21-0.542l-0.483,0.494c-0.046,0.048-0.122,0.128-0.199,0.201
	c-0.045-0.075-0.104-0.151-0.18-0.227l-0.695-0.696l0.056,0.982c0.005,0.103,0.019,0.334,0.121,0.532
	c-0.035,0.059-0.088,0.134-0.161,0.233c-0.147,0.201-0.315,0.428-0.353,0.701l-0.03,0.232l0.194,0.129
	c0.157,0.104,0.322,0.196,0.488,0.287c-0.282,0.211-0.618,0.404-0.945,0.592l-0.022,0.013l-0.346-0.276
	C10.456,55.789,9.968,55.816,9.534,55.847z M10.572,56.908c0.034-0.02,0.066-0.044,0.1-0.065l0.246,0.086
	c-0.025-0.001-0.049-0.003-0.074-0.005C10.753,56.919,10.662,56.914,10.572,56.908z M13.772,60.475
	c-0.177-0.006-0.404,0.008-0.651,0.023c-0.195,0.012-0.429,0.027-0.656,0.028c0.145-0.14,0.235-0.321,0.209-0.559
	c-0.045-0.391-0.398-0.517-0.812-0.555c0.329-0.23,0.648-0.536,0.698-1.048l0.025-0.261L12.35,57.99
	c-0.131-0.063-0.265-0.106-0.398-0.137c0.017-0.014,0.034-0.028,0.052-0.042c0.241-0.192,0.515-0.41,0.456-0.755
	c-0.025-0.152-0.109-0.273-0.24-0.377c0.322-0.202,0.637-0.43,0.887-0.701l0.309-0.334l-0.387-0.239
	c-0.139-0.085-0.282-0.163-0.427-0.241c-0.073-0.04-0.146-0.079-0.219-0.12c0.035-0.052,0.074-0.105,0.11-0.154
	c0.075-0.102,0.172-0.232,0.248-0.382c0.194-0.058,0.376-0.202,0.537-0.355c0.048,0.028,0.094,0.048,0.137,0.062
	c0.472,0.155,1.033-0.192,1.526-0.501c0.081-0.051,0.159-0.101,0.233-0.145c0.314,0.283,0.703,0.305,1.003,0.322
	c0.15,0.009,0.292,0.017,0.409,0.051c0.033,0.01,0.066,0.028,0.1,0.042c-0.264,0.051-0.496,0.126-0.657,0.264l-0.37,0.354
	l0.346,0.21c-0.162,0.149-0.526,0.354-0.662,0.43c-0.123,0.069-0.223,0.127-0.275,0.165l-0.202,0.149l0.062,0.244
	c0.096,0.383,0.312,0.567,0.5,0.697c-0.017,0.034-0.041,0.08-0.077,0.14c-0.035,0.059-0.097,0.129-0.161,0.207
	c-0.241,0.29-0.543,0.651-0.398,1.042c0.033,0.088,0.084,0.165,0.154,0.23c-0.21,0.299-0.391,0.659-0.333,1.034l0.044,0.284
	l0.285,0.032c0.274,0.031,0.528,0.005,0.774-0.024c-0.078,0.117-0.167,0.236-0.258,0.358c-0.229,0.307-0.465,0.625-0.606,0.996
	l-0.073,0.19c-0.201,0.041-0.428,0.081-0.663,0.114c0.014-0.078,0.021-0.159,0.021-0.244l0.003-0.366L13.772,60.475z M23.219,61.388
	c-0.196,0.188-0.381,0.404-0.566,0.622c-0.187,0.219-0.368,0.431-0.559,0.612l0.01-0.091l-0.448,0.032
	c-0.313,0.022-0.569,0.268-0.816,0.505c-0.125,0.119-0.355,0.34-0.399,0.387c-0.035-0.089,0.025-0.405,0.058-0.575
	c0.048-0.25,0.094-0.485,0.058-0.684l-0.062-0.345l-0.349,0.04c-0.304,0.034-0.565,0.187-0.796,0.322
	c-0.058,0.034-0.115,0.067-0.171,0.098c0.031-0.19,0.054-0.397,0.012-0.612l-0.043-0.217l-0.211-0.067
	c-0.417-0.133-0.83-0.075-1.192-0.022c-0.021,0.003-0.043,0.006-0.063,0.009c0.042-0.163,0.06-0.329,0.053-0.492l-0.014-0.292
	l-0.287-0.058c-0.344-0.069-0.722-0.014-1.087,0.041c-0.202,0.03-0.407,0.06-0.584,0.064c0.09-0.138,0.192-0.277,0.299-0.419
	c0.261-0.352,0.531-0.716,0.644-1.144l0.122-0.469l-0.484-0.001c-0.166,0.001-0.414,0.025-0.62,0.051
	c-0.092,0.012-0.182,0.023-0.27,0.032c0.103-0.181,0.264-0.375,0.37-0.503l0.416-0.5l-0.642-0.109
	c-0.015-0.002-0.028-0.005-0.041-0.008c0.059-0.088,0.151-0.201,0.21-0.271c0.093-0.111,0.177-0.215,0.228-0.299
	c0.323-0.537,0.286-0.867-0.129-1.138c-0.022-0.015-0.043-0.028-0.062-0.042c0.561-0.319,1.01-0.626,1.018-1.062
	c0-0.021-0.001-0.046-0.004-0.073c0.394-0.074,1.02-0.056,1.368-0.046c0.237,0.007,0.446,0.012,0.597,0.004l0.191-0.004
	c1.085-0.018,1.815-0.103,2.104-0.476c0.123-0.161,0.178-0.352,0.156-0.541c0.01,0.001,0.02,0.002,0.028,0.003
	c0.564,0.064,1.146,0.13,1.713-0.05l0.274-0.113c0.039,0.003,0.077,0.005,0.113,0.006c0.118,0.006,0.229,0.012,0.314,0.035
	c0.021,0.006,0.048,0.018,0.069,0.024c0.085,0.158,0.248,0.268,0.438,0.268c0.005,0,0.011,0,0.017,0
	c0.049-0.001,0.093-0.018,0.137-0.032c0.086,0.04,0.169,0.077,0.254,0.121l-1.115,0.347l1.234,0.339
	c0.062,0.017,0.11,0.033,0.148,0.047c-0.247,0.196-0.828,0.475-1.135,0.622c-0.411,0.197-0.671,0.324-0.819,0.448l-0.346,0.291
	l0.349,0.287c0.045,0.037,0.097,0.075,0.152,0.112c-0.225,0.243-0.553,0.421-0.895,0.608c-0.515,0.28-1.046,0.571-1.35,1.125
	l-0.214,0.392l0.422,0.144c0.151,0.051,0.31,0.062,0.462,0.072c0.104,0.007,0.298,0.021,0.336,0.036
	c-0.007,0.087-0.187,0.321-0.293,0.461c-0.207,0.27-0.421,0.548-0.443,0.857l-0.025,0.352l0.35,0.047
	c0.447,0.062,0.928,0.03,1.392-0.001c0.501-0.033,0.979-0.064,1.403,0.009c-0.087,0.105-0.167,0.226-0.215,0.373l-0.034,0.105
	l0.048-0.341L23.219,61.388z M23.908,61.291l0.13,0.023c-0.049,0.027-0.097,0.057-0.145,0.081L23.908,61.291z M29.796,61.346
	c-0.109,0.144-0.226,0.297-0.34,0.419l0.041-0.558l-0.578,0.268c-0.254,0.117-0.448,0.313-0.62,0.486
	c-0.064,0.065-0.122,0.122-0.176,0.171c0.027-0.161,0.043-0.335,0.008-0.521l-0.053-0.282l-0.285-0.023
	c-0.378-0.039-0.715,0.184-1.037,0.399c0.07-0.134,0.123-0.279,0.145-0.437l0.042-0.312l-0.301-0.095
	c-0.441-0.14-0.896-0.157-1.335-0.172c-0.014-0.012-0.021-0.028-0.037-0.039c-0.051-0.037-0.108-0.054-0.166-0.062
	c0.022-0.034,0.048-0.065,0.068-0.102l0.191-0.351l-0.362-0.168c-0.698-0.325-1.488-0.273-2.253-0.224
	c-0.239,0.016-0.472,0.031-0.692,0.034c0.022-0.03,0.044-0.058,0.063-0.083c0.26-0.339,0.555-0.723,0.41-1.139
	c-0.115-0.333-0.377-0.462-0.629-0.518c0.184-0.133,0.398-0.25,0.62-0.371c0.524-0.286,1.119-0.61,1.413-1.237l0.164-0.352
	L23.916,56c0.044-0.021,0.086-0.041,0.128-0.061c1.06-0.508,1.699-0.855,1.65-1.396c-0.002-0.027-0.007-0.054-0.013-0.079
	c0.353-0.02,0.721,0.001,1.105,0.021c0.448,0.024,0.912,0.05,1.358,0.006l0.33-0.031l0.006-0.216
	c0.435,0.213,0.916,0.395,1.423,0.552c-0.187,0.119-0.363,0.264-0.517,0.464L29,55.766l0.631,0.093
	c0.177,0.026,0.355,0.045,0.533,0.065c0.303,0.033,0.595,0.066,0.873,0.128c-0.133,0.103-0.329,0.2-0.571,0.314
	c-0.388,0.183-0.788,0.372-1.015,0.727l-0.175,0.275l0.247,0.212c0.158,0.135,0.317,0.216,0.445,0.281
	c0.22,0.113,0.262,0.144,0.292,0.282c0.047,0.212-0.192,0.677-0.351,0.984c-0.109,0.213-0.21,0.413-0.266,0.576l-0.079,0.234
	l0.184,0.165c0.336,0.302,0.818,0.305,1.246,0.265c-0.008,0.016-0.016,0.033-0.022,0.049c-0.003,0.005-0.005,0.011-0.008,0.017
	c-0.074-0.016-0.152-0.016-0.228,0.017C30.348,60.621,30.067,60.99,29.796,61.346z M36.951,61.845l-0.443-0.096
	c-0.642-0.139-1.168,0.22-1.637,0.536c-0.12,0.082-0.238,0.161-0.353,0.229c0.015-0.127,0.003-0.264-0.064-0.406l-0.085-0.178
	l-0.194-0.031c-0.429-0.072-0.832,0.054-1.188,0.163c-0.188,0.058-0.372,0.113-0.548,0.139c0.017-0.056,0.04-0.119,0.066-0.19
	c0.077-0.209,0.165-0.446,0.138-0.717l-0.033-0.34l-0.687,0.008c-0.124,0.003-0.27,0.027-0.373,0.007
	c0.028-0.076,0.065-0.157,0.104-0.243c0.105-0.23,0.224-0.49,0.231-0.79l0.01-0.417l-0.416,0.035
	c-0.088,0.007-0.187,0.02-0.292,0.033c-0.205,0.026-0.478,0.064-0.691,0.041c0.026-0.051,0.054-0.104,0.081-0.159
	c0.244-0.474,0.521-1.012,0.416-1.488c-0.095-0.437-0.365-0.621-0.595-0.743c0.118-0.067,0.254-0.131,0.387-0.194
	c0.489-0.23,1.097-0.517,1.183-1.167l0.038-0.292l-0.275-0.106c-0.345-0.133-0.694-0.201-1.041-0.248
	c0.053-0.021,0.107-0.043,0.164-0.065l0.112-0.026c0.457-0.104,0.742-0.184,0.851-0.433c0.051-0.12,0.068-0.246,0.057-0.368
	c0.483,0.008,0.976,0.033,1.457,0.058c0.299,0.015,0.595,0.019,0.893,0.03c-0.086,0.106-0.161,0.225-0.206,0.37l-0.096,0.429
	l0.229,0.038c-0.06,0.052-0.136,0.109-0.22,0.171c-0.242,0.178-0.516,0.379-0.625,0.7l-0.109,0.318l0.305,0.143
	c0.26,0.122,0.566,0.101,0.839,0.083c0.093-0.006,0.229-0.015,0.322-0.01c-0.067,0.111-0.189,0.269-0.277,0.383
	c-0.293,0.38-0.596,0.773-0.595,1.177l0.001,0.283l0.272,0.077c0.297,0.084,0.586,0.085,0.875,0.079
	c-0.094,0.181-0.249,0.36-0.418,0.555c-0.29,0.334-0.619,0.713-0.676,1.214l-0.045,0.406l0.408,0.011
	c0.562,0.007,1.099-0.13,1.613-0.27c0.325-0.088,0.64-0.174,0.951-0.217c-0.017,0.037-0.032,0.076-0.046,0.117l-0.144,0.418
	l0.437,0.073c0.192,0.031,0.377,0.021,0.554,0.002C37.43,61.2,37.198,61.552,36.951,61.845z M40.597,61.055
	c-0.215,0.089-0.303,0.014-0.339-0.019l-0.209-0.182l-0.235,0.147c-0.417,0.26-1.18,0.459-1.278,0.413
	c0-0.099,0.163-0.373,0.233-0.489c0.058-0.097,0.106-0.181,0.133-0.24l0.196-0.44l-0.475-0.083c-0.31-0.055-0.604-0.007-0.862,0.035
	c-0.009,0.001-0.017,0.002-0.024,0.004c0.011-0.021,0.021-0.043,0.032-0.065l0.228-0.48l-0.529-0.053
	c-0.655-0.066-1.261,0.098-1.844,0.257c-0.28,0.076-0.552,0.15-0.819,0.196c0.083-0.113,0.182-0.227,0.282-0.343
	c0.337-0.388,0.719-0.829,0.691-1.449l-0.017-0.354l-0.354-0.004c-0.128-0.003-0.244,0.002-0.363,0.006
	c-0.126,0.005-0.248,0.008-0.365,0.006c0.093-0.142,0.212-0.297,0.299-0.411c0.293-0.38,0.546-0.709,0.465-1.049
	c-0.115-0.48-0.54-0.555-0.907-0.542c0.274-0.216,0.557-0.507,0.485-0.96l-0.066-0.205c0.103-0.074,0.226-0.139,0.342-0.201
	c0.274-0.145,0.585-0.309,0.583-0.657c-0.001-0.091-0.024-0.174-0.064-0.249c0.165-0.007,0.344-0.003,0.516,0
	c0.303,0.006,0.613,0.012,0.889-0.033c0.294-0.047,0.574-0.117,0.854-0.188c0.149-0.038,0.305-0.065,0.456-0.099l0.315,0.218
	c0.219,0.151,0.47,0.216,0.713,0.279c0.003,0.001,0.006,0.001,0.009,0.002c-0.076,0.043-0.161,0.085-0.251,0.129
	c-0.287,0.143-0.613,0.304-0.818,0.607l-0.331,0.488l1.023,0.169c0.156,0.028,0.314,0.056,0.474,0.081
	c-0.06,0.042-0.121,0.083-0.182,0.124c-0.566,0.383-1.271,0.86-1.146,1.66l0.048,0.31l0.313,0.008
	c0.146,0.002,0.296-0.003,0.45-0.01c0.113-0.005,0.229-0.01,0.339-0.01c0.002,0,0.003,0,0.004,0
	c-0.035,0.05-0.081,0.107-0.139,0.175c-0.156,0.185-0.351,0.416-0.38,0.743l-0.035,0.381l0.382,0.026
	c0.186,0.013,0.425-0.027,0.709-0.074c0.199-0.032,0.537-0.076,0.714-0.083c0.019,0.115,0.009,0.333,0.003,0.459
	c-0.01,0.207-0.019,0.402,0.021,0.561l0.062,0.25l0.256,0.032c0.144,0.02,0.288-0.002,0.432-0.042
	c-0.021,0.043-0.034,0.09-0.037,0.14C41.457,60.273,41.019,60.878,40.597,61.055z M42.035,59.65c-0.02-0.011-0.04-0.017-0.062-0.024
	c0.023-0.012,0.048-0.022,0.07-0.035C42.041,59.61,42.038,59.631,42.035,59.65z M46.339,59.181l-0.144-0.481l-0.413,0.922
	c-0.244,0.542-0.612,1.24-1.124,1.414c-0.036-0.169-0.033-0.358-0.031-0.566c0.002-0.135,0.003-0.271-0.005-0.406l-0.029-0.504
	l-0.474,0.174c-0.214,0.078-0.401,0.261-0.618,0.472c-0.39,0.379-0.617,0.551-0.754,0.445c-0.116-0.088,0.006-0.763,0.046-0.985
	c0.054-0.299,0.101-0.557,0.075-0.763l-0.056-0.465l-0.441,0.156c-0.154,0.055-0.329,0.147-0.51,0.246
	c-0.111,0.061-0.243,0.133-0.367,0.188c0.018-0.395,0.033-0.837-0.269-1.082c-0.237-0.19-0.604-0.162-1.162-0.074
	c0.161-0.213,0.31-0.491,0.255-0.873l-0.036-0.255l-0.252-0.058c-0.279-0.064-0.573-0.057-0.855-0.043
	c0.135-0.183,0.394-0.369,0.727-0.595c0.37-0.25,0.752-0.508,0.935-0.858l0.276-0.528l-0.596-0.021
	c-0.238-0.008-0.486-0.039-0.733-0.078c0.312-0.161,0.655-0.373,0.795-0.773l0.102-0.293l-0.269-0.155
	c-0.034-0.02-0.069-0.038-0.104-0.055c0.267-0.071,0.535-0.138,0.807-0.189c0.177-0.034,0.357-0.056,0.539-0.079
	c0.424-0.053,0.861-0.108,1.279-0.29l0.726-0.317c0.224-0.017,0.448-0.023,0.646-0.027l0.727-0.02l-0.242-0.477
	c0.018,0.007,0.035,0.013,0.052,0.02c0.43,0.167,0.865,0.334,1.251,0.387c-0.438,0.212-0.878,0.439-1.049,0.872l-0.174,0.44
	l0.469,0.068c0.104,0.015,0.211,0.013,0.31,0.006c-0.065,0.065-0.136,0.129-0.208,0.195c-0.154,0.14-0.306,0.28-0.429,0.433
	l-0.266,0.327L45.1,54.86c0.204,0.129,0.421,0.165,0.618,0.189c-0.038,0.149-0.149,0.272-0.327,0.458
	c-0.188,0.195-0.4,0.416-0.514,0.743l-0.13,0.377l0.384,0.107c0.064,0.018,0.129,0.035,0.194,0.05
	c-0.014,0.025-0.03,0.053-0.048,0.083c-0.07,0.122-0.151,0.26-0.199,0.428l-0.116,0.413l0.426,0.06
	c0.558,0.078,1.113-0.018,1.652-0.123C46.935,58.176,46.67,58.759,46.339,59.181z M52.612,57.987
	c0.008-0.038,0.016-0.077,0.024-0.117c0.021-0.096,0.041-0.192,0.053-0.291l0.049-0.396L52.34,57.16
	c-0.394-0.013-0.828,0.203-1.246,0.422c-0.146,0.077-0.421,0.221-0.624,0.293c0.003-0.07,0.003-0.141-0.002-0.211l-0.019-0.314
	l-0.312-0.037c-0.41-0.048-0.788,0.02-1.158,0.111c0.029-0.081,0.056-0.167,0.072-0.259l0.076-0.4l-0.405-0.042
	c-0.579-0.061-1.147,0.052-1.697,0.16c-0.341,0.067-0.67,0.132-0.987,0.154c0.08-0.164,0.141-0.357,0.114-0.594l-0.033-0.29
	l-0.274-0.038c0.027-0.029,0.057-0.06,0.086-0.09c0.276-0.287,0.655-0.681,0.523-1.374l-0.046-0.246l-0.246-0.051
	c-0.038-0.008-0.077-0.015-0.116-0.021c0.258-0.239,0.523-0.514,0.639-0.898l0.085-0.284l-0.257-0.148
	c-0.028-0.016-0.056-0.03-0.084-0.042c0.017-0.008,0.033-0.016,0.05-0.024c0.52-0.25,1.161-0.561,1.212-1.226
	c0.195-0.114,0.379-0.236,0.56-0.357c0.415-0.278,0.807-0.541,1.294-0.644c0.632-0.132,1.541-0.199,2.229-0.131
	c-0.201,0.24-0.352,0.509-0.417,0.812l-0.069,0.327l0.316,0.107c0.061,0.02,0.121,0.037,0.184,0.049
	c-0.072,0.038-0.144,0.078-0.214,0.12c-0.312,0.188-0.568,0.44-0.814,0.685c-0.294,0.291-0.571,0.565-0.899,0.68l-3.006,1.044
	l3.166-0.317c0.362-0.036,0.715,0.007,1.091,0.054l0.2,0.024c0.145,0.017,0.332,0.023,0.538,0.029
	c0.323,0.01,0.82,0.024,1.112,0.118c-0.032,0.075-0.077,0.153-0.125,0.238c-0.078,0.137-0.158,0.279-0.208,0.444l-0.132,0.434
	l0.45,0.048c0.111,0.012,0.223,0.017,0.333,0.019c-0.038,0.062-0.07,0.132-0.093,0.211l-0.118,0.411l0.423,0.063
	c0.252,0.039,0.506,0.021,0.759-0.008c-0.005,0.006-0.011,0.01-0.015,0.016C53.436,57.583,52.919,57.948,52.612,57.987z
	 M54.904,56.239c-0.021-0.052-0.053-0.097-0.096-0.136c0.104-0.014,0.211-0.031,0.31-0.038L54.904,56.239z M58.479,55.311
	c-0.135,0.068-0.261,0.134-0.383,0.172c-0.183,0.059-0.454,0.086-0.716,0.112c-0.251,0.026-0.501,0.052-0.71,0.102l-0.237,0.06
	c-0.055,0.014-0.11,0.029-0.167,0.042l0.108-0.223L56,55.427c-0.48-0.19-0.99-0.116-1.487-0.043c-0.005,0-0.01,0.001-0.016,0.002
	c0.009-0.011,0.018-0.022,0.025-0.034l0.369-0.519l-0.633-0.071c-0.151-0.017-0.305-0.021-0.458-0.021
	c-0.071,0-0.112-0.002-0.216,0.002c0.09-0.174,0.172-0.377,0.179-0.614l0.005-0.178l-0.134-0.116
	c-0.405-0.351-1.127-0.373-1.764-0.392c-0.182-0.005-0.348-0.01-0.475-0.024l-0.195-0.023c-0.03-0.004-0.061-0.007-0.091-0.011
	c0.06-0.057,0.118-0.115,0.176-0.172c0.225-0.223,0.438-0.433,0.673-0.574c0.185-0.111,0.38-0.201,0.574-0.292
	c0.372-0.173,0.758-0.352,1.093-0.663l0.852-0.791l-1.152,0.144c-0.106,0.013-0.22,0.031-0.336,0.049
	c-0.242,0.038-0.503,0.079-0.739,0.081c0.219-0.333,0.592-0.53,0.904-0.644c0.59-0.212,1.157-0.474,1.705-0.726
	c0.485-0.223,0.97-0.447,1.473-0.638l0.373-0.138c0.328-0.121,0.693-0.256,1.038-0.401c-0.407,0.507-0.665,1.028-0.772,1.568
	l-0.048,0.241l0.202,0.14c0.272,0.188,0.594,0.21,0.895,0.2c-0.045,0.104-0.103,0.21-0.165,0.324
	c-0.165,0.305-0.354,0.651-0.346,1.086l0.006,0.349l0.349,0.019c0.132,0.007,0.263,0,0.396-0.009
	c0.093-0.005,0.184-0.01,0.269-0.009c-0.008,0.294-0.151,0.652-0.291,1c-0.093,0.23-0.182,0.454-0.235,0.658l-0.077,0.291
	l0.268,0.138c0.38,0.197,0.82,0.159,1.224,0.109c-0.028,0.079-0.059,0.158-0.09,0.239c-0.004,0.01-0.008,0.021-0.012,0.03
	C58.999,55.054,58.716,55.192,58.479,55.311z M61.821,55.019c-0.174,0.056-0.364,0.144-0.56,0.236
	c-0.112,0.054-0.231,0.11-0.347,0.158c0.033-0.176,0.039-0.362-0.007-0.549l-0.091-0.366l-0.365,0.092
	c-0.081,0.021-0.159,0.047-0.234,0.076c0.027-0.108,0.048-0.221,0.058-0.338l0.038-0.426l-0.427,0.018
	c-0.141,0.006-0.296,0.025-0.456,0.046c-0.193,0.025-0.411,0.05-0.58,0.047c0.026-0.067,0.054-0.136,0.082-0.206
	c0.215-0.534,0.458-1.138,0.29-1.712l-0.057-0.191l-0.19-0.061c-0.217-0.07-0.432-0.072-0.63-0.062
	c0.046-0.107,0.105-0.216,0.168-0.332c0.168-0.309,0.357-0.658,0.342-1.096l-0.014-0.367l-0.367,0.006
	C58.388,49.994,58.296,50,58.2,50.006c-0.137,0.01-0.281,0.019-0.406,0.01c0.32-0.915,1.254-1.819,2.767-2.7
	c-0.111,0.191-0.204,0.392-0.247,0.618l-0.045,0.235l0.17,0.122c-0.001,0.016-0.002,0.031-0.003,0.046
	c-0.018,0.284-0.039,0.639,0.201,0.873c0.281,0.276,0.781,0.248,1.566,0.17c0.062-0.006,0.125-0.013,0.188-0.018
	c-0.008,0.017-0.016,0.034-0.023,0.051c-0.086,0.184-0.183,0.393-0.227,0.632l-0.054,0.296l0.277,0.117
	c0.233,0.098,0.479,0.125,0.718,0.129c-0.021,0.211-0.087,0.47-0.145,0.693c-0.054,0.208-0.104,0.407-0.128,0.578l-0.045,0.314
	l0.302,0.097c0.134,0.042,0.239,0.065,0.325,0.083c0.047,0.01,0.081,0.015,0.089,0.011c0.002,0.003,0.026,0.033,0.073,0.154
	c0.078,0.203-0.018,0.511-0.12,0.837c-0.127,0.405-0.271,0.863-0.132,1.317l0.044,0.134C62.851,54.793,62.349,54.852,61.821,55.019z
	 M67.832,52.301c-0.095,0.004-0.197-0.202-0.232-0.294l-0.154-0.401l-0.377,0.207c-0.575,0.315-1.046,0.767-1.502,1.204
	c-0.414,0.397-0.809,0.776-1.266,1.047l-0.11-0.091l-0.173,0.086c0.028-0.15,0.079-0.312,0.132-0.479
	c0.13-0.415,0.277-0.884,0.104-1.333c-0.16-0.413-0.33-0.536-0.632-0.611c0.014-0.055,0.028-0.111,0.043-0.168
	c0.115-0.447,0.245-0.954,0.126-1.366l-0.089-0.28l-0.292,0.01c-0.139,0.004-0.282,0.008-0.41,0.002
	c0.016-0.035,0.031-0.07,0.048-0.105c0.097-0.207,0.205-0.442,0.235-0.715l0.039-0.358l-0.356-0.053
	c-0.204-0.031-0.496-0.002-0.836,0.031c-0.3,0.03-0.858,0.087-0.941,0.075c-0.021-0.053-0.01-0.224-0.003-0.326
	c0.008-0.135,0.017-0.275-0.004-0.402l-0.032-0.193c0.126-0.255,0.341-0.504,0.563-0.765c0.317-0.368,0.645-0.749,0.8-1.228
	c0.069-0.211,0.09-0.423,0.111-0.627c0.021-0.217,0.043-0.423,0.12-0.569c0.17-0.321,0.443-0.333,1.072-0.282
	c0.263,0.022,0.53,0.039,0.789,0.002c-0.022,0.045-0.048,0.089-0.069,0.135c-0.142,0.293-0.276,0.571-0.48,0.662l-1.451,0.646
	l1.587,0.071c0.481,0.021,0.956-0.03,1.413-0.081c0.263-0.029,0.516-0.057,0.767-0.071c-0.062,0.095-0.146,0.199-0.249,0.32
	c-0.183,0.218-0.391,0.464-0.488,0.773l-0.109,0.346l0.342,0.121c0.096,0.034,0.188,0.048,0.272,0.057
	c-0.002,0.097,0.016,0.199,0.07,0.299c0.14,0.257,0.414,0.326,0.68,0.352l-0.16,0.236l0.293,0.213
	c0.312,0.226,0.721,0.231,1.095,0.177c-0.013,0.056-0.021,0.116-0.025,0.179l-0.016,0.24l0.212,0.114
	c0.326,0.176,0.724,0.192,1.116,0.139l-0.301,0.615l0.322-0.009c-0.041,0.077-0.077,0.163-0.102,0.259l-0.041,0.161
	c-0.014,0.028-0.029,0.054-0.035,0.085C69.141,50.938,68.294,52.258,67.832,52.301z M68.734,42.224
	c0.009-0.004,0.079-0.022,0.388,0.03c0.345,0.058,0.502,0.084,0.771,0.216c0.093,0.046,0.182,0.11,0.271,0.174
	c0.188,0.132,0.41,0.289,0.681,0.343c0.485,0.255,0.982,0.527,1.433,0.818c0.976,0.63,2.022,1.602,2.161,2.353
	c0.101,0.542-0.251,0.8-1.02,1.222c-0.16,0.088-0.315,0.174-0.457,0.264c-0.251,0.161-0.569,0.446-0.938,0.775
	c-0.396,0.354-1.012,0.905-1.521,1.215l0.332-0.511l-0.332,0.013c0.023-0.021,0.047-0.042,0.07-0.064
	c0.08-0.074,0.16-0.147,0.236-0.222l1.05-1.029l-1.613,0.458c-0.364,0.108-0.934,0.269-1.319,0.243c0-0.001,0.001-0.002,0.001-0.003
	c0.045-0.107,0.095-0.229,0.122-0.369l0.108-0.561l-0.692,0.155c-0.198,0.046-0.531,0.131-0.754,0.113
	c0.003-0.014,0.006-0.024,0.007-0.027l0.341-0.493l-0.592-0.092c-0.098-0.015-0.209-0.021-0.321-0.028
	c-0.058-0.003-0.136-0.007-0.204-0.014c0.002-0.003,0.004-0.007,0.006-0.01l0.197-0.344l-0.354-0.178
	c-0.063-0.032-0.128-0.055-0.19-0.07c0.03-0.038,0.062-0.077,0.096-0.115c0.258-0.307,0.579-0.689,0.533-1.219l-0.03-0.332
	l-0.332-0.01c-0.467-0.012-0.91,0.036-1.345,0.083c-0.151,0.017-0.301,0.033-0.448,0.047c0.05-0.093,0.095-0.186,0.137-0.273
	c0.095-0.195,0.184-0.378,0.284-0.484c0.393-0.415,0.997-0.709,1.582-0.995c0.36-0.176,0.733-0.357,1.056-0.568
	c0.262-0.171,0.408-0.321,0.506-0.421C68.672,42.279,68.719,42.231,68.734,42.224z M77.218,32.22
	c-2.071,0.241-4.42,0.514-5.894,1.263l-0.189,0.096c-1.343,0.683-2.404,1.222-3.559,2.335c-0.484,0.468-0.996,0.813-1.537,1.178
	c-0.529,0.357-1.077,0.727-1.605,1.223c-0.8,0.751-1.768,1.294-2.793,1.869c-0.756,0.423-1.537,0.861-2.246,1.392l-0.352,0.265
	c-1.267,0.952-2.267,1.704-3.722,2.339c-1.638,0.715-3.142,1.078-4.884,1.498l-0.741,0.18c-0.098-0.02-0.201-0.02-0.3,0.022
	c-0.043,0.019-0.076,0.049-0.11,0.078l-0.137,0.033c-1.174,0.288-2.364,0.575-3.558,0.857c-0.082-0.024-0.167-0.035-0.256-0.014
	c-0.087,0.021-0.157,0.068-0.218,0.124c-2.284,0.535-4.587,1.039-6.87,1.423c-3.729,0.627-7.541,0.932-11.654,0.932
	c-1.072,0-2.152-0.021-3.242-0.059c-2.684-0.094-5.296-0.102-8.188-0.102h-1.861c-2.3,0-3.742-0.08-4.302-0.236
	c0.585-0.89,3.146-3.459,4.991-5.062c0.589-0.512,1.097-1.105,1.587-1.679c0.483-0.565,0.94-1.099,1.467-1.56
	c1.439-1.26,3.328-2.365,5.612-3.284c2.834-1.14,6.27-1.87,10.213-2.167c1.955-0.148,3.933-0.379,5.845-0.604
	c1.94-0.228,3.946-0.462,5.921-0.608c1.617-0.12,3.243-0.413,4.815-0.696c1.096-0.198,2.229-0.402,3.338-0.543
	c0.675-0.085,1.355-0.152,2.037-0.219c1.801-0.177,3.662-0.36,5.441-0.894c0.415-0.125,0.818-0.273,1.218-0.431
	c0.01-0.005,0.021-0.008,0.031-0.013c0.878-0.349,1.724-0.756,2.547-1.158c0.324-0.159,0.648-0.317,0.976-0.472
	c0.888-0.42,1.984-0.984,2.595-1.615c0.46-0.476,0.797-1.479,1.154-2.541c0.153-0.458,0.307-0.913,0.464-1.3
	c0.101-0.249,0.162-0.569,0.229-0.909c0.078-0.407,0.226-1.166,0.432-1.272c0.118-0.061,0.181-0.07,0.175-0.084
	c0.191,0.208,0.271,1.142-0.421,4.377c-0.121,0.562-0.179,0.84-0.188,1.007c-0.106,1.907,1.609,4.053,3.464,4.333
	c0.945,0.145,2.181,0.075,3.306-0.016c0.446-0.036,0.888-0.072,1.314-0.089c0.19-0.007,0.454-0.039,0.755-0.076
	c0.452-0.056,0.965-0.119,1.435-0.119c0.669,0,1.015,0.121,1.048,0.283C80.545,31.833,78.622,32.057,77.218,32.22z"/>
</svg>
