<?xml version="1.0" encoding="utf-8"?>
<!-- Generator: Adobe Illustrator 15.1.0, SVG Export Plug-In . SVG Version: 6.00 Build 0)  -->
<!DOCTYPE svg PUBLIC "-//W3C//DTD SVG 1.1//EN" "http://www.w3.org/Graphics/SVG/1.1/DTD/svg11.dtd">
<svg version="1.1" id="Layer_1" xmlns="http://www.w3.org/2000/svg" xmlns:xlink="http://www.w3.org/1999/xlink" x="0px" y="0px"
	 width="100px" height="100px" viewBox="0 0 100 100" enable-background="new 0 0 100 100" xml:space="preserve">
<g>
	<path d="M43.141,15.481c-2.3,0-4.172,1.871-4.172,4.171s1.872,4.171,4.172,4.171s4.171-1.871,4.171-4.171
		S45.441,15.481,43.141,15.481z M43.141,22.824c-1.749,0-3.172-1.423-3.172-3.171s1.423-3.171,3.172-3.171
		c1.749,0,3.171,1.423,3.171,3.171S44.89,22.824,43.141,22.824z"/>
	<path d="M54.502,25.945c0.086,0.012,0.172,0.018,0.259,0.018c1.762,0,3.437-2.511,3.896-5.84c0.485-3.519-0.579-6.475-2.423-6.729
		c-1.854-0.261-3.673,2.331-4.153,5.822c-0.224,1.617-0.126,3.188,0.273,4.422C52.793,24.996,53.556,25.814,54.502,25.945z
		 M53.07,19.353c0.41-2.977,1.833-4.977,2.905-4.977c0.04,0,0.081,0.003,0.121,0.008c1.087,0.15,1.999,2.488,1.569,5.603
		c-0.427,3.091-1.934,5.118-3.027,4.968c-0.537-0.074-1.023-0.666-1.334-1.624C52.951,22.236,52.867,20.823,53.07,19.353z"/>
	<path d="M60.009,81.437c-0.887-0.929-1.687-2.367-2.409-4.173c0.036,0.004,0.068,0.021,0.105,0.021
		c0.527,0,0.955-0.428,0.955-0.955s-0.428-0.955-0.955-0.955c-0.273,0-0.517,0.118-0.69,0.303c-0.193-0.568-0.381-1.161-0.562-1.779
		c0.122-0.161,0.207-0.352,0.207-0.568c0-0.404-0.254-0.746-0.609-0.886c-0.275-1.043-0.535-2.139-0.781-3.277
		c0.132,0.069,0.275,0.118,0.436,0.118c0.527,0,0.955-0.428,0.955-0.955s-0.428-0.955-0.955-0.955c-0.301,0-0.558,0.147-0.732,0.365
		c-0.186-0.923-0.361-1.867-0.529-2.828c0.128-0.162,0.217-0.358,0.217-0.582c0-0.338-0.186-0.62-0.45-0.79
		c-0.231-1.407-0.446-2.841-0.645-4.283c0.048,0.008,0.09,0.028,0.14,0.028c0.527,0,0.955-0.428,0.955-0.955
		s-0.428-0.955-0.955-0.955c-0.135,0-0.263,0.029-0.38,0.08c-0.358-2.788-0.66-5.576-0.912-8.229
		c0.094,0.031,0.188,0.059,0.292,0.059c0.527,0,0.955-0.428,0.955-0.955s-0.428-0.955-0.955-0.955c-0.166,0-0.314,0.054-0.451,0.128
		c-0.198-2.23-0.361-4.333-0.495-6.229c0.501-0.03,0.901-0.436,0.901-0.944c0-0.527-0.428-0.955-0.955-0.955
		c-0.026,0-0.048,0.013-0.073,0.015c-0.06-0.914-0.11-1.76-0.154-2.528c0.106-0.154,0.183-0.33,0.183-0.531
		c0-0.243-0.098-0.458-0.247-0.627c-0.073-1.375-0.119-2.396-0.143-2.964c0.085,0.003,0.17,0.013,0.255,0.013
		c6.664,0,11.309-7.862,11.309-14.918c0-7.776-6.803-11.468-14.154-14.3c-1.065-0.41-2.144-0.618-3.206-0.618
		c-6.664,0-11.308,7.862-11.308,14.918c0,6.389,4.301,9.389,9.512,12.395c1.685,0.894,3.219,1.522,4.642,1.906
		c0.646,0.249,1.296,0.414,1.944,0.512c0.02,0.517,0.06,1.479,0.126,2.792c-0.371,0.131-0.641,0.476-0.641,0.892
		c0,0.45,0.318,0.811,0.738,0.911c0.112,1.981,0.27,4.44,0.485,7.188c-0.087-0.026-0.173-0.054-0.269-0.054
		c-0.527,0-0.955,0.428-0.955,0.955s0.428,0.955,0.955,0.955c0.149,0,0.286-0.041,0.411-0.102c0.166,1.968,0.36,4.053,0.588,6.191
		c-0.526,0.001-0.954,0.428-0.954,0.955s0.428,0.955,0.955,0.955c0.072,0,0.137-0.026,0.205-0.041
		c0.353,3.092,0.775,6.253,1.279,9.303c-0.259,0.171-0.439,0.45-0.439,0.783c0,0.447,0.314,0.806,0.729,0.909
		c0.466,2.615,0.996,5.116,1.597,7.384c-0.196,0.175-0.326,0.423-0.326,0.707c0,0.467,0.341,0.837,0.783,0.92
		c0.965,3.251,2.098,5.897,3.427,7.508c-0.124,0.161-0.21,0.354-0.21,0.572c0,0.527,0.428,0.955,0.955,0.955
		s0.955-0.428,0.955-0.955C60.66,81.91,60.385,81.564,60.009,81.437z M44.163,29.353c-5.098-2.94-8.997-5.655-8.997-11.52
		c0-6.57,4.408-13.918,10.308-13.918c0.938,0,1.896,0.186,2.846,0.552c7.019,2.704,13.514,6.194,13.514,13.367
		c0,6.57-4.408,13.918-10.309,13.918c-0.938,0-1.896-0.186-2.895-0.567C47.232,30.805,45.766,30.203,44.163,29.353z"/>
</g>
</svg>
