<?xml version="1.0" encoding="UTF-8" standalone="no"?>
<svg
   xmlns:dc="http://purl.org/dc/elements/1.1/"
   xmlns:cc="http://creativecommons.org/ns#"
   xmlns:rdf="http://www.w3.org/1999/02/22-rdf-syntax-ns#"
   xmlns:svg="http://www.w3.org/2000/svg"
   xmlns="http://www.w3.org/2000/svg"
   version="1.1"
   id="svg2"
   xml:space="preserve"
   enable-background="new 0 0 89.384537 86.242844"
   viewBox="0 0 100 100"
   height="100"
   width="100"><defs
     id="defs4" /><metadata
     id="metadata7"><rdf:RDF><cc:Work
         rdf:about=""><dc:format>image/svg+xml</dc:format><dc:type
           rdf:resource="http://purl.org/dc/dcmitype/StillImage" /><dc:title></dc:title></cc:Work></rdf:RDF></metadata><g
     transform="translate(-381.22212,-556.7421)"
     id="layer1"><path
       id="path3168"
       transform="translate(381.22212,556.7421)"
       d="M 20.052734 3.7070312 C 18.850234 3.7274 17.666646 3.7955106 16.509766 3.9160156 C 11.865066 4.3998456 9.2218581 5.8025056 8.1113281 7.8847656 C 7.0008081 9.9670356 7.5195775 12.525864 8.7734375 15.121094 C 11.281167 20.311564 16.842908 25.934705 20.080078 29.171875 C 20.945858 30.037655 21.837676 30.494219 22.728516 30.599609 C 23.619356 30.704999 24.473867 30.462057 25.279297 30.060547 C 26.890157 29.257547 28.391247 27.819502 29.966797 26.757812 C 31.542357 25.696123 33.103258 25.022378 34.892578 25.548828 C 36.143642 25.916904 37.573943 26.935921 39.185547 28.947266 C 37.529843 28.45784 35.904557 28.119908 34.337891 27.970703 C 23.378981 46.757413 24.120515 71.665234 10.421875 81.058594 C -3.276775 90.451944 0.921415 98.122211 9.140625 96.556641 C 17.359805 94.991081 60.842402 69.555842 71.195312 57.138672 C 70.604613 55.731926 69.857503 54.301336 68.994141 52.867188 C 69.146612 52.72614 69.287549 52.586089 69.460938 52.445312 C 70.624017 51.501003 72.17746 50.695646 73.875 51.035156 C 74.13846 51.087856 74.343536 51.284373 74.541016 51.814453 C 74.738496 52.344533 74.864701 53.149613 74.925781 54.126953 C 75.047931 56.081643 74.924741 58.727343 74.869141 61.501953 C 74.813941 64.276563 74.827647 67.184546 75.248047 69.722656 C 75.668427 72.260776 76.491204 74.467522 78.177734 75.732422 C 79.810054 76.956662 81.608837 77.195476 83.335938 76.660156 C 85.063047 76.124846 86.731453 74.870468 88.345703 73.173828 C 91.574193 69.780538 94.597111 64.575033 97.082031 59.414062 C 98.387321 56.703062 98.213378 53.735023 97.080078 50.876953 C 95.946828 48.018893 93.865524 45.243399 91.302734 42.787109 C 86.177164 37.874519 79.137232 34.215278 73.601562 34.017578 C 68.243882 33.826228 64.339938 34.191885 61.767578 34.609375 C 59.796628 34.929255 59.279166 35.147495 58.822266 35.296875 C 58.875666 35.073065 58.920568 34.964595 58.986328 34.578125 C 59.234978 33.116655 59.574038 30.296664 59.955078 24.771484 C 60.158838 21.817004 58.617237 18.918779 55.998047 16.287109 C 53.378857 13.655429 49.659202 11.259634 45.351562 9.2714844 C 38.890103 6.2892644 31.103014 4.2255894 23.708984 3.7871094 C 22.476644 3.7140294 21.255234 3.6866625 20.052734 3.7070312 z M 9.7304688 7.3925781 C 34.477312 16.008038 37.954337 23.319295 39.648438 27.923828 C 38.070482 26.047712 36.596149 25.008315 35.173828 24.589844 C 33.005508 23.951894 31.080453 24.800884 29.408203 25.927734 C 27.735943 27.054584 26.227691 28.470286 24.832031 29.166016 C 24.134191 29.513886 23.485663 29.683132 22.845703 29.607422 C 22.205743 29.531722 21.538229 29.215964 20.787109 28.464844 C 17.556649 25.234394 12.050598 19.604957 9.6738281 14.685547 C 8.4854481 12.225847 8.1080806 10.016849 8.9941406 8.3554688 C 9.1746789 8.01695 9.4294961 7.698202 9.7304688 7.3925781 z M 75 50.642578 C 88.594338 51.969046 92.763519 51.494255 95.630859 60.09375 C 93.277148 64.828425 90.486406 69.472809 87.621094 72.484375 C 86.076124 74.108215 84.513602 75.248038 83.039062 75.705078 C 81.564523 76.162108 80.188604 75.992044 78.777344 74.933594 C 77.420284 73.915804 76.635015 71.977524 76.234375 69.558594 C 75.833745 67.139664 75.814281 64.278334 75.869141 61.521484 C 75.924041 58.764634 76.051998 56.115693 75.923828 54.064453 C 75.859728 53.038833 75.736512 52.164567 75.476562 51.466797 C 75.360685 51.155756 75.197528 50.877353 75 50.642578 z "
       style="stroke:none;stroke-width:1;stroke-linecap:butt;stroke-linejoin:miter;stroke-miterlimit:4;stroke-dasharray:none;stroke-opacity:1" /></g></svg>