<?xml version="1.0" encoding="UTF-8" standalone="no"?>
<svg
   xmlns:dc="http://purl.org/dc/elements/1.1/"
   xmlns:cc="http://creativecommons.org/ns#"
   xmlns:rdf="http://www.w3.org/1999/02/22-rdf-syntax-ns#"
   xmlns:svg="http://www.w3.org/2000/svg"
   xmlns="http://www.w3.org/2000/svg"
   version="1.1"
   id="svg2"
   xml:space="preserve"
   enable-background="new 0 0 347.17072 298.13742"
   viewBox="0 0 100 100"
   height="100"
   width="100"><defs
     id="defs4" /><metadata
     id="metadata7"><rdf:RDF><cc:Work
         rdf:about=""><dc:format>image/svg+xml</dc:format><dc:type
           rdf:resource="http://purl.org/dc/dcmitype/StillImage" /><dc:title></dc:title></cc:Work></rdf:RDF></metadata><g
     transform="translate(-203.65974,-319.74703)"
     id="layer1"><path
       id="path3331"
       transform="translate(203.65974,319.74703)"
       d="M 40.921875 8.9863281 A 0.250025 0.250025 0 0 0 40.689453 9.2949219 L 44.580078 26.261719 C 43.085438 26.52699 41.635182 26.880569 40.238281 27.318359 L 35.177734 12.982422 A 0.250025 0.250025 0 0 0 34.927734 12.8125 A 0.250025 0.250025 0 0 0 34.707031 13.148438 L 39.761719 27.466797 C 38.811051 27.780207 37.889757 28.135478 36.994141 28.523438 L 30.673828 15.783203 A 0.250025 0.250025 0 0 0 30.455078 15.640625 A 0.250025 0.250025 0 0 0 30.226562 16.005859 L 36.537109 28.724609 C 35.417798 29.230455 34.346092 29.793395 33.328125 30.408203 L 25.832031 19.578125 A 0.250025 0.250025 0 0 0 25.59375 19.46875 A 0.250025 0.250025 0 0 0 25.419922 19.863281 L 32.900391 30.667969 C 32.122246 31.156348 31.375076 31.674745 30.666016 32.222656 C 30.309498 32.498148 29.964882 32.780434 29.626953 33.070312 L 14.15625 17.712891 A 0.250025 0.250025 0 0 0 13.951172 17.638672 A 0.250025 0.250025 0 0 0 13.802734 18.068359 L 29.251953 33.404297 C 28.014716 34.508523 26.913826 35.710425 25.96875 36.992188 L 5.7753906 26.486328 A 0.250025 0.250025 0 0 0 5.65625 26.457031 A 0.250025 0.250025 0 0 0 5.5449219 26.929688 L 25.666016 37.398438 C 25.114827 38.183672 24.631093 39.000484 24.201172 39.839844 L 7.7324219 34.623047 A 0.250025 0.250025 0 0 0 7.6582031 34.609375 A 0.250025 0.250025 0 0 0 7.5820312 35.099609 L 23.970703 40.291016 C 23.4198 41.43866 22.988668 42.632423 22.683594 43.861328 L 4.5332031 41.101562 A 0.250025 0.250025 0 0 0 4.484375 41.097656 L 4.484375 41.099609 A 0.250025 0.250025 0 0 0 4.4589844 41.595703 L 22.572266 44.349609 C 22.336009 45.429692 22.199794 46.5366 22.169922 47.664062 L 3.6699219 47.255859 A 0.250025 0.250025 0 0 0 3.6445312 47.255859 A 0.25009383 0.25009383 0 0 0 3.6582031 47.755859 L 22.15625 48.164062 C 22.158201 49.265372 22.265658 50.346177 22.464844 51.404297 L 2.4726562 53.578125 A 0.2505224 0.2505224 0 0 0 2.5273438 54.076172 L 22.568359 51.894531 C 22.812227 53.015574 23.160545 54.106888 23.609375 55.164062 L 15.097656 56.742188 A 0.25033889 0.25033889 0 0 0 15.189453 57.234375 L 23.816406 55.634766 C 24.240211 56.562886 24.740713 57.46156 25.310547 58.328125 L 3.5878906 65.236328 A 0.2501584 0.2501584 0 0 0 3.7402344 65.712891 L 25.597656 58.761719 C 26.223381 59.664239 26.929264 60.52784 27.701172 61.349609 L 14.863281 67.914062 A 0.250025 0.250025 0 1 0 15.091797 68.357422 L 28.060547 61.726562 C 28.862981 62.544457 29.731121 63.320551 30.666016 64.042969 C 30.680684 64.054304 30.696238 64.064861 30.710938 64.076172 L 13.673828 75.582031 A 0.250025 0.250025 0 1 0 13.953125 75.996094 L 31.138672 64.390625 C 32.263417 65.221648 33.47188 65.983899 34.755859 66.666016 L 25.439453 76.953125 A 0.250025 0.250025 0 1 0 25.810547 77.287109 L 35.214844 66.904297 C 36.405853 67.51144 37.657017 68.05066 38.960938 68.517578 L 35.056641 75.5 A 0.25050479 0.25050479 0 1 0 35.494141 75.744141 L 39.441406 68.683594 C 40.726612 69.121817 42.059211 69.490605 43.433594 69.78125 L 36.037109 90.679688 A 0.25047987 0.25047987 0 1 0 36.509766 90.845703 L 43.927734 69.886719 C 45.323573 70.161166 46.760497 70.356485 48.228516 70.466797 L 46.007812 87.070312 A 0.25012951 0.25012951 0 0 0 46.503906 87.132812 L 48.730469 70.496094 C 49.496297 70.543291 50.267457 70.574219 51.048828 70.574219 C 51.520509 70.574219 51.988893 70.564201 52.455078 70.546875 L 53.994141 85.630859 A 0.250025 0.250025 0 1 0 54.490234 85.580078 L 52.955078 70.519531 C 54.936787 70.419375 56.863235 70.164471 58.716797 69.769531 L 64.318359 87.345703 A 0.25015993 0.25015993 0 1 0 64.794922 87.193359 L 59.207031 69.662109 C 60.849803 69.287593 62.431643 68.803307 63.939453 68.21875 L 72.994141 83.568359 A 0.250025 0.250025 0 1 0 73.423828 83.314453 L 64.408203 68.033203 C 65.464427 67.604818 66.482035 67.126853 67.457031 66.603516 L 71.507812 72.273438 A 0.250025 0.250025 0 1 0 71.914062 71.984375 L 67.898438 66.361328 C 68.833553 65.839089 69.728662 65.275695 70.576172 64.671875 L 83.003906 78.783203 A 0.250025 0.250025 0 1 0 83.378906 78.453125 L 70.980469 64.375 C 71.130646 64.263816 71.284541 64.156637 71.431641 64.042969 C 72.50499 63.213564 73.491385 62.313541 74.388672 61.359375 L 82.544922 67.339844 A 0.25021805 0.25021805 0 0 0 82.839844 66.935547 L 74.730469 60.988281 C 75.763538 59.841557 76.66047 58.614788 77.408203 57.322266 L 90.728516 64.363281 A 0.250025 0.250025 0 1 0 90.960938 63.921875 L 77.660156 56.890625 C 78.108219 56.06988 78.486758 55.219562 78.808594 54.351562 L 90.755859 58.886719 A 0.2506564 0.2506564 0 1 0 90.933594 58.417969 L 78.982422 53.882812 C 79.451641 52.504305 79.752356 51.071907 79.875 49.601562 L 96.636719 51.746094 A 0.250025 0.250025 0 1 0 96.699219 51.25 L 79.912109 49.103516 C 79.929839 48.780969 79.943359 48.458797 79.943359 48.132812 C 79.943359 47.249174 79.872045 46.378094 79.744141 45.521484 L 96.501953 45.425781 A 0.250025 0.250025 0 1 0 96.5 44.925781 L 79.662109 45.021484 C 79.392407 43.512135 78.929928 42.052642 78.294922 40.65625 L 97.535156 37.9375 A 0.25041181 0.25041181 0 0 0 97.482422 37.439453 A 0.250025 0.250025 0 0 0 97.464844 37.441406 L 78.072266 40.181641 C 77.610297 39.234594 77.07183 38.317425 76.457031 37.4375 L 93.558594 33.773438 A 0.250025 0.250025 0 0 0 93.496094 33.279297 A 0.250025 0.250025 0 0 0 93.455078 33.285156 L 76.132812 36.998047 C 75.359025 35.947937 74.482267 34.950566 73.509766 34.017578 L 89.289062 26.435547 A 0.250025 0.250025 0 0 0 89.185547 25.957031 A 0.250025 0.250025 0 0 0 89.072266 25.984375 L 73.119141 33.648438 C 72.581481 33.154434 72.020806 32.677921 71.431641 32.222656 C 71.243274 32.0771 71.046915 31.938349 70.853516 31.796875 L 81.119141 24.951172 A 0.250025 0.250025 0 0 0 80.976562 24.492188 A 0.250025 0.250025 0 0 0 80.841797 24.535156 L 70.425781 31.480469 C 69.588205 30.892232 68.700874 30.347135 67.779297 29.837891 L 85.857422 12.916016 A 0.250025 0.250025 0 0 0 85.689453 12.480469 A 0.250025 0.250025 0 0 0 85.515625 12.550781 L 67.318359 29.583984 C 66.473675 29.136265 65.598654 28.720918 64.693359 28.34375 L 71.244141 19.873047 A 0.250025 0.250025 0 0 0 71.033203 19.46875 A 0.250025 0.250025 0 0 0 70.847656 19.568359 L 64.210938 28.152344 C 63.153348 27.731409 62.06131 27.355675 60.933594 27.037109 L 68.439453 12.849609 A 0.250025 0.250025 0 0 0 68.212891 12.480469 A 0.250025 0.250025 0 0 0 67.996094 12.615234 L 60.4375 26.90625 C 59.320665 26.608565 58.175528 26.36059 57.001953 26.169922 L 59.3125 13.941406 A 0.250025 0.250025 0 0 0 59.060547 13.642578 L 59.060547 13.644531 A 0.250025 0.250025 0 0 0 58.822266 13.851562 L 56.507812 26.095703 C 55.35602 25.924844 54.180037 25.807463 52.984375 25.746094 L 53.494141 15.90625 A 0.250025 0.250025 0 0 0 53.228516 15.640625 A 0.250025 0.250025 0 0 0 52.994141 15.880859 L 52.486328 25.71875 C 52.009907 25.700649 51.530999 25.691406 51.048828 25.691406 C 50.643971 25.691406 50.242631 25.700106 49.841797 25.712891 L 49 15.707031 A 0.250025 0.250025 0 0 0 48.726562 15.474609 A 0.250025 0.250025 0 0 0 48.501953 15.748047 L 49.341797 25.732422 C 47.887516 25.798167 46.46136 25.947202 45.072266 26.173828 L 41.175781 9.1835938 A 0.250025 0.250025 0 0 0 40.921875 8.9863281 z M 51.048828 26.691406 C 51.51335 26.691406 51.974687 26.699505 52.433594 26.716797 L 52.080078 33.542969 A 18.929478 14.627323 0 0 0 51.048828 33.503906 A 18.929478 14.627323 0 0 0 50.498047 33.519531 L 49.925781 26.712891 C 50.298854 26.701491 50.672095 26.691406 51.048828 26.691406 z M 49.425781 26.730469 L 49.996094 33.533203 A 18.929478 14.627323 0 0 0 46.841797 33.888672 L 45.296875 27.150391 C 46.639709 26.933584 48.01901 26.792706 49.425781 26.730469 z M 52.933594 26.744141 C 54.083904 26.803328 55.214636 26.916795 56.322266 27.080078 L 55.042969 33.841797 A 18.929478 14.627323 0 0 0 52.582031 33.5625 L 52.933594 26.744141 z M 56.816406 27.152344 C 57.888345 27.325908 58.934604 27.551235 59.957031 27.816406 L 56.605469 34.150391 A 18.929478 14.627323 0 0 0 55.535156 33.9375 L 56.816406 27.152344 z M 44.802734 27.238281 L 46.347656 33.974609 A 18.929478 14.627323 0 0 0 42.925781 34.935547 L 40.570312 28.263672 C 41.930723 27.838837 43.344671 27.495255 44.802734 27.238281 z M 60.453125 27.945312 C 61.525868 28.241005 62.56529 28.588404 63.572266 28.978516 L 59.009766 34.878906 A 18.929478 14.627323 0 0 0 57.099609 34.287109 L 60.453125 27.945312 z M 40.09375 28.410156 L 42.455078 35.099609 A 18.929478 14.627323 0 0 0 40.660156 35.912109 L 37.439453 29.419922 C 38.297993 29.049929 39.181819 28.710169 40.09375 28.410156 z M 64.056641 29.169922 C 64.912581 29.517836 65.744996 29.894784 66.544922 30.306641 L 60.849609 35.636719 A 18.929478 14.627323 0 0 0 59.5 35.0625 L 64.056641 29.169922 z M 36.982422 29.623047 L 40.222656 36.154297 A 18.929478 14.627323 0 0 0 38.181641 37.419922 L 33.898438 31.232422 C 34.875929 30.645312 35.905955 30.107778 36.982422 29.623047 z M 67.011719 30.554688 C 67.888315 31.026101 68.727103 31.53673 69.525391 32.080078 L 62.705078 36.626953 A 18.929478 14.627323 0 0 0 61.335938 35.867188 L 67.011719 30.554688 z M 33.472656 31.492188 L 37.775391 37.708984 A 18.929478 14.627323 0 0 0 35.947266 39.34375 L 30.337891 33.775391 C 30.64306 33.515538 30.955959 33.262014 31.277344 33.013672 C 31.97178 32.477062 32.707256 31.970561 33.472656 31.492188 z M 69.96875 32.384766 C 70.258061 32.590253 70.54265 32.799115 70.820312 33.013672 C 71.280081 33.368947 71.718205 33.738562 72.144531 34.117188 L 64.451172 37.814453 A 18.929478 14.627323 0 0 0 63.185547 36.908203 L 69.96875 32.384766 z M 29.962891 34.109375 L 35.595703 39.701172 A 18.929478 14.627323 0 0 0 34.306641 41.330078 L 26.863281 37.457031 C 27.756577 36.265217 28.795264 35.145296 29.962891 34.109375 z M 72.548828 34.478516 C 73.477816 35.341257 74.317298 36.260245 75.0625 37.226562 L 65.998047 39.169922 A 18.929478 14.627323 0 0 0 64.880859 38.164062 L 72.548828 34.478516 z M 75.388672 37.667969 C 76.012064 38.521825 76.560958 39.410271 77.029297 40.330078 L 67.984375 41.607422 A 18.929478 14.627323 0 0 0 66.392578 39.595703 L 75.388672 37.667969 z M 26.5625 37.863281 L 34.039062 41.753906 A 18.929478 14.627323 0 0 0 33.455078 42.769531 L 25.164062 40.144531 C 25.574182 39.360781 26.038745 38.598753 26.5625 37.863281 z M 24.933594 40.595703 L 33.240234 43.226562 A 18.929478 14.627323 0 0 0 32.472656 45.349609 L 23.673828 44.011719 C 23.971691 42.836366 24.39591 41.69498 24.933594 40.595703 z M 77.269531 40.800781 C 77.909735 42.152148 78.374671 43.566515 78.650391 45.027344 L 69.539062 45.080078 A 18.929478 14.627323 0 0 0 68.253906 42.074219 L 77.269531 40.800781 z M 23.560547 44.5 L 32.376953 45.841797 A 18.929478 14.627323 0 0 0 32.134766 47.882812 L 23.169922 47.685547 C 23.198822 46.60255 23.329861 45.538507 23.560547 44.5 z M 78.732422 45.527344 C 78.867148 46.381868 78.943359 47.250802 78.943359 48.132812 C 78.943359 48.415347 78.930104 48.694684 78.916016 48.974609 L 69.964844 47.830078 A 18.929478 14.627323 0 0 0 69.683594 45.580078 L 78.732422 45.527344 z M 23.15625 48.185547 L 32.130859 48.382812 A 18.929478 14.627323 0 0 0 32.349609 50.328125 L 23.458984 51.294922 C 23.263592 50.279351 23.159578 49.241602 23.15625 48.185547 z M 69.964844 48.333984 L 78.882812 49.474609 C 78.770948 50.86485 78.490015 52.220114 78.048828 53.527344 L 69.732422 50.371094 A 18.929478 14.627323 0 0 0 69.964844 48.333984 z M 32.453125 50.820312 A 18.929478 14.627323 0 0 0 33.373047 53.353516 L 24.615234 54.976562 C 24.163097 53.945401 23.810925 52.880714 23.566406 51.787109 L 32.453125 50.820312 z M 69.634766 50.869141 L 77.876953 53.998047 C 77.570278 54.827633 77.209045 55.639829 76.779297 56.425781 L 69.152344 52.392578 A 18.929478 14.627323 0 0 0 69.634766 50.869141 z M 68.945312 52.851562 L 76.527344 56.857422 C 75.80344 58.103016 74.928882 59.285961 73.919922 60.394531 L 67.330078 55.5625 A 18.929478 14.627323 0 0 0 68.945312 52.851562 z M 33.628906 53.814453 A 18.929478 14.627323 0 0 0 34.625 55.367188 L 26.298828 58.015625 C 25.737936 57.188431 25.240563 56.332307 24.822266 55.447266 L 33.628906 53.814453 z M 34.941406 55.791016 A 18.929478 14.627323 0 0 0 36.076172 57.068359 L 28.623047 60.878906 C 27.877572 60.105986 27.201799 59.291547 26.595703 58.445312 L 34.941406 55.791016 z M 67.019531 55.953125 L 73.578125 60.763672 C 72.740315 61.644173 71.821444 62.47835 70.820312 63.251953 C 70.656889 63.378235 70.485847 63.497931 70.318359 63.621094 L 65.208984 57.818359 A 18.929478 14.627323 0 0 0 67.019531 55.953125 z M 36.458984 57.433594 A 18.929478 14.627323 0 0 0 38.322266 58.935547 L 31.589844 63.482422 C 31.486553 63.405031 31.379055 63.330548 31.277344 63.251953 C 30.462024 62.621934 29.704174 61.949834 28.996094 61.248047 L 36.458984 57.433594 z M 64.824219 58.138672 L 69.914062 63.919922 C 69.092309 64.500462 68.221331 65.040329 67.3125 65.542969 L 62.980469 59.478516 A 18.929478 14.627323 0 0 0 64.824219 58.138672 z M 38.753906 59.246094 A 18.929478 14.627323 0 0 0 40.535156 60.285156 L 35.447266 65.902344 C 34.230742 65.269767 33.085959 64.564269 32.017578 63.796875 L 38.753906 59.246094 z M 62.552734 59.736328 L 66.873047 65.785156 C 65.922146 66.289921 64.924584 66.745421 63.892578 67.158203 L 60.208984 60.914062 A 18.929478 14.627323 0 0 0 62.552734 59.736328 z M 41.005859 60.509766 A 18.929478 14.627323 0 0 0 42.974609 61.341797 L 39.457031 67.628906 C 38.223768 67.194548 37.040235 66.694753 35.912109 66.132812 L 41.005859 60.509766 z M 59.75 61.117188 L 63.423828 67.345703 C 61.983529 67.895336 60.47138 68.3492 58.902344 68.703125 L 56.783203 62.054688 A 18.929478 14.627323 0 0 0 59.75 61.117188 z M 43.447266 61.517578 A 18.929478 14.627323 0 0 0 46.105469 62.234375 L 43.771484 68.830078 C 42.45186 68.556142 41.171442 68.209825 39.9375 67.796875 L 43.447266 61.517578 z M 56.296875 62.179688 L 58.410156 68.810547 C 56.623062 69.1862 54.765429 69.429286 52.853516 69.523438 L 52.160156 62.728516 A 18.929478 14.627323 0 0 0 56.296875 62.179688 z M 46.601562 62.332031 A 18.929478 14.627323 0 0 0 49.269531 62.689453 L 48.361328 69.470703 C 46.963121 69.367666 45.595398 69.185569 44.265625 68.929688 L 46.601562 62.332031 z M 49.771484 62.708984 A 18.929478 14.627323 0 0 0 51.048828 62.757812 A 18.929478 14.627323 0 0 0 51.658203 62.742188 L 52.353516 69.546875 C 51.920816 69.562236 51.486499 69.574219 51.048828 69.574219 C 50.312226 69.574219 49.585378 69.543175 48.863281 69.5 L 49.771484 62.708984 z "
       style="color:#000000;font-style:normal;font-variant:normal;font-weight:normal;font-stretch:normal;font-size:medium;line-height:normal;font-family:sans-serif;text-indent:0;text-align:start;text-decoration:none;text-decoration-line:none;text-decoration-style:solid;text-decoration-color:#000000;letter-spacing:normal;word-spacing:normal;text-transform:none;direction:ltr;block-progression:tb;writing-mode:lr-tb;baseline-shift:baseline;text-anchor:start;white-space:normal;clip-rule:nonzero;display:inline;overflow:visible;visibility:visible;opacity:1;isolation:auto;mix-blend-mode:normal;color-interpolation:sRGB;color-interpolation-filters:linearRGB;solid-color:#000000;solid-opacity:1;fill-opacity:1;fill-rule:nonzero;stroke:none;stroke-width:1;stroke-linecap:round;stroke-linejoin:miter;stroke-miterlimit:4;stroke-dasharray:none;stroke-dashoffset:0;stroke-opacity:1;marker:none;color-rendering:auto;image-rendering:auto;shape-rendering:auto;text-rendering:auto;enable-background:accumulate" /></g></svg>