<?xml version="1.0" encoding="utf-8"?>
<!-- Generator: Adobe Illustrator 15.1.0, SVG Export Plug-In . SVG Version: 6.00 Build 0)  -->
<!DOCTYPE svg PUBLIC "-//W3C//DTD SVG 1.1//EN" "http://www.w3.org/Graphics/SVG/1.1/DTD/svg11.dtd">
<svg version="1.1" id="Layer_1" xmlns="http://www.w3.org/2000/svg" xmlns:xlink="http://www.w3.org/1999/xlink" x="0px" y="0px"
	 width="100px" height="100px" viewBox="0 0 100 100" enable-background="new 0 0 100 100" xml:space="preserve">
<g>
	<path d="M63.932,13.86C63.479,7.653,56.971,2.208,50.006,2.208c-2.918,0-5.396,1-7.168,2.893c-2.002,2.139-2.976,5.274-2.74,8.832
		c0.704,9.436-0.79,19.059-2.235,28.364c-1.453,9.362-2.956,19.042-2.244,28.589c0.412,6.208,6.995,11.654,14.089,11.654
		c3.022,0,5.575-1.028,7.384-2.974c1.989-2.14,2.944-5.247,2.688-8.754c-0.757-9.436,0.682-19.059,2.072-28.365
		C63.251,33.087,64.698,23.407,63.932,13.86z M58.781,70.89c0.235,3.223-0.625,6.063-2.423,7.997
		c-1.614,1.736-3.914,2.654-6.651,2.654c-6.595,0-12.712-5.01-13.091-10.725c-0.704-9.437,0.791-19.059,2.235-28.365
		c1.453-9.361,2.956-19.042,2.244-28.588c-0.217-3.274,0.662-6.143,2.473-8.079c1.578-1.685,3.804-2.576,6.438-2.576
		c6.47,0,12.511,5.011,12.929,10.728c0.757,9.436-0.682,19.059-2.072,28.364C59.462,51.663,58.015,61.343,58.781,70.89z"/>
	<path d="M58.083,15.427c-0.173-3.326-3.215-6.136-6.644-6.136c-1.57,0-3.01,0.604-4.055,1.701
		c-1.121,1.176-1.691,2.787-1.605,4.538c0.079,1.537,0.67,2.923,1.595,3.988c-1.032,0.432-1.768,1.438-1.815,2.641
		c-0.031,0.792,0.248,1.536,0.785,2.093c0.528,0.549,1.245,0.852,2.018,0.852c0.01,0,0.02-0.003,0.03-0.003
		c-0.07,1.248,0.325,2.41,1.109,3.306c-2.548,0.512-4.654,2.689-5.017,5.376c-0.208,1.547,0.206,3.002,1.164,4.097
		c0.433,0.495,0.96,0.875,1.543,1.153c-1.05,0.972-1.805,2.271-2.031,3.73c-0.223,1.445,0.118,2.813,0.948,3.888
		c-2.198,0.787-3.952,2.789-4.254,5.136c-0.195,1.505,0.227,2.937,1.188,4.03c0.642,0.73,1.494,1.247,2.442,1.514
		c-0.86,0.961-1.413,2.189-1.488,3.526c-0.009,0.152,0.016,0.3,0.02,0.451c-0.062-0.004-0.123-0.019-0.186-0.019
		c-1.611,0-2.945,1.296-2.974,2.887c-0.015,0.77,0.275,1.498,0.817,2.051c0.305,0.312,0.671,0.537,1.068,0.685
		c-0.563,0.913-0.832,1.971-0.764,3.062c0.178,3.018,2.981,5.566,6.12,5.566c1.472,0,2.813-0.564,3.777-1.59
		c1.008-1.072,1.51-2.527,1.412-4.1c-0.093-1.452-0.699-2.754-1.623-3.734c2.025-0.831,3.493-2.797,3.623-5.147
		c0.079-1.49-0.408-2.877-1.355-3.937c1.29-0.274,2.33-1.371,2.481-2.726c0.089-0.8-0.146-1.558-0.66-2.133
		c-0.51-0.57-1.228-0.884-2.021-0.884c-0.197,0-0.392,0.02-0.58,0.056c0.007-1.182-0.358-2.279-1.056-3.17
		c2.19-0.774,3.934-2.736,4.292-5.11c0.233-1.536-0.16-2.988-1.106-4.088c-0.439-0.511-0.978-0.903-1.575-1.187
		c1.055-0.982,1.799-2.297,1.989-3.744c0.2-1.515-0.218-2.953-1.179-4.048c-0.092-0.105-0.191-0.202-0.292-0.298
		c2.026-0.581,3.609-2.381,3.753-4.531c0.086-1.277-0.344-2.491-1.209-3.417c-0.417-0.446-0.923-0.794-1.476-1.042
		c0.431-0.271,0.832-0.588,1.186-0.961C57.6,18.569,58.169,17.033,58.083,15.427z M47.785,22.866
		c-0.156-0.162-0.237-0.386-0.228-0.628c0.021-0.521,0.446-0.946,0.949-0.946c0.237,0,0.456,0.092,0.617,0.259
		c0.157,0.163,0.238,0.379,0.229,0.61c-0.019,0.511-0.472,0.943-0.99,0.943C48.075,23.104,47.89,22.975,47.785,22.866z
		 M43.838,52.044c0.262-2.034,2.221-3.752,4.279-3.752c0.207,0,0.405,0.023,0.6,0.058c0.115,0.03,0.226,0.068,0.344,0.09
		c0.53,0.155,1,0.429,1.358,0.834c0.578,0.656,0.829,1.55,0.707,2.517c-0.262,2.068-2.129,3.751-4.163,3.751
		c-0.968,0-1.827-0.37-2.417-1.043C43.969,53.843,43.718,52.972,43.838,52.044z M43.831,63.291c0.236,0,0.453,0.089,0.612,0.251
		c0.164,0.167,0.251,0.394,0.247,0.637c-0.009,0.519-0.417,0.925-0.928,0.925c-0.251,0-0.486-0.098-0.66-0.274
		c-0.163-0.167-0.25-0.384-0.245-0.613C42.866,63.714,43.312,63.291,43.831,63.291z M50.419,72.581
		c-0.59,0.628-1.393,0.96-2.32,0.96c-2.081,0-4.008-1.722-4.124-3.687c-0.056-0.903,0.26-1.77,0.889-2.438
		c0.673-0.715,1.634-1.125,2.638-1.125c0.198,0,0.389,0.027,0.58,0.059c0.131,0.034,0.263,0.066,0.397,0.092
		c1.532,0.429,2.704,1.821,2.814,3.536C51.354,70.991,51.045,71.915,50.419,72.581z M49.512,64.541
		c-0.196,0-0.388-0.028-0.579-0.059c-0.135-0.035-0.27-0.068-0.408-0.094c-0.62-0.175-1.19-0.493-1.631-0.96
		c-0.633-0.67-0.953-1.542-0.9-2.457c0.111-1.995,1.944-3.681,4.003-3.681c0.933,0,1.781,0.354,2.39,0.995
		c0.635,0.671,0.956,1.586,0.903,2.575C53.177,62.925,51.518,64.541,49.512,64.541z M54.264,53.509
		c0.13,0.146,0.188,0.351,0.162,0.578c-0.062,0.551-0.573,1.017-1.117,1.017c-0.226,0-0.424-0.082-0.556-0.229
		c-0.092-0.103-0.195-0.284-0.163-0.565c0.061-0.542,0.595-1.018,1.143-1.018C53.952,53.291,54.136,53.366,54.264,53.509z
		 M51.471,39.292c0.931,0,1.746,0.352,2.296,0.991c0.56,0.651,0.789,1.534,0.646,2.484c-0.315,2.082-2.257,3.775-4.329,3.775
		c-0.209,0-0.41-0.024-0.605-0.058c-0.115-0.03-0.226-0.069-0.344-0.091c-0.534-0.158-1.005-0.436-1.359-0.848
		c-0.558-0.65-0.785-1.53-0.639-2.476c0.267-1.727,1.653-3.171,3.296-3.62c0.153-0.027,0.304-0.061,0.454-0.099
		C51.08,39.32,51.274,39.292,51.471,39.292z M53.714,33.786c-0.224,1.699-1.628,3.162-3.278,3.605
		c-0.12,0.021-0.235,0.056-0.354,0.084c-0.213,0.037-0.429,0.066-0.646,0.066c-0.921,0-1.732-0.347-2.283-0.977
		c-0.573-0.655-0.816-1.548-0.687-2.514c0.279-2.073,2.153-3.759,4.175-3.759c0.95,0,1.792,0.364,2.372,1.026
		C53.589,31.974,53.838,32.85,53.714,33.786z M55.982,25.038c-0.104,1.561-1.534,2.879-3.122,2.879c-0.711,0-1.354-0.27-1.811-0.759
		c-0.481-0.515-0.717-1.22-0.665-1.983c0.113-1.616,1.421-2.882,2.98-2.882c0.753,0,1.443,0.294,1.943,0.829
		C55.792,23.637,56.031,24.318,55.982,25.038z M55.028,18.375c-0.777,0.82-1.877,1.291-3.017,1.291
		c-2.253,0-4.114-1.862-4.235-4.236c-0.058-1.197,0.317-2.283,1.056-3.059c0.673-0.707,1.574-1.08,2.606-1.08
		c2.357,0,4.529,1.981,4.646,4.241C56.143,16.586,55.767,17.596,55.028,18.375z"/>
</g>
</svg>
