<?xml version="1.0" encoding="utf-8"?>
<!-- Generator: Adobe Illustrator 15.1.0, SVG Export Plug-In . SVG Version: 6.00 Build 0)  -->
<!DOCTYPE svg PUBLIC "-//W3C//DTD SVG 1.1//EN" "http://www.w3.org/Graphics/SVG/1.1/DTD/svg11.dtd">
<svg version="1.1" id="Layer_1" xmlns="http://www.w3.org/2000/svg" xmlns:xlink="http://www.w3.org/1999/xlink" x="0px" y="0px"
	 width="100px" height="100px" viewBox="0 0 100 100" enable-background="new 0 0 100 100" xml:space="preserve">
<path d="M74.945,64.79c-12.023-5.112-16.465-8.825-18.055-11.087c-0.001-0.012-0.001-0.023-0.002-0.035
	c0.603-0.374,1.007-1.036,1.007-1.797c0-0.82-0.472-1.524-1.153-1.876c-0.12-2.164-0.295-4.29-0.505-6.338
	c2.465,2.529,7.484,5.874,17.317,10.054c0.063,0.027,0.13,0.04,0.195,0.04c0.194,0,0.379-0.114,0.46-0.305
	c0.108-0.254-0.01-0.548-0.265-0.655c-11.642-4.95-16.177-8.589-17.896-10.869c-0.226-1.975-0.478-3.853-0.737-5.596
	c0.359-0.38,0.584-0.89,0.584-1.454c0-0.802-0.451-1.492-1.108-1.853c-0.523-3.099-1.013-5.506-1.304-6.857
	c3.968-0.251,7.642-1.633,7.642-8.317c0-6.933-8.383-16.827-8.739-17.244l-0.761-0.89l-0.76,0.89
	c-0.357,0.417-8.74,10.311-8.74,17.244c0,7.623,4.777,8.351,9.321,8.368c0.249,1.16,0.745,3.583,1.29,6.821
	c-0.642,0.364-1.08,1.046-1.08,1.837c0,0.477,0.163,0.911,0.428,1.265c-1.844,2.303-6.463,5.862-17.733,10.654
	c-0.254,0.108-0.373,0.401-0.264,0.656c0.081,0.19,0.266,0.304,0.46,0.304c0.065,0,0.132-0.013,0.196-0.04
	c11.025-4.688,16.003-8.325,18.109-10.939c0.157,0.077,0.322,0.141,0.498,0.177c0.564,3.877,1.088,8.417,1.354,13.104
	c-0.624,0.369-1.048,1.042-1.048,1.819c0,0.226,0.045,0.438,0.109,0.642c-2.035,2.308-6.74,5.739-17.415,10.277
	c-0.254,0.107-0.373,0.401-0.264,0.655c0.081,0.19,0.266,0.305,0.46,0.305c0.065,0,0.132-0.013,0.196-0.04
	c10.172-4.324,15.196-7.756,17.566-10.313c0.16,0.153,0.346,0.278,0.548,0.377c0.184,7.714-0.491,15.447-2.998,20.986
	c-0.028-0.002-0.055-0.009-0.083-0.009c-1.17,0-2.119,0.949-2.119,2.12c0,0.419,0.125,0.807,0.335,1.135
	c-2.138,2.875-4.896,4.387-8.433,4.621c-3.702,0.241-6.538-0.687-8.438-2.767c-4.022-4.407-2.771-12.62-2.759-12.702
	c0.087-0.546-0.285-1.059-0.83-1.146c-0.545-0.089-1.058,0.283-1.145,0.829c-0.06,0.374-1.419,9.234,3.25,14.36
	c2.097,2.302,5.045,3.464,8.778,3.464c0.416,0,0.841-0.015,1.275-0.043c4.105-0.272,7.442-2.103,9.918-5.44
	c0.046-0.062,0.085-0.132,0.13-0.195c0.013,0.001,0.023,0.004,0.036,0.004c0.407,0,0.784-0.12,1.107-0.319
	c2.014,0.857,6.303,2.038,15.535,3.571c0.028,0.005,0.056,0.007,0.083,0.007c0.239,0,0.451-0.174,0.492-0.418
	c0.045-0.272-0.139-0.53-0.411-0.575c-8.973-1.49-13.078-2.636-14.959-3.365c0.168-0.304,0.272-0.648,0.272-1.021
	c0-0.4-0.117-0.771-0.311-1.09c2.555-5.517,3.375-12.967,3.325-20.472c2.336,2.567,7.355,6.026,17.645,10.4
	c0.063,0.027,0.13,0.04,0.195,0.04c0.194,0,0.379-0.114,0.46-0.305C75.318,65.191,75.2,64.897,74.945,64.79z M44.125,17.845
	c0-5.062,5.457-12.429,7.5-15.01c2.045,2.581,7.5,9.943,7.5,15.01c0,5.417-2.418,6.37-7.5,6.37
	C46.543,24.215,44.125,23.262,44.125,17.845z"/>
</svg>
