<?xml version="1.0" encoding="utf-8"?>
<!-- Generator: Adobe Illustrator 16.0.4, SVG Export Plug-In . SVG Version: 6.00 Build 0)  -->
<!DOCTYPE svg PUBLIC "-//W3C//DTD SVG 1.1//EN" "http://www.w3.org/Graphics/SVG/1.1/DTD/svg11.dtd">
<svg version="1.1" id="Layer_1" xmlns="http://www.w3.org/2000/svg" xmlns:xlink="http://www.w3.org/1999/xlink" x="0px" y="0px"
	 width="86.518px" height="76.667px" viewBox="0 0 86.518 76.667" enable-background="new 0 0 86.518 76.667" xml:space="preserve">
<path d="M81.942,39.612c0.099-0.304,0.293-0.738,0.518-1.241c1.229-2.746,3.514-7.857-1.187-10.469
	c-1.924-1.07-3.125-1.506-4.146-1.506c-0.765,0-1.376,0.243-2.084,0.525c-0.777,0.309-1.745,0.694-3.322,0.924
	c-1.292,0.185-3.381-0.648-6.105-1.725c-4.397-1.737-10.419-4.115-17.728-4.115c-4.898,0-9.788,1.098-14.535,3.262
	c-1.58,0.721-3.036,1.409-4.396,2.075c-0.842-6.196-1.738-7.518-1.782-7.579c-0.021-0.027-0.043-0.051-0.069-0.072
	c-5.487-4.39-17.35-7.011-17.852-7.121c-0.191-0.04-0.374,0.065-0.436,0.246c-0.061,0.181,0.023,0.379,0.196,0.46
	c3.576,1.681,13.047,6.551,13.903,8.874c0.59,1.601,0.71,5.141,0.701,7.976c-0.268,0.151-0.534,0.301-0.79,0.449
	c-0.109-1.196-0.86-3.133-3.867-5.558c-4.867-3.927-16.426-6.393-16.916-6.497c-0.181-0.04-0.37,0.067-0.432,0.246
	s0.021,0.376,0.191,0.458c0.097,0.047,9.715,4.711,12.936,7.166c2.007,1.528,3.049,4.896,3.542,7.131
	c-5.285,3.959-5.673,6.961-4.182,10.251c2.122,4.691,3.799,8.397,12.987,15.419c4.373,3.344,10.29,5.04,17.587,5.04
	c0.001,0,0.001,0,0.002,0c7.023,0,13.698-1.591,18.06-2.926c2.811-0.86,5.578-1.488,8.021-2.042
	c7.29-1.652,13.048-2.957,13.176-9.025c0.089-4.277-0.862-6.186-1.557-7.579C81.839,41.58,81.514,40.927,81.942,39.612z
	 M33.767,26.176c4.616-2.104,9.367-3.172,14.121-3.172c7.118,0,13.038,2.338,17.36,4.045c2.888,1.14,5.106,2.005,6.617,1.784
	c1.693-0.247,2.721-0.656,3.547-0.984c0.663-0.264,1.142-0.454,1.715-0.454c0.826,0,1.921,0.413,3.66,1.38
	c3.72,2.067,2.104,6.158,0.929,8.81c-0.566-0.036-1.847-0.115-3.64-0.226c-0.657-3.61-1.593-6.325-1.682-6.579
	c-0.068-0.195-0.28-0.299-0.478-0.23c-0.195,0.069-0.299,0.283-0.229,0.478c0.021,0.061,0.934,2.71,1.594,6.282
	c-0.494-0.03-1.017-0.062-1.57-0.096c-0.656-3.537-1.567-6.183-1.655-6.434c-0.068-0.195-0.28-0.299-0.478-0.23
	c-0.195,0.069-0.299,0.283-0.229,0.478c0.021,0.061,0.908,2.64,1.565,6.138c-0.658-0.04-1.354-0.082-2.077-0.126
	c0.61-1.716,0.804-3.285,0.292-4.594c-0.554-1.416-1.904-2.4-4.015-2.926c-1.228-0.306-2.299-0.361-3.241-0.182
	c-1.729-0.275-3.128-0.009-4.254,0.815c-1.604,1.172-2.443,3.359-2.94,6.057c-0.939-0.053-1.882-0.106-2.822-0.158
	c1.277-3.362,1.881-6.349,0.923-8.408c-0.595-1.278-1.757-2.134-3.456-2.545c-1.052-0.254-2.016-0.285-2.89-0.11
	c-1.656-0.289-3.088-0.016-4.256,0.823c-2.273,1.636-3.366,5.255-4.021,9.537c-1.202-0.054-2.329-0.102-3.362-0.142
	c1.779-5.915,2.467-8.833,1.102-9.253c-0.698-0.215-1.396-0.128-2.066,0.142c-0.08-0.061-0.17-0.11-0.273-0.142
	c-3.553-1.092-7.113,5.512-7.263,5.794c-0.098,0.183-0.027,0.41,0.155,0.507c0.184,0.095,0.41,0.028,0.507-0.156
	c0.883-1.667,3.573-5.689,5.952-5.504c-2.335,1.549-4.169,4.953-4.275,5.154c-0.098,0.183-0.027,0.41,0.155,0.507
	c0.183,0.095,0.41,0.028,0.507-0.156c0.676-1.275,2.409-3.921,4.252-5.017c0.144,1.19-0.857,4.749-1.843,8.024
	c-1.48-0.038-2.557-0.042-3.085-0.004c-3.224,0.239-6.474,1.792-8.142,2.706c-1.145-1.961-2.946-3.495-4.961-3.157
	c-0.078,0.013-0.155,0.033-0.233,0.049c-0.03-0.184-0.067-0.393-0.111-0.62c0.87-0.635,1.887-1.302,3.047-2.001
	c0.172,0.055,0.363-0.015,0.448-0.183c0.006-0.011,0.024-0.055,0.047-0.116c0.288-0.17,0.59-0.343,0.896-0.517
	c-0.025,1.686-0.085,2.919-0.087,2.953c-0.01,0.207,0.149,0.383,0.356,0.394c0.006,0,0.013,0,0.019,0
	c0.198,0,0.364-0.156,0.375-0.356c0.007-0.146,0.076-1.562,0.096-3.416c1.205-0.668,2.54-1.367,4.015-2.103
	c0.105,0.872,0.21,1.822,0.31,2.872c0.02,0.206,0.2,0.354,0.408,0.338c0.207-0.02,0.357-0.203,0.338-0.409
	c-0.11-1.162-0.227-2.205-0.344-3.154C30.523,27.68,32.076,26.946,33.767,26.176z M75.884,52.56
	c-0.615,0.936-1.37,1.717-2.263,2.342c-0.353-0.015-0.713-0.031-1.076-0.048c0.613-0.546,1.158-1.169,1.626-1.881
	c2.763-4.206,2.467-10.453,1.632-15.252c0.554,0.034,1.077,0.066,1.569,0.096C78.185,42.504,78.495,48.584,75.884,52.56z
	 M59.758,54.118c0.775-3.077,1.016-6.685,1.234-10.115c0.16-2.523,0.317-4.985,0.665-7.124c2.763,0.159,5.447,0.317,7.912,0.464
	c-1.024,2.547-2.921,5.444-4.686,8.132c-2.237,3.408-4.242,6.463-4.548,8.684C60.143,54.146,59.95,54.132,59.758,54.118z
	 M24.72,38.25c1.64-0.892,4.842-2.419,7.936-2.648c0.499-0.038,1.507-0.035,2.899-0.001c-0.143,0.471-0.284,0.935-0.42,1.379
	c-0.955,3.129-1.996,6.55-2.768,9.782c-2.524-1.639-5.206-3.099-6.658-3.86c0.019-0.2,0.033-0.396,0.043-0.589
	C25.813,41.104,25.422,39.605,24.72,38.25z M35.852,37.198c0.168-0.55,0.326-1.07,0.479-1.578c0.479,0.014,0.992,0.031,1.54,0.05
	c-0.135,0.446-0.269,0.885-0.397,1.307c-1.093,3.581-2.302,7.546-3.085,11.171c-0.435-0.317-0.883-0.634-1.347-0.946
	C33.826,43.851,34.908,40.292,35.852,37.198z M36.479,35.128c1.318-4.384,2.022-7.104,1.727-8.371
	c0.496-0.183,0.992-0.232,1.47-0.085c0.745,0.229-0.476,4.592-1.655,8.507C37.474,35.16,36.96,35.143,36.479,35.128z M38.646,35.7
	c1.052,0.04,2.204,0.088,3.438,0.144c-0.339,2.352-0.559,4.881-0.773,7.385c-0.262,3.053-0.521,6.04-0.971,8.604
	c-1.594-0.377-2.691-0.788-3.094-1.232c-0.567-0.628-1.328-1.289-2.188-1.952c0.788-3.755,2.051-7.908,3.132-11.452
	C38.35,36.677,38.501,36.182,38.646,35.7z M34.225,48.961c-0.857,4.273-1.05,7.983,0.37,9.869c0.171,0.228,0.363,0.424,0.575,0.593
	c-1.055-0.01-1.791-0.348-2.314-1.044c-1.377-1.829-0.999-5.864,0.003-10.385C33.331,48.314,33.789,48.637,34.225,48.961z
	 M35.194,58.379c-1.225-1.627-1.062-4.999-0.306-8.905c0.704,0.558,1.33,1.108,1.802,1.63c0.478,0.527,1.736,1,3.516,1.427
	c-0.682,3.464-1.782,6.023-3.835,6.704C35.896,59.064,35.503,58.789,35.194,58.379z M40.937,52.696
	c0.476,0.103,0.982,0.203,1.517,0.299c-0.8,3.757-2.142,6.354-4.769,6.43C39.362,58.258,40.319,55.808,40.937,52.696z
	 M41.067,51.995c0.464-2.613,0.728-5.624,0.991-8.703c0.217-2.52,0.438-5.065,0.776-7.415c0.513,0.024,1.038,0.048,1.574,0.074
	c-0.329,2.321-0.547,4.811-0.758,7.276c-0.278,3.237-0.553,6.397-1.057,9.06C42.054,52.193,41.541,52.095,41.067,51.995z
	 M54.44,27.646c-0.39-0.837-1.047-1.474-1.915-1.942c0.202,0.032,0.41,0.074,0.622,0.125c1.486,0.36,2.451,1.058,2.952,2.133
	c0.879,1.89,0.251,4.769-1.023,8.048c-0.506-0.028-1.01-0.055-1.513-0.083C54.808,32.618,55.387,29.679,54.44,27.646z
	 M50.808,25.829c1.486,0.36,2.452,1.058,2.952,2.133c0.868,1.865,0.266,4.696-0.977,7.923c-2.626-0.142-5.184-0.274-7.555-0.39
	c0.626-4.124,1.649-7.577,3.728-9.073c0.448-0.323,0.938-0.543,1.469-0.671C50.552,25.776,50.677,25.797,50.808,25.829z
	 M48.518,25.813c-2.292,1.649-3.384,5.316-4.037,9.646c-0.535-0.026-1.062-0.051-1.574-0.074c0.627-4.074,1.649-7.48,3.71-8.962
	c0.638-0.459,1.358-0.713,2.17-0.779C48.696,25.7,48.604,25.751,48.518,25.813z M44.398,43.292c0.213-2.48,0.431-4.985,0.761-7.304
	c2.332,0.114,4.849,0.244,7.434,0.384c-1.005,2.515-2.362,5.247-3.704,7.942c-1.468,2.947-2.894,5.816-3.844,8.361
	c-0.594-0.084-1.167-0.171-1.71-0.26C43.848,49.709,44.12,46.534,44.398,43.292z M49.56,44.648c1.389-2.789,2.795-5.617,3.818-8.233
	c0.499,0.027,1,0.055,1.503,0.083c-1,2.48-2.333,5.165-3.653,7.816c-1.524,3.062-3.003,6.04-3.95,8.657
	c-0.502-0.062-0.989-0.124-1.466-0.188C46.763,50.272,48.169,47.44,49.56,44.648z M55.667,36.54c0.974,0.054,1.95,0.109,2.924,0.164
	c-0.362,2.192-0.523,4.69-0.687,7.251c-0.222,3.477-0.454,6.992-1.182,9.936c-3.057-0.242-6.016-0.518-8.677-0.829
	c0.95-2.577,2.411-5.517,3.854-8.414C53.266,41.903,54.647,39.122,55.667,36.54z M47.028,53.684c-0.868,2.62-1.125,4.83-0.219,6.312
	c0.263,0.429,0.614,0.778,1.047,1.059c-1.346-0.171-2.254-0.646-2.746-1.451c-0.814-1.331-0.472-3.521,0.441-6.117
	C46.032,53.555,46.524,53.62,47.028,53.684z M47.45,59.604c-0.783-1.28-0.492-3.357,0.343-5.824
	c2.707,0.327,5.698,0.609,8.736,0.852c-0.998,3.473-2.82,5.988-6.365,6.419C48.835,60.876,47.938,60.402,47.45,59.604z
	 M57.275,54.692c0.513,0.04,1.024,0.079,1.537,0.116c-0.965,3.233-2.667,5.609-5.86,6.18C55.188,59.795,56.486,57.502,57.275,54.692
	z M57.461,53.949c0.742-3.04,0.978-6.578,1.191-9.946c0.164-2.576,0.325-5.086,0.688-7.256c0.524,0.03,1.048,0.06,1.568,0.089
	c-0.348,2.161-0.506,4.609-0.666,7.119c-0.226,3.545-0.462,7.132-1.225,10.111C58.498,54.028,57.979,53.989,57.461,53.949z
	 M72.048,36.993c-0.488-0.03-0.986-0.06-1.498-0.09c0.572-1.663,0.738-3.182,0.24-4.456c-0.378-0.965-1.134-1.724-2.24-2.28
	c0.127,0.027,0.251,0.049,0.383,0.082c1.888,0.471,3.031,1.279,3.498,2.471C72.885,33.879,72.661,35.356,72.048,36.993z
	 M66.594,30.248c1.888,0.471,3.031,1.279,3.498,2.471c0.44,1.127,0.244,2.554-0.33,4.136c-2.492-0.148-5.214-0.309-8.016-0.47
	c0.462-2.544,1.227-4.583,2.654-5.627c0.439-0.321,0.936-0.539,1.488-0.661C66.117,30.138,66.352,30.188,66.594,30.248z
	 M63.958,30.153c-1.63,1.192-2.472,3.43-2.965,6.189c-0.52-0.03-1.04-0.06-1.563-0.089c0.465-2.483,1.229-4.468,2.632-5.495
	c0.602-0.44,1.31-0.686,2.128-0.753C64.112,30.056,64.032,30.099,63.958,30.153z M65.511,45.887
	c1.906-2.903,3.842-5.861,4.854-8.496c0.508,0.03,1.003,0.06,1.489,0.089c-1.037,2.514-2.899,5.355-4.633,7.996
	c-2.29,3.489-4.332,6.606-4.561,8.838c-0.521-0.033-1.043-0.068-1.566-0.104C61.41,52.139,63.483,48.975,65.511,45.887z
	 M73.544,52.562c-0.584,0.889-1.301,1.631-2.135,2.239c-2.515-0.12-5.229-0.266-7.999-0.439c0.234-2.067,2.363-5.312,4.438-8.474
	c1.873-2.853,3.777-5.759,4.804-8.359c0.826,0.05,1.612,0.098,2.354,0.143C75.839,42.379,76.182,48.546,73.544,52.562z
	 M62.656,55.07c0.039,0.353,0.135,0.679,0.306,0.971c0.15,0.257,0.359,0.474,0.61,0.663c-1.187-0.12-1.964-0.465-2.302-1.042
	c-0.118-0.201-0.182-0.437-0.208-0.696C61.597,55.002,62.128,55.037,62.656,55.07z M63.608,55.662
	c-0.094-0.16-0.147-0.346-0.182-0.543c2.423,0.15,4.753,0.276,6.87,0.379c-1.269,0.663-2.763,1.062-4.471,1.199
	C64.687,56.569,63.939,56.225,63.608,55.662z M71.644,55.562c0.266,0.012,0.516,0.023,0.772,0.035
	c-0.689,0.337-1.442,0.6-2.257,0.789C70.684,56.146,71.184,55.878,71.644,55.562z M23.621,21.889
	c-0.798-2.166-7.058-5.656-11.061-7.704c3.994,1.113,10.463,3.229,14.025,6.049c0.14,0.252,0.921,1.876,1.662,7.454
	c-1.41,0.7-2.699,1.371-3.876,2.016C24.366,26.89,24.222,23.52,23.621,21.889z M15.196,25.792
	c-2.146-1.635-6.901-4.147-10.048-5.744c3.864,1.029,10.178,2.997,13.343,5.55c3.228,2.603,3.632,4.519,3.599,5.408
	c-1.182,0.704-2.227,1.378-3.139,2.025C18.409,30.701,17.303,27.397,15.196,25.792z M18.55,34.892
	c-0.286,0.093-0.567,0.208-0.843,0.339c0.248-0.211,0.511-0.425,0.791-0.643C18.518,34.698,18.534,34.796,18.55,34.892z
	 M70.537,58.289c-2.459,0.557-5.246,1.189-8.093,2.061c-4.296,1.314-10.866,2.882-17.767,2.882c-0.001,0-0.002,0-0.002,0
	c-7.072,0-12.785-1.627-16.979-4.834c-4.992-3.815-7.711-6.623-9.499-9.147c0.618,0.332,1.317,0.527,2.117,0.527
	c3.434,0,4.858-3.186,5.295-6.076c1.528,0.81,4.153,2.256,6.578,3.845c-1.101,4.86-1.507,9.192,0.068,11.285
	c0.69,0.918,1.726,1.354,3.052,1.352c0.399-0.006,0.765-0.073,1.114-0.167c0.377,0.1,0.777,0.167,1.225,0.167
	c3.138-0.05,4.66-2.931,5.538-7.055c0.513,0.086,1.051,0.17,1.604,0.252c-0.951,2.755-1.261,5.077-0.318,6.617
	c0.762,1.245,2.224,1.861,4.471,1.885c0.041,0,0.08,0,0.12,0c0.383,0,0.732-0.041,1.084-0.079c0.356,0.043,0.729,0.074,1.136,0.079
	c0.041,0,0.08,0,0.12,0c4.711,0,6.981-2.956,8.163-7.021c0.248,0.018,0.496,0.035,0.744,0.052c0.024,0.414,0.119,0.793,0.314,1.127
	c0.675,1.151,2.348,1.617,5.114,1.419c0.04-0.003,0.075-0.01,0.115-0.013c0.645,0.064,1.377,0.074,2.223,0.013
	c2.272-0.161,4.188-0.771,5.749-1.801c2.202,0.094,3.969,0.158,5.073,0.195C76.743,56.875,73.859,57.536,70.537,58.289z
	 M80.18,55.152c-0.012-0.001-0.021-0.007-0.033-0.008c-1.496-0.043-3.332-0.108-5.382-0.194c0.66-0.568,1.249-1.221,1.746-1.978
	c2.734-4.164,2.471-10.327,1.655-15.106c1.582,0.098,2.738,0.17,3.333,0.207c-0.214,0.479-0.401,0.902-0.508,1.229
	c-0.556,1.705-0.094,2.631,0.491,3.804c0.647,1.3,1.535,3.081,1.451,7.112C82.885,52.517,81.882,54.035,80.18,55.152z"/>
</svg>
