<?xml version="1.0" encoding="utf-8"?>
<!-- Generator: Adobe Illustrator 15.1.0, SVG Export Plug-In . SVG Version: 6.00 Build 0)  -->
<!DOCTYPE svg PUBLIC "-//W3C//DTD SVG 1.1//EN" "http://www.w3.org/Graphics/SVG/1.1/DTD/svg11.dtd">
<svg version="1.1" id="Layer_1" xmlns="http://www.w3.org/2000/svg" xmlns:xlink="http://www.w3.org/1999/xlink" x="0px" y="0px"
	 width="100px" height="100px" viewBox="0 0 100 100" enable-background="new 0 0 100 100" xml:space="preserve">
<path d="M57.639,8.684c-0.146-0.237-0.454-0.311-0.688-0.167c-2.007,1.219-3.969,4.08-5.455,6.697
	c-0.018-0.015-0.034-0.033-0.052-0.048c0.512-2.516,2.119-9.462,4.694-11.974c0.197-0.193,0.201-0.509,0.009-0.707
	c-0.193-0.198-0.509-0.2-0.708-0.009c-2.691,2.626-4.318,9.313-4.907,12.15c-0.241-0.087-0.485-0.147-0.735-0.147
	c-0.428,0-0.842,0.146-1.24,0.393c-0.543-2.679-2.188-9.693-4.959-12.396c-0.197-0.191-0.514-0.189-0.707,0.009
	c-0.193,0.198-0.189,0.514,0.009,0.707c2.751,2.684,4.399,10.44,4.785,12.432c-0.084,0.095-0.167,0.198-0.249,0.304
	c-1.53-2.963-3.94-6.979-6.423-8.486c-0.236-0.144-0.543-0.068-0.687,0.168c-0.144,0.236-0.068,0.543,0.168,0.687
	c2.408,1.462,4.849,5.707,6.308,8.603c-0.871,1.562-1.541,3.783-1.901,6.379c-0.07-0.006-0.138-0.021-0.209-0.021
	c-1.336,0-2.418,1.083-2.418,2.418c0,1.306,1.037,2.363,2.331,2.41c0.039,5.123,0.715,22.528,1.876,35.328l-3.477-0.793
	c-0.268-0.063-0.537,0.106-0.599,0.376s0.107,0.537,0.376,0.599l3.796,0.866c0.068,0.712,0.137,1.408,0.207,2.084l-3.423-0.78
	c-0.272-0.065-0.538,0.107-0.599,0.376c-0.062,0.27,0.107,0.537,0.376,0.599l3.758,0.856c0.08,0.726,0.162,1.424,0.246,2.093
	l-3.423-0.78c-0.274-0.064-0.538,0.107-0.599,0.376c-0.062,0.27,0.107,0.537,0.376,0.599l3.783,0.862
	c0.38,2.825,0.795,5.009,1.243,6.185l-4.271,7.318c-0.09,0.154-0.091,0.346-0.002,0.501S44.502,85,44.682,85h9.094
	c0.008,0,0.016,0,0.02,0c0.276,0,0.5-0.224,0.5-0.5c0-0.14-0.057-0.266-0.148-0.355l-4.16-7.129c0.496-1.169,0.984-3.438,1.45-6.396
	l3.229-0.736c0.27-0.062,0.438-0.329,0.376-0.599c-0.062-0.269-0.326-0.442-0.599-0.376L51.6,69.557
	c0.1-0.673,0.197-1.376,0.295-2.104l3.128-0.713c0.27-0.062,0.438-0.329,0.376-0.599c-0.062-0.269-0.329-0.442-0.599-0.376
	l-2.768,0.631c0.087-0.681,0.172-1.38,0.257-2.096l3.092-0.705c0.27-0.062,0.438-0.329,0.376-0.599
	c-0.061-0.268-0.326-0.441-0.599-0.376l-2.747,0.627c1.462-12.853,2.527-30.249,2.579-35.246c1.03-0.277,1.793-1.208,1.793-2.327
	c0-1.222-0.91-2.223-2.088-2.385c-0.438-3.154-1.331-5.76-2.484-7.298c1.443-2.587,3.362-5.469,5.26-6.621
	C57.706,9.228,57.781,8.92,57.639,8.684z M45.552,84l2.746-4.704l-0.526,3.206c-0.044,0.272,0.14,0.53,0.413,0.574
	c0.027,0.005,0.055,0.007,0.082,0.007c0.241,0,0.453-0.174,0.493-0.419l0.415-2.531l0.331,2.516
	c0.035,0.272,0.283,0.463,0.561,0.431c0.274-0.036,0.467-0.287,0.431-0.562l-0.448-3.413L52.904,84H45.552z"/>
</svg>
