<?xml version="1.0" encoding="utf-8"?>
<!-- Generator: Adobe Illustrator 15.1.0, SVG Export Plug-In . SVG Version: 6.00 Build 0)  -->
<!DOCTYPE svg PUBLIC "-//W3C//DTD SVG 1.1//EN" "http://www.w3.org/Graphics/SVG/1.1/DTD/svg11.dtd">
<svg version="1.1" id="Layer_1" xmlns="http://www.w3.org/2000/svg" xmlns:xlink="http://www.w3.org/1999/xlink" x="0px" y="0px"
	 width="100px" height="100px" viewBox="0 0 100 100" enable-background="new 0 0 100 100" xml:space="preserve">
<g>
	<circle cx="50.517" cy="43.777" r="3.582"/>
	<path d="M50.482,2C27.369,2,8.633,20.736,8.633,43.85c0,23.114,18.735,41.85,41.849,41.85c23.114,0,41.851-18.735,41.851-41.85
		C92.333,20.736,73.597,2,50.482,2z M79.241,43.027c-3.188,1.164-14.396,3.28-21.871,3.08c-0.179,0.545-0.419,1.062-0.721,1.553
		c4.972,5.583,10.581,15.516,11.747,18.705c1.726,4.717-1.543,8.312-6.261,10.035c-4.72,1.724-9.104,0.928-10.83-3.793
		c-1.165-3.187-3.282-14.396-3.079-21.87c-0.545-0.181-1.063-0.421-1.553-0.721c-5.584,4.971-15.517,10.583-18.705,11.747
		c-4.716,1.725-8.312-1.543-10.035-6.26c-1.724-4.719-0.928-9.104,3.793-10.83c3.187-1.164,14.396-3.281,21.869-3.08
		c0.181-0.546,0.42-1.062,0.723-1.553c-4.973-5.584-10.583-15.517-11.748-18.704c-1.725-4.718,1.113-8.156,5.832-9.879
		c4.719-1.724,9.533-1.084,11.258,3.636c1.165,3.188,3.28,14.396,3.079,21.87c0.545,0.179,1.065,0.421,1.554,0.721
		c5.583-4.972,15.516-10.583,18.704-11.747c4.718-1.726,8.155,1.114,9.879,5.832C84.6,36.488,83.961,41.302,79.241,43.027z"/>
</g>
</svg>
