<?xml version="1.0" encoding="utf-8"?>
<!-- Generator: Adobe Illustrator 15.0.2, SVG Export Plug-In . SVG Version: 6.00 Build 0)  -->
<!DOCTYPE svg PUBLIC "-//W3C//DTD SVG 1.1//EN" "http://www.w3.org/Graphics/SVG/1.1/DTD/svg11.dtd">
<svg version="1.1" id="Layer_1" xmlns="http://www.w3.org/2000/svg" xmlns:xlink="http://www.w3.org/1999/xlink" x="0px" y="0px"
	 width="100px" height="100px" viewBox="0 0 100 100" enable-background="new 0 0 100 100" xml:space="preserve">
<g>
	<circle cx="50.019" cy="49.96" r="1.968"/>
	<path d="M50,27c-12.703,0-23,10.297-23,23s10.297,23,23,23s23-10.297,23-23S62.703,27,50,27z M65.805,49.548
		c-1.752,0.64-7.912,1.804-12.02,1.692c-0.1,0.3-0.23,0.584-0.396,0.854c2.732,3.068,5.815,8.527,6.457,10.279
		c0.947,2.593-0.849,4.568-3.441,5.516c-2.594,0.947-5.004,0.51-5.951-2.084c-0.641-1.752-1.803-7.912-1.693-12.02
		c-0.299-0.1-0.584-0.23-0.853-0.396c-3.069,2.732-8.528,5.816-10.28,6.456c-2.593,0.948-4.568-0.848-5.516-3.439
		c-0.947-2.595-0.51-5.005,2.084-5.952c1.752-0.64,7.912-1.803,12.02-1.692c0.099-0.3,0.231-0.584,0.396-0.854
		c-2.733-3.068-5.815-8.527-6.456-10.279c-0.948-2.593,0.612-4.482,3.205-5.43c2.594-0.947,5.239-0.596,6.188,1.998
		c0.64,1.752,1.804,7.912,1.692,12.02c0.3,0.099,0.585,0.231,0.854,0.396c3.068-2.732,8.527-5.816,10.279-6.456
		c2.593-0.948,4.482,0.612,5.43,3.205C68.75,45.954,68.398,48.6,65.805,49.548z"/>
</g>
</svg>
