<?xml version="1.0" encoding="utf-8"?>
<!-- Generator: Adobe Illustrator 15.1.0, SVG Export Plug-In . SVG Version: 6.00 Build 0)  -->
<!DOCTYPE svg PUBLIC "-//W3C//DTD SVG 1.1//EN" "http://www.w3.org/Graphics/SVG/1.1/DTD/svg11.dtd">
<svg version="1.1" id="Layer_1" xmlns="http://www.w3.org/2000/svg" xmlns:xlink="http://www.w3.org/1999/xlink" x="0px" y="0px"
	 width="100px" height="100px" viewBox="0 0 100 100" enable-background="new 0 0 100 100" xml:space="preserve">
<path d="M73.525,65.272c-0.089-0.544-0.595-0.918-1.149-0.823c-0.545,0.09-0.913,0.604-0.823,1.149
	c0.013,0.078,1.252,7.916-2.656,12.231c-1.902,2.1-4.78,3.046-8.543,2.798c-3.561-0.229-6.332-1.725-8.472-4.555
	c0.236-0.342,0.376-0.755,0.376-1.202c0-1.171-0.949-2.12-2.119-2.12c-0.062,0-0.119,0.013-0.179,0.019
	c-2.515-5.565-3.131-13.336-2.883-21.007c0.194-0.097,0.374-0.218,0.528-0.366c2.37,2.559,7.394,5.989,17.566,10.313
	c0.063,0.027,0.13,0.04,0.195,0.04c0.194,0,0.379-0.114,0.46-0.305c0.108-0.254-0.01-0.548-0.265-0.655
	c-10.688-4.544-15.384-7.983-17.414-10.28c0.064-0.203,0.109-0.415,0.109-0.639c0-0.757-0.4-1.417-0.997-1.792
	c0.314-4.791,0.902-9.378,1.501-13.193c0.104-0.032,0.204-0.069,0.3-0.116c2.105,2.614,7.084,6.252,18.109,10.939
	c0.063,0.027,0.13,0.04,0.195,0.04c0.194,0,0.379-0.114,0.46-0.304c0.108-0.254-0.01-0.548-0.265-0.656
	c-11.288-4.799-15.893-8.366-17.73-10.656c0.264-0.354,0.426-0.788,0.426-1.263c0-0.702-0.345-1.319-0.87-1.705
	c0.456-2.536,0.855-4.425,1.074-5.415c4.882-0.382,11.202-3.169,11.202-9.965c0-6.821-5.807-14.036-11.296-14.036
	c-5.566,0-11.454,7.214-11.454,14.036c0,6.949,4.748,9.687,9.491,9.987c-0.244,1.11-0.614,2.885-1.022,5.123
	c-0.796,0.305-1.364,1.071-1.364,1.975c0,0.646,0.295,1.218,0.751,1.606c-0.258,1.615-0.513,3.373-0.747,5.226
	c-1.591,2.262-6.033,5.975-18.055,11.086c-0.254,0.108-0.373,0.401-0.264,0.655c0.081,0.19,0.266,0.305,0.46,0.305
	c0.065,0,0.132-0.013,0.196-0.04c10.004-4.253,15.027-7.642,17.446-10.186c-0.235,2.068-0.437,4.23-0.58,6.441
	c-0.712,0.342-1.207,1.063-1.207,1.906c0,0.768,0.412,1.435,1.023,1.807c-1.575,2.26-6.005,5.981-18.074,11.112
	c-0.254,0.107-0.373,0.401-0.264,0.655c0.081,0.19,0.266,0.305,0.46,0.305c0.065,0,0.132-0.013,0.196-0.04
	c10.302-4.379,15.32-7.842,17.653-10.41c-0.111,7.511,0.662,15.033,3.259,20.585c-0.157,0.296-0.254,0.628-0.254,0.986
	c0,0.372,0.104,0.717,0.272,1.021c-1.88,0.729-5.986,1.875-14.959,3.365c-0.272,0.045-0.457,0.303-0.411,0.575
	c0.041,0.244,0.252,0.418,0.493,0.418c0.027,0,0.055-0.002,0.083-0.007c9.232-1.533,13.521-2.714,15.535-3.572
	c0.305,0.188,0.658,0.301,1.039,0.313c0.035,0.048,0.065,0.103,0.1,0.15c2.491,3.372,5.874,5.219,10.055,5.489
	c0.434,0.028,0.858,0.042,1.273,0.042c3.795,0,6.778-1.173,8.881-3.493C74.928,74.149,73.585,65.633,73.525,65.272z M40.914,15.786
	c0-6.085,5.413-12.036,9.454-12.036c4.059,0,9.296,5.836,9.296,12.036c0,5.988-6.043,7.814-9.735,7.999
	c-0.012-0.003-0.021-0.012-0.033-0.015c-0.178-0.042-0.35-0.019-0.514,0.031c-0.026,0-0.057,0.002-0.083,0.002
	C47.332,23.803,40.914,23.225,40.914,15.786z"/>
</svg>
