<?xml version="1.0" encoding="utf-8"?>
<!-- Generator: Adobe Illustrator 15.1.0, SVG Export Plug-In . SVG Version: 6.00 Build 0)  -->
<!DOCTYPE svg PUBLIC "-//W3C//DTD SVG 1.1//EN" "http://www.w3.org/Graphics/SVG/1.1/DTD/svg11.dtd">
<svg version="1.1" id="Layer_1" xmlns="http://www.w3.org/2000/svg" xmlns:xlink="http://www.w3.org/1999/xlink" x="0px" y="0px"
	 width="100px" height="100px" viewBox="0 0 100 100" enable-background="new 0 0 100 100" xml:space="preserve">
<g>
	<circle cx="51.348" cy="43.85" r="5.459"/>
	<circle cx="33.152" cy="43.85" r="5.459"/>
	<path d="M51.234,2C28.121,2,9.384,20.736,9.384,43.85c0,23.114,18.736,41.85,41.85,41.85c23.113,0,41.85-18.735,41.85-41.85
		C93.084,20.736,74.348,2,51.234,2z M51.234,80.241c-20.099,0-36.392-16.292-36.392-36.392c0-20.098,16.293-36.392,36.392-36.392
		c20.098,0,36.391,16.293,36.391,36.392C87.625,63.949,71.332,80.241,51.234,80.241z"/>
	<circle cx="69.543" cy="43.85" r="5.459"/>
</g>
</svg>
