<?xml version="1.0" encoding="utf-8"?>
<svg version="1.1"
  xmlns="http://www.w3.org/2000/svg"
	xmlns:xlink="http://www.w3.org/1999/xlink"
	x="0px" y="0px"
  width="200px" height="200px" viewBox="0 0 100 100" enable-background="new 0 0 100 100" xml:space="preserve">
<clipPath id="clip0">
<path fill-rule="evenodd" d="M-4 52C-4 52-4-4-4-4-4-4 52-4 52-4 52-4 52 52 52 52 52 52-4 52-4 52ZM 24 0C 10.75 0-0 10.75-0 24-0 37.25 10.75 48 24 48 37.25 48 48 37.25 48 24 48 10.75 37.25 0 24 0Z"/>
</clipPath>
<circle clip-path="url(#clip0)" fill="none" cx="24.00" cy="24.00" r="24.00" stroke="rgb(255,255,255)" stroke-width="4.00px"/>
<path fill="rgb(255,255,255)" fill-rule="evenodd" d="M 24.49 41.98C 19.8 41.98 16 38.16 16 33.46 16 30.22 17.81 27.4 20.48 25.96 20.48 25.96 20.48 9.01 20.48 9.01 20.48 6.79 22.27 4.99 24.49 4.99 26.71 4.99 28.51 6.79 28.51 9.01 28.51 9.01 28.51 25.96 28.51 25.96 31.17 27.4 32.99 30.22 32.99 33.46 32.99 38.16 29.18 41.98 24.49 41.98ZM 26 27.56C 26 27.56 26 9.01 26 9.01 26 8.18 25.32 7.5 24.49 7.5 23.66 7.5 22.99 8.18 22.99 9.01 22.99 9.01 22.99 27.56 22.99 27.56 20.35 28.23 18.4 30.62 18.4 33.46 18.4 36.83 21.13 39.56 24.49 39.56 27.85 39.56 30.58 36.83 30.58 33.46 30.58 30.62 28.63 28.23 26 27.56ZM 24.49 37.23C 22.41 37.23 20.73 35.54 20.73 33.46 20.73 31.55 22.15 29.99 23.99 29.74 23.99 29.74 23.99 19.38 23.99 19.38 23.99 19.38 24.99 19.38 24.99 19.38 24.99 19.38 24.99 29.74 24.99 29.74 26.83 29.99 28.25 31.55 28.25 33.46 28.25 35.54 26.57 37.23 24.49 37.23Z"/>
</svg>