<?xml version="1.0" encoding="utf-8"?>
<!-- Generator: Adobe Illustrator 15.0.2, SVG Export Plug-In . SVG Version: 6.00 Build 0)  -->
<!DOCTYPE svg PUBLIC "-//W3C//DTD SVG 1.1//EN" "http://www.w3.org/Graphics/SVG/1.1/DTD/svg11.dtd">
<svg version="1.1" id="Layer_1" xmlns="http://www.w3.org/2000/svg" xmlns:xlink="http://www.w3.org/1999/xlink" x="0px" y="0px"
	 width="100px" height="100px" viewBox="0 0 100 100" enable-background="new 0 0 100 100" xml:space="preserve">
<path fill="#231F20" d="M51.234,2C28.121,2,9.384,20.736,9.384,43.85c0,23.114,18.736,41.85,41.851,41.85
	c23.113,0,41.851-18.735,41.851-41.85C93.084,20.736,74.348,2,51.234,2z M51.234,80.241c-20.101,0-36.394-16.292-36.394-36.392
	c0-20.098,16.293-36.392,36.394-36.392c20.098,0,36.391,16.293,36.391,36.392C87.625,63.949,71.332,80.241,51.234,80.241z
	 M56.488,52.586V13.75H46.113v38.836c-3.315,1.831-5.562,5.357-5.562,9.414c0,5.938,4.813,10.75,10.75,10.75
	c5.938,0,10.75-4.812,10.75-10.75C62.051,57.943,59.805,54.416,56.488,52.586z M51.301,61.167c-4.663,0-8.442,4.804-8.442,0.142
	c0-3.186,2.765-5.955,5.368-7.394v-38.08h6.148v38.08c2.604,1.438,5.368,4.208,5.368,7.394
	C59.743,65.971,55.964,61.167,51.301,61.167z M34.625,19.125h7v2.5h-7V19.125z M34.625,26.125h7v2.5h-7V26.125z M34.625,33.125h7
	v2.5h-7V33.125z M34.625,40.125h7v2.5h-7V40.125z M34.625,47.125h7v2.5h-7V47.125z"/>
</svg>
