<?xml version="1.0" encoding="utf-8"?>
<!DOCTYPE svg PUBLIC "-//W3C//DTD SVG 1.1//EN" "http://www.w3.org/Graphics/SVG/1.1/DTD/svg11.dtd">
<svg xmlns="http://www.w3.org/2000/svg"
	xmlns:xlink="http://www.w3.org/1999/xlink"
	x="0px" y="0px"
  width="100px" height="100px"
  viewBox="0 0 56 56"
  enable-background="new 0 0 100 100"
  xml:space="preserve">
<clipPath id="clip0">
<path fill-rule="evenodd" d="M-4 52C-4 52-4-4-4-4-4-4 52-4 52-4 52-4 52 52 52 52 52 52-4 52-4 52ZM 24 0C 10.75 0-0 10.75-0 24-0 37.25 10.75 48 24 48 37.25 48 48 37.25 48 24 48 10.75 37.25 0 24 0Z"/>
</clipPath>
<circle clip-path="url(#clip0)" fill="none" cx="24.00" cy="24.00" r="24.00" stroke="#000000" stroke-width="4.00px"/>
<path fill="#000000" fill-rule="evenodd" d="M 24.5 42.99C 19.81 42.99 16 39.32 16 34.81 16 32.01 17.48 29.55 19.72 28.07 19.72 28.07 19.72 9.62 19.72 9.62 19.72 7.07 21.86 5.02 24.5 5.02 27.14 5.02 29.28 7.07 29.28 9.62 29.28 9.62 29.28 28.07 29.28 28.07 31.52 29.55 33 32.01 33 34.81 33 39.32 29.19 42.99 24.5 42.99ZM 29.05 29.17C 29.03 29.15 29 29.14 28.98 29.12 28.74 28.94 28.48 28.78 28.22 28.63 28.22 28.63 28.22 28.62 28.22 28.62 28.22 28.62 28.22 9.62 28.22 9.62 28.22 7.64 26.55 6.04 24.5 6.04 22.45 6.04 20.78 7.64 20.78 9.62 20.78 9.62 20.78 28.62 20.78 28.62 20.78 28.62 20.78 28.63 20.78 28.63 20.52 28.78 20.26 28.94 20.02 29.12 20 29.14 19.97 29.15 19.95 29.17 18.2 30.48 17.06 32.52 17.06 34.81 17.06 38.76 20.4 41.97 24.5 41.97 28.6 41.97 31.94 38.76 31.94 34.81 31.94 32.52 30.8 30.48 29.05 29.17ZM 24.5 38.52C 22.37 38.52 20.65 36.86 20.65 34.81 20.65 33.22 22.2 31.87 23.68 31.35 23.68 31.35 23.68 17.01 23.68 17.01 23.68 17.01 25.32 17.01 25.32 17.01 25.32 17.01 25.32 31.35 25.32 31.35 26.8 31.87 28.35 33.22 28.35 34.81 28.35 36.86 26.63 38.52 24.5 38.52ZM 15 22C 15 22 18 22 18 22 18 22 18 23 18 23 18 23 15 23 15 23 15 23 15 22 15 22ZM 15 17C 15 17 18 17 18 17 18 17 18 18 18 18 18 18 15 18 15 18 15 18 15 17 15 17ZM 15 12C 15 12 18 12 18 12 18 12 18 13 18 13 18 13 15 13 15 13 15 13 15 12 15 12Z"/>
</svg>