<?xml version="1.0" encoding="utf-8"?>
<!-- Generator: Adobe Illustrator 15.1.0, SVG Export Plug-In . SVG Version: 6.00 Build 0)  -->
<!DOCTYPE svg PUBLIC "-//W3C//DTD SVG 1.1//EN" "http://www.w3.org/Graphics/SVG/1.1/DTD/svg11.dtd">
<svg version="1.1" id="Layer_1" xmlns="http://www.w3.org/2000/svg" xmlns:xlink="http://www.w3.org/1999/xlink" x="0px" y="0px"
	 width="100px" height="100px" viewBox="0 0 100 100" enable-background="new 0 0 100 100" xml:space="preserve">
<path fill="none" stroke="#000000" stroke-width="2" stroke-miterlimit="10" d="M73.5,45.917c0,15.05-9.552,27.25-21.333,27.25
	c-11.782,0-21.333-12.2-21.333-27.25s7.29-25.204,19.072-25.204C61.687,20.713,73.5,30.867,73.5,45.917z"/>
<path fill="none" stroke="#000000" stroke-width="2" stroke-miterlimit="10" d="M76.936,49.227
	C74.942,64.144,61.451,74.65,46.805,72.692C32.157,70.736,21.898,57.058,23.89,42.14C25.883,27.222,38.352,19.043,53,21
	C67.646,22.956,78.928,34.308,76.936,49.227z"/>
<path fill="none" stroke="#000000" stroke-width="2" stroke-miterlimit="10" d="M26.898,58.807c0,0,4.806-10.436,11.371-11.371
	C44.834,46.5,51.333,57.001,57,56.334s9.159-15.883,15.913-16.775"/>
</svg>
