<?xml version="1.0" encoding="utf-8"?>
<!-- Generator: Adobe Illustrator 15.1.0, SVG Export Plug-In . SVG Version: 6.00 Build 0)  -->
<!DOCTYPE svg PUBLIC "-//W3C//DTD SVG 1.1//EN" "http://www.w3.org/Graphics/SVG/1.1/DTD/svg11.dtd">
<svg version="1.1" id="Layer_1" xmlns="http://www.w3.org/2000/svg" xmlns:xlink="http://www.w3.org/1999/xlink" x="0px" y="0px"
	 width="100px" height="100px" viewBox="0 0 100 100" enable-background="new 0 0 100 100" xml:space="preserve">
<path d="M55.995,3.304c-2.185-0.508-4.391-0.777-6.574-0.777c-0.299,0-0.592,0.015-0.887,0.024
	c-0.229-0.004-0.463-0.024-0.691-0.024c-18.916,0-32.727,12.353-35.186,31.471C9.853,55.81,24.371,75.884,45.02,78.747
	c1.075,0.149,2.159,0.232,3.242,0.284c1.395,0.26,2.818,0.403,4.268,0.403c4.766,0,9.276-1.458,13.293-4.046
	c11.453-5.611,19.968-17.107,21.757-31.015C90.136,24.484,76.664,7.186,55.995,3.304z M79.663,29.747
	c-4.66,1.478-8.076,7.32-11.385,12.998c-2.941,5.045-5.981,10.262-9.224,10.659c-3.301,0.403-7.093-2.625-11.102-5.833
	c-4.688-3.752-9.537-7.634-14.68-6.872c-3.278,0.485-6.219,2.579-8.676,5.133c-0.258-2.055-0.4-4.161-0.4-6.312
	c0-20.846,9.525-34.449,24.344-34.968c1.647,0.029,3.321,0.143,4.997,0.375c0.731,0.102,1.451,0.225,2.165,0.36
	C66.302,7.806,76.298,16.547,79.663,29.747z M80.863,39.52c0,14.955-6.506,27.912-15.928,34.079
	c-4.577,2.24-9.646,3.493-14.943,3.493c-0.507,0-1.017-0.03-1.526-0.053c-11.508-2.223-20.796-13.732-23.479-28.653
	c2.4-2.804,5.343-5.23,8.579-5.709c4.286-0.632,8.783,2.97,13.137,6.455c4.345,3.477,8.439,6.769,12.594,6.256
	c4.228-0.516,7.376-5.917,10.709-11.636c3.075-5.277,6.249-10.705,10.104-12.045C80.599,34.172,80.863,36.779,80.863,39.52z
	 M14.641,34.252c1.769-13.75,9.751-23.788,21.336-27.798c-8.649,5.752-13.78,17.498-13.78,33.065c0,2.84,0.23,5.61,0.662,8.284
	c-2.325,2.858-4.068,5.906-5.059,7.816C14.896,49.199,13.666,41.839,14.641,34.252z M18.908,57.885
	c0.545-1.137,2.139-4.289,4.453-7.443c2.36,10.897,8.153,19.904,15.741,24.855C30.365,72.356,23.24,66.013,18.908,57.885z
	 M85.595,44.119c-1.112,8.651-4.959,16.317-10.525,22.079c4.842-7.075,7.794-16.43,7.794-26.678
	c0-11.471-4.376-20.746-10.769-27.141C81.861,19.691,87.238,31.342,85.595,44.119z"/>
</svg>
